<svg width="692" height="316" viewBox="0 0 692 316" fill="none" xmlns="http://www.w3.org/2000/svg">
<g opacity="0.8">
<mask id="mask0_376_2203" style="mask-type:alpha" maskUnits="userSpaceOnUse" x="0" y="0" width="346" height="316">
<rect width="346" height="315.168" fill="white"/>
</mask>
<g mask="url(#mask0_376_2203)">
<path d="M128.527 458.735H10.2773L69.4023 374.271L10.2773 315.146L69.4023 256.021L10.2773 196.896H128.527V129.325H204.545V6.85156L276.34 78.6462L348.134 6.85156L419.929 78.6462L483.277 15.298V129.325H567.741V196.896H677.545L618.42 256.021L685.991 323.593L618.42 391.164L685.991 458.735H567.741V517.86H483.277V623.441L419.929 560.092L348.134 631.887L276.34 560.092L204.545 631.887V517.86H128.527V458.735Z" stroke="white" stroke-width="40"/>
<path d="M348.134 593.878L297.456 543.2V420.726L225.661 492.521H153.866V420.726L200.322 374.271H103.188L52.5093 323.592L103.188 272.914H200.322L153.866 226.459V154.664H225.661L297.456 226.459V95.5389L348.134 44.8604L398.813 95.5389V226.459L474.831 163.11H533.956V226.459L487.5 272.914H584.634L635.313 323.592L584.634 374.271H487.5L533.956 420.726V492.521H474.831L403.036 420.726V543.2L352.357 593.878" stroke="white" stroke-width="40"/>
</g>
<mask id="mask1_376_2203" style="mask-type:alpha" maskUnits="userSpaceOnUse" x="346" y="0" width="346" height="316">
<rect width="346" height="315.168" transform="matrix(-1 0 0 1 692 0)" fill="white"/>
</mask>
<g mask="url(#mask1_376_2203)">
<path d="M563.473 458.734H681.723L622.598 374.27L681.723 315.145L622.598 256.02L681.723 196.895H563.473V129.324H487.455V6.85059L415.66 78.6452L343.866 6.85059L272.071 78.6452L208.723 15.297V129.324H124.259V196.895H14.455L73.58 256.02L6.00861 323.592L73.58 391.163L6.00861 458.734H124.259V517.859H208.723V623.44L272.071 560.091L343.866 631.886L415.66 560.091L487.455 631.886V517.859H563.473V458.734Z" stroke="white" stroke-width="40"/>
<path d="M343.866 593.875L394.544 543.197V420.723L466.339 492.518H538.134V420.723L491.678 374.268H588.812L639.491 323.59L588.812 272.911H491.678L538.134 226.456V154.661H466.339L394.544 226.456V95.536L343.866 44.8574L293.187 95.536V226.456L217.169 163.107H158.044V226.456L204.5 272.911H107.366L56.6873 323.59L107.366 374.268H204.5L158.044 420.723V492.518H217.169L288.964 420.723V543.197L339.643 593.875" stroke="white" stroke-width="40"/>
</g>
</g>
</svg>
