<svg width="190" height="250" viewBox="0 0 190 250" fill="none" xmlns="http://www.w3.org/2000/svg">
<rect width="190" height="250" fill="#AFB7D3"/>
<g clip-path="url(#clip0_804_671)">
<path d="M95.5185 213L93.2295 211.147C92.8847 210.856 84.4746 204.045 75.9552 194.273C64.2216 180.777 58.2637 168.68 58.2637 158.29V157.255C58.2637 136.711 74.9746 120 95.5185 120C116.062 120 132.773 136.711 132.773 157.255V158.29C132.773 168.68 126.815 180.795 115.063 194.273C106.544 204.045 98.1522 210.875 97.789 211.147L95.5185 213ZM95.5185 127.266C78.9892 127.266 65.5293 140.725 65.5293 157.255V158.29C65.5293 175.854 88.1436 197.106 95.5185 203.555C102.875 197.106 125.507 175.854 125.507 158.29V157.255C125.507 140.725 112.048 127.266 95.5185 127.266ZM99.6962 163.431V155.075H91.3407V163.431H99.6962ZM116.425 163.431V155.075H108.069V163.431H116.425ZM108.052 146.72H99.6962V155.075H108.052V146.72ZM82.9852 163.431V155.075H74.6298V163.431H82.9852ZM91.3407 146.72H82.9852V155.075H91.3407V146.72Z" fill="#FFEF99"/>
</g>
<path fill-rule="evenodd" clip-rule="evenodd" d="M9.79264 212.416C4.09395 211.782 0.634628 211.5 0 211.5V204.5C1.11537 204.5 5.03105 204.843 10.5667 205.459C16.2213 206.088 23.8071 207.031 32.4413 208.287C49.6873 210.795 71.2185 214.569 89.9132 219.621C108.524 224.651 127.749 230.934 143.587 236.779C157.077 241.758 168.386 246.517 174.714 249.977C171.5 250 161 250 158.17 250C153.273 247.949 147.526 245.694 141.163 243.346C125.501 237.566 106.476 231.349 88.0868 226.379C69.7815 221.431 48.5627 217.705 31.4337 215.214C22.8804 213.969 15.3725 213.037 9.79264 212.416Z" fill="#FFEF99"/>
<defs>
<clipPath id="clip0_804_671">
<rect width="93" height="93" fill="white" transform="translate(49 120)"/>
</clipPath>
</defs>
</svg>
