<svg width="14" height="18" viewBox="0 0 14 18" fill="none" xmlns="http://www.w3.org/2000/svg">
<path fill-rule="evenodd" clip-rule="evenodd" d="M3.20748 13.6931C4.75205 15.4649 6.23556 16.976 6.75432 17.4653C7.21199 17.0176 8.75324 15.4649 10.2977 13.6931C12.4283 11.2496 13.5085 9.05314 13.5085 7.16948V6.98179C13.5085 3.25718 10.4788 0.227478 6.75432 0.227478C3.0297 0.227478 0 3.25718 0 6.98179V7.16948C0 9.05314 1.08018 11.2464 3.20748 13.6931ZM6.75445 9.68428C8.51473 9.68428 9.94172 8.25729 9.94172 6.49701C9.94172 4.73673 8.51473 3.30975 6.75445 3.30975C4.99417 3.30975 3.56718 4.73673 3.56718 6.49701C3.56718 8.25729 4.99417 9.68428 6.75445 9.68428Z" fill="currentColor"/>
</svg>
