<svg width="45" height="46" viewBox="0 0 45 46" fill="none" xmlns="http://www.w3.org/2000/svg">
<path fill-rule="evenodd" clip-rule="evenodd" d="M41.22 45.067L29.245 32.2151L33.025 28.6735L45 41.5254L41.22 45.067Z" fill="black"/>
<path fill-rule="evenodd" clip-rule="evenodd" d="M18.8178 31.5994C26.4881 31.5994 32.4625 25.5688 32.4625 18.4269C32.4625 11.2851 26.4881 5.25453 18.8178 5.25453C11.1476 5.25453 5.1732 11.2851 5.1732 18.4269C5.1732 25.5688 11.1476 31.5994 18.8178 31.5994ZM18.8178 36.7869C29.2107 36.7869 37.6357 28.5669 37.6357 18.4269C37.6357 8.28704 29.2107 0.0670166 18.8178 0.0670166C8.42504 0.0670166 0 8.28704 0 18.4269C0 28.5669 8.42504 36.7869 18.8178 36.7869Z" fill="black"/>
</svg>
