<svg width="33" height="29" viewBox="0 0 33 29" fill="none" xmlns="http://www.w3.org/2000/svg">
<path d="M29.0285 4.08337C28.2962 3.35075 27.4268 2.76958 26.4698 2.37306C25.5129 1.97655 24.4872 1.77246 23.4513 1.77246C22.4155 1.77246 21.3898 1.97655 20.4328 2.37306C19.4759 2.76958 18.6064 3.35075 17.8741 4.08337L16.3544 5.60312L14.8346 4.08337C13.3555 2.60421 11.3493 1.77323 9.25745 1.77323C7.1656 1.77323 5.15943 2.60421 3.68026 4.08337C2.2011 5.56254 1.37012 7.56871 1.37012 9.66056C1.37012 11.7524 2.2011 13.7586 3.68026 15.2377L5.20001 16.7575L16.3544 27.9119L27.5088 16.7575L29.0285 15.2377C29.7611 14.5055 30.3423 13.636 30.7388 12.6791C31.1353 11.7221 31.3394 10.6964 31.3394 9.66056C31.3394 8.62471 31.1353 7.59901 30.7388 6.64206C30.3423 5.68511 29.7611 4.81566 29.0285 4.08337V4.08337Z" fill="currentColor" stroke="#FC5600" stroke-width="2" stroke-linecap="round" stroke-linejoin="round"/>
</svg>
