<svg width="36" height="36" viewBox="0 0 36 36" fill="none" xmlns="http://www.w3.org/2000/svg">
<path d="M18.189 7.35645C16.1123 7.35645 14.0822 7.97226 12.3555 9.12601C10.6288 10.2798 9.28295 11.9196 8.48823 13.8383C7.69351 15.7569 7.48557 17.8681 7.89072 19.9049C8.29586 21.9417 9.29589 23.8126 10.7643 25.2811C12.2328 26.7495 14.1037 27.7495 16.1405 28.1547C18.1773 28.5598 20.2885 28.3519 22.2071 27.5572C24.1258 26.7625 25.7656 25.4166 26.9194 23.6899C28.0732 21.9632 28.689 19.9331 28.689 17.8564C28.6858 15.0726 27.5786 12.4037 25.6101 10.4353C23.6417 8.46682 20.9728 7.35957 18.189 7.35645ZM18.189 24.8564C16.8045 24.8564 15.4511 24.4459 14.3 23.6767C13.1488 22.9076 12.2516 21.8143 11.7218 20.5352C11.192 19.2561 11.0534 17.8487 11.3235 16.4908C11.5936 15.1329 12.2603 13.8857 13.2392 12.9067C14.2182 11.9277 15.4655 11.261 16.8233 10.9909C17.2752 10.9011 17.7326 10.8564 18.189 10.8564C18.189 15.8194 18.189 20.5352 18.189 24.8564ZM16.439 3.27311V2.10645C16.439 1.64232 16.6233 1.1972 16.9515 0.869008C17.2797 0.54082 17.7248 0.356445 18.189 0.356445C18.6531 0.356445 19.0982 0.54082 19.4264 0.869008C19.7546 1.1972 19.939 1.64232 19.939 2.10645V3.27311C19.939 3.73724 19.7546 4.18236 19.4264 4.51055C19.0982 4.83874 18.6531 5.02311 18.189 5.02311C17.7248 5.02311 17.2797 4.83874 16.9515 4.51055C16.6233 4.18236 16.439 3.73724 16.439 3.27311ZM27.2634 8.78182C26.9353 8.45364 26.7509 8.00853 26.7509 7.54442C26.7509 7.08032 26.9353 6.63521 27.2634 6.30703L28.0886 5.48205C28.2509 5.31883 28.4439 5.18924 28.6564 5.10071C28.8689 5.01219 29.0968 4.96646 29.327 4.96616C29.5572 4.96585 29.7852 5.01097 29.998 5.09893C30.2107 5.18689 30.404 5.31596 30.5668 5.47875C30.7296 5.64154 30.8586 5.83485 30.9466 6.0476C31.0345 6.26036 31.0796 6.48837 31.0793 6.71858C31.079 6.9488 31.0333 7.17669 30.9447 7.38919C30.8562 7.6017 30.7266 7.79465 30.5634 7.95699L29.7382 8.78197C29.4101 9.11013 28.9649 9.29449 28.5008 9.29449C28.0367 9.29449 27.5916 9.10998 27.2634 8.78182ZM35.689 17.8564C35.689 18.3206 35.5046 18.7657 35.1764 19.0939C34.8482 19.4221 34.4031 19.6064 33.939 19.6064H32.7723C32.3082 19.6064 31.8631 19.4221 31.5349 19.0939C31.2067 18.7657 31.0223 18.3206 31.0223 17.8564C31.0223 17.3923 31.2067 16.9472 31.5349 16.619C31.8631 16.2908 32.3082 16.1064 32.7723 16.1064H33.939C34.4031 16.1064 34.8482 16.2908 35.1764 16.619C35.5046 16.9472 35.689 17.3923 35.689 17.8564ZM30.5634 27.7559C30.8901 28.0844 31.0732 28.529 31.0726 28.9923C31.072 29.4556 30.8877 29.8998 30.5601 30.2274C30.2325 30.555 29.7883 30.7394 29.325 30.74C28.8617 30.7407 28.4171 30.5575 28.0886 30.2308L27.2634 29.4059C27.0988 29.2438 26.9678 29.0508 26.8781 28.8379C26.7884 28.6251 26.7417 28.3965 26.7408 28.1655C26.7398 27.9345 26.7846 27.7056 26.8726 27.492C26.9606 27.2784 27.09 27.0843 27.2533 26.921C27.4167 26.7576 27.6108 26.6282 27.8244 26.5402C28.038 26.4523 28.2669 26.4075 28.4979 26.4084C28.7289 26.4093 28.9574 26.456 29.1703 26.5457C29.3832 26.6354 29.5762 26.7664 29.7382 26.9311L30.5634 27.7559ZM19.939 32.4398V33.6064C19.939 34.0706 19.7546 34.5157 19.4264 34.8439C19.0982 35.1721 18.6531 35.3564 18.189 35.3564C17.7248 35.3564 17.2797 35.1721 16.9515 34.8439C16.6233 34.5157 16.439 34.0706 16.439 33.6064V32.4398C16.439 31.9756 16.6233 31.5305 16.9515 31.2023C17.2797 30.8742 17.7248 30.6898 18.189 30.6898C18.6531 30.6898 19.0982 30.8742 19.4264 31.2023C19.7546 31.5305 19.939 31.9756 19.939 32.4398ZM9.11449 26.9309C9.44265 27.2591 9.62701 27.7042 9.62701 28.1683C9.62701 28.6324 9.44265 29.0775 9.11449 29.4057L8.28951 30.2308C7.96102 30.5576 7.51638 30.7407 7.05307 30.7401C6.58977 30.7395 6.14562 30.5551 5.818 30.2276C5.49039 29.9 5.30605 29.4558 5.3054 28.9925C5.30476 28.5292 5.48786 28.0846 5.81457 27.756L6.63955 26.9309C6.96773 26.6028 7.41284 26.4184 7.87694 26.4184C8.34105 26.4184 8.7863 26.6028 9.11449 26.9309ZM5.35563 17.8564C5.35563 18.3206 5.17126 18.7657 4.84307 19.0939C4.51488 19.4221 4.06976 19.6064 3.60563 19.6064H2.43896C1.97484 19.6064 1.52972 19.4221 1.20153 19.0939C0.873339 18.7657 0.688965 18.3206 0.688965 17.8564C0.688965 17.3923 0.873339 16.9472 1.20153 16.619C1.52972 16.2908 1.97484 16.1064 2.43896 16.1064H3.60563C4.06976 16.1064 4.51488 16.2908 4.84307 16.619C5.17126 16.9472 5.35563 17.3923 5.35563 17.8564ZM5.81457 7.95699C5.65134 7.79465 5.52174 7.6017 5.4332 7.38919C5.34466 7.17669 5.29892 6.9488 5.2986 6.71858C5.29828 6.48837 5.34339 6.26036 5.43134 6.0476C5.51928 5.83485 5.64835 5.64154 5.81113 5.47875C5.97391 5.31596 6.16721 5.18689 6.37996 5.09893C6.5927 5.01097 6.82071 4.96585 7.05093 4.96616C7.28114 4.96646 7.50903 5.01219 7.72154 5.10071C7.93406 5.18924 8.12701 5.31883 8.28936 5.48205L9.11434 6.30703C9.27902 6.46904 9.40998 6.66206 9.49969 6.87494C9.5894 7.08783 9.63607 7.31637 9.63701 7.54738C9.63795 7.77839 9.59314 8.0073 9.50517 8.2209C9.4172 8.43451 9.28781 8.62859 9.12446 8.79194C8.96111 8.95529 8.76703 9.08468 8.55342 9.17265C8.33982 9.26062 8.11091 9.30543 7.8799 9.30449C7.64888 9.30355 7.42035 9.25688 7.20746 9.16717C6.99458 9.07746 6.80156 8.9465 6.63955 8.78182L5.81457 7.95699Z" fill="#D1AC0B"/>
</svg>
