<svg width="29" height="17" viewBox="0 0 29 17" fill="none" xmlns="http://www.w3.org/2000/svg">
<path d="M23.7608 9.906C23.3072 9.3496 23.437 9.10205 23.7608 8.6047C23.7666 8.59902 27.5108 3.5732 27.8966 1.86878L27.8989 1.86765C28.0906 1.24652 27.8989 0.790039 26.9719 0.790039H23.9046C23.1237 0.790039 22.7637 1.18179 22.5708 1.6201C22.5708 1.6201 21.0091 5.2515 18.7997 7.60544C18.0867 8.28561 17.757 8.50363 17.3677 8.50363C17.176 8.50363 16.878 8.28561 16.878 7.66448V1.86765C16.878 1.12275 16.6594 0.790039 16.0129 0.790039H11.1898C10.7 0.790039 10.4089 1.13751 10.4089 1.46113C10.4089 2.16743 11.5136 2.32981 11.6282 4.31697V8.62854C11.6282 9.5733 11.4516 9.74703 11.06 9.74703C10.0173 9.74703 7.48653 6.10087 5.98676 1.92783C5.684 1.1182 5.38825 0.791175 4.60154 0.791175H1.53302C0.65747 0.791175 0.480957 1.18293 0.480957 1.62124C0.480957 2.39567 1.52367 6.24622 5.3298 11.3334C7.86644 14.8058 11.4388 16.6873 14.6885 16.6873C16.6418 16.6873 16.8803 16.2695 16.8803 15.5507C16.8803 12.2327 16.7038 11.9193 17.6822 11.9193C18.1357 11.9193 18.9166 12.1373 20.7402 13.8122C22.8244 15.7982 23.167 16.6873 24.3336 16.6873H27.4009C28.2753 16.6873 28.7183 16.2695 28.4635 15.4451C27.8802 13.7111 23.9385 10.1445 23.7608 9.906Z" fill="currentColor"/>
</svg>
