<svg width="27" height="5" viewBox="0 0 27 5" fill="none" xmlns="http://www.w3.org/2000/svg">
<path d="M2.76996 0.145508C1.66539 0.145508 0.769958 1.04094 0.769958 2.14551C0.769958 3.25008 1.66539 4.14551 2.76996 4.14551L2.76996 0.145508ZM24.77 4.14551C25.8745 4.14551 26.77 3.25008 26.77 2.14551C26.77 1.04094 25.8745 0.145508 24.77 0.145508V4.14551ZM3.26996 4.14551C4.37453 4.14551 5.26996 3.25008 5.26996 2.14551C5.26996 1.04094 4.37453 0.145508 3.26996 0.145508V4.14551ZM13.27 0.145508C12.1654 0.145508 11.27 1.04094 11.27 2.14551C11.27 3.25008 12.1654 4.14551 13.27 4.14551V0.145508ZM14.27 4.14551C15.3745 4.14551 16.27 3.25008 16.27 2.14551C16.27 1.04094 15.3745 0.145508 14.27 0.145508V4.14551ZM24.27 0.145508C23.1654 0.145508 22.27 1.04094 22.27 2.14551C22.27 3.25008 23.1654 4.14551 24.27 4.14551V0.145508ZM2.76996 4.14551H3.26996V0.145508H2.76996L2.76996 4.14551ZM13.27 4.14551H14.27V0.145508H13.27V4.14551ZM24.27 4.14551H24.77V0.145508H24.27V4.14551Z" fill="black"/>
</svg>
