<svg width="27" height="25" viewBox="0 0 27 25" fill="none" xmlns="http://www.w3.org/2000/svg">
<path d="M13.4964 5.96873C9.91191 5.96873 7.01904 8.75451 7.01904 12.2063C7.01904 15.6581 9.91191 18.4439 13.4964 18.4439C17.0809 18.4439 19.9738 15.6581 19.9738 12.2063C19.9738 8.75451 17.0809 5.96873 13.4964 5.96873ZM13.4964 16.2603C11.1783 16.2603 9.2866 14.4386 9.2866 12.2063C9.2866 9.97404 11.1783 8.15234 13.4964 8.15234C15.8145 8.15234 17.7062 9.97404 17.7062 12.2063C17.7062 14.4386 15.8145 16.2603 13.4964 16.2603ZM20.2391 4.25955C19.4022 4.25955 18.7263 4.91037 18.7263 5.7163C18.7263 6.52223 19.4022 7.17306 20.2391 7.17306C21.076 7.17306 21.7518 6.52527 21.7518 5.7163C21.7521 5.52493 21.7131 5.33539 21.6372 5.15854C21.5613 4.98169 21.4498 4.821 21.3093 4.68568C21.1688 4.55036 21.0019 4.44307 20.8183 4.36995C20.6346 4.29682 20.4378 4.25931 20.2391 4.25955ZM26.1227 12.2063C26.1227 10.5275 26.1385 8.86399 26.0406 7.18826C25.9427 5.24187 25.4816 3.51444 24.0036 2.09114C22.5224 0.664796 20.7318 0.223816 18.7105 0.129537C16.9672 0.0352589 15.2397 0.0504651 13.4996 0.0504651C11.7563 0.0504651 10.0288 0.0352589 8.28862 0.129537C6.2674 0.223816 4.47357 0.667838 2.99555 2.09114C1.51438 3.51748 1.05644 5.24187 0.95854 7.18826C0.860637 8.86703 0.876428 10.5306 0.876428 12.2063C0.876428 13.882 0.860637 15.5486 0.95854 17.2244C1.05644 19.1708 1.51753 20.8982 2.99555 22.3215C4.47673 23.7478 6.2674 24.1888 8.28862 24.2831C10.0319 24.3774 11.7594 24.3622 13.4996 24.3622C15.2429 24.3622 16.9704 24.3774 18.7105 24.2831C20.7318 24.1888 22.5256 23.7448 24.0036 22.3215C25.4848 20.8951 25.9427 19.1708 26.0406 17.2244C26.1417 15.5486 26.1227 13.8851 26.1227 12.2063ZM23.3436 19.3776C23.113 19.9311 22.8351 20.3447 22.3898 20.7705C21.9445 21.1993 21.5181 21.4669 20.9434 21.6889C19.2822 22.3245 15.3376 22.1816 13.4964 22.1816C11.6552 22.1816 7.70752 22.3245 6.04633 21.692C5.47155 21.4699 5.04204 21.2023 4.59989 20.7735C4.15459 20.3447 3.87668 19.9341 3.64613 19.3806C2.98923 17.7779 3.13767 13.9794 3.13767 12.2063C3.13767 10.4333 2.98923 6.63172 3.64613 5.03202C3.87668 4.47852 4.15459 4.06491 4.59989 3.63913C5.04519 3.21336 5.47155 2.94269 6.04633 2.72068C7.70752 2.0881 11.6552 2.23104 13.4964 2.23104C15.3376 2.23104 19.2853 2.0881 20.9465 2.72068C21.5213 2.94269 21.9508 3.21032 22.3929 3.63913C22.8382 4.06795 23.1162 4.47852 23.3467 5.03202C24.0036 6.63172 23.8552 10.4333 23.8552 12.2063C23.8552 13.9794 24.0036 17.7779 23.3436 19.3776Z" fill="currentColor"/>
</svg>
