<svg width="381" height="374" viewBox="0 0 381 374" fill="none" xmlns="http://www.w3.org/2000/svg">
<path d="M253.727 65.8554C253.727 65.8554 268.897 58.1301 272.728 45.3721C276.554 32.614 274.351 28.8986 271.995 18.8137C271.995 18.8137 285.58 38.8193 306.185 49.2033C306.185 49.2033 283.358 46.617 274.523 50.178C274.523 50.178 279.695 70.3815 287.352 80.7655C287.352 80.7655 274.672 67.081 253.727 65.8554Z" stroke="#D1AC0B" stroke-width="3" stroke-miterlimit="10"/>
<path d="M279.954 89.5956C279.954 89.5956 304.227 98.8601 311.065 81.9958C317.899 65.1363 301.402 64.1857 299.515 65.6092C299.515 65.6092 302.106 70.1208 298.337 72.0219C294.569 73.9231 289.852 68.4609 293.625 64.4221C297.394 60.3834 318.607 54.6847 316.017 78.9076C316.017 78.9076 334.716 73.3682 332.762 89.668C332.762 89.668 322.63 79.4577 309.83 88.4134C297.03 97.3691 295.962 107.584 295.962 107.584C295.962 107.584 290.618 95.2508 279.954 89.5956Z" stroke="#D1AC0B" stroke-width="3" stroke-miterlimit="10"/>
<path d="M335.956 95.0434C335.956 95.0434 335.778 85.0116 346.624 83.2214C346.624 83.2166 328.49 74.2609 335.956 95.0434Z" stroke="#D1AC0B" stroke-width="3" stroke-miterlimit="10"/>
<path d="M317.822 49.541C317.822 49.541 325.464 62.2604 321.198 69.426C321.198 69.426 331.685 65.6623 336.488 70.6805C336.492 70.6805 330.799 56.1661 317.822 49.541Z" stroke="#D1AC0B" stroke-width="3" stroke-miterlimit="10"/>
<path d="M208.738 45.5361C208.738 45.5361 220.628 -0.299244 235.54 14.3455C235.54 14.3455 248.622 26.9781 210.97 44.5179C210.247 44.8557 209.504 45.1935 208.738 45.5361Z" stroke="#D1AC0B" stroke-width="3" stroke-miterlimit="10"/>
<path d="M212.512 33.7431C212.512 33.7431 219.465 20.4494 227.423 20.9995C233.6 21.429 232.518 31.8419 226.102 36.0254" stroke="#D1AC0B" stroke-width="3" stroke-miterlimit="10"/>
<path d="M210.975 44.5181C210.975 44.5181 261.901 53.1071 258.286 24.913C256.069 7.64815 232.288 31.0218 232.288 31.0218" stroke="#D1AC0B" stroke-width="3" stroke-miterlimit="10"/>
<path d="M211.295 44.6337C211.295 44.6337 221.466 50.8341 232.154 54.9115C239.538 57.7246 247.167 59.5245 251.869 57.5702C263.917 52.5568 259.224 41.0774 249.666 41.5503" stroke="#D1AC0B" stroke-width="3" stroke-miterlimit="10"/>
<path d="M228.376 33.9553C228.376 33.9553 247.209 23.1129 252.338 29.2603C257.146 35.0217 247.549 43.5335 237.589 45.092" stroke="#D1AC0B" stroke-width="3" stroke-miterlimit="10"/>
<path d="M240.884 44.5518C240.884 44.5518 253.114 46.4963 248.68 52.0502C244.245 57.5993 232.154 54.9116 232.154 54.9116" stroke="#D1AC0B" stroke-width="3" stroke-miterlimit="10"/>
<path d="M318.66 234.856C318.66 234.856 364.146 246.837 349.613 261.863C349.613 261.863 337.076 275.046 319.67 237.105C319.34 236.376 319 235.628 318.66 234.856Z" stroke="#D1AC0B" stroke-width="3" stroke-miterlimit="10"/>
<path d="M330.363 238.663C330.363 238.663 343.556 245.669 343.01 253.689C342.583 259.914 332.25 258.823 328.098 252.357" stroke="#D1AC0B" stroke-width="3" stroke-miterlimit="10"/>
<path d="M319.675 237.109C319.675 237.109 311.228 288.991 339.131 284.783C351.682 282.892 333.069 258.587 333.069 258.587" stroke="#D1AC0B" stroke-width="3" stroke-miterlimit="10"/>
<path d="M319.56 237.433C319.56 237.433 313.407 247.682 309.36 258.452C306.569 265.892 304.782 273.579 306.722 278.317C311.697 290.458 323.089 285.729 322.625 276.098" stroke="#D1AC0B" stroke-width="3" stroke-miterlimit="10"/>
<path d="M330.153 254.645C330.153 254.645 340.913 273.622 334.812 278.79C329.094 283.635 320.647 273.965 319.101 263.928" stroke="#D1AC0B" stroke-width="3" stroke-miterlimit="10"/>
<path d="M319.637 267.248C319.637 267.248 317.707 279.572 312.195 275.104C306.688 270.635 309.356 258.452 309.356 258.452" stroke="#D1AC0B" stroke-width="3" stroke-miterlimit="10"/>
<path d="M158.133 331.559C158.133 331.559 143.499 372.203 131.173 357.63C131.173 357.63 120.341 345.041 156.016 332.298C156.706 332.052 157.41 331.805 158.133 331.559Z" stroke="#D1AC0B" stroke-width="3" stroke-miterlimit="10"/>
<path d="M153.717 341.953C153.717 341.953 146.29 353.447 139.103 352.269C133.524 351.357 135.377 341.987 141.559 338.73" stroke="#D1AC0B" stroke-width="3" stroke-miterlimit="10"/>
<path d="M156.021 332.298C156.021 332.298 110.462 320.172 111.396 346.098C111.966 361.978 135.526 342.754 135.526 342.754" stroke="#D1AC0B" stroke-width="3" stroke-miterlimit="10"/>
<path d="M155.733 332.162C155.733 332.162 147.013 325.663 137.637 321.055C131.163 317.87 124.383 315.588 119.944 316.968C108.58 320.5 111.884 331.328 120.609 331.714" stroke="#D1AC0B" stroke-width="3" stroke-miterlimit="10"/>
<path d="M139.323 340.418C139.323 340.418 121.304 348.674 117.157 342.653C113.269 337.012 122.697 330.087 131.882 329.518" stroke="#D1AC0B" stroke-width="3" stroke-miterlimit="10"/>
<path d="M128.841 329.726C128.841 329.726 117.89 326.922 122.381 322.251C126.873 317.585 137.638 321.055 137.638 321.055" stroke="#D1AC0B" stroke-width="3" stroke-miterlimit="10"/>
<path d="M56.1511 156.783C56.1511 156.783 9.39555 151.784 21.5393 134.741C21.5393 134.741 31.9784 119.821 54.8198 154.713C55.2556 155.384 55.701 156.074 56.1511 156.783Z" stroke="#D1AC0B" stroke-width="3" stroke-miterlimit="10"/>
<path d="M44.0167 154.785C44.0167 154.785 29.9335 149.844 29.2823 141.834C28.7795 135.615 39.1563 135.137 44.2226 140.903" stroke="#D1AC0B" stroke-width="3" stroke-miterlimit="10"/>
<path d="M54.815 154.708C54.815 154.708 55.6339 102.682 28.5067 110.499C11.8952 115.286 38.3854 135.484 38.3854 135.484" stroke="#D1AC0B" stroke-width="3" stroke-miterlimit="10"/>
<path d="M54.8822 154.37C54.8822 154.37 59.4506 143.311 61.8496 132.053C63.5065 124.275 64.1338 116.405 61.5097 112.014C54.7913 100.762 44.2277 107.15 46.1192 116.603" stroke="#D1AC0B" stroke-width="3" stroke-miterlimit="10"/>
<path d="M41.8521 138.949C41.8521 138.949 28.3963 121.804 33.6637 115.773C38.5959 110.122 48.3836 118.407 51.4004 128.101" stroke="#D1AC0B" stroke-width="3" stroke-miterlimit="10"/>
<path d="M50.3809 124.902C50.3809 124.902 50.4622 112.424 56.5724 116.014C62.6826 119.604 61.8494 132.053 61.8494 132.053" stroke="#D1AC0B" stroke-width="3" stroke-miterlimit="10"/>
<path d="M183.881 50.9356C183.881 50.9356 203.375 52.2481 208.235 25.5209C212.463 2.26302 187.596 -0.984391 175.951 4.02907C165.243 8.63722 160.589 21.3229 171.196 22.1818C187.003 23.4605 176.674 7.95203 176.674 7.95203C176.674 7.95203 177.732 6.76983 181.194 5.94471C191.317 3.5369 202.623 16.0199 197.911 31.1278C193.199 46.2358 183.881 50.9356 183.881 50.9356Z" stroke="#D1AC0B" stroke-width="3" stroke-miterlimit="10"/>
<path d="M140.205 3.03515C140.205 3.03515 141.665 53.7633 129.263 65.344C129.263 65.344 154.532 52.1613 146.765 25.6464C138.998 -0.863683 140.205 3.03515 140.205 3.03515Z" stroke="#D1AC0B" stroke-width="3" stroke-miterlimit="10"/>
<path d="M189.301 20.7439C189.301 20.7439 166.584 51.1094 147.574 26.819L140.204 3.03516C140.204 3.03516 145.95 22.8477 158.468 27.5186C170.99 32.1895 184.896 23.7838 189.301 20.7439Z" stroke="#D1AC0B" stroke-width="3" stroke-miterlimit="10"/>
<path d="M148.388 36.2814C148.388 36.2814 153.717 52.3978 163.108 53.6862C163.108 53.6862 157.893 36.402 155.111 33.7144" stroke="#D1AC0B" stroke-width="3" stroke-miterlimit="10"/>
<path d="M217.951 371.831C217.951 371.831 221.5 330.811 232.571 322.652C232.571 322.652 210.984 330.889 214.772 352.988C218.564 375.088 217.951 371.831 217.951 371.831Z" stroke="#D1AC0B" stroke-width="3" stroke-miterlimit="10"/>
<path d="M180.036 352.921C180.036 352.921 201.172 330.594 214.226 351.97L217.951 371.831C217.951 371.831 215.165 355.324 205.511 350.378C195.857 345.432 183.866 350.889 180.036 352.921Z" stroke="#D1AC0B" stroke-width="3" stroke-miterlimit="10"/>
<path d="M214.456 344.269C214.456 344.269 211.659 330.778 204.213 328.852C204.213 328.852 206.808 343.275 208.8 345.702" stroke="#D1AC0B" stroke-width="3" stroke-miterlimit="10"/>
<path d="M132.016 17.2406C132.016 17.2406 118.397 9.41878 104.778 25.5014C91.1595 41.5841 105.511 60.0263 98.7734 67.1098C92.0359 74.1933 87.4963 71.3898 87.4963 71.3898C87.4963 71.3898 94.818 68.4368 89.4022 64.4559C83.9863 60.4702 80.7636 65.0446 83.2536 70.3572C85.7437 75.6699 96.1396 77.8847 100.239 73.899C104.338 69.9133 109.169 66.5211 109.461 54.2746C109.461 54.2746 125.422 57.0781 128.644 43.6493C131.867 30.2206 130.55 19.3058 130.55 19.3058C130.55 19.3058 122.352 46.4528 114.006 42.3224C105.659 38.1919 117.372 16.7966 132.016 17.2406Z" stroke="#D1AC0B" stroke-width="3" stroke-miterlimit="10"/>
<path d="M49.2026 63.3657C49.2026 63.3657 58.7797 56.0071 67.696 60.3065C67.696 60.3065 62.7638 47.9779 66.8436 43.2974C66.8436 43.2974 56.012 51.0419 49.2026 63.3657Z" stroke="#D1AC0B" stroke-width="3" stroke-miterlimit="10"/>
<path d="M87.5492 48.4746C87.5492 48.4746 81.147 45.9993 83.0672 37.9314C84.9874 29.8636 76.4494 29.5403 77.3017 36.9615C78.1541 44.3876 87.5492 48.4746 87.5492 48.4746Z" stroke="#D1AC0B" stroke-width="3" stroke-miterlimit="10"/>
<path d="M71.6894 65.4453C66.5704 43.6688 87.5586 45.1695 87.5586 45.1695C79.0302 45.3142 74.0501 60.7841 79.4564 73.103C84.8579 85.4219 99.4103 84.9346 99.4103 84.9346L85.5714 100.076C85.5714 100.076 88.4159 78.0586 73.2792 75.4191C58.1426 72.7797 60.307 85.3978 60.307 85.3978C60.307 85.3978 64.382 83.2795 65.3493 86.8551C66.3166 90.4306 61.3508 95.8735 57.3955 89.2387C54.6373 84.6113 52.3771 70.4395 61.3412 65.9568C70.1905 61.532 77.5218 68.987 79.4564 73.103" stroke="#D1AC0B" stroke-width="3" stroke-miterlimit="10"/>
<path d="M29.1382 97.6345C29.1382 97.6345 44.3275 87.7282 57.9079 100.153C71.4883 112.578 71.4883 123.02 71.4883 123.02L75.4197 89.1661C75.4197 89.1661 61.5376 100.284 54.393 95.0626C47.2437 89.8417 45.4001 73.8604 45.4001 73.8604C45.4001 73.8604 32.3561 93.2628 29.1382 97.6345Z" stroke="#D1AC0B" stroke-width="3" stroke-miterlimit="10"/>
<path d="M337.244 292.32C337.244 292.32 321.719 301.686 308.58 288.793C295.435 275.9 295.794 265.463 295.794 265.463L290.694 299.158C290.694 299.158 303.81 287.003 310.773 292.475C317.735 297.947 320.168 315.506 320.168 315.506C320.168 315.506 334.39 295.495 337.244 292.32Z" stroke="#D1AC0B" stroke-width="3" stroke-miterlimit="10"/>
<path d="M98.3617 342.682C98.3617 342.682 91.4614 327.415 104.515 316.63C117.569 305.846 127.007 307.255 127.007 307.255L96.9491 299.085C96.9491 299.085 106.627 312.423 100.947 318.276C95.2682 324.129 79.0781 324.563 79.0781 324.563C79.0781 324.563 95.7711 339.724 98.3617 342.682Z" stroke="#D1AC0B" stroke-width="3" stroke-miterlimit="10"/>
<path d="M11.66 193.474C11.66 193.474 11.9665 185.609 21.5532 186.212C27.4144 186.584 29.5405 199.646 18.3784 199.501C7.21622 199.356 -5.0712 179.442 10.0223 164.455C24.2587 150.312 54.4076 159.509 53.5361 185.368C53.5361 185.368 31.9205 161.859 16.0368 171.379C0.153149 180.9 11.66 193.474 11.66 193.474Z" stroke="#D1AC0B" stroke-width="3" stroke-miterlimit="10"/>
<path d="M364.266 197.783C364.266 197.783 368.111 206.831 358.836 204.312C349.56 201.793 350.096 187.033 361 189.445C371.904 191.858 377.09 212.23 364.026 227.483C350.963 242.736 312.774 221.538 325.603 198.14C325.603 198.14 342.583 226.923 359.525 219.478C373.546 213.321 364.266 197.783 364.266 197.783Z" stroke="#D1AC0B" stroke-width="3" stroke-miterlimit="10"/>
<path d="M8.14551 217.905C8.14551 217.905 53.79 224.105 64.1094 238.504C64.1094 238.499 58.751 204.905 8.14551 217.905Z" stroke="#D1AC0B" stroke-width="3" stroke-miterlimit="10"/>
<path d="M53.546 200.5C53.546 200.5 43.7343 216.293 38.2849 215.468C38.2849 215.468 32.6967 214.783 29.699 214.783C26.7014 214.783 35.2824 204.071 53.546 200.5Z" stroke="#D1AC0B" stroke-width="3" stroke-miterlimit="10"/>
<path d="M22.066 175.92C22.066 175.92 45.9131 203.11 13.8872 216.568C13.8872 216.568 27.2425 214.648 29.6943 214.783C29.6943 214.783 29.6942 211.077 35.9624 206.956C35.9672 206.956 47.6848 185.807 22.066 175.92Z" stroke="#D1AC0B" stroke-width="3" stroke-miterlimit="10"/>
<path d="M373 169.507C373 169.507 328.179 158.829 319.311 143.479C319.311 143.479 321.374 177.445 373 169.507Z" stroke="#D1AC0B" stroke-width="3" stroke-miterlimit="10"/>
<path d="M326.125 182.342C326.125 182.342 337.426 167.596 342.77 168.952C342.77 168.952 348.262 170.187 351.246 170.482C354.234 170.781 344.647 180.591 326.125 182.342Z" stroke="#D1AC0B" stroke-width="3" stroke-miterlimit="10"/>
<path d="M351.485 211.024C351.485 211.024 333.978 180.499 367.158 170.27C367.158 170.27 353.678 170.863 351.25 170.482C351.25 170.482 350.891 174.173 344.25 177.652C344.25 177.652 326.949 198.652 351.485 211.024Z" stroke="#D1AC0B" stroke-width="3" stroke-miterlimit="10"/>
<path d="M19.973 225.577C19.973 225.577 13.5946 239.175 21.309 252.628C29.0186 266.076 54.9725 260.546 60.9056 262.79C66.8386 265.033 69.9512 269.666 66.6902 271.755C66.6902 271.755 64.1714 267.272 60.3118 269.362C56.457 271.456 59.718 277.43 64.0181 277.13C68.3183 276.831 77.3638 268.165 65.2057 257.853C53.0475 247.542 35.2533 251.204 28.3769 244.7C23.1622 239.773 18.3113 232.347 19.973 225.577Z" stroke="#D1AC0B" stroke-width="3" stroke-miterlimit="10"/>
<path d="M15.2993 227.864C15.2993 227.864 36.1344 229.307 42.0387 236.405C49.8488 245.79 46.832 250.239 46.832 250.239L37.9875 248.787C37.9875 248.787 36.3498 229.606 15.2993 227.864Z" stroke="#D1AC0B" stroke-width="3" stroke-miterlimit="10"/>
<path d="M35.4404 286.897C35.4404 286.897 42.944 295.225 46.3774 286.511C49.8108 277.796 48.9202 274.081 48.9202 274.081C48.9202 274.081 41.7996 286.897 35.4404 286.897Z" stroke="#D1AC0B" stroke-width="3" stroke-miterlimit="10"/>
<path d="M81.9896 267.673C81.9896 267.673 84.4078 281.898 71.8139 285.999C59.22 290.101 47.1384 280.875 50.1935 273.825C50.1935 273.825 44.5958 290.356 51.8457 293.816C59.0955 297.276 65.2009 292.919 65.2009 292.919C65.2009 292.919 61.394 302.487 68.6343 307.916C75.4771 313.045 86.5675 309.711 88.6027 304.456C90.6378 299.201 88.3489 297.15 84.4079 297.15C80.4669 297.15 81.2282 303.814 81.2282 303.814C81.2282 303.814 69.2711 301.913 69.9415 293.802C70.315 289.309 76.3966 283.181 83.771 283.051C91.1453 282.921 97.6338 285.102 97.6338 285.102L81.9896 267.673Z" stroke="#D1AC0B" stroke-width="3" stroke-miterlimit="10"/>
<path d="M44.5098 299.462C44.5098 299.462 51.9321 304.244 59.158 299.65C59.158 299.65 54.7813 309.938 59.1628 316.326C59.1628 316.326 46.0517 303.255 44.5098 299.462Z" stroke="#D1AC0B" stroke-width="3" stroke-miterlimit="10"/>
<path d="M278.043 347.748C278.043 347.748 287.405 341.62 279.422 336.809C271.435 331.998 267.652 332.283 267.652 332.283C267.652 332.283 279.063 341.427 278.043 347.748Z" stroke="#D1AC0B" stroke-width="3" stroke-miterlimit="10"/>
<path d="M266.68 298.366C266.68 298.366 281.002 298.245 282.999 311.423C284.996 324.606 274.021 335.144 267.604 330.975C267.604 330.975 282.899 339.193 287.453 332.539C292.006 325.885 288.717 319.11 288.717 319.11C288.717 319.11 297.48 324.427 303.954 318.102C310.074 312.118 308.589 300.552 303.767 297.686C298.945 294.82 296.326 297.691 295.938 300.687C295.43 304.629 304.222 304.919 304.222 304.919C304.222 304.919 298.174 316.509 290.34 314.54C285.997 313.45 280.969 306.42 282.027 299.061C283.085 291.702 286.26 285.603 286.26 285.603L266.68 298.366Z" stroke="#D1AC0B" stroke-width="3" stroke-miterlimit="10"/>
<path d="M291.805 340.742C291.805 340.742 297.681 334.126 294.338 326.203C294.338 326.203 303.714 332.206 310.672 328.876C310.672 328.876 295.77 339.82 291.805 340.742Z" stroke="#D1AC0B" stroke-width="3" stroke-miterlimit="10"/>
<path d="M312.914 98.9568C312.914 98.9568 313.474 104.047 318.152 102.161C322.826 100.274 319.086 91.6079 312.727 95C306.368 98.3922 301.325 121.742 332.02 122.408C332.02 122.408 321.346 143.142 343.125 150.544C364.908 157.946 369.213 153.864 369.213 153.864C369.213 153.864 338.566 150.037 341.86 130.384C341.86 130.384 345.366 122.326 353.554 131.474C361.743 140.623 362.274 160.889 362.274 160.889C362.274 160.889 373.791 120.309 351.596 113.177C329.401 106.045 314.436 117.24 312.08 107.078C310.529 100.38 312.914 98.9568 312.914 98.9568Z" stroke="#D1AC0B" stroke-width="3" stroke-miterlimit="10"/>
<path d="M267.331 309.571C267.331 309.571 263.352 310.873 265.636 314.362C267.92 317.851 274.241 313.368 270.468 308.76C266.694 304.157 247.162 303.935 251.735 329.002C251.735 329.002 233.361 323.771 231.058 342.711C228.755 361.65 232.739 364.468 232.739 364.468C232.739 364.468 230.708 338.918 246.99 338.329C246.99 338.329 254.024 339.84 248.062 348.014C242.1 356.192 225.963 359.995 225.963 359.995C225.963 359.995 260.364 362.61 262.385 343.381C264.405 324.153 252.951 313.846 260.699 310.246C265.794 307.862 267.331 309.571 267.331 309.571Z" stroke="#D1AC0B" stroke-width="3" stroke-miterlimit="10"/>
<path d="M186.897 323.052C186.897 323.052 157.634 350.248 176.133 366.475C180.323 370.152 186.634 372.179 194.583 365.235C194.583 365.235 184.599 364.82 186.921 357.79C189.244 350.759 201.038 346.913 201.038 355.951C201.038 364.989 188.583 374.022 173.47 370.34C158.358 366.659 155.039 350.764 159.851 340.385C164.669 330.015 176.248 323.289 186.897 323.052Z" stroke="#D1AC0B" stroke-width="3" stroke-miterlimit="10"/>
<path d="M229.635 193.238C229.635 193.238 242.952 210.121 235.942 225.606C235.942 225.606 246.184 226.962 246.457 216.37C246.726 205.779 229.635 193.238 229.635 193.238Z" stroke="#D1AC0B" stroke-width="3" stroke-miterlimit="10"/>
<path d="M253.09 162.906C253.09 162.906 258.257 193.571 231.627 193.788C231.627 193.788 252.707 203.371 256.801 189.296C261.704 172.446 253.09 162.906 253.09 162.906Z" stroke="#D1AC0B" stroke-width="3" stroke-miterlimit="10"/>
<path d="M270.18 213.832C270.18 213.832 263.261 197.798 233.509 195.009C233.509 195.004 249.594 216.095 270.18 213.832Z" stroke="#D1AC0B" stroke-width="3" stroke-miterlimit="10"/>
<path d="M137.556 189.32C137.556 189.32 112.512 185.493 113.915 159.688C113.915 159.688 106.732 176.692 113.977 184.379C121.223 192.061 137.556 189.32 137.556 189.32Z" stroke="#D1AC0B" stroke-width="3" stroke-miterlimit="10"/>
<path d="M140.511 224.168C140.511 224.168 121.634 208.911 140.305 189.783C140.305 189.783 119.57 200.056 124.651 213.799C127.859 222.47 140.511 224.168 140.511 224.168Z" stroke="#D1AC0B" stroke-width="3" stroke-miterlimit="10"/>
<path d="M106.182 204.635C106.182 204.635 120.303 207.241 143.298 188.012C143.298 188.012 113.072 192.017 106.182 204.635Z" stroke="#D1AC0B" stroke-width="3" stroke-miterlimit="10"/>
<path d="M115.859 232.81C115.859 232.81 128.793 231.223 125.518 242.842C120.739 259.803 127.673 268.319 140.774 270.283C153.876 272.247 154.987 271.909 154.987 271.909C154.987 271.909 130.67 270.365 133.567 256.169C134.908 249.607 150.193 265.27 150.011 270.896C150.011 270.896 155.145 257.463 148.211 251.928C141.277 246.393 133.347 248.931 133.347 248.931C133.347 248.931 138.461 231.667 121.28 228.964C109.29 227.083 106.598 234.229 108.758 237.225C110.922 240.217 116.999 240.743 115.859 232.81Z" stroke="#D1AC0B" stroke-width="3" stroke-miterlimit="10"/>
<path d="M256.174 231.232C256.174 231.232 243.158 232.105 246.434 243.73C251.213 260.69 244.279 269.207 231.177 271.171C218.076 273.135 216.965 272.797 216.965 272.797C216.965 272.797 240.419 271.369 237.522 257.168C236.181 250.606 221.758 266.153 221.94 271.779C221.94 271.779 216.807 258.345 223.741 252.811C230.675 247.276 238.604 249.814 238.604 249.814C238.604 249.814 233.49 232.549 250.672 229.847C262.662 227.965 265.353 235.112 263.194 238.108C261.029 241.105 255.029 239.17 256.174 231.232Z" stroke="#D1AC0B" stroke-width="3" stroke-miterlimit="10"/>
<path d="M164.525 275.369L186.136 282.496C189.785 282.993 193.477 282.129 196.575 280.117C200.215 277.753 205.865 274.901 212.267 274.592C212.267 274.592 199.515 269.555 193.295 275.692C193.295 275.692 196.542 269.863 191.777 263.996C191.777 263.996 183.115 270.389 185.763 275.992C185.763 275.987 181.166 268.479 164.525 275.369Z" stroke="#D1AC0B" stroke-width="3" stroke-miterlimit="10"/>
<path d="M96.9921 198.922C96.9921 198.922 97.0447 188.089 113.259 190.584C113.259 190.584 91.8634 168.344 106.502 147.919C106.502 147.919 91.4133 162.443 97.4948 177.421L103.351 185.59C103.351 185.595 93.5587 184.572 96.9921 198.922Z" stroke="#D1AC0B" stroke-width="3" stroke-miterlimit="10"/>
<path d="M121.146 119.657C121.146 119.657 109.184 129.737 116.578 149.019C116.583 149.019 126.801 132.584 121.146 119.657Z" stroke="#D1AC0B" stroke-width="3" stroke-miterlimit="10"/>
<path d="M153.33 120.535C153.33 120.535 136.584 133.901 123.755 119.879C123.755 119.879 139.845 109.36 153.33 120.535Z" stroke="#D1AC0B" stroke-width="3" stroke-miterlimit="10"/>
<path d="M219.436 120.314C219.436 120.314 236.397 133.241 255.317 124.256C255.312 124.261 245.744 113.742 219.436 120.314Z" stroke="#D1AC0B" stroke-width="3" stroke-miterlimit="10"/>
<path d="M258.142 156.469C258.142 156.469 269.448 142.008 258.793 125.356C258.793 125.356 250.092 138.283 258.142 156.469Z" stroke="#D1AC0B" stroke-width="3" stroke-miterlimit="10"/>
<path d="M262.27 192.842C262.27 192.842 280.102 194.155 279.666 206.425C279.666 206.425 284.699 191.129 270.75 190.213C270.75 190.213 287.275 168.301 269.012 159.099C269.012 159.099 274.447 189.556 262.27 192.842Z" stroke="#D1AC0B" stroke-width="3" stroke-miterlimit="10"/>
<path d="M142.732 102.142C142.732 102.142 167.001 109.901 188.976 89.5283C188.98 89.5331 166.115 127.011 142.732 102.142Z" stroke="#D1AC0B" stroke-width="3" stroke-miterlimit="10"/>
<path d="M184.618 111.425C184.618 111.425 179.753 97.7313 190.992 86.7441C190.992 86.7441 192.836 105.679 184.618 111.425Z" stroke="#D1AC0B" stroke-width="3" stroke-miterlimit="10"/>
<path d="M236.459 104.491C236.459 104.491 213.383 106.407 190.192 86.6331C190.187 86.6331 198.883 122.475 236.459 104.491Z" stroke="#D1AC0B" stroke-width="3" stroke-miterlimit="10"/>
<path d="M113.963 270.66C113.963 270.66 114.628 283.374 118.78 288.228C122.932 293.083 135.051 286.39 137.709 291.071C140.367 295.756 137.709 299.438 135.885 299.438C134.06 299.438 144.796 302.627 144.796 296.354C144.796 290.081 142.91 291.428 142.91 291.428C142.91 291.428 150.131 292.658 148.129 297.247C146.127 301.836 145.242 301.498 145.242 301.498C145.242 301.498 151.797 302.839 152.238 299.481C152.238 299.481 158.348 308.21 168.011 307.877C177.674 307.544 178.675 300.827 182.564 302.391C186.452 303.959 188.339 309.329 184.896 309.667C184.896 309.667 190.896 311.346 190.896 306.42C190.896 301.493 185.566 301.049 185.566 301.049C185.566 301.049 199.228 301.387 195.454 309.107C195.454 309.107 199.008 308.099 198.897 303.959C198.897 303.959 202.786 308.885 212.669 307.655C222.558 306.425 220.556 298.588 223.223 298.366C225.891 298.144 231.22 298.815 230.219 303.737C230.219 303.737 236.885 298.366 232.331 296.909C227.777 295.452 225.445 295.452 225.445 295.452C225.445 295.452 230.109 291.201 234.778 293.551C239.442 295.901 237.22 299.93 237.22 299.93C237.22 299.93 241.439 297.802 241.219 293.884C241.219 293.884 251.217 295.674 254.66 289.744C258.103 283.813 256.327 279.446 260.545 278.776C264.764 278.105 265.875 281.796 265.875 281.796C265.875 281.796 269.653 275.75 266.651 275.639C263.648 275.528 259.43 276.421 258.319 277.767C257.208 279.109 267.316 267.581 270.649 275.417C270.649 275.417 274.868 273.849 271.54 270.158C271.54 270.158 278.316 270.158 286.538 262.1C286.538 262.1 289.535 258.292 290.316 249.226C290.316 249.226 290.651 245.53 294.649 246.765C298.648 247.995 297.207 244.748 297.207 244.748C297.207 244.748 294.429 241.949 290.766 245.086C290.766 245.086 293.433 239.155 297.877 240.835C297.877 240.835 299.208 233.896 291.767 240.275C291.767 240.275 298.653 235.237 299.208 228.077C299.764 220.911 296.766 212.853 299.098 209.272C301.43 205.692 306.765 203.453 308.872 205.576C308.872 205.576 307.095 202.44 302.541 203.115C302.541 203.115 307.871 198.527 307.871 188.9C307.871 179.274 299.984 175.804 301.986 172.446C303.987 169.088 306.985 170.656 306.985 170.656C306.985 170.656 305.764 167.075 302.211 167.857C298.657 168.639 299.543 171.886 299.543 171.886C299.543 171.886 297.877 164.277 303.211 162.482C308.546 160.687 307.545 161.584 307.545 161.584C307.545 161.584 306.324 158.226 302.656 159.456C298.988 160.687 298.322 162.926 298.322 162.926C298.322 162.926 302.656 148.932 299.879 144.232C297.101 139.533 288.879 135.055 290.436 130.466C291.992 125.877 293.989 125.877 293.989 125.877C293.989 125.877 290.656 123.416 287.989 126.886C285.321 130.355 287.323 132.372 287.323 132.372C287.323 132.372 282.769 124.087 289.325 119.387C289.325 119.387 283.439 120.618 283.439 124.873C283.439 129.125 283.329 105.732 276.443 103.493C269.557 101.254 259.669 99.1258 261.891 94.426C264.113 89.7261 266.11 87.936 266.11 87.936C266.11 87.936 260.225 87.714 258.443 88.9445C256.667 90.1749 256.777 95.6612 259.219 97.7892C259.219 97.7892 252.108 93.3113 253.664 86.8213C255.22 80.3313 250.667 83.8007 249.776 85.3641C249.776 85.3641 246.223 79.0961 236.78 78.7583C227.337 78.4205 224.229 74.5603 225.34 68.6831C225.34 68.6831 221.897 73.3298 224.009 76.1285C226.12 78.9272 228.342 79.3759 228.342 79.3759L223.678 78.7052C223.678 78.7052 214.015 70.647 218.124 67.2886C218.124 67.2886 213.68 67.8483 215.566 73.5566C217.453 79.2649 221.677 79.4869 221.677 79.4869C221.677 79.4869 213.57 76.3505 209.126 70.758C204.682 65.1655 197.308 60.3112 185.322 69.209C185.322 69.209 177.933 71.2067 178.833 62.6708C178.833 62.6708 177.392 62.941 176.76 65.1221C176.76 65.1221 174.595 65.122 174.595 67.4816C174.595 69.8412 179.01 70.1162 179.01 70.1162C179.01 70.1162 170.18 73.2961 169.821 67.2114C169.462 61.1267 170.903 61.8553 170.903 61.8553C170.903 61.8553 166.306 63.6696 167.48 67.94C168.653 72.2055 171.085 74.2949 180.816 72.2972C180.816 72.2972 174.241 76.2926 164.87 71.115C155.499 65.9375 152.257 68.2102 148.651 71.8437C145.045 75.4771 140.635 83.8297 134.956 80.92C129.281 78.0152 130.9 74.6568 130.9 74.6568C130.9 74.6568 127.476 82.2807 132.973 82.9177C138.471 83.5546 140.453 82.2807 140.453 82.2807C140.453 82.2807 135.679 89.1809 129.55 85.9142C123.425 82.6474 124.593 78.2902 124.593 78.2902C124.593 78.2902 121.351 82.1022 123.42 84.9153C125.494 87.7285 127.926 88.2737 127.926 88.2737C127.926 88.2737 117.746 84.6403 112.157 91.5405C106.569 98.4406 107.474 104.25 104.951 106.065C102.427 107.879 97.4709 109.968 97.3847 105.794C97.2937 101.62 94.502 107.517 95.4932 109.698C96.4845 111.879 98.285 114.784 104.232 109.244C104.232 109.244 102.327 117.443 92.6297 115.648C92.6297 115.648 88.2099 114.851 89.067 111.261C89.067 111.261 86.5578 114.185 89.3974 117.11C92.2322 120.034 96.3887 118.639 96.3887 118.639C96.3887 118.639 86.9552 119.836 81.0174 128.41C75.0796 136.985 78.6423 142.635 78.6423 145.429C78.6423 148.223 72.5081 149.685 72.8385 147.089C72.8385 147.089 71.8473 150.747 74.5529 150.747C77.2584 150.747 79.3702 149.482 79.4995 147.224C79.4995 147.224 80.2272 154.071 76.5305 154.404C72.8337 154.737 71.1195 154.071 70.9902 152.276C70.9902 152.276 68.8784 154.602 71.1865 156.397C73.4946 158.192 75.8697 156.662 75.8697 156.662C75.8697 156.662 68.2846 161.184 67.8201 166.636C67.3604 172.089 66.6325 173.749 70.0611 180.133C73.4897 186.516 73.1642 190.767 70.655 190.767C68.1458 190.767 65.9047 190.767 65.8377 189.04C65.8377 189.04 63.9222 194.425 69.137 194.425C74.3517 194.425 74.5481 191.568 74.5481 191.568C74.5481 191.568 73.8873 200.611 66.5656 197.619C66.5656 197.619 65.512 201.875 69.7307 201.542C73.9543 201.209 74.8115 199.284 74.8115 199.284C74.8115 199.284 69.4675 205.996 70.5257 212.713C71.584 219.43 79.169 224.477 79.8299 226.339C80.4907 228.202 81.2137 234.716 77.651 235.049C74.0884 235.382 74.4188 233.452 74.4188 233.452C74.4188 233.452 74.8163 238.837 79.6288 237.505C84.4461 236.173 82.995 228.598 82.995 228.598C82.995 228.598 89.0621 238.504 81.0796 242.89C81.0796 242.89 83.1915 245.216 85.9592 242.755C85.9592 242.755 85.7629 258.379 93.1517 261.434C100.54 264.488 102.915 262.365 104.103 265.752C105.291 269.144 107.139 273.729 103.84 273.729C100.54 273.729 99.6832 272.266 99.6832 272.266C99.6832 272.266 106.018 279.046 107.929 273.994C109.845 268.942 106.478 265.284 106.478 265.284C106.478 265.284 111.296 268.411 111.228 273.13C111.161 277.849 107.929 277.319 107.929 277.319C107.929 277.319 114.992 281.888 113.963 270.66Z" stroke="#D1AC0B" stroke-width="2" stroke-miterlimit="10"/>
<path d="M91.7726 257.318C91.7726 257.318 93.6593 259.475 98.5675 259.851C103.476 260.232 111.023 263.591 113.412 266.698C115.802 269.806 115.237 275.89 118.948 277.347C122.659 278.805 125.048 277.603 125.048 274.877C125.048 274.877 127.189 280.962 123.224 281.531C119.259 282.1 117.435 278.554 117.435 278.554C117.435 278.554 116.553 283.944 119.637 284.132C122.721 284.32 125.427 286.096 129.703 280.648C129.703 280.648 130.771 288.315 125.867 288.064C125.867 288.064 127.692 288.827 134.108 288.127C140.525 287.432 146.247 288.315 151.342 293.005C156.437 297.696 157.567 299.722 160.086 298.14C162.6 296.557 160.402 293.068 160.402 293.068C160.402 293.068 166.125 294.844 165.311 297.821C164.497 300.798 159.65 300.866 158.769 300.736C157.888 300.61 162.102 304.287 165.627 303.65C169.151 303.018 168.394 297.31 168.394 297.31C168.394 297.31 172.8 300.543 171.919 303.394C171.919 303.394 171.354 305.677 177.517 300.605C183.679 295.534 191.48 296.74 194.123 297.628C196.767 298.516 198.965 301.937 201.359 301.937C203.753 301.937 207.081 298.386 204.443 295.346C204.443 295.346 210.165 294.651 209.475 298.072C208.786 301.493 205.889 304.601 202.053 302.95C202.053 302.95 204.883 306.878 209.729 303.964C214.575 301.049 214.949 295.153 213.316 293.695C213.316 293.695 217.908 295.471 217.027 299.085C216.146 302.699 211.305 304.982 211.305 304.982C211.305 304.982 215.643 305.17 219.292 298.834C222.941 292.494 224.703 290.786 232.063 289.898C239.423 289.01 237.412 291.418 240.931 289.266C244.456 287.109 243.699 283.432 241.688 283.432C241.688 283.432 246.659 282.67 246.97 284.195C247.286 285.715 246.089 290.786 241.18 290.911C241.18 290.911 246.903 293.068 249.043 289.01C251.184 284.952 250.24 281.087 248.354 278.361C248.354 278.361 254.33 278.549 253.952 282.863C253.573 287.172 249.987 290.911 249.987 290.911C249.987 290.911 255.019 289.705 256.15 278.93C257.28 268.155 270.051 265.936 271.875 265.554C273.7 265.173 275.586 260.165 269.864 258.77C269.864 258.77 277.851 255.219 277.473 259.151C277.095 263.079 275.208 264.792 275.208 264.792C275.208 264.792 280.49 265.111 280.428 260.165C280.365 255.219 275.649 252.748 275.649 252.748C275.649 252.748 282.314 250.085 283.133 253.129C283.952 256.174 282.879 260.42 282.879 260.42C282.879 260.42 287.155 259.726 287.596 248.695C288.037 237.664 292.313 237.351 292.313 235.826C292.313 234.301 294.64 230.755 287.783 231.58C287.783 231.58 290.234 226.064 292.753 228.284C295.272 230.504 294.391 234.369 294.391 234.369C294.391 234.369 299.548 226.002 291.81 224.544C284.072 223.087 290.11 219.599 292.313 220.742C294.515 221.881 295.459 224.101 296.34 225.876C296.34 225.876 297.096 222.899 295.018 216.303C292.945 209.712 300.678 200.963 300.678 199.25C300.678 197.537 300.932 191.453 296.086 192.534C296.086 192.534 297.039 188.451 299.563 189.542C302.086 190.632 303.456 194.845 302.374 197.243C302.374 197.243 306.702 193.827 303.025 186.922C299.347 180.017 294.946 183.144 294.946 183.144C294.946 183.144 296.029 179.365 298.193 179.8C300.358 180.234 301.44 182.415 301.44 182.415C301.44 182.415 297.331 176.094 296.536 170.279C295.741 164.465 296.536 158.216 296.536 158.216C296.536 158.216 294.731 151.239 291.633 151.384C288.53 151.528 288.53 152.691 288.53 152.691C288.53 152.691 289.756 146.153 292.207 146.804C294.659 147.461 297.69 152.691 297.69 155.089C297.69 157.488 298.342 151.601 297.69 147.533C297.039 143.465 290.766 141.646 287.74 144.845C287.74 144.845 288.894 139.176 292.069 140.049C295.243 140.922 284.134 135.397 282.692 130.529C281.251 125.66 280.384 118.827 279.159 117.375C277.933 115.923 274.973 113.814 272.814 118.104C272.814 118.104 270.003 111.343 272.383 111.343C274.763 111.343 278.728 113.524 279.523 114.687C280.317 115.85 274.619 107.203 270.362 107.999C266.105 108.8 266.397 113.669 266.397 113.669C266.397 113.669 264.376 105.891 266.9 105.529C269.423 105.167 276.276 108.289 276.276 108.289C276.276 108.289 277.143 106.325 274.327 105.162C271.516 103.999 261.058 102.185 258.314 100.945C255.575 99.7096 250.236 93.1666 248.722 90.8456C247.209 88.5198 243.24 89.7551 242.521 92.6647C242.521 92.6647 239.203 87.3617 241.295 86.8503C243.388 86.3388 247.861 87.5065 247.861 87.5065C247.861 87.5065 246.347 82.8549 240.649 83.4388C234.951 84.0178 234.807 90.3438 234.807 90.3438C234.807 90.3438 232.283 82.6426 235.094 82.2035C237.905 81.7692 240.864 81.0406 240.864 81.0406C240.864 81.0406 228.534 82.2035 222.184 81.0406C215.839 79.8777 211.08 73.9909 208.408 73.9185C205.74 73.8461 202.135 75.5881 203.576 78.7872C203.576 78.7872 196.724 75.0814 200.765 72.9004C204.802 70.7194 205.812 71.5927 205.812 71.5927C205.812 71.5927 203.504 66.5793 197.303 70.2851C191.102 73.9909 194.923 78.1358 194.923 78.1358C194.923 78.1358 188.865 73.4843 191.03 71.5204C193.194 69.5565 195.431 67.525 197.954 67.525C197.954 67.525 195.79 66.0726 188.291 71.5204C180.792 76.9681 173.145 77.0453 169.898 75.3709C166.651 73.7014 161.891 72.9004 160.809 75.2262C159.727 77.552 160.881 80.3844 161.82 80.3844C162.758 80.3844 153.67 80.7463 154.752 77.4796C155.834 74.208 161.317 71.7375 162.251 71.7375C162.251 71.7375 153.234 69.6288 151.649 76.1719C150.064 82.7102 153.234 84.5293 153.234 84.5293C153.234 84.5293 146.022 82.3483 146.889 79.733C147.756 77.1177 151.864 70.9413 154.029 70.7966C154.029 70.7966 151.577 68.4708 140.975 84.3846C140.975 84.3846 138.092 91.0724 128.496 90.4162C118.9 89.7599 122.223 96.6649 125.465 96.8096C125.465 96.8096 117.171 99.063 117.822 96.3754C118.474 93.6877 120.49 90.5609 121.644 90.5609C122.798 90.5609 118.612 89.1085 115.371 92.5248C112.124 95.9411 115.873 101.244 118.182 102.19C118.182 102.19 110.175 104.443 111.114 97.2487C111.114 97.2487 110.97 109.823 105.415 114.982C99.8605 120.14 92.7208 124.14 91.3513 126.244C89.9817 128.348 89.6225 132.275 94.0184 132.348C94.0184 132.348 87.8172 137.506 87.8172 131.986C87.8172 126.466 89.3305 126.171 89.3305 126.171C89.3305 126.171 82.5498 133.728 86.1556 136.348C89.7614 138.963 91.0591 137.8 91.0591 137.8C91.0591 137.8 85.0734 143.103 84.7143 140.927C84.3551 138.746 81.3958 136.565 83.4166 132.497C83.4166 132.497 79.9544 129.226 81.6113 143.47C83.2681 157.714 76.1284 159.823 75.7693 160.841C75.4101 161.859 73.1739 167.674 78.0774 168.18C82.9809 168.687 83.1244 166.945 83.1244 166.945C83.1244 166.945 78.1492 173.266 75.9129 171.085C73.6767 168.904 73.5329 162.366 73.5329 162.366C73.5329 162.366 69.2042 169.56 72.6663 172.031C76.1284 174.501 79.6623 172.687 79.6623 172.687C79.6623 172.687 76.0566 180.61 73.6048 177.483C71.1531 174.357 69.9272 170.868 69.9272 170.868C69.9272 170.868 70.2863 177.845 75.118 184.606C79.9496 191.366 78.3647 196.379 77.7135 199.723C77.0622 203.067 76.9185 207.719 78.5801 208.298C80.2369 208.877 82.8372 208.442 82.8372 208.442C82.8372 208.442 82.7653 215.275 79.806 212.66C76.8514 210.044 75.1898 208.664 75.2617 205.248C75.2617 205.248 72.9536 208.737 74.5386 211.135C76.1236 213.533 78.2881 218.329 81.8939 218.04C85.4996 217.75 85.5714 217.167 85.5714 217.167C85.5714 217.167 84.6328 223.198 81.0989 221.456C77.5649 219.714 73.4563 214.99 73.3079 212.153C73.3079 212.153 73.5234 218.619 81.8891 224.578C90.2547 230.537 89.8236 231.628 89.8236 238.239C89.8236 244.854 90.7622 246.451 92.8548 247.175C94.9474 247.904 96.6761 244.048 96.6761 244.048C96.6761 244.048 99.6355 250.514 96.2452 251.387C92.8549 252.261 88.818 250.442 88.7462 246.519C88.7462 246.519 88.3153 254.22 94.9475 254.297C101.584 254.369 100.861 249.356 100.861 249.356C100.861 249.356 102.518 257.352 98.2659 257.424C94.0185 257.496 91.7726 257.318 91.7726 257.318Z" stroke="#D1AC0B" stroke-width="2" stroke-miterlimit="10"/>
<path d="M319.708 295.235C319.708 295.235 318.645 301.773 323.113 301.773C327.581 301.773 326.944 295.341 326.944 295.341" stroke="#D1AC0B" stroke-width="3" stroke-miterlimit="10"/>
<path d="M298.859 276.691C298.859 276.691 295.244 281.622 297.691 285.372C300.138 289.121 304.605 285.159 304.605 285.159" stroke="#D1AC0B" stroke-width="3" stroke-miterlimit="10"/>
<path d="M96.4751 334.03C96.4751 334.03 91.5763 332.713 92.2276 329.34C92.8788 325.967 97.2891 327.776 97.2891 327.776" stroke="#D1AC0B" stroke-width="3" stroke-miterlimit="10"/>
<path d="M108.724 313.132C108.724 313.132 104.802 309.349 107.743 306.796C110.683 304.243 114.93 309.759 114.93 309.759" stroke="#D1AC0B" stroke-width="3" stroke-miterlimit="10"/>
<path d="M37.1831 94.1895C37.1831 94.1895 38.5814 88.8624 42.2686 89.0554C45.9606 89.2533 45.2758 94.0689 45.2758 94.0689" stroke="#D1AC0B" stroke-width="3" stroke-miterlimit="10"/>
<path d="M61.7866 103.912C61.7866 103.912 63.4051 99.8688 67.1594 102.151C70.9136 104.433 66.9008 110.827 66.9008 110.827" stroke="#D1AC0B" stroke-width="3" stroke-miterlimit="10"/>
<path d="M274.782 32.8843C274.782 32.8843 281.51 36.1799 280.294 40.32C279.077 44.4601 273.566 42.5783 273.566 42.5783" stroke="#D1AC0B" stroke-width="3" stroke-miterlimit="10"/>
<path d="M262.734 59.5245C262.734 59.5245 267.063 64.7309 270.424 62.6609C273.786 60.5909 268.432 53.8789 268.432 53.8789" stroke="#D1AC0B" stroke-width="3" stroke-miterlimit="10"/>
</svg>
