<svg width="370" height="370" viewBox="0 0 370 370" fill="none" xmlns="http://www.w3.org/2000/svg">
<path d="M181.156 190.047C181.146 190.056 181.146 190.066 181.146 190.08C181.125 190.152 181.11 190.229 181.08 190.334C181.044 190.492 181.004 190.679 180.969 190.913C181.07 190.492 181.146 190.176 181.171 189.999C181.161 190.008 181.156 190.027 181.156 190.047ZM181.156 190.047C181.146 190.056 181.146 190.066 181.146 190.08C181.125 190.152 181.11 190.229 181.08 190.334C181.044 190.492 181.004 190.679 180.969 190.913C181.07 190.492 181.146 190.176 181.171 189.999C181.161 190.008 181.156 190.027 181.156 190.047ZM181.156 190.047C181.146 190.056 181.146 190.066 181.146 190.08C181.125 190.152 181.11 190.229 181.08 190.334C181.044 190.492 181.004 190.679 180.969 190.913C181.07 190.492 181.146 190.176 181.171 189.999C181.161 190.008 181.156 190.027 181.156 190.047Z" fill="#C95959"/>
<path d="M181.201 189.869C181.181 189.984 181.11 190.353 180.969 190.918C181.07 190.291 181.171 189.965 181.201 189.869Z" fill="#C95959"/>
<path d="M150.075 196.763C150.075 196.763 139.141 201.344 134.02 211.173C129.434 219.972 131.752 219.742 131.752 219.742C131.752 219.742 124.974 220.192 126.424 213.03C127.868 205.868 135.888 201.694 139.565 199.889C139.565 199.889 122.591 199.846 120.136 194.872C118.262 191.081 120.419 189.046 122.985 187.303C122.98 187.299 125.106 199.157 150.075 196.763Z" fill="#C95959"/>
<path d="M111.697 210.282C111.697 210.282 119.146 212.915 124.262 209.325C129.373 205.734 136.383 200.708 138.656 200.109C140.929 199.511 127.08 201.431 120.313 202.043C112.358 202.761 111.697 210.282 111.697 210.282Z" fill="#C95959"/>
<path d="M171.161 220.695C171.161 220.695 170.459 232.007 177.337 240.82C183.499 248.71 184.337 246.651 184.337 246.651C184.337 246.651 181.661 252.568 175.6 248.073C169.54 243.578 169.292 234.913 169.282 230.982C169.282 230.982 161.479 245.272 155.686 245.066C151.272 244.909 150.353 242.161 149.888 239.202C149.893 239.207 161.989 242.84 171.161 220.695Z" fill="#C95959"/>
<path d="M166.292 259.232C166.292 259.232 172.171 254.157 171.141 248.202C170.11 242.251 168.6 234.041 169.075 231.853C169.555 229.666 165.025 242.213 162.505 248.202C159.545 255.234 166.292 259.232 166.292 259.232Z" fill="#C95959"/>
<path d="M207.11 210.943C207.11 210.943 216.605 217.827 228.16 217.358C238.504 216.937 237.175 215.122 237.175 215.122C237.175 215.122 240.852 220.537 233.529 222.782C226.206 225.027 218.494 220.369 215.049 218.181C215.049 218.181 223.175 232.308 219.751 236.741C217.145 240.121 214.226 239.307 211.377 238.015C211.388 238.01 221.332 230.547 207.11 210.943Z" fill="#C95959"/>
<path d="M238.069 236.339C238.069 236.339 236.923 228.881 231.14 226.358C225.357 223.835 217.342 220.426 215.696 218.827C214.049 217.229 222.484 227.813 226.307 233.141C230.802 239.408 238.069 236.339 238.069 236.339Z" fill="#C95959"/>
<path d="M214.115 175.422C214.115 175.422 224.579 169.945 228.771 159.724C232.519 150.576 230.231 151.002 230.231 151.002C230.231 151.002 236.938 149.987 236.165 157.244C235.392 164.502 227.791 169.327 224.296 171.434C224.296 171.434 241.21 170.055 244.119 174.809C246.337 178.433 244.377 180.635 241.988 182.588C241.983 182.583 238.766 170.95 214.115 175.422Z" fill="#C95959"/>
<path d="M251.089 158.748C251.089 158.748 243.423 156.747 238.665 160.749C233.908 164.751 227.393 170.347 225.186 171.132C222.978 171.917 236.595 168.849 243.276 167.671C251.13 166.292 251.089 158.748 251.089 158.748Z" fill="#C95959"/>
<path d="M190.151 151.586C190.151 151.586 191.08 140.288 184.378 131.35C178.378 123.351 177.494 125.395 177.494 125.395C177.494 125.395 180.287 119.526 186.257 124.131C192.226 128.736 192.297 137.406 192.231 141.332C192.231 141.332 200.322 127.185 206.105 127.497C210.514 127.731 211.383 130.498 211.787 133.462C211.792 133.462 199.772 129.613 190.151 151.586Z" fill="#C95959"/>
<path d="M195.797 113.144C195.797 113.144 189.817 118.113 190.726 124.083C191.635 130.053 192.979 138.287 192.459 140.465C191.938 142.643 196.721 130.177 199.358 124.241C202.464 117.261 195.797 113.144 195.797 113.144Z" fill="#C95959"/>
<path d="M158.04 164.349C158.04 164.349 148.575 157.426 137.015 157.852C126.667 158.235 127.99 160.054 127.99 160.054C127.99 160.054 124.338 154.626 131.667 152.409C139 150.193 146.692 154.879 150.126 157.082C150.126 157.082 142.06 142.926 145.5 138.502C148.121 135.132 151.035 135.96 153.878 137.262C153.883 137.262 143.904 144.692 158.04 164.349Z" fill="#C95959"/>
<path d="M127.19 138.833C127.19 138.833 128.307 146.296 134.074 148.838C139.842 151.385 147.847 154.822 149.488 156.426C151.13 158.034 142.736 147.416 138.938 142.074C134.473 135.797 127.19 138.833 127.19 138.833Z" fill="#C95959"/>
<path d="M359.628 196.73C367.916 182.861 373.532 161.835 365.659 131.671C358.573 104.518 337.942 87.5516 319.932 77.5654C320.008 77.4505 320.078 77.3356 320.154 77.2207C324.225 70.6861 326.518 58.4404 313.225 43.7722C302.377 31.8089 284.104 33.8052 277.751 34.9493C268.332 20.4679 251.443 5.34977 221.378 1.10348C193.206 -2.86515 172.888 4.47371 159.196 13.5072C153.651 8.17904 143.146 3.62635 126.156 8.66254C110.061 13.4354 104.849 30.5259 103.541 36.2993C85.0913 39.1621 61.8138 47.9324 41.7787 71.342C26.9152 88.7054 24.9101 109.918 26.5818 126.716C18.592 127.252 7.2588 132.217 1.29928 149.724C-4.96833 168.116 13.476 184.589 13.476 184.589C13.476 184.589 1.31952 224.405 12.577 253.143C20.6577 273.771 31.9353 286.065 42.8139 293.36C39.5059 300.283 38.6523 312.581 53.2936 325.832C65.9146 337.25 85.071 332.621 90.3387 331.036C99.2173 343.258 113.591 356.614 136.409 364.135C163.525 373.073 186.338 370.167 205.898 358.754C206.12 359.185 206.438 359.668 206.837 360.214C211.433 366.438 222.246 373.475 241.837 368.075C257.165 363.838 262.978 348.394 264.781 341.879C283.887 339.351 306.962 331.567 325.119 310.982C344.598 288.908 347.169 265.312 345.063 247.58C352.3 247.297 362.739 243.118 368.608 227.392C373.765 213.59 363.194 200.579 359.628 196.73ZM16.0113 180.008C15.1123 179.543 12.6577 177.877 11.9153 173.176C11.0062 167.365 14.88 165.641 14.88 165.641C10.9507 163.08 8.0518 156.943 10.7184 151.605C13.0214 146.99 20.3244 146.109 20.3244 146.109C20.3244 146.109 18.7537 142.193 20.6981 137.392C21.8294 134.591 24.905 133.016 27.2838 132.207C29.3646 145.97 33.4959 155.636 33.4959 155.636C33.4959 155.636 23.8496 164.555 16.0113 180.008ZM112.081 30.4158C116.556 26.3562 120.283 28.3621 120.283 28.3621C120.227 23.8429 123.833 18.0504 129.98 17.0402C135.272 16.1594 140.252 21.3009 140.252 21.3009C140.252 21.3009 142.712 17.8253 147.969 16.5567C150.015 16.0636 152.085 16.5567 153.858 17.3418C141.762 26.8158 136.368 36.644 136.368 36.644C136.368 36.644 124.959 33.9392 108.677 35.6387C109 34.2839 109.864 32.4313 112.081 30.4158ZM104.838 116.763C130.05 91.1804 160.207 122.388 163.59 125.711C162.939 114.557 170.302 79.5521 203.085 87.1543C239.544 95.6086 223.165 138.301 222.766 139.613C222.989 138.383 230.085 99.0841 199.555 96.049C166.717 92.7745 163.914 120.718 163.671 125.802C163.641 125.773 163.616 125.749 163.585 125.716C163.575 125.735 163.585 125.759 163.585 125.778C160.363 123.241 129.515 100.032 111.187 124.37C89.172 153.592 118.904 170.558 120.288 171.324C110.253 167.068 79.6115 142.366 104.838 116.763ZM199.221 238.077C199.221 238.077 206.878 210.598 196.135 200.148C196.135 200.148 216.393 208.267 233.539 199.813C233.539 199.813 263.084 223.064 242.317 242.754C221.549 262.43 203.12 244.942 199.221 238.077ZM164.873 137.588C158.277 159.81 167.984 172.659 167.984 172.659C145.823 163.281 127.864 173.014 127.864 173.014C121.828 170.409 100.389 145.061 124.202 127.698C148.02 110.32 164.873 137.588 164.873 137.588ZM128.596 176.135C128.596 176.135 138.677 191.234 163.227 191.933C163.227 191.933 147.474 204.092 143.07 224.582C143.07 224.582 117.061 242.122 103.137 213.294C89.2125 184.465 128.596 176.135 128.596 176.135ZM145.328 226.664C145.328 226.664 163.323 225.879 176.605 205.94C176.605 205.94 177.711 230.868 194.6 238.211C194.6 238.211 199.307 267.6 163.045 268.132C163.04 268.127 134.803 262.085 145.328 226.664ZM181.777 209.761C180.196 198.448 180.625 193.034 180.969 190.937C180.115 194.317 176.752 204.777 166.358 213.011C153.792 222.978 148.308 222.547 148.308 222.547C148.308 222.547 154.131 208.468 161.212 200.234C168.297 192 176.873 187.888 176.873 187.888C176.873 187.888 163.616 188.855 151.272 186.48C138.939 184.096 132.646 175.57 132.646 175.57C132.646 175.57 148.873 171.53 157.449 173.693C165.873 175.824 178.181 182.411 178.58 182.622C178.257 182.191 167.924 168.351 166.358 158.647C164.762 148.785 167.585 138.742 167.585 138.742C167.585 138.742 178.817 149.872 180.868 158.537C182.918 167.202 183.494 181.071 183.494 181.071C183.494 181.071 188.11 167.839 196.797 160.256C205.474 152.673 216.398 149.01 216.398 149.01C216.398 149.01 211.559 168.494 201.201 175.431C190.954 182.306 188.636 183.876 188.636 183.876C188.636 183.876 204.287 181.171 214.691 185.829C225.085 190.487 228.746 197.414 228.746 197.414C228.746 197.414 216.292 200.665 204.751 198.927C193.716 197.271 187.176 190.138 186.61 189.506C187.141 190.353 195.585 204.059 196.802 210.78C199.014 223.141 195.272 233.912 195.272 233.912C195.272 233.912 183.949 225.247 181.777 209.761ZM167.808 134.807C167.808 134.807 169.823 99.3857 198.211 103.029C234.196 107.653 215.07 145.051 215.07 145.051C197.479 150.609 185.393 167.097 185.393 167.097C188.499 152.864 167.808 134.807 167.808 134.807ZM233.393 196.174C223.807 181.372 202.544 178.854 202.544 178.854C218.514 168.255 220.418 146.152 220.418 146.152C227.479 140.886 259.357 138.052 263.564 163.003C267.771 187.955 233.393 196.174 233.393 196.174ZM80.1772 326.967C74.3743 325.258 74.3136 321.313 74.3136 321.165C70.1621 323.4 63.0764 323.209 59.1522 318.613C55.7785 314.644 58.1117 308.019 58.1117 308.019C58.1117 308.019 53.7078 307.665 49.9958 303.916C47.9604 301.862 47.7028 298.808 47.8846 296.467C63.5359 305.017 77.0812 303.969 77.0812 303.969C77.0812 303.969 79.4044 314.376 87.5104 326.938C86.1973 327.513 83.7984 328.034 80.1772 326.967ZM84.2276 214.892C72.7833 183.373 120.101 173.808 122.737 173.306C120.389 174.029 82.0711 186.169 94.1568 213.834C108.212 246.014 138.111 231.892 139.904 231.002C130.909 236.718 95.9547 247.216 84.2276 214.892ZM256.347 346.595C251.786 350.573 248.11 348.495 248.11 348.495C248.074 353.019 244.347 358.735 238.18 359.635C232.857 360.42 227.999 355.178 227.999 355.178C227.999 355.178 225.463 358.61 220.176 359.783C215.928 360.717 211.65 357.452 210.125 356.121C216.388 351.99 222.292 346.963 227.903 341.161C227.903 341.161 241.332 344.067 259.503 342.473C259.013 343.66 258.074 345.087 256.347 346.595ZM252.882 252.137C228.231 273.297 201.504 245.296 199.822 243.65C199.004 250.931 189.802 287.726 159.222 279.922C125.157 271.234 139.065 233.515 139.596 231.629C139.252 233.52 133.065 269.156 161.424 272.483C192.772 276.164 199.08 247.565 199.797 243.63C199.807 243.63 199.817 243.64 199.822 243.65C201.448 244.98 229.786 267.897 247.251 246.546C267.326 221.997 242.15 201.67 240.413 200.311C245.923 204.021 276.781 231.624 252.882 252.137ZM245.17 198.712C246.302 198.281 283.235 183.938 270.67 157.144C256.15 126.185 223.605 140.082 222.62 140.513C228.832 137.535 265.326 121.761 280.564 155.578C293.998 185.393 246.453 198.376 245.17 198.712ZM315.154 75.0378C300.907 67.8521 289.367 65.1521 289.367 65.1521C289.367 65.1521 288.084 53.0116 280.321 39.2052C281.75 38.9658 283.841 39.0281 286.584 40.1291C292.286 42.4174 291.811 46.4531 291.811 46.4531C296.17 44.6148 303.2 45.4669 306.619 50.4169C309.563 54.6872 306.553 61.0542 306.553 61.0542C306.553 61.0542 310.902 61.8202 314.2 65.8989C316.452 68.6707 315.806 72.7399 315.154 75.0378ZM360.128 225.477C357.926 229.599 351.305 230.212 351.305 230.212C351.305 230.212 352.624 233.788 350.74 238.082C349.588 240.705 346.543 242.051 344.341 242.711C341.886 228.608 336.881 219.263 336.881 219.263C336.881 219.263 347.972 213.796 357.204 200.483C358.133 201.383 359.255 203.03 359.628 205.94C360.295 211.216 356.75 212.676 356.75 212.676C360.234 215.103 362.694 220.714 360.128 225.477Z" fill="#FFDEDE"/>
<path d="M199.862 243.271C199.852 243.386 199.842 243.511 199.827 243.64V243.649C199.817 243.64 199.807 243.63 199.802 243.63C199.802 243.621 199.802 243.621 199.802 243.621C199.822 243.453 199.842 243.343 199.862 243.271Z" fill="#C95959"/>
<path d="M199.822 243.64V243.65C199.812 243.64 199.802 243.63 199.797 243.63C199.797 243.621 199.797 243.621 199.797 243.621C199.807 243.621 199.817 243.63 199.822 243.64Z" fill="#C95959"/>
<path d="M163.67 125.797V125.84C163.65 126.261 163.65 126.52 163.65 126.572C163.625 126.319 163.605 126.051 163.585 125.773C163.585 125.754 163.575 125.73 163.585 125.711C163.615 125.744 163.645 125.773 163.67 125.797Z" fill="#C95959"/>
<path d="M163.792 125.931C163.762 125.902 163.716 125.878 163.671 125.845C163.641 125.816 163.625 125.802 163.585 125.773C163.585 125.754 163.575 125.73 163.585 125.711C163.615 125.744 163.641 125.773 163.671 125.797C163.716 125.85 163.767 125.888 163.792 125.931Z" fill="#C95959"/>
<path d="M226.736 101.573C226.736 101.573 233.145 104.513 238.109 113.135C243.069 121.756 260.645 139.982 279.872 139.005C299.099 138.024 313.78 119.995 320.811 111.177C327.841 102.359 335.285 99.4192 340.245 102.555C345.204 105.69 346.032 113.92 340.245 115.686C334.457 117.453 333.007 112.354 333.007 112.354C333.007 112.354 334.866 113.728 336.315 111.177C337.765 108.63 333.007 104.12 328.664 107.256C324.321 110.392 323.704 117.84 329.699 121.172C335.694 124.504 347.482 120.191 348.719 107.648C349.962 95.1059 335.28 92.7553 330.73 93.5404C326.179 94.3255 319.77 102.947 319.77 102.947C319.77 102.947 322.871 98.6341 322.664 92.7553C322.457 86.8766 319.149 81.9744 319.149 81.9744C319.149 81.9744 312.74 86.8718 311.705 93.5356C310.669 100.199 312.119 105.293 312.119 105.293C312.119 105.293 307.982 92.358 297.028 98.6293C297.028 98.6293 293.099 101.961 296.821 107.055C296.821 107.055 301.371 102.354 304.058 109.013C306.745 115.672 306.28 138.048 275.654 136.961C275.654 136.961 297.841 131.805 295.977 118.104C294.119 104.403 287.392 112.407 287.392 112.407C287.392 112.407 292.114 110.645 291.402 116.069C290.69 121.493 284.104 124.346 276.947 123.26C269.791 122.173 268.644 123.533 269.22 126.515C269.791 129.497 274.089 134.246 276.806 134.519C276.806 134.519 269.508 137.641 260.205 130.991C250.902 124.342 247.468 114.576 250.614 103.991C253.761 93.4112 266.503 89.883 276.235 91.7787C276.235 91.7787 280.528 80.792 266.074 81.6058C251.619 82.4197 245.175 99.3761 245.322 107.38C245.316 107.395 238.933 93.5835 226.736 101.573Z" fill="#C95959"/>
<path d="M207.282 77.8334C207.282 77.8334 214.57 89.0356 241.61 89.3085C241.61 89.3085 243.327 82.7069 230.074 80.859C230.074 80.859 251.165 69.0967 243.63 56.1089C236.095 43.1259 219.569 41.1152 212.049 51.5658C212.049 51.5658 225.049 42.7955 234.574 56.3052C243.68 69.2212 232.024 85.0622 207.282 77.8334Z" fill="#C95959"/>
<path d="M212.125 55.0557C212.125 55.0557 218.393 76.3685 193.898 80.3898C193.898 80.3898 178.231 81.0887 171.019 71.3946C171.019 71.3946 176.903 80.4808 167.979 87.9919C167.979 87.9919 159.338 79.868 160.954 69.6472C160.954 69.6472 149.469 84.0616 146.808 73.8408C146.808 73.8408 153.358 76.8999 153.641 69.561C153.924 62.2222 152.883 54.6248 143.767 49.469C143.767 49.469 146.808 56.1089 139.308 57.4158C139.308 57.4158 142.156 49.9908 134.848 45.5338C127.54 41.0769 128.394 40.378 117 39.2434C105.606 38.1088 99.6264 42.0391 99.6264 42.0391C99.6264 42.0391 118.328 40.0285 121.934 49.8136C121.934 49.8136 107.409 50.8621 102.95 48.1525C102.95 48.1525 110.641 55.4913 97.7274 58.6365C97.7274 58.6365 98.5809 53.8301 89.9446 52.8727C81.3033 51.9105 71.6216 66.0616 69.9146 77.5079C69.9146 77.5079 72.859 70.868 78.8387 69.0345C78.8387 69.0345 76.6569 72.443 76.6569 76.5456C76.6569 80.6531 74.8539 86.4169 73.3337 89.0356C73.3337 89.0356 79.5054 84.7558 82.1619 88.2505C84.8185 91.7452 80.4549 94.3638 80.2629 97.2457C80.071 100.128 80.167 104.585 83.6821 107.466C87.1972 110.348 92.1315 112.182 92.1315 112.182C92.1315 112.182 85.5053 105.245 88.8891 99.5771C92.2679 93.9138 97.9445 97.4659 96.9799 99.5771C96.0152 101.688 93.1163 102.134 93.1163 102.134C93.1163 102.134 93.8688 118.563 111.692 105.695C111.692 105.695 118.343 99.2659 119.061 89.6723C119.061 89.6723 110.328 104.101 102.308 98.7728C94.288 93.4446 101.864 88.3606 104.177 90.9026C106.49 93.4446 108.899 93.6888 112.106 90.6585C115.313 87.6233 117.631 83.1138 116.116 78.4414C114.601 73.7691 113.086 73.2759 113.086 73.2759C113.086 73.2759 128.055 84.0999 133.666 91.1468C139.277 98.1984 150.06 100.085 152.201 99.5101C154.338 98.9356 159.151 96.8867 158.974 90.6537C158.797 84.4207 150.954 81.5531 149.171 85.0765C147.388 88.5999 148.995 88.1116 148.995 88.1116C148.995 88.1116 148.904 85.1579 151.313 86.7999C153.717 88.442 151.58 92.7026 148.196 91.8026C144.813 90.9026 144.454 84.9999 146.505 83.2765C148.555 81.5531 151.404 78.2738 156.308 81.8834C161.212 85.493 163.348 93.4446 156.666 98.8542C149.984 104.264 131.717 107.299 126.374 97.2122C121.025 87.1302 120.581 85.0765 120.581 85.0765C120.581 85.0765 119.368 98.9165 117.459 102.21C115.601 105.427 113.626 111.636 104.273 114.915C94.9194 118.195 86.1871 118.606 84.0457 122.048C81.9094 125.49 82.6568 130.302 86.8184 130.943C89.9598 131.427 91.4395 130.661 94.4698 127.133C97.5001 123.604 91.2628 135.659 84.3134 135.414C77.364 135.17 75.3135 130.005 75.5812 124.839C75.8488 119.674 82.2629 114.015 89.2123 113.278C89.2123 113.278 74.3186 108.438 63.9955 100.951C56.7481 95.6946 50.8945 84.0904 50.8945 84.0904C50.8945 84.0904 51.1622 80.0738 56.9551 81.4669C62.7479 82.86 61.7682 83.6786 61.7682 83.6786C61.7682 83.6786 58.2026 77.9818 59.2733 59.7376C59.2733 59.7376 66.6671 62.0738 66.8489 68.6323C67.0308 75.1908 68.0055 80.3563 68.0055 80.3563C68.0055 80.3563 69.4297 69.044 72.9044 62.2365C76.3791 55.4339 86.2679 44.1982 97.1415 40.3445C108.01 36.4907 125.924 37.0652 139.02 43.7865C152.116 50.5078 175.908 70.5951 184.373 71.8254C192.827 73.0701 212.984 76.56 212.125 55.0557Z" fill="#C95959"/>
<path d="M60.7732 111.962C60.7732 111.962 62.6115 113.355 60.258 114.192C57.9045 115.03 57.4651 112.311 58.4954 110.851C59.5257 109.386 65.7731 107.576 70.6215 112.522C75.47 117.467 73.7074 129.866 67.46 136.415C61.2126 142.964 53.2026 146.305 53.2026 146.305C53.2026 146.305 70.9852 142.681 81.7174 146.583C92.4445 150.485 107.586 168.178 110.672 168.528C110.672 168.528 107.146 172.358 101.854 169.782C96.5607 167.206 97.2223 165.952 97.2223 165.952C97.2223 165.952 99.6464 175.914 92.8132 181.487C92.8132 181.487 86.5658 177.657 88.9193 168.322C88.9193 168.322 84.1416 173.056 79.5104 168.183C79.5104 168.183 89.7981 159.614 79.5861 152.16C69.3741 144.706 51.8086 149.163 51.8086 149.163C51.8086 149.163 72.0206 150.068 69.2984 159.331C69.2984 159.331 63.4146 155.889 57.9096 157.522C49.5966 159.982 51.147 162.189 51.147 162.189C51.147 162.189 45.5613 157.938 49.4552 152.926C53.3491 147.909 48.2077 149.929 48.2077 149.929C48.2077 149.929 43.3592 151.6 39.1674 154.525L38.5815 153.481C38.5815 153.481 45.7077 148.603 50.8542 146.444C56.0006 144.285 50.9299 145.956 50.9299 145.956C50.9299 145.956 45.0512 146.655 44.536 141.777C44.0209 136.898 44.9047 135.716 44.9047 135.716C44.9047 135.716 58.8692 140.173 65.8489 128.262C72.8286 116.351 70.0358 112.728 67.0257 111.612C64.0106 110.497 60.7732 111.962 60.7732 111.962Z" fill="#C95959"/>
<path d="M37.0209 152.548C37.0209 152.548 31.4604 135.563 39.9351 127.908C46.4905 121.986 50.7128 127.908 50.7128 127.908C50.7128 127.908 48.3844 131.705 50.7834 132.466C53.1874 133.227 59.3743 129.981 56.0258 122.25C52.6774 114.518 41.6068 117.625 39.93 119.004C39.93 119.004 50.5511 111.105 50.4501 103.57C50.4501 103.57 40.0108 101.66 32.9958 117.127C32.9958 117.127 32.8443 99.9938 41.92 94.5746C41.92 94.5746 43.6724 81.8549 53.738 72.3091C53.738 72.3091 42.1471 82.0942 35.8795 95.6469C29.617 109.195 27.9301 132.121 37.0209 152.548Z" fill="#C95959"/>
<path d="M38.5059 156.809C38.5059 156.809 46.0815 172.056 60.4045 183.172C74.7276 194.288 80.3336 206.194 77.4245 210.325C74.5205 214.457 70.263 210.914 69.3286 206.093C68.3943 201.273 69.2227 195.959 61.8541 195.762C61.8541 195.762 66.4196 196.844 66.6267 204.715C66.8338 212.585 70.364 218.488 74.8236 218.488C79.2882 218.488 84.475 215.634 84.1618 206.586C83.8487 197.534 70.0459 185.929 70.0459 185.929C70.0459 185.929 75.4448 192.325 88.2073 188.093C88.2073 188.093 89.5557 179.438 66.6217 177.762C66.6217 177.762 81.4649 170.778 71.3943 164.186C71.3943 164.186 70.7731 174.713 57.3844 171.663C44.0057 168.614 38.5059 156.809 38.5059 156.809Z" fill="#C95959"/>
<path d="M36.3949 155.32L36.9757 156.335C36.9757 156.335 28.4303 163.113 30.4808 170.591C32.5363 178.069 38.7837 175.656 38.9454 172.851C38.9454 172.851 47.4907 175.264 38.4504 183.21C38.4504 183.21 57.4351 182.353 57.5159 194.427C57.5159 194.427 55.0513 191.234 44.6928 193.024C34.3344 194.815 34.5818 190.219 34.5818 190.219C34.5818 190.219 34.5818 191.698 38.4454 195.595C42.309 199.492 41.1575 206.893 41.1575 206.893C41.1575 206.893 40.501 204.088 35.7333 201.364C30.9657 198.635 22.5819 191.239 24.5566 180.874C26.5314 170.515 28.5616 166.431 28.5616 166.431C28.5616 166.431 23.3091 173.66 21.2284 178.84C19.1526 184.019 17.1426 203.269 27.9657 209.717C38.7888 216.171 45.7028 216.802 50.3896 212.255C55.0764 207.707 52.1473 204.571 52.1473 204.571C52.1473 204.571 49.1625 205.107 49.7281 202.125C50.2938 199.142 54.9755 198.376 56.6674 200.593C58.3644 202.809 62.233 211.838 56.5058 215.888C50.7786 219.943 50.1322 219.177 50.1322 219.177C50.1322 219.177 62.7986 216.884 68.7733 221.087C74.743 225.295 77.9702 230.341 77.4904 238.067C77.0056 245.794 69.9046 246.938 69.9046 246.938C69.9046 246.938 76.8439 242.117 73.4551 235.31C70.0662 228.503 47.4654 225.367 36.6575 218.942C26.0061 212.609 14.385 207.204 19.2233 182.009C19.2233 182.009 8.06192 210.086 20.4254 218.631C32.7889 227.176 36.8242 222.456 36.8242 222.456C36.8242 222.456 37.3242 236.449 23.6123 229.403C23.6123 229.403 27.5162 236.665 37.708 241.6C37.708 241.6 36.0212 239.714 37.8596 235.645C37.8596 235.645 41.9958 236.66 42.6069 243.415C42.6069 243.415 46.208 234.41 58.4654 236.081C58.4654 236.081 58.1573 242.4 50.7281 246.828C50.7281 246.828 65.435 245.378 70.5663 253.655C70.5663 253.655 67.1218 258.811 54.9401 254.306C54.9401 254.306 73.6319 267.954 66.6623 280.516C66.6623 280.516 70.0309 271.511 57.3947 264.905C44.7534 258.298 46.7483 251.836 46.7483 251.836C46.7483 251.836 49.122 260.333 41.3089 265.048C41.3089 265.048 35.4101 252.195 40.1575 248.058C40.1575 248.058 35.4101 249.945 30.5061 246.172C30.5061 246.172 31.3495 244.65 38.2434 244.501C38.2434 244.501 22.0819 234.625 21.39 229.618C21.39 229.618 28.4354 249.006 17.2537 253.143C17.2537 253.143 19.1679 243.702 16.7942 235.138C14.4205 226.568 12.2739 216.769 12.2739 210.014C12.2739 203.259 14.1881 193.824 15.875 187.868C17.5719 181.932 28.5616 161.385 36.3949 155.32Z" fill="#C95959"/>
<path d="M19.6675 255.067C19.6675 255.067 24.4098 255.134 28.5058 265.623C32.6017 276.112 42.7328 272.229 43.8843 271.344C45.0358 270.458 47.9803 269.366 48.3389 263.306C48.3389 263.306 47.8237 267.791 43.8843 270.118C38.7783 273.134 34.9047 269.098 33.8239 266.781C32.829 264.641 30.233 253.908 25.9906 253.363C21.7533 252.817 19.6675 255.067 19.6675 255.067Z" fill="#C95959"/>
<path d="M51.5966 273.55C51.5966 273.55 54.2279 276.806 56.7835 273.694C59.339 270.582 52.7734 267.246 49.8593 270.817C46.9452 274.388 44.6977 285.102 52.5916 289.248C60.4905 293.394 70.3894 293.044 88.0054 287.4C105.621 281.756 107.323 304.672 98.0911 302.485C88.8589 300.297 85.9397 290.507 85.9397 290.507C85.9397 290.507 84.5608 312.117 103.556 316.42C114.97 319.005 113.985 321.107 113.985 321.107C113.985 321.107 115.586 307.899 102.586 307.899C102.586 307.899 113.884 297.649 107.202 288.439C100.52 279.228 88.6113 278.764 77.9195 282.565C67.2277 286.366 57.0663 289.167 53.5007 286.481C49.0967 283.168 47.8947 278.381 51.5966 273.55Z" fill="#C95959"/>
<path d="M86.0154 292.479C86.0154 292.479 86.2377 320.719 97.384 333.156C110.212 347.466 117.707 355.245 137.742 357.806C157.777 360.367 165.878 354.302 165.878 354.302L161.106 348.844C161.106 348.844 148.727 360.085 127.838 354.158C127.838 354.158 135.954 353.919 155.237 345.479L154.989 344.885C154.989 344.885 130.394 355.786 121.616 352.09C112.838 348.399 112.374 345.991 112.374 345.991C112.374 345.991 132.197 352.234 141.495 339.366C141.495 339.366 133.959 335.632 123.303 340.524C123.303 340.524 139.005 320.15 117.202 324.587C117.202 324.587 125.136 334.861 114.136 338.528C103.142 342.195 95.1113 327.297 95.1113 327.297C95.1113 327.297 103.207 331.83 107.338 329.719C110.076 328.321 110.535 324.946 110.535 324.946C110.535 324.946 98.788 327.9 94.3942 321.236C94.3942 321.236 89.0255 315.233 87.3942 303.897C85.7679 292.575 86.0154 292.479 86.0154 292.479Z" fill="#C95959"/>
<path d="M166.226 365.561C166.226 365.561 172.494 356.092 160.959 346.628C149.424 337.163 153.969 343.703 133.535 325.799C113.101 307.894 113.197 295.931 112.651 287.065C112.106 278.199 120.732 256.594 120.732 256.594C120.732 256.594 117.282 265.288 105.48 271.224C93.6767 277.165 83.6869 277.079 78.2375 270.276C72.788 263.478 74.788 257.882 76.7829 254.871C78.7778 251.859 83.0505 252.889 82.596 255.129C82.1414 257.37 79.7829 257.537 79.5102 255.819C79.5102 255.819 77.8738 264.685 86.7727 266.403C95.6716 268.127 109.02 265.541 116.828 256.589C124.636 247.637 131.267 238.943 131.267 238.943C131.267 238.943 121.914 238.943 115.287 245.138C108.661 251.333 107.752 256.757 108.929 258.566C108.929 258.566 104.116 260.974 103.389 256.843C102.661 252.712 103.752 251.591 103.752 251.591C103.752 251.591 94.1919 261.913 92.9242 265.527L91.5858 265.451C91.5858 265.451 98.6665 255.378 102.03 251.247C102.03 251.247 89.5908 259.294 85.505 248.666C85.505 248.666 96.1312 249.313 111.111 243.113C126.09 236.914 134.989 237.172 134.989 237.172C134.989 237.172 127.09 244.401 127 253.612C126.909 262.822 127.727 273.407 137.807 272.119L140.439 271.774C140.439 271.774 141.075 281.416 131.267 279.779C121.459 278.141 120.459 259.466 122.005 255.938C122.005 255.938 114.288 272.464 115.828 278.659C117.368 284.853 124.363 293.202 124.363 293.202L121.914 297.678C121.914 297.678 114.469 292.082 113.924 285.801C113.924 285.801 113.56 300.776 119.192 308.182C124.823 315.583 134.898 323.501 143.615 322.639C152.333 321.777 153.333 312.48 148.701 311.968C144.07 311.451 147.61 304.395 153.605 305.429C159.6 306.463 161.504 310.594 161.413 316.961C161.322 323.328 152.969 329.872 142.252 328.063C142.252 328.063 158.595 331.764 164.59 340.199C170.585 348.648 174.039 360.87 166.226 365.561Z" fill="#C95959"/>
<path d="M143.348 311.293C143.348 311.293 129.545 310.259 129.818 301.565C130.091 292.872 141.257 286.246 149.792 288.827C158.328 291.407 165.772 300.531 166.227 308.105C166.681 315.678 165.045 328.159 162.777 333.066C162.777 333.066 170.222 321.878 172.585 311.978C174.949 302.078 178.671 286.672 182.666 286.069C182.666 286.069 176.671 282.627 173.585 287.706C170.499 292.786 170.681 307.588 169.408 308.622C169.408 308.622 169.317 292.441 158.515 286.414C147.707 280.387 137.995 282.455 133.727 284.949C129.459 287.443 124.101 294.59 125.101 302.078C126.096 309.575 133.904 314.051 143.348 311.293Z" fill="#C95959"/>
<path d="M132.409 301.661C132.409 301.661 132.859 298.267 135.929 296.448C135.929 296.448 146.929 298.813 149.106 304.026C149.101 304.026 137.46 301.786 132.409 301.661Z" fill="#C95959"/>
<path d="M172.353 352.272C172.353 352.272 174.823 352.459 181.338 348.624C187.853 344.79 191.014 345.067 193.085 346.657C195.156 348.246 195.454 353.675 188.545 355.642C181.636 357.61 179.954 355.925 178.474 358.917C176.994 361.914 179.262 364.815 181.338 364.815C183.413 364.815 183.61 363.039 183.61 363.039C183.61 363.039 180.944 362.665 181.54 361.167C182.131 359.668 187.464 358.639 192.004 359.295C196.545 359.951 202.767 353.589 203.161 348.064C203.555 342.54 198.62 335.713 186.277 338.988C173.934 342.262 175.782 344.593 175.661 344.325C175.095 343.057 178.08 343.014 176.106 336.647C174.131 330.28 170.282 330.375 170.282 330.375C170.282 330.375 172.196 341.582 167.853 342.142C167.848 342.138 172.747 348.246 172.353 352.272Z" fill="#C95959"/>
<path d="M177.05 319.345C177.05 319.345 180.277 319.513 180.747 317.229C181.216 314.951 177.58 313.39 175.171 315.674C172.767 317.952 172.529 324.798 176.464 328.135C180.393 331.472 184.443 333.53 193.363 333.085C202.282 332.64 210.332 325.904 213.827 315.449C217.322 304.993 212.539 292.274 212.539 292.274C212.539 292.274 220.948 304.529 231.837 306.506C242.726 308.483 242.665 300.474 242.665 300.474C242.665 300.474 238.382 305.022 232.711 299.416C227.044 293.81 226.695 286.471 226.15 283.915C225.605 281.359 222.297 276.389 217.297 278.577C212.297 280.76 212.458 284.954 212.458 284.954C212.458 284.954 212.736 277.95 212.019 273.498C212.019 273.498 209.408 275.346 208.393 278.802C208.393 278.802 205.443 274.632 198.539 272.464C198.539 272.464 199.327 277.687 205.398 282.91C205.398 282.91 196.292 282.211 196.211 287.285C196.13 292.36 203.236 296.146 204.524 302.183C205.817 308.22 209.145 327.321 192.211 329.174C175.277 331.026 177.05 319.345 177.05 319.345Z" fill="#C95959"/>
<path d="M200.236 260.29C200.236 260.29 189.12 271.325 186.136 282.962C183.151 294.6 183.469 305.448 185.232 316.104C186.994 326.761 188.292 327.91 188.292 327.91C188.292 327.91 194.747 328.346 198.151 324.521C198.151 324.521 193.923 315.975 190.595 311.806C190.595 311.806 202.04 314.659 202.656 305.036C202.656 305.036 190.797 306.87 188.757 298.665C186.716 290.459 188.125 282.302 189.029 279.884C189.029 279.884 190.317 282.402 193.358 283.905C193.358 283.905 193.363 268.874 198.888 262.875C204.413 256.877 205.085 255.393 205.085 255.393L200.236 260.29Z" fill="#C95959"/>
<path d="M195.019 335.277C195.019 335.277 208.014 349.036 225.271 338.686C225.271 338.686 210.009 340.136 204.398 331.586C204.398 331.586 199.792 334.684 195.019 335.277Z" fill="#C95959"/>
<path d="M218.721 265.326C218.721 265.326 232.448 270.396 241.018 262.688C242.493 261.362 244.685 261.065 246.534 261.865C246.534 261.865 241.029 273.967 224.458 268.548C207.888 263.129 206.1 260.797 206.1 260.797L218.721 265.326Z" fill="#C95959"/>
<path d="M206.1 260.802C206.1 260.802 237.332 276.107 243.791 297.166C249.746 316.588 237.089 328.034 229.67 325.933C222.251 323.831 222.084 320.47 222.998 317.215C222.998 317.215 223.776 319.953 226.029 319.24C228.281 318.527 229.16 317.157 227.872 314.965C226.579 312.772 222.372 311.571 218.635 314.194C214.898 316.818 211.589 333.214 227.438 333.97C243.286 334.727 246.72 319.628 246.72 319.628C246.72 319.628 253.503 328.47 263.756 321.107C274.008 313.739 264.503 305.735 263.321 306.559C262.139 307.382 259.296 314.132 255.786 312.313C252.276 310.494 250.382 297.099 243.382 287.304C234.559 274.948 209.039 261.128 206.1 260.802Z" fill="#C95959"/>
<path d="M243.373 276.576C243.373 276.576 264.069 279.611 278.271 270.056C292.478 260.505 280.958 253.061 280.958 253.061C280.958 253.061 280.801 255.412 277.524 254.665C274.246 253.918 273.726 246.053 279.463 244.272C285.195 242.491 291.372 247.336 291.7 252.099C292.029 256.862 288.892 268.261 283.604 270.908C283.604 270.908 293.892 267.227 304.544 275.609C304.544 275.609 301.882 282.843 291.433 282.192C291.433 282.192 315.341 297.922 306.735 311.643C298.129 325.363 285.205 317.024 285.024 310.01C284.842 302.997 289.862 296.008 289.054 292.637C288.246 289.267 286.665 287.869 286.665 287.869C286.665 287.869 293.463 290.105 293.251 297.688C293.044 305.276 294.205 307.449 296.988 306.808C299.771 306.166 299.362 285.873 284.089 283.805C268.817 281.737 251.867 281.043 243.373 276.576Z" fill="#C95959"/>
<path d="M267.71 261.314C267.71 261.314 267.766 252.195 274.18 253.597C280.599 255.005 279.069 265.489 275.417 267.696C271.766 269.903 261.104 269.477 259.407 260.907C257.67 252.152 262.221 245.076 268.013 242.007C273.806 238.939 286.155 236.009 297.579 242.223C309.008 248.437 316.321 259.931 319.821 267.059C319.821 267.059 315.23 257.566 322.639 248.216C322.639 248.216 322.972 254.268 326.462 258.495C329.952 262.717 328.558 276.011 328.558 276.011C328.558 276.011 328.78 265.072 338.245 263.564C338.245 263.564 330.912 305.266 304.548 319.776C278.185 334.286 251.736 322.567 251.736 322.567C251.736 322.567 283.412 336.608 310.917 310.293C316.195 305.242 318.195 297.764 315.609 291.086C314.099 287.189 311.286 284.202 306.074 285.614C306.074 285.614 300.786 281.574 307.715 277.385C314.644 273.196 318.27 279.42 318.27 279.42C318.27 279.42 307.73 268.294 303.457 260.429C299.185 252.563 291.564 240.073 278.993 241.155C266.423 242.237 262.963 250.797 262.857 252.535C262.751 254.277 261.625 259.155 267.71 261.314Z" fill="#C95959"/>
<path d="M288.645 267.643L291.043 267.681L301.998 261.745L301.2 260.113L288.645 267.643Z" fill="#C95959"/>
<path d="M312.114 249.93L313.336 251.146C313.336 251.146 328.422 237.68 335.023 220.761C341.629 203.843 340.659 177.604 341.982 173.167C343.306 168.729 346.493 164.248 349.457 164.478C352.422 164.708 354.72 168.781 352.104 175.359C349.487 181.937 343.846 185.575 343.417 193.915C342.988 202.254 350.775 200.641 350.775 200.641C350.775 200.641 347.013 197.878 349.048 191.358C351.083 184.843 358.371 181.678 360.073 175.527C361.775 169.375 360.164 164.439 357.033 162.295C357.033 162.295 362.765 161.108 364.154 154.104C364.154 154.104 348.937 148.44 340.568 160.533C332.2 172.63 336.553 185.618 336.553 185.618C336.553 185.618 335.846 173.08 323.816 176.47C323.816 176.47 321.836 182.588 325.215 188.146C328.594 193.704 330.225 194.312 330.225 194.312C330.225 194.312 321.998 185.585 314.018 193.804C306.038 202.024 316.776 203.891 320.877 202.096C324.978 200.301 330.432 205.303 330.856 211.584C331.281 217.86 332.902 226.86 322.695 237.78C322.695 237.78 328.887 215.203 318.099 206.764C308.427 199.195 299.629 198.802 296.897 204.15C294.165 209.497 297.842 211.843 300.826 211.943C303.811 212.039 304.19 207.214 301.266 205.634C301.266 205.634 305.907 208.238 309.756 214.528C313.604 220.824 317.675 221.326 317.675 221.326C317.675 221.326 306.801 217.923 305.281 225.855C303.766 233.788 307.316 234.587 309.493 234.123C311.983 233.586 311.776 231.021 311.776 231.021C311.776 231.021 318.609 233.63 317.579 239.049C316.548 244.468 312.114 249.93 312.114 249.93Z" fill="#C95959"/>
<path d="M252.584 204.686C252.584 204.686 262.24 214.844 276.175 217.927C290.114 221.01 296.922 225.841 293.871 229.029C290.821 232.213 285.826 229.738 281.346 224.826C276.867 219.914 272.17 217.324 267.129 220.067C262.089 222.81 266.836 229.537 270.003 229.8C273.17 230.063 273.912 225.171 273.912 225.171C273.912 225.171 277.063 228.732 281.23 233.893C285.397 239.054 293.185 239.566 296.912 238.498C300.639 237.431 305.487 231.006 303.058 222.226C300.629 213.447 281.619 210.814 278.043 210.244C278.043 210.244 289.048 210.033 303.457 195.94C317.866 181.846 325.391 167.297 333.149 165.196C333.149 165.196 332.932 160.758 324.916 161.524C324.916 161.524 329.174 146.822 334.058 138.986C338.942 131.149 352.573 130.967 353.563 137.976C354.552 144.989 350.295 143.318 350.295 143.318C350.295 143.318 350.815 139.062 347.381 139.373C343.947 139.685 343.396 144.3 344.719 146.32C346.042 148.34 354.825 150.145 357.138 144.247C359.446 138.344 355.108 125.323 341.058 128.693C327.007 132.063 320.159 154.314 320.159 154.314C320.159 154.314 322.235 149.589 317.538 141.791C317.538 141.791 313.25 147.287 312.982 159.691C312.982 159.691 308.593 152.634 304.033 158.35C304.033 158.35 311.957 168.087 307.22 179.759C302.487 191.43 289.897 206.275 279.286 207.903C279.286 207.903 294.725 199.032 298.366 185.594C302.003 172.157 299.669 164.674 301.669 158.034C303.669 151.394 309.886 137.334 325.79 137.1L331.634 131.135C331.634 131.135 317.598 126.146 309.295 134.175C300.993 142.208 298.437 150.714 298.437 150.714C298.437 150.714 298.381 147.244 295.321 143.524C295.321 143.524 288.028 148.771 289.255 161.419C290.483 174.067 293.275 173.818 293.265 176.685C293.265 176.685 285.72 166.977 281.877 173.109C278.033 179.242 283.119 180.142 283.119 180.142C283.119 180.142 284.725 177.767 286.735 180.563C288.745 183.359 292.816 193.852 286.376 199.41C279.937 204.968 277.957 204.566 274.099 205.438C274.099 205.438 285.023 197.802 278.993 188.697C272.963 179.591 269.528 189.999 269.528 189.999C269.528 189.999 275.664 190.343 274.887 194.953C274.114 199.573 268.947 208.937 252.584 204.686Z" fill="#C95959"/>
<path d="M335.548 140.666L339.209 136.611C339.209 136.611 343.851 140.92 342.209 147.9C340.568 154.879 333.179 156.421 332.836 153.142C332.497 149.862 336.058 149.029 337.714 151.773C337.714 151.773 340.234 149.192 339.037 145.793C337.841 142.394 335.548 140.666 335.548 140.666Z" fill="#C95959"/>
<path d="M246.635 259.289C246.635 259.289 256.342 265.264 249.044 270.496C241.746 275.729 235.999 274.498 235.999 274.498C235.999 274.498 243.817 277.438 251.958 273.244C260.094 269.055 255.256 260.352 246.635 259.289Z" fill="#C95959"/>
<path d="M256.715 309.072C256.715 309.072 257.048 296.62 267.17 298.909C277.286 301.197 275.74 313.496 271.664 317.158C271.664 317.158 280.265 316.636 280.265 303.624C280.265 303.624 290.033 298.344 281.351 288.554C281.351 288.554 280.967 300.345 272.276 293.681C263.584 287.022 254.836 299.737 256.715 309.072Z" fill="#C95959"/>
<path d="M240.816 280.382C240.816 280.382 254.574 290.847 254.089 301.498C254.089 301.498 259.21 287.812 270.119 285.672C270.114 285.672 249.003 285.279 240.816 280.382Z" fill="#C95959"/>
<path d="M339.114 230.279C339.114 230.279 326.29 233.563 326.649 245.617C327.008 257.676 337.432 257.547 340.997 253.966C343.028 251.926 343.482 244.64 334.816 246.244C334.811 246.244 329.265 236.789 339.114 230.279Z" fill="#C95959"/>
<path d="M77.8037 225.745C77.8037 225.745 91.5915 229.786 90.0107 237.823C90.0107 237.823 85.7329 237.067 85.4047 240.049C85.0764 243.032 88.5056 246.474 93.7126 242.812C98.9196 239.149 94.551 226.827 77.8037 225.745Z" fill="#C95959"/>
<path d="M64.4751 267.969C64.4751 267.969 71.3083 278.304 65.4498 281.957C59.5912 285.61 60.6923 279.171 62.6266 278.51C64.561 277.85 65.4044 278.917 65.4044 278.917C65.4044 278.917 70.3133 276.777 63.172 267.514L64.4751 267.969Z" fill="#C95959"/>
<path d="M192.59 52.7532C192.59 52.7532 188.297 53.2319 188.832 50.2303C189.368 47.2287 193.297 46.4915 194.312 48.1287C195.327 49.766 199.06 56.3532 190.792 62.208C182.524 68.0676 170.065 56.2144 167.772 53.1793C165.484 50.149 163.217 41.5989 164.262 35.6914C164.262 35.6914 162.782 45.5915 150.722 43.6909C150.722 43.6909 155.409 34.4707 158.191 28.7787C160.974 23.0866 170.55 16.0111 171.676 15.1541C171.676 15.1541 149.469 24.968 140.06 39.1383L138.626 38.492C138.626 38.492 157.833 18.1558 174.08 11.7169C190.327 5.27806 197.464 4.2488 207.544 3.65997C217.625 3.07114 230.403 6.29295 236.281 9.95041C240.296 12.4494 250.897 20.5494 253.796 25.1451C256.695 29.7409 262.135 45.0601 260.372 54.8165C258.609 64.5681 252.978 73.8123 246.458 77.8575C246.458 77.8575 252.65 72.8836 252.519 58.2346C252.387 43.5856 249.559 42.5899 249.104 39.3106C248.65 36.0313 249.428 27.9409 249.428 27.9409C249.428 27.9409 244.913 39.325 237.029 39.9234C229.145 40.5266 228.059 35.7776 228.059 35.7776C228.059 35.7776 233.514 38.7074 235.918 34.7867C238.322 30.8659 237.519 25.7818 237.993 23.5414C238.468 21.3058 241.286 19.3956 244.493 20.0754C244.493 20.0754 236.014 10.6877 230.64 8.83978C225.271 6.9919 215.201 4.57911 210.307 6.40306C205.413 8.227 194.55 15.451 197.302 24.1829C200.055 32.9148 207.928 35.3133 212.6 34.5186C217.277 33.7239 223.388 28.6351 223.494 23.7138C223.6 18.7925 218.691 17.2222 214.499 17.7201C210.307 18.218 211.206 21.8659 207.216 22.8856C203.226 23.9052 201.292 23.6467 201.292 23.6467C201.292 23.6467 207.767 18.3329 211.221 14.8956C214.676 11.4584 223.786 10.4962 226.786 15.1111C229.786 19.726 231.827 26.3898 227.569 32.1058C223.312 37.8218 215.468 42.6904 208.019 40.2728C200.57 37.8553 194.044 33.5659 193.701 28.276C193.701 28.276 197.999 40.0957 183.918 45.1894C183.918 45.1894 183.439 35.1266 184.969 28.9175C186.499 22.7084 188.757 17.0164 193.342 13.201C197.928 9.38552 208.842 4.88071 208.842 4.88071C208.842 4.88071 191.019 5.41689 184.236 9.70627C177.454 13.9956 174.297 21.4589 176.328 25.2169C178.358 28.9749 180.696 28.3334 180.696 28.3334C180.696 28.3334 183.302 35.7824 178.545 36.467C173.787 37.1516 171.54 34.418 171.54 34.418C171.54 34.418 174.641 39.0473 174.454 43.8585C174.267 48.6697 177.918 60.566 183.019 60.7192C188.14 60.8532 192.928 62.5 192.59 52.7532Z" fill="#C95959"/>
<path d="M204.277 73.0508L201.247 72.7396C201.247 72.7396 196.125 63.3662 199.438 55.18C202.752 46.9938 208.661 45.098 214.423 44.2603C214.423 44.2603 201.246 46.1416 200.565 58.5167C199.878 70.8917 204.277 73.0508 204.277 73.0508Z" fill="#C95959"/>
<path d="M260.61 30.0422C260.61 30.0422 267.236 36.821 267.448 44.5716C267.726 54.8019 267.66 62.6865 269.933 65.5205C269.933 65.5205 263.185 58.9908 259.746 64.8264C256.312 70.6621 259.67 65.7503 261.352 70.3078C263.034 74.87 264.13 79.0062 264.13 79.0062C264.13 79.0062 266.175 78.1733 271.857 79.5376C277.539 80.8972 277.917 83.6307 277.917 83.6307C277.917 83.6307 285.927 71.9642 288.741 70.6381C288.741 70.6381 289.013 65.3578 284.508 64.4674C280.003 63.5769 277.645 67.9046 277.645 67.9046C277.645 67.9046 279.796 53.7631 275.882 46.3811C271.968 38.9992 260.61 30.0422 260.61 30.0422Z" fill="#C95959"/>
<path d="M251.726 115.298L251.907 117.074C251.907 117.074 267.816 99.0695 271.493 93.6982L264.044 94.1817C264.044 94.1865 255.513 112.053 251.726 115.298Z" fill="#C95959"/>
<path d="M228.978 134.553C228.978 134.553 242.913 126.51 245.892 126.534L243.862 123.628L227.16 134.811L228.978 134.553Z" fill="#C95959"/>
<path d="M253.029 120.033L255.049 122.666C255.049 122.666 270.387 113.776 274.832 111.885C279.271 109.994 286.998 106.902 291.195 106.619C291.195 106.619 292.771 104.905 291.473 101.923C290.18 98.9405 282.938 99.5724 282.938 99.5724C282.938 99.5724 294.917 94.0718 299.831 89.792C304.745 85.5074 309.432 79.4659 314.174 78.2452C314.174 78.2452 304.119 76.2441 291.205 84.6027C278.291 92.9612 253.029 120.033 253.029 120.033Z" fill="#C95959"/>
<path d="M114.515 60.4032C114.515 60.4032 113.929 66.9474 103.01 69.3362C92.0862 71.7298 88.4095 77.9916 90.1519 80.7442C91.8943 83.4969 95.4953 84.8182 98.5659 83.0612C101.637 81.3043 110.308 72.9458 115.48 67.0862C120.652 61.2266 135.172 43.6047 135.172 43.6047L130.353 53.4617C130.353 53.4617 136.106 51.4845 138.131 53.2223C139.576 54.4574 141.303 55.2808 134.475 65.8654C127.652 76.4501 135.136 79.8203 138.869 80.4857C142.601 81.1511 145.722 79.1309 147.116 71.3756C147.116 71.3756 144.459 75.3777 141.934 71.5335C139.404 67.6894 143.677 64.9271 146.975 66.3298C150.272 67.7325 149.181 82.5969 140.328 82.5107C131.475 82.4245 126.742 76.6942 126.313 70.9208C125.884 65.1474 126.616 57.1383 126.616 57.1383C126.616 57.1383 115.758 78.6713 105.45 84.4304C95.1467 90.1894 90.6165 92.0948 89.3034 95.1155C89.3034 95.1155 88.46 89.2655 92.6266 87.0251C92.6266 87.0251 83.1318 88.7198 82.753 82.6878C82.3792 76.6511 83.6014 70.4947 91.0761 68.1633C98.5508 65.8319 113.51 66.1957 114.515 60.4032Z" fill="#C95959"/>
<path d="M23.9404 194.02C23.9404 194.02 25.1222 203.805 28.2232 206.735C31.3242 209.665 34.5918 211.283 39.7484 211.302C39.7484 211.302 42.3645 209.478 37.3544 207.678C32.3444 205.878 31.2888 206.151 28.1726 203.044C25.703 200.583 23.9404 194.02 23.9404 194.02Z" fill="#C95959"/>
</svg>
