<svg width="190" height="250" fill="none" xmlns="http://www.w3.org/2000/svg"><path fill="#AFB7D3" d="M0 0h190v250H0z"/><g clip-path="url(#clip0_804_671)"><path d="M95.519 213l-2.29-1.853c-.344-.291-8.754-7.102-17.274-16.874-11.733-13.496-17.691-25.593-17.691-35.983v-1.035c0-20.544 16.71-37.255 37.255-37.255 20.543 0 37.254 16.711 37.254 37.255v1.035c0 10.39-5.958 22.505-17.71 35.983-8.519 9.772-16.91 16.602-17.274 16.874L95.519 213zm0-85.734c-16.53 0-29.99 13.459-29.99 29.989v1.035c0 17.564 22.615 38.816 29.99 45.265 7.356-6.449 29.988-27.701 29.988-45.265v-1.035c0-16.53-13.459-29.989-29.989-29.989zm4.177 36.165v-8.356h-8.355v8.356h8.355zm16.729 0v-8.356h-8.356v8.356h8.356zm-8.373-16.711h-8.356v8.355h8.356v-8.355zm-25.067 16.711v-8.356H74.63v8.356h8.355zm8.356-16.711h-8.356v8.355h8.356v-8.355z" fill="#FFEF99"/></g><path fill-rule="evenodd" clip-rule="evenodd" d="M9.793 212.416C4.094 211.782.635 211.5 0 211.5v-7c1.115 0 5.031.343 10.567.959 5.654.629 13.24 1.572 21.874 2.828 17.246 2.508 38.778 6.282 57.472 11.334 18.611 5.03 37.836 11.313 53.674 17.158 13.49 4.979 24.799 9.738 31.127 13.198C171.5 250 161 250 158.17 250c-4.897-2.051-10.644-4.306-17.007-6.654-15.662-5.78-34.687-11.997-53.076-16.967-18.306-4.948-39.524-8.674-56.653-11.165a660.873 660.873 0 00-21.641-2.798z" fill="#FFEF99"/><defs><clipPath id="clip0_804_671"><path fill="#fff" transform="translate(49 120)" d="M0 0h93v93H0z"/></clipPath></defs></svg>