<svg width="692" height="316" fill="none" xmlns="http://www.w3.org/2000/svg"><g opacity=".8"><mask id="a" style="mask-type:alpha" maskUnits="userSpaceOnUse" x="0" y="0" width="346" height="316"><path fill="#fff" d="M0 0h346v315.168H0z"/></mask><g mask="url(#a)" stroke="#fff" stroke-width="40"><path d="M128.527 458.735H10.277l59.125-84.464-59.125-59.125 59.125-59.125-59.125-59.125h118.25v-67.571h76.018V6.852l71.795 71.794 71.794-71.794 71.795 71.794 63.348-63.348v114.027h84.464v67.571h109.804l-59.125 59.125 67.571 67.572-67.571 67.571 67.571 67.571h-118.25v59.125h-84.464v105.581l-63.348-63.349-71.795 71.795-71.794-71.795-71.795 71.795V517.86h-76.018v-59.125z"/><path d="M348.134 593.878L297.456 543.2V420.726l-71.795 71.795h-71.795v-71.795l46.456-46.455h-97.134l-50.679-50.679 50.679-50.678h97.134l-46.456-46.455v-71.795h71.795l71.795 71.795V95.539l50.678-50.679 50.679 50.679v130.92l76.018-63.349h59.125v63.349L487.5 272.914h97.134l50.679 50.678-50.679 50.679H487.5l46.456 46.455v71.795h-59.125l-71.795-71.795V543.2l-50.679 50.678"/></g><mask id="b" style="mask-type:alpha" maskUnits="userSpaceOnUse" x="346" y="0" width="346" height="316"><path transform="matrix(-1 0 0 1 692 0)" fill="#fff" d="M0 0h346v315.168H0z"/></mask><g mask="url(#b)" stroke="#fff" stroke-width="40"><path d="M563.473 458.734h118.25l-59.125-84.464 59.125-59.125-59.125-59.125 59.125-59.125h-118.25v-67.571h-76.018V6.851L415.66 78.645 343.866 6.851l-71.795 71.794-63.348-63.348v114.027h-84.464v67.571H14.455L73.58 256.02 6.009 323.592l67.571 67.571-67.571 67.571h118.25v59.125h84.464V623.44l63.348-63.349 71.795 71.795 71.794-71.795 71.795 71.795V517.859h76.018v-59.125z"/><path d="M343.866 593.875l50.678-50.678V420.723l71.795 71.795h71.795v-71.795l-46.456-46.455h97.134l50.679-50.678-50.679-50.679h-97.134l46.456-46.455v-71.795h-71.795l-71.795 71.795V95.536l-50.678-50.679-50.679 50.679v130.92l-76.018-63.349h-59.125v63.349l46.456 46.455h-97.134L56.687 323.59l50.679 50.678H204.5l-46.456 46.455v71.795h59.125l71.795-71.795v122.474l50.679 50.678"/></g></g></svg>