<svg width="370" height="370" fill="none" xmlns="http://www.w3.org/2000/svg"><path d="M281.754 99.334c-1.433-.076-2.651 1.012-2.727 2.422-.076 1.415 1.025 2.617 2.454 2.693 1.433.075 2.652-1.013 2.728-2.423.076-1.415-1.026-2.617-2.455-2.692zm-61.769 102.989s-8.725 7.321-14.055 4.731c.121.238 3.466 6.795-1.631 14.191 0 0 12.833-4.249 15.686-18.922zm1.988-12.038a.559.559 0 00.014-.862c-2.083-1.857-2.002-3.727-3.283-5.734-1.38-2.166-1.765-5.265-7.601-8.121-5.832-2.852-8.689-.801-12.756.782-4.067 1.583-4.793 3.975-3.695 6.53 1.097 2.555 4.281 2.471 6.566 1.202 2.28-1.273 1.433-3.965 1.433-3.965 3.812-2.215 8.349.146 9.607 1.547 1.255 1.397 3.494 5.601 4.555 6.463 1.066.867 2.455 1.084 2.285 1.862-.094.451-.506.442-2.289.557-2.222.141-4.479 2.931-8.394 5.053-3.914 2.122-7.578-1.044-7.578-1.044 1.079-1.688.537-4.191-1.935-5.831-2.477-1.644-4.967-.499-5.97 1.3-1.201 2.157-.247 4.545 1.128 5.809 1.375 1.264 2.37 1.804 4.493 2.825 2.02.977 5.41 2.732 9.294 2.52 3.878-.217 8.348-3.824 10.57-6.976 1.491-2.113 2.831-3.338 3.556-3.917zm-2.741 29.006a2.554 2.554 0 001.42-3.343c-.542-1.308-2.056-1.936-3.386-1.401a2.553 2.553 0 00-1.42 3.342c.542 1.309 2.06 1.936 3.386 1.402zm-9.742 3.682a2.551 2.551 0 00-1.42 3.342c.542 1.309 2.056 1.937 3.382 1.402 1.33-.54 1.966-2.034 1.42-3.342-.542-1.309-2.056-1.937-3.382-1.402zm49.376-95.496c1.434.075 2.652-1.012 2.728-2.423.072-1.414-1.026-2.617-2.459-2.692-1.429-.071-2.651 1.013-2.723 2.427-.076 1.411 1.026 2.617 2.454 2.688zm-2.759 6.366c.077-1.415-1.025-2.617-2.454-2.692-1.433-.076-2.652 1.012-2.728 2.422-.071 1.415 1.026 2.617 2.459 2.693 1.429.075 2.652-1.013 2.723-2.423zm-123.566 27.653a2.548 2.548 0 001.42-3.338c-.542-1.308-2.056-1.936-3.381-1.401a2.548 2.548 0 00-1.42 3.338c.542 1.308 2.056 1.936 3.381 1.401zm143.834-46.504c1.434.075 2.652-1.012 2.728-2.422.076-1.415-1.026-2.618-2.455-2.693-1.433-.075-2.651 1.013-2.727 2.423-.076 1.415 1.025 2.617 2.454 2.692zm-132.677 80.77s-7.632-.141-11.802-8.271c0 0-2.441 13.143 9.196 22.701 0 0-2.28-11.083 2.606-14.43zm103.881-51.716c-.076 1.415 1.026 2.618 2.455 2.693 1.429.07 2.651-1.013 2.728-2.427.071-1.411-1.026-2.613-2.459-2.688-1.429-.075-2.652 1.012-2.724 2.422zm-108.431 74.241a2.553 2.553 0 00-1.42 3.342c.542 1.309 2.056 1.937 3.386 1.402a2.548 2.548 0 001.416-3.342c-.542-1.309-2.056-1.937-3.382-1.402zm-12.958-52.114a2.55 2.55 0 00-1.419 3.338c.542 1.313 2.055 1.936 3.381 1.402a2.549 2.549 0 001.42-3.338c-.542-1.309-2.056-1.937-3.382-1.402zm21.804 58.723c-1.326.54-1.962 2.034-1.42 3.342a2.612 2.612 0 003.386 1.402 2.551 2.551 0 001.42-3.342c-.542-1.309-2.056-1.937-3.386-1.402zm34.139 5.071s-10.701-4.045-10.947-9.912c0 0-4.21 6.287-13.396 5.403 0 0 9.929 9.076 24.343 4.509zm-25.96-11.366c2.593-.093 5.504 1.127 10.928-2.432 5.42-3.554 5.053-7.02 5.698-11.291.649-4.266-1.089-6.083-3.875-6.423-2.79-.341-4.313 2.422-4.34 5.009-.027 2.582 2.755 3.205 2.755 3.205.04 4.368-4.305 7.064-6.159 7.436-1.859.376-6.665.181-7.955.659-1.29.477-2.172 1.556-2.777 1.021-.344-.305-.129-.655.663-2.233.986-1.972-.331-5.296-.233-9.704.099-4.403 4.708-5.955 4.708-5.955.94 1.769 3.404 2.56 6.087 1.265 2.678-1.291 2.92-3.992 1.845-5.747-1.294-2.109-3.861-2.489-5.657-1.946-1.8.544-2.772 1.123-4.73 2.423-1.867 1.238-5.106 3.258-6.862 6.68-1.751 3.426-.824 9.05.829 12.529 1.106 2.33 1.51 4.089 1.653 4.995a.575.575 0 00.752.443c2.67-.849 4.269.154 6.67.066zm33.175 14.005a2.548 2.548 0 00-1.42 3.338c.542 1.309 2.061 1.936 3.386 1.402a2.549 2.549 0 001.42-3.338c-.542-1.313-2.06-1.937-3.386-1.402zm5.03-8.174c.538-2.719 2.2-3.616 3.288-5.729 1.169-2.286 3.664-4.209 3.135-10.615-.528-6.406-3.775-7.763-7.247-10.389-3.471-2.626-5.921-2.007-7.574.234-1.652 2.246.059 4.898 2.338 6.172 2.28 1.277 4.179-.827 4.179-.827 3.892 2.082 4.175 7.14 3.606 8.926-.565 1.781-3.064 5.84-3.265 7.184-.202 1.348.322 2.63-.444 2.891-.439.15-.64-.203-1.657-1.649-1.272-1.808-4.855-2.281-8.712-4.5-3.86-2.22-3.001-6.95-3.001-6.95 2.025.044 3.92-1.702 4.072-4.642.148-2.94-2.123-4.456-4.206-4.381-2.49.097-4.071 2.131-4.461 3.948-.39 1.812-.349 2.935-.143 5.256.192 2.211.412 5.986 2.598 9.156 2.185 3.174 7.623 5.097 11.506 5.354 2.598.172 4.354.676 5.231.994a.575.575 0 00.757-.433zm-26.591 9.58a2.548 2.548 0 00-1.42 3.338c.542 1.313 2.06 1.936 3.386 1.401a2.548 2.548 0 001.42-3.337c-.542-1.309-2.061-1.937-3.386-1.402zm90.054-153.224a2.544 2.544 0 001.303-3.382c-.586-1.291-2.123-1.87-3.431-1.287a2.543 2.543 0 00-1.303 3.382c.587 1.291 2.123 1.866 3.431 1.287zm47.051 83.524c-.076 1.415 1.026 2.617 2.455 2.692 1.433.076 2.651-1.012 2.728-2.422.076-1.415-1.026-2.617-2.455-2.693-1.433-.075-2.651 1.013-2.728 2.423zm-6.015-35.84c-1.433-.075-2.651 1.008-2.727 2.422-.076 1.411 1.025 2.618 2.454 2.693 1.434.07 2.652-1.013 2.728-2.427.076-1.411-1.026-2.618-2.455-2.688zm3.857 11.03c-1.429-.075-2.647 1.012-2.723 2.422-.077 1.415 1.025 2.618 2.454 2.693 1.433.07 2.652-1.013 2.728-2.427.071-1.411-1.026-2.618-2.459-2.688zm-8.582-21.588c-1.429-.07-2.652 1.013-2.723 2.427-.077 1.411 1.021 2.618 2.454 2.688 1.429.076 2.652-1.012 2.728-2.422.071-1.415-1.026-2.617-2.459-2.693zm16.125 17.189c1.433.075 2.651-1.012 2.727-2.423.072-1.414-1.025-2.617-2.459-2.692-1.429-.075-2.647 1.012-2.723 2.423-.076 1.414 1.026 2.617 2.455 2.692zM264.25 84.192a2.548 2.548 0 00-1.303 3.386c.586 1.291 2.123 1.866 3.431 1.287a2.548 2.548 0 001.303-3.387c-.587-1.29-2.123-1.865-3.431-1.286zm4.676-7.312a2.545 2.545 0 001.304-3.382c-.587-1.291-2.123-1.87-3.431-1.291-1.304.583-1.89 2.095-1.304 3.386.587 1.291 2.123 1.866 3.431 1.287zm19.403 62.905c-.071 1.41 1.026 2.617 2.459 2.688 1.429.075 2.648-1.008 2.724-2.423.076-1.41-1.026-2.617-2.455-2.692-1.433-.071-2.651 1.012-2.728 2.427zm15.206 12.834c-.076 1.41 1.026 2.617 2.455 2.688 1.433.075 2.651-1.008 2.728-2.423.076-1.41-1.026-2.617-2.455-2.692-1.433-.071-2.651 1.012-2.728 2.427zm-18.444 21.229c-.072 1.41 1.025 2.617 2.459 2.692 1.428.071 2.651-1.012 2.723-2.427.076-1.41-1.026-2.617-2.455-2.688-1.433-.075-2.651 1.013-2.727 2.423zm-30.081-11.07c-.072 1.415 1.026 2.617 2.455 2.692 1.433.075 2.651-1.012 2.727-2.422.077-1.415-1.025-2.618-2.454-2.693-1.433-.075-2.652 1.013-2.728 2.423zm19.188 10.221c-.076 1.41 1.026 2.617 2.455 2.692 1.433.071 2.651-1.012 2.727-2.427.076-1.41-1.025-2.617-2.454-2.688-1.434-.075-2.652 1.013-2.728 2.423zm-10.32-3.355c-.071 1.414 1.026 2.617 2.459 2.692 1.429.071 2.652-1.012 2.723-2.427.077-1.41-1.021-2.617-2.454-2.688-1.429-.075-2.652 1.012-2.728 2.423zm34.39-.743c-1.429-.071-2.652 1.012-2.723 2.427-.076 1.41 1.025 2.617 2.454 2.688 1.433.075 2.652-1.012 2.728-2.423.072-1.41-1.026-2.617-2.459-2.692zm-28.132-23.625c-1.434-.071-2.652 1.012-2.728 2.427-.076 1.41 1.026 2.617 2.454 2.688 1.434.075 2.652-1.013 2.728-2.423.076-1.415-1.026-2.617-2.454-2.692z" fill="#04CF86"/><path d="M279.385 120.151c-3.221 1.013-4.833-.19-4.833-.19s-.73 1.574-2.97 3.466c-2.235 1.897-4.617 1.817-4.617 1.817s.434 1.557-1.246 3.833c-1.675 2.277-3.896 2.794-3.896 2.794s1.151 1.769-.533 4.815c-1.68 3.046-2.862 3.258-2.862 3.258.716 1.914 1.746 4.858-.471 7.255-2.217 2.396-2.369 2.904-5.912 2.599-3.543-.3-4.985 1.932-5.581 3.192-.595 1.264-1.935 3.037-1.935 3.037 1.165.199 3.422 1.99 6.069 2.215 2.652.23 4-2.263 4.703-3.267.703-1.004 4.497-2.126 7.74-.455 3.243 1.671 3.668 5.283 3.668 5.283s2.083-.61 4.941.751c2.857 1.362 3.381 3.254 3.381 3.254s2.231-1.101 4.945-.186c2.719.92 3.561 2.436 3.561 2.436s1.836-1.618 4.559-1.636c2.719-.022 4.175 1.269 4.175 1.269s1.424-1.6 3.538-2.33c2.119-.733 4.116-.358 4.116-.358-.058-1.423 1.075-3.178 1.075-3.178s-1.885-.743-2.817-2.419c-.932-1.675-1.187-4.027-1.187-4.027-6.217 2.432-8.241.305-8.241.305-1.335 1.76-3.884 4.178-7.547 4.394-3.664.222-7.032-3.766-7.032-3.766s-2.016 1.295-4.658 1.273c-2.643-.026-5.366-2.286-7.395-3.475-2.025-1.185-4.775.301-5.724.296-.95-.004-1.281-.03-1.187-.809.094-.778 2.544-1.481 4.264-2.931 1.72-1.445 1.478-4.531 3.274-7.166 1.796-2.635 5.164-3.002 5.164-3.002s.838-5.124 4.304-7.206c3.472-2.086 7.14-.022 7.14-.022s.394-1.565 3.149-2.847c2.759-1.282 3.493-1.472 3.493-1.472s-.251-1.216-.694-4.089c-.439-2.874.031-3.546.031-3.546l-1.944-1.229s-.788 1.048-4.008 2.064z" fill="#04CF86"/><path d="M281.351 152.375c1.429.076 2.651-1.012 2.723-2.422.076-1.415-1.021-2.617-2.454-2.692-1.429-.076-2.652 1.012-2.728 2.422-.072 1.415 1.026 2.617 2.459 2.692zm-3.704-15.627c-1.433-.075-2.652 1.012-2.728 2.422-.076 1.415 1.026 2.618 2.455 2.693 1.433.075 2.651-1.013 2.727-2.423.072-1.415-1.025-2.617-2.454-2.692zm10.405-27.923c-1.429-.075-2.652 1.013-2.728 2.423-.072 1.415 1.026 2.617 2.459 2.692 1.429.075 2.652-1.012 2.723-2.422.076-1.415-1.021-2.618-2.454-2.693zm-21.267 10.906c1.434.071 2.652-1.012 2.728-2.427.076-1.41-1.026-2.617-2.454-2.688-1.434-.075-2.652 1.013-2.728 2.423-.076 1.415 1.026 2.617 2.454 2.692zm-56.148 67.906c0-1.919-1.576-3.475-3.525-3.475-1.944 0-3.52 1.556-3.52 3.475 0 1.923 1.576 3.479 3.52 3.479 1.949 0 3.525-1.556 3.525-3.479zm12.792-8.369s4.269-11.662-8.644-24.448c0 0 1.93 11.534-3.028 14.779 0 0 8.075.394 11.672 9.669zm-.475-22.936a2.547 2.547 0 001.42-3.337c-.542-1.309-2.06-1.937-3.386-1.402a2.548 2.548 0 00-1.42 3.338c.542 1.313 2.06 1.941 3.386 1.401zm-6.794-8.293a2.554 2.554 0 001.419-3.343c-.542-1.308-2.06-1.936-3.386-1.401a2.554 2.554 0 00-1.419 3.342c.541 1.309 2.06 1.936 3.386 1.402zm-13.733 84.987a2.548 2.548 0 001.42-3.337 2.611 2.611 0 00-3.386-1.402 2.548 2.548 0 00-1.42 3.338c.542 1.308 2.056 1.936 3.386 1.401zm-42.886 1.751a2.551 2.551 0 001.42-3.342c-.542-1.309-2.056-1.937-3.382-1.402a2.553 2.553 0 00-1.42 3.342c.542 1.309 2.056 1.937 3.382 1.402zm-4.927-27.856c0 1.923 1.576 3.479 3.525 3.479 1.944 0 3.52-1.556 3.52-3.479 0-1.919-1.576-3.475-3.52-3.475-1.949 0-3.525 1.556-3.525 3.475zm26.175 32.153a2.548 2.548 0 001.42-3.338c-.542-1.308-2.056-1.936-3.382-1.401a2.548 2.548 0 00-1.42 3.338c.542 1.308 2.056 1.936 3.382 1.401zm10.71-27.927c0-1.918-1.577-3.475-3.521-3.475s-3.52 1.557-3.52 3.475c0 1.923 1.576 3.479 3.52 3.479s3.521-1.556 3.521-3.479zm39.759-23.157a2.547 2.547 0 001.42-3.337c-.542-1.309-2.056-1.937-3.382-1.402a2.552 2.552 0 00-1.419 3.342c.541 1.309 2.055 1.937 3.381 1.397zm-14.279-97.145a2.538 2.538 0 00.349 3.608 2.618 2.618 0 003.651-.35 2.534 2.534 0 00-.35-3.602 2.612 2.612 0 00-3.65.344zm-3.762 10.641a2.537 2.537 0 00-.354-3.603 2.613 2.613 0 00-3.65.345 2.539 2.539 0 00.349 3.608 2.623 2.623 0 003.655-.35zm-33.991.191a2.54 2.54 0 00.752 3.545 2.616 2.616 0 003.592-.747 2.536 2.536 0 00-.756-3.541c-1.201-.774-2.809-.442-3.588.743zm24.039 3.536a2.538 2.538 0 00-.35-3.607 2.616 2.616 0 00-3.65.349 2.534 2.534 0 00.349 3.603 2.613 2.613 0 003.651-.345zm-59.087 73.312c0 1.919 1.576 3.475 3.52 3.475s3.521-1.556 3.521-3.475-1.577-3.475-3.521-3.475-3.52 1.556-3.52 3.475zm84.017-11.711a2.55 2.55 0 001.42-3.337c-.542-1.309-2.056-1.937-3.382-1.402a2.548 2.548 0 00-1.42 3.338c.542 1.309 2.056 1.936 3.382 1.401zm4.599 6.671c-.542-1.308-2.06-1.936-3.386-1.401a2.553 2.553 0 00-1.42 3.342c.542 1.309 2.061 1.937 3.386 1.402a2.554 2.554 0 001.42-3.343zm-4.192 26a2.545 2.545 0 001.42-3.338c-.542-1.309-2.056-1.936-3.382-1.401a2.548 2.548 0 00-1.42 3.337c.542 1.309 2.056 1.937 3.382 1.402zm-3.251 10.013a2.549 2.549 0 001.419-3.338c-.542-1.308-2.055-1.936-3.381-1.401a2.545 2.545 0 00-1.42 3.338c.542 1.308 2.056 1.936 3.382 1.401zm-26.566-61.941c-2.593 0-5.46-1.326-11.009 2.029-5.554 3.36-5.312 6.835-6.118 11.079-.807 4.24.86 6.118 3.637 6.561 2.772.442 4.393-2.264 4.519-4.846.125-2.582-2.634-3.307-2.634-3.307.126-4.368 4.564-6.901 6.437-7.206 1.867-.309 6.664.058 7.972-.371 1.308-.429 2.231-1.472 2.813-.92.331.319.103.659-.744 2.211-1.061 1.936.13 5.305-.134 9.704-.26 4.399-4.922 5.778-4.922 5.778-.878-1.799-3.31-2.679-6.038-1.486-2.723 1.198-3.068 3.886-2.056 5.681 1.209 2.153 3.762 2.626 5.581 2.149 1.814-.478 2.813-1.021 4.815-2.25 1.908-1.172 5.222-3.068 7.103-6.428 1.882-3.356 1.165-9.015-.358-12.547-1.021-2.37-1.357-4.142-1.469-5.053-.04-.349-.39-.566-.73-.473-2.701.751-4.264-.305-6.665-.305zm-52.243-2.856c1.326-.539 1.962-2.034 1.42-3.342-.542-1.309-2.06-1.937-3.386-1.402a2.551 2.551 0 00-1.42 3.342c.542 1.309 2.061 1.937 3.386 1.402zm6.19-10.5a2.552 2.552 0 00-1.419 3.342c.542 1.309 2.055 1.937 3.386 1.402 1.325-.535 1.962-2.034 1.42-3.342-.542-1.309-2.061-1.937-3.387-1.402zm-16.491 13.723a2.551 2.551 0 00-1.42 3.342c.542 1.309 2.056 1.936 3.386 1.401 1.326-.539 1.962-2.033 1.42-3.342-.546-1.308-2.06-1.936-3.386-1.401zm25.512-6.521c-.757 2.67-2.481 3.43-3.731 5.455-1.352 2.193-3.986 3.917-3.968 10.345.018 6.424 3.153 8.028 6.405 10.915 3.251 2.883 5.746 2.458 7.569.345 1.828-2.109.327-4.885-1.845-6.331-2.168-1.45-4.228.5-4.228.5-3.713-2.374-3.597-7.436-2.894-9.169.708-1.737 3.521-5.588 3.83-6.914.304-1.327-.117-2.648.667-2.852.448-.11.623.252 1.523 1.777 1.124 1.901 4.658 2.649 8.331 5.155 3.668 2.511 2.441 7.158 2.441 7.158-2.016-.199-4.045 1.397-4.425 4.314-.381 2.923 1.764 4.611 3.843 4.691 2.495.097 4.232-1.808 4.761-3.59.533-1.777.578-2.9.56-5.23-.023-2.215.058-5.999-1.868-9.328-1.93-3.333-7.198-5.667-11.045-6.224-2.58-.372-4.291-1.008-5.138-1.389a.575.575 0 00-.788.372zm-34.577 51.274a2.554 2.554 0 001.419-3.342c-.542-1.309-2.055-1.937-3.381-1.402a2.553 2.553 0 00-1.42 3.342c.542 1.309 2.056 1.937 3.382 1.402z" fill="#04CF86"/><path d="M156.912 189.648c4.017-1.697 4.676-4.107 3.507-6.631s-4.354-2.347-6.598-1.017c-2.244 1.335-1.321 4.001-1.321 4.001-3.745 2.321-8.349.089-9.643-1.277-1.299-1.362-3.655-5.505-4.744-6.336-1.088-.835-2.481-1.012-2.338-1.799.085-.451.497-.451 2.276-.614 2.217-.208 4.394-3.06 8.245-5.288 3.852-2.228 7.606.831 7.606.831-1.03 1.72-.421 4.205 2.1 5.778 2.522 1.57 4.977.358 5.931-1.467 1.137-2.189.12-4.549-1.295-5.774-1.411-1.225-2.419-1.737-4.568-2.701-2.047-.92-5.487-2.582-9.361-2.259-3.875.322-8.242 4.054-10.369 7.268-1.429 2.153-2.737 3.413-3.445 4.014a.56.56 0 00.014.862c2.132 1.799 2.105 3.665 3.44 5.637 1.446 2.13 1.921 5.221 7.833 7.909 5.913 2.687 8.707.557 12.73-1.137zm-26.982 14.673a2.553 2.553 0 001.42-3.342c-.542-1.309-2.06-1.936-3.386-1.401a2.553 2.553 0 00-1.42 3.342c.542 1.308 2.056 1.936 3.386 1.401zm35.671-69.823a2.549 2.549 0 001.42-3.338c-.542-1.309-2.056-1.937-3.382-1.402a2.548 2.548 0 00-1.42 3.338c.542 1.309 2.056 1.936 3.382 1.402zm-30.69 80.044a2.552 2.552 0 001.42-3.342c-.542-1.308-2.06-1.936-3.386-1.401a2.553 2.553 0 00-1.42 3.342c.542 1.309 2.06 1.936 3.386 1.401zm.465-49.032s8.506-7.582 13.912-5.137c0 0-3.767-6.556 1.201-14.235 0 0-12.703 4.62-15.113 19.372zm64.82-6.799c0-1.919-1.576-3.475-3.52-3.475s-3.521 1.556-3.521 3.475c0 1.923 1.577 3.479 3.521 3.479s3.52-1.556 3.52-3.479zm-33.762-7.171c-1.944 0-3.52 1.556-3.52 3.475s1.576 3.475 3.52 3.475 3.521-1.556 3.521-3.475-1.577-3.475-3.521-3.475zm23.886 33.489s-.9-1.411-1.128-4.081c-.224-2.675.752-4.231.752-4.231s-1.877-.3-3.158-1.781c-1.276-1.486-.9-2.971-.9-2.971s-2.181.446-4.439-.447c-2.257-.888-2.181-2.228-2.181-2.228s-1.729 1.34-3.838 1.41c-2.105.075-3.006-1.114-3.006-1.114s0 1.561-2.181 2.825c-2.181 1.26-3.462.593-3.462.593s.009 2.444-.968 4.451c-.976 2.003-2.866 3.046-2.866 3.046s1.576 1.336 1.881 3.564c.3 2.228-.605 3.934-.605 3.934s1.429.221 2.934 1.857c1.505 1.631.905 3.413.905 3.413s1.429-.221 3.381.371c1.958.597 3.387 2.304 3.387 2.304s1.581-.964 3.457-1.189c1.881-.222 3.386.667 3.386.667s.529-1.335 2.258-2.67 3.61-1.039 3.61-1.039-.753-1.264.452-4.01c1.201-2.745 2.329-2.674 2.329-2.674zm-13.092 2.926c-3.117 0-5.643-2.493-5.643-5.57 0-3.077 2.526-5.571 5.643-5.571 3.118 0 5.644 2.494 5.644 5.571 0 3.077-2.526 5.57-5.644 5.57zm18.87-56.968a2.548 2.548 0 00-1.42 3.338c.542 1.309 2.056 1.936 3.386 1.402a2.549 2.549 0 001.42-3.338c-.542-1.309-2.06-1.937-3.386-1.402zm-12.308 16.075s4.017-6.928 14.023-5.889c0 0-9.473-10.049-26.874-4.478 0 0 12.17 4.536 12.851 10.367zm-7.798-14.643a2.552 2.552 0 001.42-3.342c-.542-1.308-2.056-1.936-3.382-1.401a2.546 2.546 0 00-1.42 3.342c.542 1.309 2.056 1.936 3.382 1.401zm31.85 8.613a2.549 2.549 0 001.42-3.338c-.542-1.309-2.056-1.936-3.382-1.402a2.545 2.545 0 00-1.419 3.338c.542 1.309 2.055 1.937 3.381 1.402zm-20.782-8.254a2.549 2.549 0 001.419-3.338c-.542-1.309-2.06-1.936-3.386-1.401a2.547 2.547 0 00-1.42 3.337c.542 1.309 2.061 1.937 3.387 1.402zm-64.354 47.989c.542 1.313 2.056 1.936 3.386 1.401a2.548 2.548 0 001.42-3.338 2.613 2.613 0 00-3.387-1.401 2.549 2.549 0 00-1.419 3.338zm-69.725-10.182c.542 1.309 2.06 1.937 3.387 1.402a2.548 2.548 0 001.42-3.338c-.542-1.313-2.06-1.936-3.387-1.401a2.548 2.548 0 00-1.42 3.337zm180.678 128.786c.699 2.343 4.053 6.207 7.269 2.621 3.216-3.589-1.119-7.038-5.173-9.107-4.053-2.073-3.776-4.969-3.776-4.969s-3.077-.137-6.149-4.279c-3.077-4.138-1.68-7.586-1.68-7.586s-2.934-2.485-4.336-6.212c-1.397-3.727-.277-7.591-.277-7.591s-1.958-1.516-1.958-7.038c0-5.517 1.537-7.175 1.537-7.175s-2.235-2.621-.139-8.417c1.241-3.422 3.843-5.159 5.764-6.013.565-.247 1.093.425.703.893a14.386 14.386 0 00-3.13 7.153c-.833 5.871.551 7.1.551 7.1s-2.352 2.184-2.074 6.963c.278 4.775 2.351 6.278 2.351 6.278s-1.384 3.824.278 7.237c1.657 3.413 4.286 4.505 4.286 4.505s-.967 4.231 1.662 7.37c2.625 3.143 5.254 3.824 5.254 3.824s0 2.184 1.796 3.824c1.801 1.636 2.49 2.184 2.49 2.184l1.94-1.914s-3.185-2.321-3.597-5.323c0 0-2.907-.681-5.258-3.687-2.352-3.002-1.657-7.507-1.657-7.507s-3.046-1.366-4.426-4.916c-1.384-3.55.274-6.689.274-6.689s-2.903-2.184-2.903-5.734 2.764-6.826 2.764-6.826-2.213-2.458-1.241-6.689c.967-4.23 4.837-6.825 4.837-6.825s.274-4.903-2.974-8.595c-3.081-3.501-7.829-1.379-7.829-1.379s-.278 4.138-3.355 7.038c-3.077 2.896-6.853 1.379-6.853 1.379s.283 3.312-3.493 5.381c-3.776 2.073-7.968.278-7.968.278s-.699 3.311-4.757 4.275c-4.053.968-7.269-1.101-7.269-1.101s-2.096 3.033-6.432 2.759c-4.331-.274-5.312-3.037-5.312-3.037s-.977-.274-3.633 2.21c-2.656 2.485-1.54 5.381-1.397 7.038.139 1.654 2.795 5.655 4.192 6.07 1.398.416 4.054.137 6.432 2.211 2.374 2.069 2.235 4.827 2.235 4.827s3.776-.689 6.432 3.59c2.656 4.275 1.258 7.312 1.258 7.312 1.398.274 3.776 1.38 4.896 4.969 1.115 3.586-.282 5.933-.282 5.933 1.679.69 2.938 3.312 2.795 6.212-.139 2.895-2.374 5.106-2.374 5.106s1.957 1.379 2.374 2.896c.421 1.516-.139 3.589-.139 3.589l2.239.274c.838-3.585 0-5.658 0-5.658s1.675-4.417 1.537-7.45c-.139-3.037-3.494-6.074-3.494-6.074s.838-3.727-.56-7.175c-1.397-3.448-5.034-5.659-5.034-5.659.139-8.97-7.408-10.76-7.408-10.76-1.68-6.075-7.27-7.038-8.949-7.038-1.68 0-2.379-.832-.981-1.658 1.402-.827 5.316-1.658 8.949.826 3.637 2.485 3.498 6.212 3.498 6.212s1.254-.274 4.891 3.59 4.474 7.586 4.474 7.586 2.517.141 4.193 4.969c1.679 4.832.698 8.28.698 8.28s2.661 1.243 3.498 6.901c.838 5.655-1.397 7.728-1.397 7.728.56 1.38 1.259 5.243.56 7.312-.703 2.069-2.24 4.417-.703 6.901 1.54 2.485 5.733 2.344 7.551-.689 1.819-3.037-1.397-4.143-1.258-7.591.138-3.448 2.239-4.279 2.239-4.279s-5.733-32.98-6.575-37.812c-.838-4.828-1.398-6.76-3.771-8.692-2.379-1.932-5.733.137-6.432 2.485-.699 2.343 1.818 6.759 5.59 5.243 3.775-1.517 3.077-.416 3.077-.416-2.097 3.727-4.793 3.586-8.286 2.759-3.499-.827-6.114-6.207-3.597-11.176 2.517-4.965 11.184-3.448 11.184-3.448 2.235-4.554 9.088-7.313 13.141-.827 4.054 6.485-.416 10.902-3.077 11.728-2.656.827-5.728-1.105-3.211-1.657 2.512-.553 4.192-2.343 4.752-3.864.56-1.517.56-6.207-4.197-5.933-4.752.274-4.47 4.553-4.331 6.211.139 1.654 22.368 39.74 22.368 39.74 3.776 0 5.594 2.347 6.293 4.695z" fill="#04CF86"/><path d="M222.045 294.835c-.676-1.879-11.834-22.197-11.834-22.197s4.273 22.723 4.945 24.602c.672 1.875 2.759 2.86 4.663 2.193 1.899-.663 2.898-2.723 2.226-4.598zm-7.408 10.924a2.537 2.537 0 00.349 3.603 2.618 2.618 0 003.655-.345 2.542 2.542 0 00-.349-3.603 2.618 2.618 0 00-3.655.345zm8.797 8.042a2.534 2.534 0 00.349 3.603 2.612 2.612 0 003.65-.345 2.538 2.538 0 00-.349-3.607 2.616 2.616 0 00-3.65.349zm-30.843-3.891a2.533 2.533 0 00.35 3.603 2.613 2.613 0 003.65-.344 2.534 2.534 0 00-.349-3.604 2.614 2.614 0 00-3.651.345zm36.705-7.732a2.625 2.625 0 00-3.654.345 2.538 2.538 0 00.349 3.607 2.627 2.627 0 003.655-.344 2.547 2.547 0 00-.35-3.608zm25.423-16.729a2.532 2.532 0 00.35 3.603 2.612 2.612 0 003.65-.344 2.533 2.533 0 00-.349-3.603 2.613 2.613 0 00-3.651.344zm-.385-41.194a2.613 2.613 0 00-3.65.345 2.54 2.54 0 00.349 3.608 2.617 2.617 0 003.65-.35 2.534 2.534 0 00-.349-3.603zm-5.854 39.736a2.542 2.542 0 00-.349-3.603 2.618 2.618 0 00-3.655.344 2.54 2.54 0 00.349 3.603 2.618 2.618 0 003.655-.344zm.645 11.176a2.54 2.54 0 00-.349-3.608 2.627 2.627 0 00-3.655.345 2.543 2.543 0 00.354 3.608 2.622 2.622 0 003.65-.345zm-119.298 9.226c1.434 0 2.594-1.145 2.594-2.56 0-1.414-1.16-2.559-2.594-2.559-1.433 0-2.593 1.145-2.593 2.559 0 1.415 1.16 2.56 2.593 2.56zm7.83 1.989c0 1.415 1.16 2.56 2.593 2.56s2.593-1.145 2.593-2.56c0-1.414-1.16-2.564-2.593-2.564s-2.593 1.15-2.593 2.564zm-3.557-25.274c0-1.41-1.164-2.56-2.598-2.56-1.433 0-2.593 1.15-2.593 2.56 0 1.415 1.16 2.564 2.593 2.564 1.434 0 2.598-1.149 2.598-2.564zm38.242 28.763c-1.433 0-2.593 1.145-2.593 2.559 0 1.415 1.16 2.56 2.593 2.56s2.593-1.145 2.593-2.56c0-1.414-1.16-2.559-2.593-2.559zm-4.86-18.834a2.538 2.538 0 00-.349-3.607 2.62 2.62 0 00-3.651.345 2.538 2.538 0 00.35 3.607 2.62 2.62 0 003.65-.345zm-9.339 11.778c1.433 0 2.593-1.145 2.593-2.56s-1.16-2.56-2.593-2.56-2.593 1.145-2.593 2.56 1.16 2.56 2.593 2.56zm-2.418-16.618a2.617 2.617 0 00-3.66-.221 2.538 2.538 0 00-.224 3.616 2.619 2.619 0 003.66.221 2.538 2.538 0 00.224-3.616zm5.728 27.573c1.433 0 2.593-1.145 2.593-2.56s-1.16-2.56-2.593-2.56-2.593 1.145-2.593 2.56 1.16 2.56 2.593 2.56zm1.434-32.905a2.538 2.538 0 00-.349-3.607 2.621 2.621 0 00-3.651.344 2.538 2.538 0 00.35 3.608 2.62 2.62 0 003.65-.345zm-32.272 10.42c0-1.415-1.16-2.564-2.593-2.564s-2.593 1.149-2.593 2.564c0 1.41 1.16 2.56 2.593 2.56s2.593-1.15 2.593-2.56zm184.61-85.018c-.076 1.41 1.026 2.617 2.455 2.687 1.433.076 2.651-1.012 2.728-2.422.071-1.415-1.026-2.617-2.459-2.693-1.429-.07-2.652 1.013-2.724 2.428zm22.588-65.832c0-1.919-1.577-3.475-3.521-3.475-1.943 0-3.52 1.556-3.52 3.475 0 1.918 1.577 3.475 3.52 3.475 1.944 0 3.521-1.557 3.521-3.475zm-32.195 66.915c-1.433-.076-2.651 1.012-2.727 2.422-.072 1.415 1.025 2.617 2.458 2.693 1.429.075 2.648-1.013 2.724-2.423.076-1.415-1.026-2.617-2.455-2.692zm5.129-8.617c.076-1.415-1.026-2.617-2.455-2.692-1.433-.075-2.652 1.012-2.728 2.422-.071 1.415 1.026 2.618 2.459 2.693 1.429.075 2.652-1.013 2.724-2.423zm31.612-.031c1.945 0 3.521-1.555 3.521-3.474 0-1.92-1.576-3.475-3.521-3.475-1.944 0-3.52 1.555-3.52 3.475 0 1.919 1.576 3.474 3.52 3.474z" fill="#04CF86"/><path d="M340.236 129.727c-3.964-3.47-10.686-3.161-14.588-2.078-3.905 1.088-6.279 5.876-9.02 9.324-2.656 3.334-5.46 2.869-5.644 2.838.081.058.703.575.39 2.498-.336 2.056-1.545 2.918-1.545 2.918s3.462 1.463 4.376 5.721c.913 4.257-.928 6.171-.928 6.171s2.612 1.76 3.207 5.672c.592 3.913-1.679 6.141-1.679 6.141s2.347 2.082 2.763 6.154c.421 4.072-1.957 6.79-1.957 6.79s2.911 2.684 2.934 6.159c.027 3.479-3.368 6.49-3.368 6.49 1.518 1.799 1.921 4.213 1.921 4.213s3.776-.014 5.657 1.056c1.886 1.07 3.113 3.851 5.693 6.353 2.58 2.502 8.084 3.223 13.361 3.435 5.276.212 11.743-6.149 12.72-9.589.981-3.435 1.133-9.142-1.684-13.974-2.822-4.828-9.236-5.915-11.637-6.671-2.4-.761-6.776-.359-6.44 3.713.336 4.067 3.686 4.204 5.598 4.527 1.917.327 3.686-1.919 4.269-1.812.582.106 3.05 1.277 4.161 4.885 1.106 3.603.56 8.793-3.042 10.636-3.596 1.844-8.604 1.309-11.569-2.038-2.965-3.346-1.8-5.203-1.8-5.203 2.257-1.813 2.718-4.859 1.805-7.131-.914-2.268-5.971-3.63-7.552.111-1.581 3.744.789 5.247 3.288 7.665 2.499 2.419 2.589 6.393 2.521 8.046-.067 1.654-1.312 1.358-2.051-1.074-.739-2.431-2.114-3.727-4.492-4.982-2.379-1.251-3.266-2.118-2.97-3.263.3-1.149.426-2.135.475-3.373.054-1.242-2.105-3.811.703-6.844 2.808-3.032 6.289-1.98 6.289-1.98s-.18-1.83 1.249-3.926c1.429-2.095 3.601-1.923 3.601-1.923-1.787-5.451 1.653-7.551 1.653-7.551s-1.747-.318-2.629-3.333c-.883-3.015-.43-3.824-.43-3.824s-2.938.048-4.725-1.265c-1.792-1.313-2.464-3.329-2.464-3.329-2.736 1.3-5.357-.212-7.077-1.277-1.715-1.061-2.127-3.312-1.312-6.839.82-3.524-1.205-3.276-.336-6.057.869-2.776 4.372-4.293 4.685-5.853.318-1.561 3.005-7.741 1.805.985-1.196 8.723-2.647 3.206-3.641 9.041-.999 5.836 3.265 6.172 6.145 5.46 2.88-.712 2.862-2.286 2.244-5.619-.614-3.338-4.958-1.689-3.7-5.862 1.263-4.169 6.15-8.776 11.726-5.734 5.576 3.037 5.653 9.412 3.915 12.821-1.734 3.404-2.19.322-6.414 1.065-4.224.738-3.462 6.649-1.917 7.869 1.541 1.22 6.629-.15 8.179-1.078 1.545-.933 8.151-6.543 7.247-13.117-.901-6.579-4.005-8.687-7.969-12.158zm-15.152 34.607c2.553 0 4.622 2.043 4.622 4.563 0 2.519-2.069 4.562-4.622 4.562s-4.622-2.043-4.622-4.562c0-2.52 2.069-4.563 4.622-4.563z" fill="#04CF86"/><path d="M338.642 161.487c-.09 3.373 2.378 6.441 6.543 4.695 2.544-1.065 2.871-3.492 2.741-5.221a2.096 2.096 0 011.828-2.25c2.011-.257 4.94-.504 6.669-.08 2.826.694 6.602 3.838 8.21 4.443 1.671.632 2.732.756 1.783 1.194-.914.415-4.833 4.478-7.48 7.48-1.787 2.029-4.869 2.361-6.687 2.361-.699 0-1.675-.292-1.917-.942-.489-1.317-.153-3.152-1.98-4.08-3.704-1.884-7.332.614-6.942 4.46.412 4.05 8.698 5.204 12.245 5.597 3.552.389 9.993-.658 11.435-5.937 1.447-5.283 4.591-9.518 4.591-9.518-1.702-1.057-4.936-4.735-9.075-8.347-4.134-3.612-9.468-2.56-11.958-2.347-2.495.212-9.868 3.634-10.006 8.492zm13.41-13.89c8.554.729 13.428 7.02 13.428 7.02s-1.711-8.466-5.205-14.045c-3.494-5.575-10.185-7.679-10.185-7.679 3.865 7.935 1.962 14.704 1.962 14.704z" fill="#04CF86"/><path d="M354.815 170.037c1.948 0 3.525-1.556 3.525-3.479 0-1.919-1.577-3.475-3.525-3.475-1.944 0-3.521 1.556-3.521 3.475 0 1.923 1.577 3.479 3.521 3.479zm-57.689 28.71c-1.998-.292-25.414-.067-25.414-.067s22.35 6.906 24.344 7.198c1.997.291 3.852-1.07 4.147-3.042.296-1.967-1.084-3.802-3.077-4.089zm-25.584 63.502a2.54 2.54 0 00-.349-3.608 2.621 2.621 0 00-3.651.345 2.539 2.539 0 00.35 3.607 2.62 2.62 0 003.65-.344z" fill="#04CF86"/><path d="M311.114 186.996c-.918-3.206-3.243-3.855-4.493-3.537-1.249.318-2.978 1.636-2.978 1.636s-1.442 2.413-3.95 2.462c-2.509.053-4.309-.88-4.309-.88s-3.028 2.308-6.961 2.578c-3.937.265-7-1.517-7-1.517s-3.221 1.844-7.081.995c-3.857-.849-6.983-3.709-6.983-3.709s-3.937.27-6.92-2.047c-2.983-2.312-4.287-3.886-4.287-3.886s-4.694-1.22-7.269-4.222c-2.571-3.006-2.616-7.675-1.841-8.97.771-1.291 2.016 1.755 2.302 2.268.282.513 1.066 4.337 8.569 7.188 0 0 1.634 3.387 4.64 4.669 3.01 1.286 5.549.787 5.549.787s2.916 2.626 6.983 3.713c4.071 1.083 6.49-.994 6.49-.994s3.364 2.073 6.916 2.047c3.556-.023 5.777-2.565 5.777-2.565s2.132.774 4.202.469c2.069-.305 3.09-1.225 3.09-1.225s-1.54-.778-2.006-1.976c0 0-1.456.663-2.728.619-1.272-.044-3.65-1.193-3.65-1.193s-2.397 3.023-5.093 3.196c-2.696.172-6.45-2.237-6.45-2.237s-2.96 1.994-6.011 1.379c-3.054-.614-5.589-3.479-5.589-3.479s-3.404 1.158-5.998-.234c-2.588-1.389-4.456-5.376-4.456-5.376s-3.297-.407-5.245-1.888c-1.948-1.477-3.319-4.713-3.825-6.636 0 0-5.563-2.533-6.817-2.798-1.259-.27-4.049-.73-5.76.95-1.707 1.676-1.859 5.885-1.859 5.885s2.907 1.454 3.588 5.451c.681 3.996-1.505 6.675-1.505 6.675s3.175 2.193 2.741 5.889c-.439 3.696-3.135 5.844-3.135 5.844s1.926 2.507 1.451 6.066c-.47 3.559-4.26 6.353-4.26 6.353s1.559 2.528-.618 6.375c-2.176 3.841-5.428 4.16-5.428 4.16s1.084 2.135.528 4.253c-.555 2.117 1.348 4.266 3.355 4.854 2.011.588 6.629.946 7.561-.022.931-.969 1.258-3.099 4.604-4.753 3.346-1.653 7.18.226 7.18.226s1.155-2.931 5.083-3.78c3.928-.854 6.598 1.392 6.598 1.392s2.983-1.635 6.92-1.317c3.941.314 5.706 3.086 5.706 3.086s2.155-.84 5.617.473c3.462 1.317 5.285 4.584 5.285 4.584s2.925-.159 5.764 1.605l1.169-1.76s-2.933-2.4-5.406-2.21c0 0-1.415-2.564-4.913-4.019-3.498-1.45-6.857-.963-6.857-.963s-2.768-3.466-6.912-3.44c-4.147.031-6.709 1.561-6.709 1.561s-3.507-2.622-6.844-1.773-5.612 3.475-5.612 3.475-4.389-1.738-7.26.309c-2.871 2.047-4.923 6.079-4.923 6.079l-2.06-.5s1.205-6.962 5.867-9.244c4.663-2.285 6.84-.787 6.84-.787s2.454-1.94 6.785-2.679c4.332-.734 6.979 1.154 6.979 1.154s3.932-2.241 8.975-1.401c5.039.84 6.647 3.285 6.647 3.285s2.974-.832 6.79 1.273c3.816 2.1 5.272 4.805 5.272 4.805s3.61.473 5.294 1.8c1.684 1.326 3.082 3.532 4.533 4.261 1.456.725 5.532 1.008 6.275-3.205.744-4.213-2.257-4.911-3.44-4.903-1.187.009-3.269.535-3.269.535s-4.923-2.626-3.404-6.154l-40.446-14.447s-4.595-1.393-6.064 1.468c-1.469 2.86-1.151 4.252.501 6.03 1.658 1.772 5.648 1.26 6.804-1.671 1.156-2.927 1.854-3.188 2.835-2.184.833.853 1.281 3.223-.94 6.322-1.277 1.781-3.539 2.776-7.198 2.184-3.691-.593-6.463-3.405-7.453-6.884-.99-3.479 3.014-7.423 3.014-7.423s-2.839-3.74-.81-8.134c2.029-4.39 6.96-5.34 8.819-5.093 2.203.296 5.872 2.498 6.597 5.239.721 2.745-1.178 6.039-2.078 6.56-.905.522-1.751-.565-1.218-3.492.465-2.564-2.509-5.292-4.869-4.691-2.365.602-3.924 3.413-3.628 5.093.296 1.68 1.223 4.076 4.797 4.412 3.574.336 43.666-.048 43.666-.048s1.057-2.759 3.399-3.718c2.343-.96 3.27 1.437 5.008 1.286 1.742-.15 4.371-1.989 3.453-5.194zm-31.859 62.277s.206-1.313 2.082-3.015c1.873-1.697 3.875-2.347 3.875-2.347-.394-1.512-.054-3.024-.054-3.024s-2.531.053-3.852-1.464c-1.326-1.52-1.115-3.426-1.115-3.426s-2.804.973-4.994-.221c-2.19-1.193-2.513-3.17-2.513-3.17s-2.741 1.565-5.334.96c-2.594-.606-3.919-2.255-3.919-2.255s-1.143 1.901-4.403 2.082c-3.266.177-4.654-1.605-4.654-1.605s-.981 3.577-3.982 4.284c-3.001.708-5.97-.07-7.014-1.675-1.339-2.065-1.151-4.196-3.444-4.983-3.059-1.047-7.341-.38-7.341-.38.501 1.609-.435 3.396 1.375 7.251.555 1.189 1.85 1.839 3.117 2.179 2.28.615 4.143 2.25 4.94 4.448.278.764.48 1.556.511 2.29.117 2.776-2.575 5.866-2.575 5.866s1.531 1.791 1.585 4.231c.054 2.445-1.164 5.08-1.164 5.08s1.997 1.595 2.723 3.382c.726 1.786.376 4.558.376 4.558s2.405.804 3.467 2.458c1.061 1.657 1.514 4.628 1.514 4.628s2.472.212 3.408.88c.932.663 2.195 2.188 2.195 2.188.6-.062 3.189-.68 3.189-.68.009-1.123-.112-2.653.461-3.617.578-.964 2.101-2.564 2.101-2.564s-1.527-.345-2.356-1.702c-.614-1.004-.605-2.599-.605-2.599s-5.657-.491-7.833-4.364c-2.182-3.873-.283-8.289-.283-8.289s-2.929-1.786-3.896-3.639c-.968-1.856-.856-7.568-1.012-9.018-.153-1.45-2.262-3.471-2.831-4.2-.565-.725.519-1.742 1.209-1.543.694.199 3.597 2.113 5.576 2.418 1.98.301 5.451-1.047 7.633-.742 2.176.3 4.143 2.953 4.143 2.953s2.4-2.772 8.138-1.194c5.738 1.574 5.451 7.233 5.451 7.233s2.047-.54 3.574.062c1.527.596 2.531 2.285 2.531 2.285z" fill="#04CF86"/><path d="M266.275 249.768a2.538 2.538 0 00-.35-3.607 2.624 2.624 0 00-3.654.345 2.545 2.545 0 00.349 3.607 2.626 2.626 0 003.655-.345zm9.401 23.776a2.538 2.538 0 00-.354-3.603 2.613 2.613 0 00-3.65.345 2.538 2.538 0 00.349 3.607 2.623 2.623 0 003.655-.349zm24.805-38.86a2.537 2.537 0 00-.35-3.603 2.617 2.617 0 00-3.654.345 2.54 2.54 0 00.349 3.603 2.618 2.618 0 003.655-.345zm-41.758 24.094a2.534 2.534 0 00-.349-3.603 2.618 2.618 0 00-3.655.345 2.542 2.542 0 00.354 3.607 2.617 2.617 0 003.65-.349zm32.974-16.905a2.541 2.541 0 00.35 3.603 2.618 2.618 0 003.655-.345 2.537 2.537 0 00-.35-3.603 2.618 2.618 0 00-3.655.345zm-24.441 39.872a2.54 2.54 0 00-.35-3.603 2.62 2.62 0 00-3.655.344 2.535 2.535 0 00.35 3.604 2.62 2.62 0 003.655-.345zM92.11 90.624a2.552 2.552 0 00-1.657 3.232c.447 1.344 1.912 2.073 3.274 1.631 1.361-.442 2.105-1.887 1.657-3.231-.448-1.344-1.912-2.074-3.274-1.632zm92.177-33.643a2.547 2.547 0 00-.349-3.607 2.623 2.623 0 00-3.655.35 2.534 2.534 0 00.349 3.602 2.619 2.619 0 003.655-.345zm-11.815 13.493s1.012 1.344 1.599 4.093c.586 2.755-.587 4.713-.587 4.713s1.541.363 2.714 2.825c1.178 2.462.591 4.567.591 4.567s2.052-.146 3.888 2.679c1.837 2.825 1.469 3.912 1.469 3.912 1.985.292 4.994.796 6.02 3.767 1.026 2.971 1.393 3.333-.515 6.163-1.908 2.825-.658 5.071.148 6.158.806 1.088 1.711 3.028 1.711 3.028.712-.879 3.301-1.936 4.725-4.049 1.429-2.113-.09-4.403-.623-5.46-.537-1.056.269-4.752 3.212-6.689 2.943-1.936 6.244-.619 6.244-.619s.443-2.024 2.942-3.784c2.5-1.76 4.372-1.322 4.372-1.322s.089-2.374 2.141-4.222c2.051-1.852 3.744-1.852 3.744-1.852s-.533-2.286.712-4.576c1.25-2.29 3.033-2.904 3.033-2.904s-.713-1.941-.354-4.05c.354-2.113 1.603-3.612 1.603-3.612-1.249-.614-2.23-2.378-2.23-2.378s-1.514 1.233-3.386 1.233c-1.877 0-4.014-.88-4.014-.88-.806 6.34-3.569 7.043-3.569 7.043.891 1.936 1.782 5.195.268 8.364-1.518 3.17-6.512 4.138-6.512 4.138s.179 2.29-1.071 4.492c-1.249 2.197-4.461 3.43-6.422 4.576-1.962 1.145-1.962 4.138-2.41 4.929-.443.796-.623 1.056-1.245.619-.627-.442-.09-2.82-.538-4.93-.443-2.113-3.211-3.346-4.635-6.078-1.429-2.728-.18-5.72-.18-5.72s-4.013-3.082-4.192-6.955c-.179-3.873 3.301-5.986 3.301-5.986s-1.16-1.056-.981-3.961c.175-2.909.354-3.612.354-3.612s-1.16-.354-3.834-1.322c-2.674-.968-3.032-1.67-3.032-1.67l-1.962 1.056s.533 1.145-.09 4.315c-.627 3.17-2.409 3.96-2.409 3.96z" fill="#04CF86"/><path d="M195.041 64.395a2.539 2.539 0 00.349 3.607 2.623 2.623 0 003.655-.349 2.538 2.538 0 00-.354-3.603 2.613 2.613 0 00-3.65.345zm-33.368-5.23a2.538 2.538 0 00-.35-3.607 2.625 2.625 0 00-3.654.344 2.542 2.542 0 00.353 3.608 2.622 2.622 0 003.651-.345zm-39.814 11.207c-.999-1.38-3.892-2.657-6.185-.296-2.298 2.365-1.698 4.628-.798 5.517.896.884 2.894 1.676 2.894 1.676s2.79 0 4.089 2.069c1.299 2.064 1.398 4.036 1.398 4.036s3.493 1.38 5.688 4.531c2.195 3.152 2.195 6.596 2.195 6.596s3.193 1.773 4.389 5.42c1.2 3.643.3 7.679.3 7.679s2.195 3.153 1.698 6.8c-.502 3.643-1.201 5.513-1.201 5.513s1.299 4.531 0 8.174c-1.294 3.647-5.285 6.008-6.781 6.008-1.5 0 .497-2.56.797-3.05.3-.496 3.194-3.055 1.895-10.739 0 0 2.096-3.05 1.698-6.202-.399-3.153-2.097-5.023-2.097-5.023s.798-3.744-.3-7.683c-1.097-3.94-4.089-4.925-4.089-4.925s.099-3.842-1.698-6.795c-1.796-2.957-5.088-3.546-5.088-3.546s-.398-2.166-1.697-3.744c-1.299-1.574-2.594-1.967-2.594-1.967s.099 1.67-.698 2.657c0 0 1.294.888 1.894 1.971.601 1.083.798 3.643.798 3.643s3.793.49 5.289 2.657c1.496 2.17 1.299 6.503 1.299 6.503s3.194 1.477 4.188 4.333c.999 2.856-.197 6.401-.197 6.401s2.692 2.268 2.795 5.124c.098 2.856-2.396 6.402-2.396 6.402s1.298 2.953.998 5.318c-.3 2.361-2.396 5.119-3.793 6.499 0 0 .6 5.91.999 7.091.398 1.18 1.397 3.744 3.69 4.332 2.298.593 5.989-1.379 5.989-1.379s-.202-3.148 2.893-5.712c3.095-2.559 6.486-2.069 6.486-2.069s.3-3.74 3.69-5.216c3.395-1.477 6.589-.297 6.589-.297s1.196-2.856 4.488-4.235c3.292-1.379 7.583.394 7.583.394s1.397-2.56 5.791-2.657c4.389-.102 6.284 2.462 6.284 2.462s1.299-1.972 3.395-2.564c2.092-.588 2.992-3.249 2.49-5.217-.497-1.971-2.49-6.008-3.789-6.304-1.299-.296-3.292.491-6.387-1.477-3.095-1.971-3.39-6.109-3.39-6.109s-3.095.495-5.792-2.361c-2.692-2.856-2.091-6.207-2.091-6.207s-2.894-1.675-4.591-5.12c-1.698-3.448-.202-6.304-.202-6.304s-1.796-1.379-2.392-4.925c-.6-3.545 1.295-6.697 1.295-6.697s-1.595-2.365-1.496-5.615l-2.096-.097s-.596 3.643.797 5.614c0 0-1.496 2.463-.995 6.106.498 3.643 2.594 6.207 2.594 6.207s-1.599 4.036.497 7.484c2.096 3.444 4.689 4.824 4.689 4.824s-.497 4.235 1.9 6.6c2.391 2.365 5.786 2.953 5.786 2.953s.699 4.532 3.893 5.911c3.193 1.379 7.681 1.083 7.681 1.083l.6 1.972s-6.588 2.462-10.879-.296c-4.291-2.759-4.09-5.319-4.09-5.319s-2.893-1.083-5.688-4.337c-2.795-3.249-2.495-6.401-2.495-6.401s-3.892-2.166-5.688-6.795c-1.796-4.629-.497-7.188-.497-7.188s-2.195-2.07-2.293-6.305c-.103-4.235 1.496-6.795 1.496-6.795s-1.398-3.249-1.098-5.318c.296-2.069 1.496-4.333 1.398-5.91-.103-1.575-1.899-5.12-5.89-3.644-3.991 1.477-3.091 4.333-2.495 5.319.6.986 2.096 2.462 2.096 2.462s.202 5.416-3.592 5.911l7.785 40.969s1.097 4.531 4.29 4.336c3.194-.198 4.229-1.162 4.927-3.426.699-2.263-1.733-5.34-4.828-4.849-3.095.495-3.664.039-3.292-1.278.318-1.123 2.127-2.675 5.899-2.365 2.172.177 4.152 1.574 5.473 4.925 1.335 3.373.3 7.091-2.195 9.65-2.494 2.56-7.883 1.181-7.883 1.181s-1.796 4.235-6.584 4.73c-4.788.491-8.066-3.152-8.779-4.827-.851-1.99-.788-6.15 1.205-8.122 1.998-1.967 5.778-2.024 6.678-1.529.896.49.386 1.742-2.396 2.758-2.432.885-3.292 4.726-1.599 6.402 1.698 1.671 4.891 1.574 6.19.491 1.295-1.084 2.894-3.055 1.398-6.203-1.501-3.152-21.853-36.442-21.853-36.442s-2.894.491-4.891-.985c-1.998-1.477-.399-3.449-1.398-4.828z" fill="#04CF86"/><path d="M140.384 64.903a2.538 2.538 0 00-.349-3.607 2.623 2.623 0 00-3.655.35 2.539 2.539 0 00.354 3.602 2.613 2.613 0 003.65-.345zm-8.626-6.56a2.547 2.547 0 00-.35-3.608 2.627 2.627 0 00-3.655.345 2.546 2.546 0 00.35 3.608 2.627 2.627 0 003.655-.345zm-5.492 11.37a2.613 2.613 0 003.651-.344 2.533 2.533 0 00-.35-3.604 2.612 2.612 0 00-3.65.345 2.533 2.533 0 00.349 3.603zm72.672 11.035a2.62 2.62 0 003.65-.345 2.539 2.539 0 00-.349-3.607 2.619 2.619 0 00-3.655.344 2.543 2.543 0 00.354 3.608zm-65.72-4.571c.73 1.852 12.514 21.826 12.514 21.826s-4.976-22.587-5.706-24.44c-.735-1.856-2.849-2.775-4.73-2.055-1.881.72-2.813 2.812-2.078 4.669zm83.201 29.209c-2.584 1.543-7.117 1.105-7.117 1.105s-2.065 2.666-4.394 3.599c-2.333.932-5.939.455-7.918-.098 0 0-5.142 3.542-6.029 4.501-.887.959-2.737 3.156-2.114 5.517.622 2.361 4.313 4.673 4.313 4.673s2.804-1.782 6.736-.305c3.933 1.477 5.2 4.77 5.2 4.77s3.602-1.631 6.688.663c3.086 2.295 3.623 5.761 3.623 5.761s3.238-.376 6.186 1.879c2.942 2.254 3.489 7.007 3.489 7.007s3.072-.044 5.392 3.846c2.325 3.89.927 6.897.927 6.897s2.477.163 4.085 1.741c1.613 1.583 4.52 1.035 6.078-.411 1.563-1.45 4.269-5.296 3.884-6.609-.39-1.317-2.128-2.706-1.886-6.485.242-3.78 3.901-6.15 3.901-6.15s-2.024-2.529-.761-6.397c1.263-3.873 4.653-5.035 4.653-5.035s.072-3.453 2.383-6.725c2.316-3.276 5.711-3.386 5.711-3.386s.354-2.312 3.319-4.651c2.96-2.343 6.83-2.241 6.83-2.241s1.366-2.635 4.412-4.2l-.972-1.932s-3.664 1.317-4.77 3.572c0 0-3.028-.093-6.132 2.211-3.108 2.298-4.403 5.481-4.403 5.481s-4.532.619-6.642 4.253c-2.11 3.634-2.065 6.663-2.065 6.663s-4.156 1.706-5.115 5.057c-.963 3.351.22 6.698.22 6.698s-3.821 2.931-3.467 6.499c.349 3.567 2.907 7.449 2.907 7.449l-1.51 1.538s-5.621-4.659-5.258-9.916c.358-5.252 2.822-6.375 2.822-6.375s-.475-3.147 1.102-7.307c1.572-4.161 4.631-5.496 4.631-5.496s.018-4.597 3.373-8.563c3.35-3.966 6.369-4.103 6.369-4.103s.793-3.019 4.644-5.265c3.852-2.241 7.023-2.109 7.023-2.109s2.285-2.909 4.341-3.691c2.06-.783 4.756-.858 6.158-1.746 1.402-.893 3.754-4.306.363-7.14-3.391-2.834-5.563-.575-6.168.464-.604 1.039-1.204 3.134-1.204 3.134s-4.891 2.931-7.27-.22l-33.803 27.816s-3.614 3.289-1.809 6.052c1.8 2.767 3.216 3.21 5.661 2.688 2.441-.526 4.036-4.275 2.011-6.804-2.024-2.524-1.899-3.271-.492-3.607 1.191-.283 3.543.552 5.173 4.098.94 2.038.663 4.527-1.751 7.418-2.432 2.909-6.383 3.873-10.011 2.936-3.628-.938-5.097-6.477-5.097-6.477s-4.815.539-7.704-3.51c-2.889-4.05-1.196-8.842-.018-10.336 1.402-1.773 5.268-3.833 8.098-3.042 2.831.787 4.802 4.156 4.806 5.212 0 1.057-1.411 1.234-3.758-.747-2.055-1.733-6.033-.552-6.714 1.822-.68 2.374 1.035 5.19 2.692 5.804 1.657.615 4.287 1.044 6.428-1.901 2.145-2.944 22.475-38.143 22.475-38.143s-1.926-2.348-1.581-4.894c.349-2.542 2.974-2.109 3.74-3.705.761-1.596.47-4.845-2.876-5.707-3.345-.858-5.128.83-5.486 2.09-.363 1.256-.072 3.449-.072 3.449s1.42 2.507.175 4.722c-1.25 2.219-3.015 3.306-3.015 3.306s.506 3.838-1.281 7.414c-1.787 3.572-4.967 5.323-4.967 5.323s-.009 3.767-2.759 6.698c-2.75 2.926-6.929 4.173-6.929 4.173s-1.787 3.572-5.397 4.978c-3.615 1.406-5.693 1.729-5.693 1.729s-3.516 3.466-7.533 4.155c-4.018.69-8.224-1.693-8.985-3.037-.762-1.344 2.611-.853 3.22-.835.605.017 4.434 1.313 10.857-3.758 0 0 3.879.331 6.58-1.632 2.701-1.958 3.561-4.434 3.561-4.434s3.856-1.185 6.929-4.173c3.072-2.989 2.459-6.176 2.459-6.176s3.592-1.866 5.401-4.978c1.81-3.117.681-6.37.681-6.37s1.792-1.46 2.584-3.427c.793-1.967.497-3.329.497-3.329s-1.491.938-2.808.72c0 0-.157 1.619-.851 2.707-.694 1.087-2.951 2.568-2.951 2.568s1.473 3.656.237 6.1c-1.236 2.446-5.33 4.47-5.33 4.47s.264 3.617-1.863 5.964c-2.123 2.348-6.002 3.077-6.002 3.077s-.717 3.572-3.297 5.111z" fill="#04CF86"/><path d="M222.846 85.505a2.613 2.613 0 003.651-.345 2.539 2.539 0 00-.35-3.608 2.62 2.62 0 00-3.65.345 2.539 2.539 0 00.349 3.608zM239.827 68.6a2.533 2.533 0 00-.35-3.604 2.618 2.618 0 00-3.655.345 2.538 2.538 0 00.354 3.603 2.614 2.614 0 003.651-.345zm-13.128 3.315a2.546 2.546 0 00.349 3.607 2.623 2.623 0 003.655-.349 2.542 2.542 0 00-.349-3.603 2.618 2.618 0 00-3.655.345zm-1.971-10.632a2.547 2.547 0 00.349 3.607 2.627 2.627 0 003.655-.344 2.545 2.545 0 00-.349-3.608 2.618 2.618 0 00-3.655.345zm-37.005 14.911a2.539 2.539 0 00.349 3.608 2.627 2.627 0 003.655-.345 2.543 2.543 0 00-.354-3.607 2.62 2.62 0 00-3.65.344zm3.484-22.312a2.538 2.538 0 00.349 3.603 2.618 2.618 0 003.655-.345 2.54 2.54 0 00-.349-3.603 2.618 2.618 0 00-3.655.345zm26.892 6.689a2.542 2.542 0 00-.949-3.497 2.612 2.612 0 00-3.543.937 2.542 2.542 0 00.949 3.497 2.612 2.612 0 003.543-.937zM191.79 85.885a2.539 2.539 0 00.349 3.608 2.627 2.627 0 003.655-.345 2.543 2.543 0 00-.354-3.608 2.62 2.62 0 00-3.65.345zm-133.797 74.63a2.549 2.549 0 001.42-3.338c-.542-1.309-2.055-1.937-3.381-1.402a2.549 2.549 0 00-1.42 3.338c.542 1.313 2.056 1.937 3.381 1.402zm114.492-63.41c1.2.774 2.808.438 3.592-.747a2.538 2.538 0 00-.757-3.541 2.616 2.616 0 00-3.592.747 2.542 2.542 0 00.757 3.541zm-61.94-10.221a2.551 2.551 0 00-1.652 3.232c.447 1.344 1.912 2.078 3.274 1.635a2.551 2.551 0 001.652-3.231c-.447-1.344-1.912-2.078-3.274-1.636z" fill="#04CF86"/><path d="M51.902 181.943c1.021 3.001 3.256 3.519 4.43 3.165 1.173-.358 2.755-1.684 2.755-1.684s1.258-2.357 3.641-2.516c2.378-.159 4.134.646 4.134.646s2.768-2.326 6.495-2.75c3.722-.429 6.713 1.127 6.713 1.127s2.98-1.892 6.683-1.255c3.7.636 6.8 3.218 6.8 3.218s3.726-.429 6.664 1.64c2.938 2.069 4.246 3.501 4.246 3.501s4.515.955 7.095 3.696c2.58 2.737 2.83 7.171 2.154 8.435-.672 1.26-1.997-1.578-2.289-2.051-.291-.477-1.209-4.076-8.46-6.45 0 0-1.707-3.148-4.623-4.235-2.916-1.088-5.303-.5-5.303-.5s-2.889-2.365-6.803-3.218c-3.91-.858-6.114 1.224-6.114 1.224s-3.292-1.821-6.665-1.64c-3.373.182-5.37 2.693-5.37 2.693s-2.06-.646-4.013-.261c-1.953.38-2.88 1.295-2.88 1.295s1.5.672 1.993 1.791c0 0 1.357-.694 2.566-.708 1.21-.017 3.52.973 3.52.973s2.137-2.975 4.695-3.258c2.553-.283 6.226 1.843 6.226 1.843s2.718-2.025 5.648-1.578c2.929.451 5.464 3.059 5.464 3.059s3.18-1.247 5.706-.04c2.522 1.207 4.475 4.912 4.475 4.912s3.148.239 5.065 1.561c1.917 1.321 3.368 4.332 3.933 6.136 0 0 5.401 2.162 6.606 2.361 1.205.199 3.879.512 5.424-1.159 1.546-1.666 1.501-5.672 1.501-5.672s-2.826-1.255-3.655-5.017c-.829-3.767 1.129-6.406 1.129-6.406s-3.113-1.946-2.867-5.473c.246-3.528 2.714-5.69 2.714-5.69s-1.939-2.299-1.652-5.699c.286-3.399 3.757-6.216 3.757-6.216s-1.59-2.338.301-6.083c1.894-3.749 4.971-4.191 4.971-4.191s-1.124-1.985-.694-4.018c.43-2.034-1.474-3.992-3.404-4.461-1.935-.469-6.342-.61-7.18.349-.842.96-1.057 3.002-4.161 4.717-3.104 1.72-6.83.106-6.83.106s-.963 2.83-4.658 3.811c-3.691.982-6.33-1.034-6.33-1.034s-2.758 1.684-6.512 1.556c-3.757-.128-5.563-2.679-5.563-2.679s-2.006.893-5.352-.204c-3.346-1.096-5.227-4.12-5.227-4.12s-2.772.279-5.545-1.273l-1.03 1.72s2.894 2.153 5.231 1.865c0 0 1.46 2.374 4.851 3.599 3.386 1.225 6.553.614 6.553.614s2.786 3.17 6.718 2.962c3.937-.212 6.302-1.777 6.302-1.777s3.454 2.334 6.584 1.384c3.131-.951 5.174-3.546 5.174-3.546s4.246 1.459 6.879-.614c2.638-2.069 4.403-5.99 4.403-5.99l1.98.384s-.829 6.667-5.155 9.041c-4.332 2.374-6.464 1.048-6.464 1.048s-2.244 1.954-6.324 2.838c-4.076.889-6.678-.787-6.678-.787s-3.633 2.303-8.46 1.729c-4.83-.58-6.464-2.83-6.464-2.83s-2.786.92-6.508-.91c-3.718-1.831-5.222-4.333-5.222-4.333s-3.45-.292-5.11-1.477c-1.658-1.189-3.087-3.222-4.498-3.85-1.415-.628-5.299-.712-5.818 3.32-.515 4.032 2.37 4.567 3.494 4.505 1.124-.058 3.081-.654 3.081-.654s4.788 2.281 3.507 5.698l39.066 11.95s4.429 1.118 5.697-1.662c1.268-2.781.9-4.094-.752-5.708-1.653-1.609-5.42-.946-6.383 1.883-.967 2.834-1.621 3.113-2.598 2.202-.828-.774-1.357-3.002.61-6.043 1.133-1.751 3.238-2.794 6.74-2.396 3.53.402 6.289 2.953 7.386 6.215 1.102 3.259-2.526 7.18-2.526 7.18s2.866 3.431 1.138 7.692c-1.734 4.262-6.374 5.381-8.148 5.226-2.109-.186-5.692-2.118-6.503-4.691-.81-2.573.846-5.787 1.68-6.322.833-.535 1.688.465 1.312 3.267-.327 2.454 2.62 4.912 4.837 4.24 2.217-.676 3.57-3.413 3.216-4.996-.354-1.582-1.344-3.819-4.757-3.983-3.408-.159-41.47 1.967-41.47 1.967s-.878 2.666-3.06 3.679c-2.18 1.016-3.17-1.22-4.819-.999-1.644.216-4.063 2.077-3.046 5.084zm39.075 104.165c-1.434 0-2.598 1.15-2.598 2.564 0 1.415 1.164 2.56 2.598 2.56 1.428 0 2.593-1.145 2.593-2.56 0-1.414-1.164-2.564-2.593-2.564zm4.738-9.783c0-1.415-1.16-2.564-2.593-2.564s-2.598 1.149-2.598 2.564c0 1.41 1.165 2.56 2.598 2.56 1.433 0 2.593-1.15 2.593-2.56z" fill="#04CF86"/><path d="M64.031 168.857c1.989.331 25.41.574 25.41.574s-22.203-7.351-24.191-7.683c-1.989-.327-3.875.995-4.21 2.958-.337 1.962 1.003 3.824 2.991 4.151zm56.055 125.912c-1.434 0-2.598 1.149-2.598 2.564s1.164 2.56 2.598 2.56c1.428 0 2.593-1.145 2.593-2.56s-1.165-2.564-2.593-2.564zm-14.602-19.947c1.303-1.521 13.45-21.283 13.45-21.283s-17.727 15.107-19.026 16.627a3.57 3.57 0 00.43 5.08 3.684 3.684 0 005.146-.424zm-6.799 7.661c0 1.415 1.165 2.564 2.598 2.564 1.433 0 2.593-1.149 2.593-2.564s-1.16-2.56-2.593-2.56-2.598 1.145-2.598 2.56z" fill="#04CF86"/><path d="M139.488 257.448c3.051-1.627 7.135-.814 7.135-.814s1.098-2.975 5.174-4.107c4.08-1.127 8.084.928 8.084.928s4.336-2.015 6.02-6.428c1.599-4.182-2.401-7.184-2.401-7.184s-3.686 1.663-7.583.416c-3.901-1.247-4.327-5.102-4.327-5.102s-2.714 1.751-6.221-.464c-3.507-2.21-3.888-6.543-3.888-6.543s-3.166.933-5.854-2.016c-2.687-2.953-2.382-6.591-2.382-6.591s-3.566-.367-5.317-4.121c-1.747-3.753.175-5.835.175-5.835s-.211-.946-3.561-2.034c-3.35-1.083-5.33 1.181-6.687 2.056-1.357.875-3.579 4.929-3.297 6.291.287 1.361 1.743 3.457 1.053 6.392-.69 2.94-3.126 4.085-3.126 4.085s2.32 2.843-.139 7.03c-2.459 4.182-5.707 4.403-5.707 4.403.404 1.295.542 3.789-2.024 6.37-2.571 2.578-5.227 2.485-5.227 2.485.175 1.72-1.5 3.974-4.053 5.181-2.553 1.212-5.478.35-5.478.35s-.287 2.272-1.402 3.32c-1.11 1.043-3.144 1.525-3.144 1.525l.788 1.998c3.467-.942 4.86-2.591 4.86-2.591s4.564-.619 7.108-2.126c2.544-1.508 3.614-5.707 3.614-5.707s3.583-1.004 5.908-3.754 2.558-6.804 2.558-6.804c7.766-3.992 5.849-11.131 5.849-11.131 4.452-4.187 2.719-9.311 1.948-10.717-.765-1.401-.376-2.365.977-1.578 1.353.791 3.856 3.691 3.386 7.869-.47 4.182-3.736 5.77-3.736 5.77s.816.928-.837 5.742c-1.657 4.81-4.475 7.22-4.475 7.22s1.035 2.17-2.347 5.787c-3.377 3.616-6.79 4.376-6.79 4.376s.148 2.794-4.326 6.088c-4.48 3.293-7.283 2.37-7.283 2.37-.927 1.096-3.928 3.452-6.024 3.815-2.101.362-4.82.15-6.249 2.577-1.428 2.423.61 5.871 4.05 6.004 3.44.128 2.915-3.068 5.943-4.532 3.028-1.463 4.703-.088 4.703-.088l29.472-22.816c3.766-2.918 5.168-4.271 5.742-7.145.568-2.873-2.746-4.734-5.08-4.244-2.338.491-4.976 4.62-1.943 7.083 3.032 2.466 1.764 2.387 1.764 2.387-4.161-.049-5.276-2.37-6.167-5.677-.887-3.302 2.535-7.957 7.954-8.13 5.42-.168 8.089 7.786 8.089 7.786 4.936-.217 10.445 4.253 6.728 10.619-3.713 6.366-9.558 4.642-11.484 2.798-1.926-1.843-1.675-5.305-.049-3.448 1.625 1.852 3.937 2.436 5.495 2.206 1.559-.226 5.59-2.374 3.176-6.229-2.414-3.851-5.962-1.658-7.319-.783-1.357.876-23.9 36.928-23.9 36.928 1.729 3.161.547 5.756-1.146 7.414-1.698 1.662-3.48 6.238 1.075 7.286 4.555 1.047 5.536-4.16 5.455-8.502-.076-4.341 2.54-5.433 2.54-5.433s-1.29-2.639.86-7.109c2.145-4.469 5.751-4.881 5.751-4.881s.788-3.594 3.35-6.472c2.557-2.878 6.391-3.709 6.391-3.709s.408-2.334 5.151-4.863c4.743-2.529 6.867-1.998 6.867-1.998s1.231-3.073 7.17-3.975c3.507-.53 6.19.854 7.803 2.074.475.358.139 1.105-.448.995a14.245 14.245 0 00-7.574.654c-5.424 1.994-5.845 3.713-5.845 3.713s-2.956-.968-6.934 1.455c-3.977 2.418-4.317 4.845-4.317 4.845s-3.919.593-6.092 3.546c-2.172 2.953-1.903 5.65-1.903 5.65s-4.081 1.127-5.577 4.765c-1.491 3.639-.873 6.15-.873 6.15s-1.877 1.003-2.464 3.258c-.582 2.255-.734 3.086-.734 3.086l2.531.743s.533-3.727 2.924-5.447c0 0-.743-2.745.762-6.088 1.5-3.346 5.688-4.827 5.688-4.827s-.219-3.174 2.195-5.96c2.418-2.78 5.876-2.829 5.876-2.829s.547-3.435 3.592-5.057zM252.323 86.19c-1.33 1.494-13.863 21.017-13.863 21.017s18.015-14.761 19.35-16.26a3.57 3.57 0 00-.332-5.084 3.68 3.68 0 00-5.155.327zm-149.952 1.906a2.551 2.551 0 001.653-3.232c-.448-1.344-1.912-2.078-3.274-1.636a2.551 2.551 0 00-1.653 3.232c.448 1.344 1.913 2.078 3.274 1.636zm6.692-12.016a2.551 2.551 0 00-1.653 3.231c.448 1.344 1.913 2.078 3.274 1.636 1.362-.442 2.101-1.892 1.653-3.232-.443-1.344-1.913-2.078-3.274-1.636zm-8.313 34.611a2.55 2.55 0 00-1.653 3.231c.448 1.344 1.913 2.074 3.274 1.632a2.55 2.55 0 001.653-3.232c-.448-1.344-1.912-2.073-3.274-1.631zm2.051 13.223c.448 1.344 1.913 2.077 3.274 1.635a2.55 2.55 0 001.653-3.231c-.448-1.344-1.912-2.078-3.274-1.636-1.362.442-2.101 1.892-1.653 3.232z" fill="#04CF86"/><path d="M80.872 121.359s-.183 1.198-1.885 2.758c-1.703 1.561-3.53 2.162-3.53 2.162.367 1.379.063 2.759.063 2.759s2.31-.058 3.525 1.322c1.218 1.379 1.034 3.121 1.034 3.121s2.553-.902 4.56.181c2.007 1.079 2.311 2.882 2.311 2.882s2.495-1.441 4.869-.901c2.37.539 3.587 2.038 3.587 2.038s1.03-1.738 4.014-1.919c2.978-.181 4.255 1.441 4.255 1.441s.873-3.267 3.61-3.93c2.736-.659 5.455.035 6.414 1.499 1.231 1.874 1.07 3.824 3.171 4.531 2.795.942 6.705.314 6.705.314-.471-1.468.38-3.104-1.295-6.614-.51-1.083-1.697-1.671-2.853-1.976-2.087-.548-3.798-2.034-4.533-4.036-.259-.699-.443-1.419-.474-2.091-.126-2.533 2.32-5.367 2.32-5.367s-1.407-1.627-1.469-3.855c-.059-2.233 1.039-4.642 1.039-4.642s-1.832-1.45-2.504-3.077c-.672-1.627-.367-4.16-.367-4.16s-2.199-.721-3.176-2.228c-.976-1.508-1.402-4.222-1.402-4.222s-2.262-.182-3.117-.783c-.856-.601-2.016-1.99-2.016-1.99-.546.063-2.911.637-2.911.637 0 1.026.121 2.423-.403 3.303-.52.884-1.904 2.352-1.904 2.352s1.398.309 2.159 1.543c.565.915.565 2.374.565 2.374s5.168.42 7.175 3.943c2.011 3.528.3 7.569.3 7.569s2.678 1.613 3.574 3.302c.892 1.693.815 6.905.968 8.232.147 1.322 2.082 3.156 2.602 3.819.52.659-.461 1.592-1.097 1.415-.632-.177-3.288-1.914-5.098-2.179-1.809-.27-4.976.981-6.969.711-1.988-.265-3.798-2.674-3.798-2.674s-2.177 2.537-7.422 1.127c-5.249-1.415-5.012-6.578-5.012-6.578s-1.867.499-3.265-.04c-1.397-.539-2.32-2.073-2.32-2.073z" fill="#04CF86"/><path d="M93.92 119.546a2.558 2.558 0 00-1.658 3.232c.448 1.344 1.917 2.073 3.279 1.635 1.357-.442 2.1-1.892 1.652-3.231-.448-1.344-1.912-2.078-3.274-1.636zm-5.268-11.132c-1.362.442-2.105 1.892-1.657 3.232.447 1.344 1.912 2.078 3.274 1.636 1.361-.443 2.105-1.888 1.657-3.232-.448-1.344-1.913-2.078-3.274-1.636zm-3.538-10.318c-1.362.442-2.105 1.892-1.657 3.231.447 1.344 1.912 2.078 3.274 1.636a2.558 2.558 0 001.657-3.232c-.448-1.344-1.917-2.078-3.274-1.635zm95.922 203.591s-1.237-1.971-.627-3.731c.604-1.755 2.248-2.484 2.248-2.484s-2.105-1.756-2.168-4.046c-.063-2.29 1.38-3.47 1.38-3.47s-2.553-1.424-3.283-3.753c-.726-2.33-.014-4.152-.014-4.152s-2.074-.004-3.758-2.493c-1.63-2.414-.936-4.302-.896-4.417-.147.036-3.39.858-5.33-1.131-1.984-2.034-2.75-4.744-1.943-6.318 1.043-2.025 2.857-2.878 2.414-5.057-.591-2.905-3.144-5.964-3.144-5.964-1.066 1.149-2.952 1.251-5.223 4.492-.694.994-.618 2.325-.296 3.479.574 2.086.126 4.328-1.276 5.986-.488.579-1.035 1.109-1.617 1.481-2.186 1.397-5.953.725-5.953.725s-.73 2.047-2.682 3.24c-1.953 1.19-4.659 1.468-4.659 1.468s-.349 2.325-1.455 3.74c-1.102 1.41-3.512 2.44-3.512 2.44s.479 2.273-.358 3.886c-.842 1.619-3.037 3.374-3.037 3.374s.994 2.046.891 3.094c-.098 1.048-.739 2.763-.739 2.763.336.447 2.052 2.198 2.052 2.198.914-.527 2.091-1.34 3.144-1.34 1.048.004 3.059.451 3.059.451s-.439-1.366.273-2.657c.524-.955 1.819-1.702 1.819-1.702s-2.262-4.686-.152-8.227c2.109-3.542 6.575-4.121 6.575-4.121s.067-3.143 1.115-4.779c1.048-1.635 5.72-4.235 6.821-5.035 1.098-.805 1.747-3.418 2.065-4.209.323-.787 1.657-.411 1.823.23.161.641-.022 3.824.663 5.531.685 1.702 3.413 3.806 4.188 5.667.779 1.861-.443 4.655-.443 4.655s3.372.593 4.792 5.858c1.424 5.265-3.292 7.697-3.292 7.697s1.397 1.362 1.63 2.847c.238 1.485-.658 3.068-.658 3.068s1.16-.455 3.417.226c2.258.676 3.722 1.949 3.722 1.949 1.04-1.017 2.424-1.459 2.424-1.459zM17.512 112.313c1.246 2.693.507 4.205.713 6.645.21 2.436 3.14 9.399 9.983 10.411 6.84 1.013 12.017-1.463 11.762-4.262-.255-2.794-2.728-3.978-4.985-3.815-2.258.164-2.67 1.786-2.934 2.701-.26.92-1.903 2.06-5.285.659s-2.36-3.59-3.73-6.919c-1.372-3.329-3.795-6.388-3.795-6.388.506.027 1.17.142 3.687-.398 2.512-.539 6.817-2.069 8.886-2.285 2.074-.217 4.873 1.671 5.101 3.943.166 1.684-1.231 3.02-.497 5.009.74 1.989 5.886 2.493 6.983-.818 1.097-3.316-1.957-5.8-3.753-8.828-1.797-3.029-4.574-4.046-8.3-4.05-3.682-.004-10.84 4.5-11.977 5.049-1.178.566-3.14 1.127-3.457 1.215-.319.089.81.425 1.598 2.131zm37.597-13.514c0-1.92-1.577-3.475-3.52-3.475-1.949 0-3.526 1.556-3.526 3.475 0 1.918 1.577 3.474 3.525 3.474 1.944 0 3.52-1.556 3.52-3.474zm23.743-48.697c0 1.919 1.577 3.475 3.52 3.475 1.944 0 3.521-1.556 3.521-3.475 0-1.918-1.577-3.475-3.52-3.475-1.944 0-3.52 1.557-3.52 3.475z" fill="#04CF86"/><path d="M29.184 112.95c-1.943 0-3.52 1.556-3.52 3.475 0 1.923 1.577 3.479 3.52 3.479 1.949 0 3.525-1.556 3.525-3.479 0-1.919-1.576-3.475-3.525-3.475zm-7.977 19.43s-5.93-3.926-6.83-12.666c0 0-3.198 4.527-3.27 11.216-.067 6.689 4.085 13.099 4.085 13.099s.784-7.852 6.015-11.649zm232.5-108.06c0-1.924-1.577-3.48-3.521-3.48-1.943 0-3.52 1.556-3.52 3.48 0 1.918 1.577 3.474 3.52 3.474 1.944 0 3.521-1.556 3.521-3.474z" fill="#04CF86"/><path d="M41.502 108.215c2.848 5.694 5.388 5.92 6.947 5.31 1.558-.611 3.672-2.034 2.727-5.27-.95-3.236-4.219-3.179-5.388-2.785-1.173.398-2.333-2.096-2.266-4.885.062-2.794 1.899-6.946 6.225-7.83 4.323-.884 8.725 3.413 9.03 7.414.21 2.763-1.066 4.165-2.07 4.125-.698-.031-3.121.375-3.533 3.236-.408 2.856 1.715 4.814 3.847 4.766 2.132-.049 3.691-.664 4.134-2.786.444-2.126-.81-4.566-1.258-5.574-.444-1.008-.538-6.092 1.258-6.959 1.792-.866.538 1.76.843 3.104.304 1.339 2.853 5.291 2.857 6.649.004 1.357-1.783 2.117-2.284 3.528-.502 1.41-.14 2.718.08 4.186.215 1.463-5.804 4.337-9.043.92 0 0-.963 1.136-2.87 1.812-1.913.681-3.324.478-3.324.478s-.636 1.711-1.595 2.997c-.954 1.282-2.714 1.954-2.714 1.954s.735 2.237.417 4.372c-.318 2.14-1.6 2.847-1.6 2.847s2.083 1.645 2.29 3.493c.205 1.852-.122 3.165-.122 3.165s3.834.823 4.833 3.519c.995 2.697.896 4.413-.152 4.996-1.048.579-2.584 1.649-2.118 3.28.465 1.632.483 1.928-1.908 3.245-2.388 1.322-3.328.332-4.57 1.243-1.244.915-2.642 2.895-3.139 2.564-.492-.327.054-3.564 1.984-5.009 1.935-1.446 3.655-1.503 5.483-3.272 1.831-1.764 2.212-3.788 1.043-5.707-1.164-1.923-4.577-2.679-6.768.34-2.185 3.02 1.228 5.668 1.228 5.668s-3.18 5.986-8.112 4.708c-4.936-1.273-6.494-4.567-6.396-8.17.099-3.603 3.83-8.081 6.943-7.312 0 0 .998 4.054 4.497 2.803 3.498-1.255 4.877-3.678 3.592-6.211-1.29-2.538-7.56-4.023-12.994-1.052-5.397 2.953-7.283 8.165-6.893 12.794.439 5.177 3.292 8.903 6.002 10.579 2.71 1.671 5.299 2.122 5.299 2.122s4.29 1.516 10.722-1.914c6.432-3.431 6.065-1.848 6.911-1.689.851.155 4.403-.305 3.87-2.14-.537-1.835-1.886-3.094-.65-6.286 1.241-3.188 3.817-4.24 3.817-4.24s-2.065-2.741-.6-6.432c1.46-3.692 4.362-4.169 4.362-4.169s-1.76-2.657-.255-6.499c1.5-3.837 4.953-4.24 4.953-4.24s-1.366-2.63.337-5.451c1.701-2.82 4.649-3.448 4.649-3.448s-.838-1.919.29-3.294c0 0-2.534-1.105-3.721-5.212-1.187-4.103-1.89-8.48-5.774-11.972-3.887-3.488-10.884-4.633-17.154.208-6.266 4.84-5.048 11.689-2.2 17.383zm10.033 22.6c-2.553 0-4.623-2.043-4.623-4.563 0-2.52 2.07-4.562 4.623-4.562 2.553 0 4.622 2.042 4.622 4.562 0 2.52-2.07 4.563-4.622 4.563zm-4.954 29.143a2.547 2.547 0 00-1.42 3.337 2.612 2.612 0 003.386 1.402 2.549 2.549 0 001.42-3.338c-.542-1.309-2.056-1.936-3.386-1.401z" fill="#04CF86"/><path d="M28.204 144.94c0 1.918 1.576 3.475 3.52 3.475s3.52-1.557 3.52-3.475c0-1.919-1.576-3.475-3.52-3.475s-3.52 1.556-3.52 3.475zm7.327-44.218s-.439-7.038 6.051-13.05c0 0-5.59.238-11.014 4.248-5.343 3.943-7.981 10.933-8.062 11.149.229-.137 6.902-4.116 13.025-2.347zm-5.634 136.124c3.26.221 5.836-.61 5.836-.61s4.622-.681 8.877-6.892c4.26-6.212 4.663-4.594 5.514-4.859.85-.265 3.874-2.383 2.522-3.802-1.349-1.415-3.172-1.914-3.543-5.411-.372-3.502 1.491-5.694 1.491-5.694s-3.175-1.508-3.574-5.571c-.403-4.063 2.02-5.893 2.02-5.893s-2.858-1.574-3.288-5.791c-.434-4.222 2.526-6.247 2.526-6.247s-2.48-1.737-2.257-5.124c.229-3.386 2.62-5.371 2.62-5.371s-1.661-1.344-1.28-3.139c0 0-2.831.208-5.846-2.962-3.01-3.17-5.71-6.813-10.897-8.13-5.187-1.313-12.107 1.003-15.551 8.422-3.44 7.418.891 13.068 6.168 16.888 5.271 3.815 7.699 2.802 8.832 1.498 1.133-1.304 2.396-3.612.009-6.105-2.383-2.493-5.343-.875-6.226.049-.882.924-3.113-.787-4.362-3.365-1.254-2.573-1.528-7.232 1.997-10.115 3.53-2.882 9.567-1.078 11.726 2.419 1.487 2.413.986 4.301.05 4.748-.65.309-2.67 1.843-1.703 4.642.972 2.798 3.83 3.563 5.752 2.493 1.921-1.065 3.054-2.37 2.459-4.518-.592-2.153-2.885-3.771-3.763-4.474-.882-.703-3.355-5.292-2.127-6.941 1.231-1.653 1.32 1.344 2.226 2.418.909 1.079 5.092 3.457 5.733 4.691.645 1.233-.632 2.785-.426 4.306.206 1.525 1.151 2.546 2.043 3.775.887 1.229-3.257 6.738-7.816 5.177 0 0-.345 1.494-1.77 3.033-1.424 1.534-2.808 2.029-2.808 2.029s.224 1.866-.044 3.493c-.27 1.627-1.56 3.081-1.56 3.081s1.72 1.684 2.437 3.784c.717 2.1-.12 3.36-.12 3.36s2.669.5 3.73 2.082c1.058 1.588 1.376 2.94 1.376 2.94s3.887-1.092 6.064.889c2.172 1.981 2.889 3.59 2.208 4.62-.685 1.03-1.58 2.745-.39 4.005 1.192 1.26 1.344 1.525-.215 3.873-1.558 2.347-2.884 1.901-3.587 3.324-.703 1.428-1.048 3.908-1.653 3.842-.609-.066-1.63-3.271-.546-5.517 1.084-2.246 2.624-3.121 3.466-5.606.838-2.489.233-4.514-1.733-5.703-1.97-1.193-5.437-.243-6.015 3.559-.573 3.802 3.78 4.571 3.78 4.571s-.085 6.981-5.187 8.188c-5.097 1.202-8.07-1.044-9.674-4.373-1.604-3.328-.305-9.199 2.898-9.991 0 0 2.817 3.21 5.42.389 2.602-2.816 2.718-5.685.353-7.378-2.365-1.693-8.783-.036-12.344 5.274-3.538 5.283-2.804 10.933-.273 14.965 2.83 4.505 7.189 6.529 10.445 6.755zm9.562-33.811c-2.553 0-4.622-2.043-4.622-4.563 0-2.52 2.07-4.562 4.622-4.562 2.553 0 4.623 2.042 4.623 4.562 0 2.516-2.07 4.563-4.623 4.563z" fill="#04CF86"/><path d="M26.829 225.06c0 1.918 1.576 3.475 3.52 3.475s3.52-1.557 3.52-3.475c0-1.923-1.576-3.479-3.52-3.479s-3.52 1.556-3.52 3.479zm-1.192-47.419c1.944 0 3.52-1.556 3.52-3.475s-1.576-3.475-3.52-3.475-3.52 1.556-3.52 3.475 1.576 3.475 3.52 3.475zm-14.476 5.239s-3.66-6.052-.685-14.333c0 0-4.855 2.741-7.816 8.763C-.3 183.326.676 190.873.676 190.873s4.111-6.768 10.485-7.993zm21.163 82.344s-6.337-3.254-8.21-11.844c0 0-2.674 4.846-1.993 11.504.681 6.657 5.532 12.573 5.532 12.573s-.103-7.887 4.671-12.233zm-17.57-48.171s-7.113-.641-12.139-7.891c0 0-.613 5.486 2.567 11.393 3.13 5.818 9.728 9.452 9.934 9.567-.098-.252-3.063-7.361-.362-13.069zm-2.616-16.923c0 1.919 1.576 3.475 3.525 3.475 1.944 0 3.52-1.556 3.52-3.475 0-1.923-1.576-3.475-3.52-3.475-1.949 0-3.525 1.552-3.525 3.475z" fill="#04CF86"/><path d="M28.356 202.73c-1.536-2.365-4.282-2.286-6.208-1.11-1.921 1.176-1.532 2.799-1.335 3.736.198.933-.725 2.692-4.38 2.993-3.655.3-3.771-2.105-6.548-4.43-2.773-2.33-6.356-3.939-6.356-3.939.461-.203 1.102-.407 3.082-2.034 1.975-1.627 5.079-4.942 6.812-6.083 1.733-1.136 5.102-.738 6.37 1.176.935 1.415.322 3.236 1.907 4.664 1.586 1.428 6.383-.473 5.805-3.912-.578-3.44-4.452-4.249-7.462-6.114-3.01-1.866-5.948-1.499-9.254.198-3.265 1.672-7.506 8.931-8.259 9.934-.78 1.044-2.257 2.436-2.5 2.662-.236.221.924.004 2.42 1.158 2.364 1.817 2.418 3.497 3.744 5.566 1.326 2.064 7.184 6.901 13.728 4.677 6.54-2.224 9.97-6.777 8.434-9.142zM190.92 24.5c0-1.922-1.572-3.479-3.52-3.479-1.944 0-3.521 1.557-3.521 3.48 0 1.918 1.577 3.475 3.521 3.475 1.948 0 3.52-1.557 3.52-3.475zm12.179 34.634a2.627 2.627 0 003.655-.345 2.546 2.546 0 00-.35-3.607 2.625 2.625 0 00-3.654.345 2.546 2.546 0 00.349 3.607zm-41.408-48.617c-1.948 0-3.525 1.556-3.525 3.475s1.577 3.475 3.525 3.475c1.944 0 3.52-1.556 3.52-3.475s-1.576-3.475-3.52-3.475zm16.724.478s6.029-3.78 14.494-1.075c0 0-2.906-4.712-9.083-7.47C177.65-.306 170.031.865 170.031.865s6.969 3.875 8.384 10.13z" fill="#04CF86"/><path d="M148.545 19.16c0 2.396 2.732 9.717 7.476 10.252 3.292.372 6.503-1.724 5.146-5.844-.833-2.516-3.18-3.028-4.887-3.05-1.097-.014-2.002-.85-2.047-1.933-.08-1.94-.08-4.756.484-6.37.914-2.635 4.304-5.973 5.035-7.454.757-1.538.971-2.542 1.316-1.6.332.906 3.978 4.982 6.696 7.759 1.837 1.879 1.904 4.845 1.752 6.574-.059.672-.426 1.573-1.084 1.75-1.326.358-3.1-.12-4.161 1.547-2.155 3.374-.014 7.043 3.785 6.994 3.999-.053 5.827-7.855 6.503-11.211.681-3.351.197-9.58-4.851-11.402C164.661 3.352 160.777 0 160.777 0c-1.178 1.53-5.048 4.31-8.931 7.953-3.883 3.639-3.301 8.816-3.301 11.207zm49.69 26.146a2.542 2.542 0 00.949 3.497c1.246.707 2.831.287 3.548-.938a2.542 2.542 0 00-.95-3.497c-1.241-.707-2.831-.287-3.547.938zm10.597 2.599c.067-.031.771-.323 2.231.844 1.532 1.22 1.679 2.587 1.679 2.587s2.804-2.092 6.723-.845c3.919 1.242 4.636 3.599 4.636 3.599s2.656-1.274 6.141.07c3.489 1.34 4.264 4.187 4.264 4.187s2.795-.91 6.328.641c3.539 1.552 4.668 4.713 4.668 4.713s3.551-1.079 6.414.513c2.866 1.591 3.762 5.703 3.762 5.703 2.181-.385 4.349.415 4.349.415s1.742-3.024 3.489-4.036c1.751-1.013 4.604-.703 7.856-1.605s6.392-4.974 9.012-9.09c2.616-4.12.394-12.24-1.971-14.615-2.365-2.378-6.978-5.146-12.25-5.128-5.272.013-9.137 4.637-10.87 6.202-1.738 1.57-3.436 5.257.058 6.875 3.498 1.618 5.16-.995 6.315-2.379 1.156-1.379.13-3.837.488-4.252.359-.416 2.464-1.844 5.94-1.062 3.471.783 7.475 3.63 7.318 7.361-.157 3.732-2.916 7.49-7.036 8.307-4.121.823-5.102-.972-5.102-.972-.443-2.644-2.728-4.426-5.016-4.748-2.289-.323-5.751 3.09-3.409 6.092 2.338 2.997 4.672 1.799 7.816.92 3.14-.876 6.445.897 7.771 1.719 1.326.818.502 1.675-1.836 1.14-2.334-.534-4.036-.04-6.168 1.283-2.132 1.321-3.252 1.627-4.058.857-.802-.769-1.554-1.326-2.548-1.94-.995-.62-4.103-.085-5.29-3.736-1.187-3.652 1.29-5.946 1.29-5.946s-1.581-.708-2.638-2.816c-1.057-2.114.089-3.776.089-3.776-5.303-1.096-5.428-4.819-5.428-4.819s-1.075 1.251-3.955.557c-2.885-.694-3.341-1.428-3.341-1.428s-1.322 2.37-3.23 3.192c-1.908.823-3.87.425-3.87.425-.206 2.79-2.66 4.186-4.331 5.066-1.666.88-3.704.164-6.221-2.122-2.513-2.29-3.247-.557-5.124-2.538-1.881-1.985-1.5-5.486-2.634-6.459-1.133-.977-4.962-5.99 1.644-.99 6.607 5.005 1.402 3.603 5.729 7.104 4.331 3.502 6.584.252 7.336-2.382.748-2.635-.551-3.347-3.574-4.4-3.023-1.051-3.686 3.184-6.526.24-2.835-2.94-4.349-8.984.73-12.034 5.079-3.05 10.342-.15 12.335 2.812 1.994 2.966-.748 1.905-2.1 5.627-1.348 3.718 3.852 5.85 5.572 5.182 1.715-.668 2.951-5.372 2.906-7.038-.049-1.671-1.59-9.554-7.408-11.88-5.814-2.325-8.98-.826-13.67.735-4.685 1.564-7.547 7.082-8.465 10.703-.918 3.625 1.908 7.745 3.467 11.534 1.509 3.673-.175 5.703-.287 5.83zm30.094-3.33c2.553 0 4.623 2.043 4.623 4.563 0 2.52-2.07 4.563-4.623 4.563-2.553 0-4.622-2.043-4.622-4.563 0-2.52 2.069-4.562 4.622-4.562z" fill="#04CF86"/><path d="M271.21 49.196c0-1.919-1.576-3.475-3.52-3.475-1.948 0-3.525 1.556-3.525 3.475s1.577 3.475 3.525 3.475c1.944 0 3.52-1.556 3.52-3.475zM234.403 18.97s3.498-6.145 12.259-7.714c0 0-4.824-2.794-11.588-2.34-6.763.456-12.908 5.045-12.908 5.045s7.99.16 12.237 5.009zM216.5 29.363c0 1.924 1.577 3.48 3.52 3.48 1.944 0 3.521-1.556 3.521-3.48 0-1.918-1.577-3.474-3.521-3.474-1.943 0-3.52 1.556-3.52 3.474zM52.856 285.502c3.677-5.459 3.606-10.906 1.035-11.826-2.567-.919-4.613.721-5.388 2.724-.775 2.007.488 3.019 1.187 3.616.703.601 1.039 2.471-1.572 4.801-2.607 2.334-4.121.566-7.61.389-3.49-.177-7.167.655-7.167.655.229-.42.596-.947 1.142-3.321.551-2.378.954-6.693 1.608-8.558.65-1.862 3.45-3.497 5.545-2.768 1.554.539 2.16 2.286 4.21 2.462 2.056.177 4.592-4.036 2.12-6.326-2.473-2.29-5.904-.676-9.304-.367-3.395.31-5.42 2.277-6.938 5.473-1.5 3.157-.448 11.128-.43 12.326.023 1.247-.282 3.156-.335 3.466-.05.305.707-.526 2.53-.509 2.876.027 3.91 1.278 6.14 2.092 2.231.813 9.554 1.131 13.227-4.329zM96.745 48.25c-.34 6.494 1.814 7.953 3.516 8.174 1.702.226 4.314 0 5.106-3.36.793-3.355-2.154-4.925-3.404-5.15-1.249-.221-1.021-3.024.453-5.486 1.478-2.463 5.218-5.261 9.531-3.917 4.309 1.344 6.069 7.36 4.309 11.083-1.209 2.569-3.064 3.196-3.937 2.661-.609-.371-2.983-1.207-4.797 1.145-1.814 2.352-.909 5.15 1.021 6.159 1.93 1.008 3.632 1.233 5.106-.447 1.474-1.68 1.586-4.478 1.702-5.597.112-1.123 2.607-5.712 4.649-5.601 2.043.115-.407 1.84-.819 3.188-.412 1.352-.135 6.14-.82 7.356-.685 1.216-2.665 1.012-3.83 2.025-1.16 1.012-1.5 2.36-2.051 3.775-.546 1.42-7.381 1.013-8.541-3.643 0 0-1.438.54-3.489.204-2.047-.336-3.212-1.216-3.212-1.216s-1.433 1.216-2.938 1.892c-1.505.672-3.418.402-3.418.402s-.479 2.361-1.845 4.116c-1.366 1.755-2.87 1.755-2.87 1.755s1.025 2.498.272 4.249c-.752 1.755-1.71 2.767-1.71 2.767s3.01 2.63 2.53 5.535c-.48 2.9-1.433 4.386-2.665 4.386s-3.144.199-3.556 1.888c-.408 1.684-.547 1.954-3.346 1.954-2.804 0-3.144-1.349-4.716-1.145-1.573.203-3.83 1.282-4.103.742-.273-.539 1.85-3.16 4.313-3.497 2.459-.34 4.027.46 6.553-.216 2.53-.672 3.896-2.29 3.83-4.585-.068-2.294-2.733-4.655-6.222-3.037-3.485 1.618-1.778 5.668-1.778 5.668s-5.877 3.78-9.635.203c-3.762-3.577-3.489-7.29-1.572-10.46 1.913-3.17 7.516-5.327 9.908-3.103 0 0-1.16 4.116 2.598 4.721 3.762.61 6.221-.875 6.36-3.775.134-2.9-4.716-7.326-11.077-7.357-6.32-.026-10.646 3.7-12.644 8.029-2.235 4.84-1.572 9.584 0 12.418 1.572 2.83 3.66 4.514 3.66 4.514s3.063 3.47 10.547 3.58c7.49.116 6.356 1.345 7.037 1.906.68.562 4.08 1.901 4.537 0 .453-1.905-.116-3.696 2.607-5.937 2.723-2.237 5.558-1.901 5.558-1.901s-.452-3.47 2.724-6.048c3.175-2.573 6.015-1.565 6.015-1.565s-.229-3.25 3.063-5.937c3.288-2.688 6.58-1.344 6.58-1.344s.112-3.024 3.059-4.704c2.952-1.675 5.899-.782 5.899-.782s.228-2.127 1.93-2.799c0 0-1.702-2.241-.68-6.494 1.021-4.258 2.611-8.51.909-13.55-1.702-5.04-7.377-9.519-15.43-8.285-8.053 1.233-10.436 7.949-10.777 14.443zm-.367 25.637c-2.553 0-4.622-2.043-4.622-4.563 0-2.52 2.07-4.562 4.622-4.562 2.553 0 4.622 2.043 4.622 4.563 0 2.52-2.069 4.562-4.622 4.562z" fill="#04CF86"/><path d="M66.665 76.49c0 1.924 1.577 3.48 3.52 3.48 1.944 0 3.521-1.556 3.521-3.48 0-1.918-1.577-3.474-3.52-3.474-1.944 0-3.521 1.556-3.521 3.474zm43.231-27.957c1.944 0 3.52-1.556 3.52-3.475 0-1.923-1.576-3.475-3.52-3.475s-3.521 1.552-3.521 3.475c0 1.919 1.577 3.475 3.521 3.475zm-16.071-9.691s3.117-6.34 11.762-8.435c0 0-4.985-2.502-11.708-1.64-6.723.862-12.577 5.813-12.577 5.813s7.99-.322 12.523 4.262zm50.227-21.777s-.47-7.034 5.998-13.073c0 0-5.585.261-11.001 4.288-5.325 3.97-7.936 10.969-8.012 11.185.228-.137 6.884-4.142 13.015-2.4zM74.113 60.566c5.469 4.183 11.21 4.519 12.37 1.954 1.165-2.56-.407-4.787-2.458-5.733-2.051-.942-3.211.27-3.897.946-.685.672-2.678.875-4.936-1.976-2.257-2.852-.286-4.271.166-7.834.453-3.568-.148-7.405-.148-7.405.43.265.954.685 3.413 1.428 2.464.738 6.974 1.48 8.887 2.29 1.917.813 3.426 3.81 2.494 5.902-.685 1.551-2.566 2.042-2.906 4.133-.345 2.091 3.9 5.013 6.499 2.653 2.593-2.361 1.16-6.008 1.093-9.514-.072-3.51-1.99-5.734-5.241-7.533-3.207-1.782-11.681-1.305-12.944-1.375-1.313-.071-3.301-.53-3.624-.606-.318-.08.498.765.34 2.63-.241 2.95-1.639 3.913-2.664 6.141-1.026 2.228-1.913 9.717 3.556 13.9zm60.184-10.579c3.36 2.392 2.894 5.093 2.894 5.093s.39-.694 2.342-.464c1.958.234 2.818 1.313 2.818 1.313s1.249-3.24 5.24-4.244c3.986-1.004 5.863.619 5.863.619s1.568-2.471 5.24-3.166c3.678-.694 5.868 1.309 5.868 1.309s1.877-2.237 5.706-2.776c3.834-.54 6.49 1.543 6.49 1.543s2.428-2.777 5.711-2.931c3.283-.155 6.257 2.855 6.257 2.855 1.639-1.467 3.91-1.932 3.91-1.932s-.157-3.474.779-5.247c.941-1.777 3.521-3.01 5.787-5.482 2.271-2.467 2.737-7.564 2.737-12.427 0-4.863-6.253-10.575-9.54-11.344-3.283-.774-8.68-.694-13.137 2.082-4.457 2.78-5.24 8.722-5.863 10.96-.627 2.24-.081 6.255 3.753 5.79 3.83-.463 3.83-3.55 4.067-5.326.233-1.773-1.957-3.32-1.881-3.86.081-.54 1.097-2.856 4.461-4.014 3.359-1.158 8.286-.849 10.163 2.392 1.877 3.244 1.568 7.873-1.483 10.73-3.05 2.855-4.85 1.852-4.85 1.852-1.796-2.008-4.69-2.313-6.804-1.389-2.11.929-3.207 5.637.394 6.95 3.597 1.309 4.923-.928 7.113-3.32 2.19-2.392 5.943-2.626 7.507-2.626 1.567 0 1.33 1.158-.936 1.932-2.267.77-3.44 2.082-4.538 4.32-1.093 2.24-1.876 3.09-2.969 2.855-1.098-.23-2.034-.305-3.207-.305-1.174 0-3.521 2.082-6.49-.39-2.974-2.466-2.114-5.71-2.114-5.71s-1.72.233-3.754-1.005c-2.033-1.233-1.953-3.24-1.953-3.24-5.083 1.852-7.193-1.233-7.193-1.233s-.237 1.618-3.05 2.546c-2.817.924-3.601.54-3.601.54s.157 2.7-1.012 4.398c-1.174 1.698-3.05 2.392-3.05 2.392 1.325 2.471 0 4.942-.941 6.56-.936 1.623-3.05 2.087-6.414 1.468-3.359-.614-3.05 1.238-5.706.54-2.661-.694-4.224-3.86-5.711-4.09-1.482-.23-7.426-2.471.86-1.697 8.291.773 3.131 2.316 8.68 3.01 5.554.694 5.711-3.24 4.927-5.866-.779-2.626-2.266-2.547-5.392-1.853-3.131.694-1.411 4.634-5.398 3.63-3.99-1.004-8.523-5.327-5.867-10.575 2.66-5.252 8.68-5.561 11.968-4.094 3.283 1.468.389 2.007 1.249 5.867.86 3.86 6.414 2.935 7.507 1.468 1.097-1.468-.39-6.097-1.33-7.49-.936-1.388-6.49-7.254-12.667-6.175-6.176 1.083-8.053 4.014-11.184 7.798-3.126 3.78-2.58 9.956-1.406 13.506 1.173 3.554 5.787 5.557 9.15 7.953zm29.499-14.195c2.553 0 4.622 2.042 4.622 4.562 0 2.52-2.069 4.562-4.622 4.562s-4.622-2.042-4.622-4.562c0-2.515 2.069-4.562 4.622-4.562z" fill="#04CF86"/><path d="M133.755 33.449c0 1.923 1.577 3.479 3.521 3.479s3.52-1.556 3.52-3.48c0-1.918-1.576-3.474-3.52-3.474s-3.521 1.556-3.521 3.475zM68.38 58.851s-3.74-6.004-.878-14.324c0 0-4.819 2.808-7.699 8.864-2.88 6.057-1.796 13.59-1.796 13.59s4.018-6.821 10.373-8.13zm209.58 270.98c1.945 0 3.521-1.556 3.521-3.475s-1.576-3.475-3.521-3.475c-1.944 0-3.52 1.556-3.52 3.475s1.576 3.475 3.52 3.475zm-12.854 6.684s-3.516 6.137-12.277 7.688c0 0 4.815 2.808 11.578 2.366 6.764-.438 12.922-5.018 12.922-5.018s-7.99-.173-12.223-5.036z" fill="#04CF86"/><path d="M286.224 316.577c-4.972-4.341-10.449-5.018-11.726-2.63-1.272 2.383.094 4.611 1.998 5.641 1.903 1.03 3.095-.062 3.789-.663.699-.606 2.625-.677 4.604 2.192 1.984 2.874.005 4.107-.654 7.494-.658 3.386-.327 7.1-.327 7.1-.389-.283-.869-.712-3.175-1.574-2.311-.862-6.584-1.852-8.367-2.745-1.783-.893-3.041-3.855-2.02-5.805.757-1.441 2.589-1.795 3.05-3.775.457-1.985-3.422-5.04-6.055-2.94-2.638 2.104-1.492 5.68-1.649 9.045-.156 3.364 1.541 5.61 4.542 7.533 2.961 1.901 11.108 1.967 12.308 2.113 1.254.151 3.131.708 3.431.8.305.098-.425-.76-.161-2.537.421-2.807 1.818-3.647 2.943-5.716 1.119-2.069 2.445-9.187-2.531-13.533zM223.5 339.084c0-1.919-1.576-3.475-3.52-3.475s-3.521 1.556-3.521 3.475 1.577 3.475 3.521 3.475 3.52-1.556 3.52-3.475zm-60.425 2.896c0 1.918 1.576 3.475 3.52 3.475s3.521-1.557 3.521-3.475c0-1.919-1.577-3.475-3.521-3.475s-3.52 1.556-3.52 3.475zm153.575-81.703c-1.787.654-4.228 2.215-3.225 5.937 1.004 3.723 4.73 3.754 6.074 3.329 1.339-.42 2.602 2.458 2.463 5.646-.139 3.192-2.32 7.873-7.26 8.766-4.941.889-9.858-4.147-10.109-8.722-.175-3.157 1.308-4.726 2.445-4.651.797.053 3.566-.34 4.099-3.594.528-3.25-1.846-5.548-4.273-5.548-2.424-.005-4.211.649-4.766 3.063-.555 2.414.82 5.235 1.303 6.397.484 1.163.475 6.977-1.59 7.914-2.06.937-.573-2.025-.887-3.568-.313-1.538-3.126-6.127-3.099-7.675.027-1.547 2.078-2.369 2.678-3.965.605-1.592.224-3.099.005-4.779-.215-1.68 6.7-4.792 10.31-.796 0 0 1.125-1.269 3.31-1.994 2.191-.72 3.794-.451 3.794-.451s.766-1.936 1.881-3.373c1.116-1.437 3.136-2.157 3.136-2.157s-.784-2.573-.377-5.009c.412-2.432 1.886-3.205 1.886-3.205s-2.329-1.937-2.526-4.05c-.193-2.118.21-3.607.21-3.607s-4.344-1.053-5.415-4.16c-1.07-3.108-.922-5.062.282-5.695 1.21-.632 2.979-1.817 2.486-3.691-.492-1.874-.506-2.21 2.244-3.652 2.746-1.437 3.798-.283 5.232-1.291 1.433-1.008 3.072-3.231 3.628-2.838.555.389-.139 4.067-2.374 5.663-2.231 1.601-4.193 1.614-6.311 3.581-2.123 1.963-2.602 4.266-1.317 6.495 1.281 2.228 5.151 3.187 7.708-.204 2.558-3.386-1.267-6.503-1.267-6.503s3.758-6.746 9.343-5.155c5.581 1.596 7.283 5.398 7.09 9.51-.192 4.111-4.541 9.12-8.071 8.156 0 0-1.043-4.659-5.052-3.324-4.009 1.33-5.63 4.063-4.224 6.994 1.402 2.931 8.506 4.801 14.758 1.565 6.213-3.223 8.475-9.121 8.134-14.421-.376-5.924-3.543-10.257-6.588-12.246-3.046-1.985-5.98-2.573-5.98-2.573s-4.846-1.853-12.245 1.887c-7.4 3.736-6.943 1.937-7.906 1.738-.967-.204-5.016.216-4.452 2.33.569 2.108 2.074 3.585.591 7.193-1.478 3.611-4.438 4.734-4.438 4.734s2.289 3.192.542 7.366c-1.747 4.173-5.062 4.637-5.062 4.637s1.944 3.086.144 7.427c-1.796 4.342-5.738 4.708-5.738 4.708s1.496 3.038-.506 6.212-5.366 3.806-5.366 3.806.905 2.215-.407 3.749c0 0 2.857 1.335 4.116 6.057 1.258 4.726 1.957 9.739 6.302 13.833 4.34 4.098 12.277 5.601 19.524.247 7.242-5.353 6.01-13.205 2.898-19.788-3.113-6.582-5.998-6.909-7.785-6.255zm-3.52-19.938c2.553 0 4.622 2.042 4.622 4.562 0 2.52-2.069 4.562-4.622 4.562s-4.623-2.042-4.623-4.562c0-2.52 2.07-4.562 4.623-4.562z" fill="#04CF86"/><path d="M261.908 326.834c.663-6.884-1.546-8.528-3.333-8.842-1.787-.314-4.555-.195-5.549 3.338-.994 3.536 2.047 5.336 3.355 5.627 1.308.297.94 3.259-.735 5.81-1.671 2.55-5.755 5.358-10.243 3.735-4.493-1.618-6.069-8.094-4.04-11.972 1.402-2.674 3.386-3.253 4.282-2.652.631.424 3.095 1.419 5.119-.999 2.029-2.419 1.2-5.434-.788-6.592-1.993-1.158-3.781-1.472-5.415.248-1.635 1.719-1.886 4.686-2.056 5.871-.17 1.184-3.019 5.95-5.173 5.742-2.15-.212.519-1.936 1.016-3.351.493-1.414.43-6.52 1.205-7.78.779-1.26 2.862-.955 4.139-1.977 1.272-1.025 1.697-2.44 2.342-3.921.641-1.481 7.843-.747 8.851 4.253 0 0 1.54-.508 3.69-.057 2.15.45 3.337 1.432 3.337 1.432s1.572-1.225 3.194-1.875c1.617-.649 3.628-.274 3.628-.274s.613-2.489 2.141-4.292c1.522-1.8 3.112-1.733 3.112-1.733s-.967-2.702-.094-4.532c.878-1.83 1.935-2.86 1.935-2.86s-3.054-2.931-2.414-5.995c.641-3.059 1.72-4.593 3.019-4.54 1.299.057 3.332-.071 3.843-1.844.511-1.777.667-2.055 3.628-1.932 2.961.129 3.256 1.579 4.927 1.433 1.67-.146 4.103-1.189 4.367-.606.264.588-2.105 3.276-4.717 3.524-2.615.247-4.232-.672-6.933-.067-2.705.601-4.224 2.259-4.259 4.704-.032 2.44 2.673 5.066 6.431 3.506 3.754-1.565 2.137-5.946 2.137-5.946s6.387-3.749 10.189.221c3.803 3.965 3.342 7.9 1.174 11.18-2.168 3.285-8.188 5.327-10.611 2.852 0 0 1.42-4.319-2.521-5.133-3.942-.813-6.611.65-6.889 3.727-.282 3.077 4.636 7.997 11.35 8.316 6.678.314 11.417-3.453 13.728-7.967 2.589-5.04 2.105-10.106.578-13.187-1.528-3.086-3.655-4.965-3.655-4.965s-3.073-3.824-10.974-4.28c-7.901-.455-6.647-1.715-7.341-2.338-.694-.628-4.224-2.211-4.792-.208-.569 2.003-.05 3.935-3.033 6.189-2.978 2.259-5.957 1.773-5.957 1.773s.318 3.709-3.157 6.304c-3.472 2.595-6.423 1.397-6.423 1.397s.089 3.457-3.507 6.168c-3.601 2.705-7.014 1.131-7.014 1.131s-.26 3.21-3.454 4.859c-3.189 1.653-6.266.57-6.266.57s-.336 2.25-2.163 2.887c0 0 1.693 2.454.416 6.932-1.276 4.474-3.153 8.926-1.59 14.355 1.564 5.433 7.346 10.446 15.91 9.5 8.564-.946 11.394-7.98 12.053-14.867zm1.567-27.277c2.553 0 4.623 2.042 4.623 4.562 0 2.52-2.07 4.562-4.623 4.562-2.553 0-4.622-2.042-4.622-4.562 0-2.52 2.069-4.562 4.622-4.562z" fill="#04CF86"/><path d="M295.617 297.939c0-1.923-1.577-3.48-3.521-3.48s-3.52 1.557-3.52 3.48c0 1.918 1.576 3.475 3.52 3.475s3.521-1.557 3.521-3.475zm-47.769 27.895c-1.944 0-3.52 1.557-3.52 3.475 0 1.919 1.576 3.475 3.52 3.475s3.521-1.556 3.521-3.475c0-1.918-1.577-3.475-3.521-3.475zm44.145-9.199s3.471 6.162.242 14.345c0 0 4.936-2.59 8.08-8.514 3.149-5.929 2.405-13.502 2.405-13.502s-4.317 6.641-10.727 7.671zm47.096-54.678c1.944 0 3.521-1.556 3.521-3.475s-1.577-3.475-3.521-3.475-3.52 1.556-3.52 3.475 1.576 3.475 3.52 3.475zm13.384-32.653s-.332 7.887-5.335 11.967c0 0 6.145 3.586 7.547 12.259 0 0 2.938-4.699 2.62-11.379-.313-6.68-4.832-12.847-4.832-12.847zm17.311-53.714c-5.317 7.069-12.272 8.559-12.272 8.559 3.287 7.732.022 14.845-.045 14.991.206-.164 6.844-5.517 10.167-11.074 3.373-5.646 2.15-12.476 2.15-12.476zm-30.04 48.935c0-1.923-1.577-3.479-3.521-3.479s-3.52 1.556-3.52 3.479c0 1.919 1.576 3.475 3.52 3.475s3.521-1.556 3.521-3.475zm-30.072 51.234c0 1.919 1.576 3.475 3.52 3.475s3.521-1.556 3.521-3.475-1.577-3.475-3.521-3.475-3.52 1.556-3.52 3.475zm22.238-1.203s.506 7.029-5.931 13.099c0 0 5.586-.287 10.974-4.341 5.308-3.992 7.883-11.004 7.959-11.225-.228.137-6.862 4.178-13.002 2.467z" fill="#04CF86"/><path d="M350.923 262.116c-1.133-2.763-.318-4.257-.421-6.72-.099-2.462-2.737-9.602-9.581-10.92-6.844-1.321-12.165.947-12.035 3.772.13 2.829 2.571 4.129 4.851 4.062 2.275-.066 2.768-1.68 3.073-2.59.304-.915 2.006-1.99 5.352-.434 3.341 1.561 2.213 3.718 3.444 7.131 1.232 3.409 3.53 6.596 3.53 6.596-.506-.048-1.169-.19-3.727.244-2.553.433-6.956 1.781-9.052 1.909-2.091.129-4.828-1.892-4.953-4.195-.095-1.702 1.375-2.984.721-5.022-.65-2.034-5.814-2.768-7.068.521-1.254 3.29 1.711 5.924 3.386 9.054 1.671 3.126 4.421 4.271 8.174 4.439 3.704.164 11.112-4.054 12.281-4.558 1.214-.517 3.216-.999 3.539-1.074.327-.071-.797-.464-1.514-2.215zm-197.72 47.321c0-1.414-1.165-2.559-2.593-2.559-1.434 0-2.598 1.145-2.598 2.559 0 1.415 1.164 2.56 2.598 2.56 1.428 0 2.593-1.145 2.593-2.56zM92.119 331.98s-7.135.322-13.119-6.181c0 0 .148 5.518 4.12 10.938 3.91 5.34 10.952 8.055 11.171 8.134-.134-.23-4.062-6.874-2.172-12.891zm12.398 5.91c0 1.919 1.576 3.475 3.52 3.475 1.948 0 3.525-1.556 3.525-3.475 0-1.918-1.577-3.474-3.525-3.474-1.944 0-3.52 1.556-3.52 3.474z" fill="#04CF86"/><path d="M120.784 337.015c.054-6.552-3.023-11.074-5.684-10.46-2.66.615-3.466 3.095-3.005 5.19.461 2.091 2.078 2.264 2.996 2.383.919.124 2.235 1.512 1.344 4.872-.891 3.36-3.135 2.697-6.158 4.43-3.019 1.733-5.639 4.416-5.639 4.416-.045-.477-.027-1.114-.883-3.399-.855-2.286-2.907-6.119-3.395-8.033-.484-1.914.954-4.792 3.113-5.314 1.599-.38 3.073.751 4.891-.208 1.819-.959 1.608-5.853-1.729-6.437-3.337-.583-5.321 2.613-7.995 4.709-2.674 2.091-3.278 4.827-2.781 8.329.492 3.448 5.787 9.558 6.467 10.548.708 1.034 1.51 2.798 1.635 3.086.13.287.305-.818 1.837-1.791 2.423-1.525 3.981-1.039 6.301-1.56 2.316-.522 8.627-4.209 8.685-10.761zm1.201 9.496s-3.821 5.955-12.649 7.074c0 0 4.667 3.041 11.444 2.931 6.781-.106 13.159-4.377 13.159-4.377s-7.973-.566-11.954-5.628zm-72.77-52.149s-6.495 2.931-14.512-.893c0 0 2.235 5.062 7.968 8.625 5.737 3.563 13.441 3.426 13.441 3.426s-6.364-4.77-6.898-11.158zm32.535-2.909c.968-7.44 2.07-6.172 2.705-6.791.636-.614 2.37-3.85.515-4.513-1.85-.663-3.704-.301-5.63-3.258-1.93-2.962-1.267-5.748-1.267-5.748s-3.525.067-5.733-3.386c-2.213-3.448-.883-6.158-.883-6.158s-3.27-.137-5.58-3.71c-2.312-3.576-.592-6.702-.592-6.702s-3.01-.446-4.353-3.572c-1.344-3.121-.108-5.959-.108-5.959s-2.1-.464-2.58-2.233c0 0-2.432 1.446-6.57-.044-4.134-1.494-8.206-3.55-13.437-2.418-5.232 1.132-10.356 6.273-10.042 14.43.309 8.152 6.754 11.273 13.204 12.338 6.454 1.066 8.156-.919 8.573-2.586.416-1.671.492-4.292-2.773-5.455-3.27-1.167-5.173 1.591-5.54 2.812-.363 1.215-3.136.676-5.433-1.066-2.294-1.742-4.663-5.782-2.827-9.92 1.837-4.143 8.05-5.217 11.574-3.055 2.428 1.494 2.84 3.408 2.208 4.217-.439.566-1.545 2.834.596 4.903 2.145 2.069 5.048 1.477 6.275-.327 1.227-1.808 1.644-3.475.134-5.133-1.51-1.653-4.295-2.082-5.401-2.316-1.107-.239-5.41-3.236-5.066-5.257.345-2.02 1.792.615 3.095 1.172 1.299.561 6.118.822 7.256 1.64 1.138.813.708 2.763 1.586 4.036.877 1.269 2.19 1.76 3.542 2.463 1.353.703.17 7.458-4.617 8.094 0 0 .376 1.49-.198 3.493-.568 2.003-1.576 3.064-1.576 3.064s1.048 1.56 1.55 3.134c.501 1.574.013 3.448.013 3.448s2.307.739 3.906 2.295c1.594 1.556 1.424 3.055 1.424 3.055s2.611-.743 4.282.203c1.666.942 2.566 2.007 2.566 2.007s2.974-2.697 5.819-1.897c2.848.801 4.219 1.919 4.08 3.144-.139 1.224-.157 3.147 1.482 3.744 1.64.597 1.895.765 1.572 3.555-.318 2.789-1.706 2.979-1.684 4.566.023 1.588.847 3.953.274 4.165-.57.212-2.947-2.197-3.001-4.686-.059-2.485.918-3.952.533-6.548-.386-2.59-1.846-4.133-4.148-4.319-2.302-.19-4.967 2.202-3.744 5.849 1.218 3.652 5.46 2.401 5.46 2.401s3.108 6.273-.896 9.615c-4.004 3.342-7.682 2.657-10.633.398-2.952-2.259-4.47-8.077-1.971-10.212 0 0 3.982 1.618 5.016-2.056 1.035-3.674-.165-6.291-3.05-6.751-2.884-.46-7.86 3.873-8.613 10.199-.752 6.291 2.482 11.013 6.58 13.484 4.582 2.768 9.397 2.635 12.407 1.388 3.014-1.251 4.93-3.139 4.93-3.139s3.822-2.657 4.789-10.097zm-18.865-19.642c-2.553 0-4.623-2.043-4.623-4.562 0-2.52 2.07-4.563 4.623-4.563 2.553 0 4.622 2.043 4.622 4.563 0 2.519-2.07 4.562-4.622 4.562z" fill="#04CF86"/><path d="M146.78 319.27c.193-.858-.152-4.501-2.069-4.059-1.917.442-3.27 1.746-6.521.305-3.252-1.437-4.242-4.124-4.242-4.124s-2.916 1.954-6.678.256c-3.762-1.693-4.148-4.682-4.148-4.682s-2.812 1.649-6.727-.097c-3.915-1.746-4.206-5.292-4.206-5.292s-2.768 1.247-5.621-.645c-2.853-1.892-3.391-4.93-3.391-4.93s-2.015.743-3.395-.477c0 0-1.24 2.52-5.531 3.501-4.287.982-8.837 1.455-12.59 5.226-3.754 3.766-5.196 10.84-.422 17.502 4.775 6.658 11.901 5.796 17.894 3.21 5.993-2.591 6.32-5.168 5.746-6.791-.573-1.622-1.966-3.859-5.348-3.072-3.381.787-3.444 4.124-3.077 5.34.368 1.216-2.252 2.264-5.141 2.038-2.885-.221-7.109-2.325-7.861-6.781-.757-4.457 3.852-8.714 8-8.798 2.862-.062 4.268 1.317 4.187 2.339-.053.711.273 3.205 3.216 3.784 2.938.575 5.044-1.486 5.07-3.661.027-2.175-.546-3.797-2.727-4.368-2.181-.574-4.752.575-5.81.973-1.057.394-6.32.208-7.148-1.671-.833-1.879 1.836-.451 3.238-.685 1.398-.235 5.581-2.613 6.983-2.542 1.402.07 2.123 1.932 3.565 2.524 1.438.588 2.804.292 4.327.15 1.523-.141 4.273 6.159.618 9.271 0 0 1.138 1.043 1.769 3.028.632 1.99.372 3.418.372 3.418s1.747.742 3.037 1.79c1.29 1.044 1.921 2.878 1.921 2.878s2.338-.623 4.538-.181c2.199.442 2.884 1.786 2.884 1.786s1.778-2.029 3.7-2.135c1.917-.111 3.265.296 3.265.296s.994-3.864 3.82-4.73c2.827-.867 4.596-.668 5.156.433.559 1.101 1.612 2.723 3.319 2.338 1.702-.384 2.006-.384 3.283 2.127 1.276 2.507.219 3.413 1.115 4.73.9 1.318 2.898 2.856 2.535 3.342-.358.487-3.682-.252-5.106-2.303s-1.42-3.811-3.18-5.774c-1.756-1.962-3.834-2.462-5.868-1.379-2.029 1.083-2.938 4.523.103 6.919 3.046 2.4 5.908-.933 5.908-.933s6.074 3.577 4.569 8.537c-1.501 4.956-4.963 6.366-8.685 6.065-3.722-.3-8.214-4.354-7.301-7.489 0 0 4.228-.791 3.059-4.429-1.164-3.634-3.619-5.177-6.288-4.006-2.669 1.172-4.439 7.485-1.568 13.188 2.853 5.672 8.174 7.882 12.976 7.741 5.37-.155 9.33-2.861 11.157-5.531 1.832-2.67 2.396-5.287 2.396-5.287s1.725-4.288-1.585-11.039c-3.31-6.751-1.684-6.287-1.492-7.144zm-28.177 1.016c-2.553 0-4.622-2.042-4.622-4.562 0-2.52 2.069-4.562 4.622-4.562s4.622 2.042 4.622 4.562c0 2.52-2.069 4.562-4.622 4.562zm-55.92-26.291c0 1.919 1.577 3.475 3.52 3.475 1.944 0 3.521-1.556 3.521-3.475s-1.577-3.475-3.52-3.475c-1.944 0-3.52 1.556-3.52 3.475zM36.562 250.63c0 1.919 1.576 3.475 3.52 3.475s3.52-1.556 3.52-3.475c0-1.918-1.576-3.474-3.52-3.474s-3.52 1.556-3.52 3.474zm153.521 105.399c0 1.919 1.577 3.475 3.525 3.475 1.944 0 3.52-1.556 3.52-3.475 0-1.923-1.576-3.479-3.52-3.479-1.948 0-3.525 1.556-3.525 3.479z" fill="#04CF86"/><path d="M225.006 324.07c-6.526-4.42-4.811-4.827-5.089-5.703-.273-.875-2.485-4-3.99-2.621-1.505 1.375-2.047 3.245-5.742 3.599-3.695.353-5.998-1.574-5.998-1.574s-1.617 3.253-5.903 3.634c-4.291.38-6.203-2.127-6.203-2.127s-1.684 2.927-6.141 3.338c-4.457.411-6.571-2.644-6.571-2.644s-1.854 2.538-5.424 2.277c-3.569-.261-5.648-2.736-5.648-2.736s-1.433 1.702-3.323 1.295c0 0 .201 2.913-3.171 5.986-3.368 3.072-7.234 5.818-8.663 11.14-1.428 5.323.963 12.459 8.766 16.053 7.802 3.598 13.8-.809 17.871-6.207 4.071-5.394 3.019-7.891 1.648-9.067-1.366-1.181-3.794-2.494-6.441-.062-2.647 2.436-.963 5.49.005 6.406.967.91-.856 3.191-3.583 4.46-2.728 1.269-7.65 1.512-10.66-2.135-3.015-3.647-1.066-9.845 2.638-12.038 2.562-1.512 4.55-.977 5.012-.013.322.672 1.926 2.763 4.886 1.786 2.961-.977 3.79-3.908 2.679-5.893-1.115-1.981-2.482-3.157-4.752-2.565-2.276.593-4 2.94-4.748 3.838-.753.897-5.612 3.408-7.346 2.131-1.729-1.278 1.429-1.349 2.576-2.273 1.142-.924 3.682-5.208 4.989-5.857 1.308-.65 2.934.672 4.542.473 1.612-.204 2.696-1.168 4-2.069 1.303-.907 7.086 3.395 5.401 8.077 0 0 1.577.362 3.189 1.839 1.608 1.476 2.119 2.904 2.119 2.904s1.971-.216 3.686.071c1.716.287 3.243 1.627 3.243 1.627s1.792-1.755 4.013-2.476c2.222-.72 3.543.15 3.543.15s.546-2.745 2.226-3.819c1.68-1.074 3.113-1.393 3.113-1.393s-1.12-4.005.985-6.224c2.105-2.224 3.807-2.949 4.891-2.237 1.084.711 2.885 1.644 4.224.428 1.339-1.215 1.617-1.37 4.085.252 2.463 1.618 1.984 2.98 3.484 3.714 1.501.734 4.112 1.11 4.041 1.733-.072.619-3.467 1.649-5.828.517-2.36-1.132-3.274-2.727-5.894-3.607-2.616-.88-4.757-.279-6.029 1.737-1.272 2.016-.295 5.588 3.709 6.212 4.009.618 4.855-3.855 4.855-3.855s7.368.145 8.6 5.397c1.232 5.253-1.165 8.29-4.69 9.912-3.525 1.627-9.71.243-10.521-3.055 0 0 3.409-2.873.457-5.57-2.956-2.692-5.984-2.838-7.789-.42-1.805 2.418-.107 9.032 5.473 12.732 5.55 3.683 11.516 2.971 15.789.398 4.779-2.874 6.947-7.339 7.207-10.69.264-3.346-.596-5.999-.596-5.999s-.681-4.761-7.202-9.187zm-31.299 10.447c-2.554 0-4.623-2.042-4.623-4.562 0-2.52 2.069-4.563 4.623-4.563 2.553 0 4.622 2.043 4.622 4.563.004 2.52-2.065 4.562-4.622 4.562zm-16.582 23.586s-6.176 3.532-14.53.495c0 0 2.714 4.823 8.775 7.825 6.06 2.997 13.719 2.126 13.719 2.126s-6.804-4.142-7.964-10.446z" fill="#04CF86"/><path d="M205.293 351.458c-1.975-6.26-6.311-9.633-8.649-8.245-2.342 1.388-2.342 3.992-1.254 5.845 1.089 1.856 2.679 1.529 3.592 1.37.914-.163 2.598.761 2.791 4.231.188 3.466-2.155 3.515-4.493 6.074-2.338 2.564-3.999 5.907-3.999 5.907-.188-.438-.372-1.053-1.895-2.971-1.523-1.915-4.662-4.947-5.72-6.618-1.057-1.676-.577-4.855 1.317-6 1.402-.848 3.158-.212 4.591-1.675 1.434-1.463-.282-6.061-3.641-5.61-3.359.451-4.255 4.098-6.154 6.896-1.895 2.799-1.622 5.593-.063 8.771 1.536 3.139 8.47 7.357 9.424 8.095.994.769 2.306 2.206 2.512 2.441.211.234.036-.871 1.196-2.26 1.832-2.183 3.467-2.188 5.514-3.386s6.911-6.609 4.931-12.865zm4.954 4.744s-.277 7.042-7.345 12.383c0 0 5.581.318 11.39-3.13 5.72-3.396 9.052-10.089 9.155-10.297-.246.115-7.283 3.413-13.2 1.044zm-69.764-18.966c0-1.923-1.577-3.479-3.521-3.479s-3.52 1.556-3.52 3.479c0 1.919 1.576 3.475 3.52 3.475s3.521-1.556 3.521-3.475zm-52.772-22.945c0 1.924 1.577 3.48 3.521 3.48s3.52-1.556 3.52-3.48c0-1.918-1.576-3.474-3.52-3.474s-3.52 1.556-3.52 3.474zm69.339 6.46c0-1.415-1.16-2.564-2.593-2.564s-2.598 1.149-2.598 2.564c0 1.414 1.165 2.559 2.598 2.559 1.433 0 2.593-1.145 2.593-2.559zM37.905 279.207c0 1.923 1.577 3.48 3.525 3.48 1.944 0 3.52-1.557 3.52-3.48 0-1.918-1.576-3.475-3.52-3.475-1.948 0-3.525 1.557-3.525 3.475zm250.971-43.4a2.539 2.539 0 00-.354-3.603 2.613 2.613 0 00-3.65.345 2.533 2.533 0 00.349 3.603 2.618 2.618 0 003.655-.345zM65.28 195.015c-.541-1.308-2.06-1.936-3.386-1.401-1.325.539-1.961 2.033-1.42 3.342.543 1.309 2.061 1.936 3.387 1.401a2.552 2.552 0 001.42-3.342zm17.804 1.092a2.553 2.553 0 001.42-3.342 2.612 2.612 0 00-3.386-1.401 2.552 2.552 0 00-1.42 3.342c.542 1.309 2.056 1.936 3.386 1.401zm-.541 32.043c1.433 0 2.593-1.149 2.593-2.564s-1.16-2.56-2.593-2.56c-1.434 0-2.594 1.145-2.594 2.56s1.16 2.564 2.594 2.564zm-9.016-32.365a2.553 2.553 0 001.42-3.343c-.542-1.308-2.06-1.936-3.386-1.397a2.549 2.549 0 00-1.42 3.338c.542 1.309 2.06 1.937 3.386 1.402zm18.287 21.3c0-1.415-1.16-2.56-2.593-2.56-1.434 0-2.594 1.145-2.594 2.56 0 1.414 1.16 2.559 2.594 2.559 1.433 0 2.593-1.145 2.593-2.559zm-2.678 28.731c0 1.415 1.16 2.56 2.593 2.56s2.593-1.145 2.593-2.56-1.16-2.564-2.593-2.564-2.593 1.149-2.593 2.564zm7.659-6.048c0 1.411 1.16 2.56 2.593 2.56 1.434 0 2.594-1.149 2.594-2.56 0-1.414-1.16-2.564-2.594-2.564-1.433 0-2.593 1.15-2.593 2.564zM80.64 250.352c0 1.414 1.16 2.559 2.593 2.559s2.593-1.145 2.593-2.559c0-1.415-1.16-2.56-2.593-2.56-1.434 0-2.594 1.145-2.594 2.56zm-1.972-37.551c-1.433 0-2.593 1.149-2.593 2.564s1.16 2.56 2.593 2.56c1.434 0 2.598-1.145 2.598-2.56s-1.164-2.564-2.598-2.564zM52.825 228.95c-1.434 0-2.594 1.145-2.594 2.56s1.16 2.564 2.594 2.564c1.433 0 2.593-1.149 2.593-2.564s-1.16-2.56-2.593-2.56zm10.937 6.937c1.434 0 2.594-1.145 2.594-2.56s-1.16-2.56-2.594-2.56c-1.433 0-2.593 1.145-2.593 2.56s1.16 2.56 2.593 2.56zm-4.067-10.699c1.434 0 2.598-1.149 2.598-2.564s-1.164-2.56-2.598-2.56c-1.433 0-2.593 1.145-2.593 2.56s1.16 2.564 2.593 2.564zm8.327 20.734c1.433 0 2.593-1.149 2.593-2.564s-1.16-2.56-2.593-2.56-2.593 1.145-2.593 2.56 1.16 2.564 2.593 2.564z" fill="#04CF86"/><path d="M106.088 207.257c-1.204-.119-2.324.584-3.184 1.41-1.545 1.486-3.713 2.175-5.832 1.773-.739-.141-1.464-.354-2.065-.668-2.261-1.193-3.475-4.717-3.475-4.717s-2.137.358-4.107-.734c-1.976-1.091-3.507-3.258-3.507-3.258s-2.2.809-3.96.544c-1.76-.261-3.807-1.817-3.807-1.817s-1.756 1.49-3.565 1.547c-1.814.058-4.394-.972-4.394-.972s-1.313 1.821-2.275 2.241c-.963.416-2.764.685-2.764.685-.233.5-.94 2.794-.94 2.794.895.527 2.167 1.141 2.669 2.034.501.893 1.07 2.821 1.07 2.821s.981-1.026 2.446-1.039c1.088-.009 2.356.738 2.356.738s3.01-4.165 7.108-4.063c4.098.106 6.736 3.625 6.736 3.625s2.777-1.441 4.708-1.335c1.926.111 6.427 2.847 7.654 3.395 1.228.553 3.816-.145 4.658-.247.842-.102 1.152 1.211.668 1.653-.479.447-3.35 1.813-4.51 3.205-1.16 1.397-1.694 4.722-2.948 6.274-1.25 1.547-4.277 1.848-4.277 1.848s1.097 3.143-2.822 6.87c-3.919 3.722-8.29.875-8.29.875s-.52 1.839-1.707 2.75c-1.173.897-2.96.902-2.996.902 0 0 .954.769 1.437 3.01.484 2.246.072 4.099.072 4.099 1.388.398 2.437 1.361 2.437 1.361s1.128-1.989 2.956-2.312c1.823-.323 3.242.725 3.242.725s.525-2.626 2.495-3.775c1.966-1.145 3.69-.482 3.69-.482s.023-2.852 1.707-4.585c1.689-1.733 3.615-1.994 3.615-1.994s-.985-1.768.385-4.385 3.436-2.869 3.436-2.869-2.397-2.418-1.568-5.075c.829-2.657 2.826-4.607 4.586-4.669 2.267-.084 3.879 1.052 5.572-.367 2.249-1.888 3.704-5.522 3.704-5.522-1.514-.353-2.499-1.909-6.414-2.294zm-13.015-8.364a2.549 2.549 0 001.42-3.338c-.542-1.309-2.056-1.937-3.382-1.402a2.549 2.549 0 00-1.42 3.338c.542 1.309 2.056 1.936 3.382 1.402zM59.66 211.815c0-1.415-1.165-2.56-2.598-2.56-1.43 0-2.594 1.145-2.594 2.56 0 1.414 1.165 2.564 2.594 2.564 1.433 0 2.597-1.15 2.597-2.564zm-7.87-20.111c.542 1.309 2.056 1.936 3.381 1.401a2.553 2.553 0 001.42-3.342c-.542-1.308-2.056-1.936-3.381-1.401a2.55 2.55 0 00-1.42 3.342zm49.43 12.975a2.548 2.548 0 001.42-3.337c-.542-1.309-2.056-1.937-3.386-1.402a2.543 2.543 0 00-1.416 3.338c.543 1.313 2.056 1.936 3.382 1.401zm-45.287-.318a2.553 2.553 0 001.42-3.342c-.542-1.308-2.06-1.936-3.386-1.401a2.553 2.553 0 00-1.42 3.342c.542 1.308 2.06 1.936 3.386 1.401zm60.538-110.164a2.551 2.551 0 00-1.653 3.231c.448 1.344 1.913 2.078 3.274 1.636a2.551 2.551 0 001.653-3.232c-.443-1.344-1.912-2.078-3.274-1.635zm9.616 20.238c-.448-1.344-1.917-2.073-3.278-1.631a2.551 2.551 0 00-1.653 3.232c.448 1.344 1.912 2.073 3.274 1.631a2.557 2.557 0 001.657-3.232zm-2.562 13.064a2.551 2.551 0 001.653-3.232c-.444-1.344-1.913-2.073-3.274-1.635-1.362.442-2.101 1.892-1.653 3.231.448 1.344 1.912 2.078 3.274 1.636zm-18.843 100.907c-1.433 0-2.593 1.146-2.593 2.56 0 1.415 1.16 2.564 2.593 2.564s2.594-1.149 2.594-2.564c0-1.414-1.161-2.56-2.594-2.56zm4.287-89.324a2.543 2.543 0 00-1.277 3.395c.596 1.287 2.137 1.853 3.436 1.265a2.552 2.552 0 001.281-3.396c-.596-1.286-2.137-1.852-3.44-1.264z" fill="#04CF86"/><path d="M73.132 224.918c0-1.414-1.16-2.559-2.593-2.559s-2.593 1.145-2.593 2.559c0 1.415 1.16 2.56 2.593 2.56s2.593-1.145 2.593-2.56zm49.489-116.835a2.553 2.553 0 001.653-3.232c-.448-1.344-1.913-2.078-3.275-1.636a2.552 2.552 0 00-1.652 3.232c.443 1.344 1.912 2.078 3.274 1.636zm42.012-44.829a2.54 2.54 0 00.757 3.542c1.201.773 2.809.441 3.592-.743a2.545 2.545 0 00-.757-3.546 2.616 2.616 0 00-3.592.747zm4.139-9.009a2.533 2.533 0 00.349 3.603 2.614 2.614 0 003.651-.345 2.533 2.533 0 00-.35-3.603 2.612 2.612 0 00-3.65.345zm-4.044 23.117a2.61 2.61 0 003.587-.747 2.535 2.535 0 00-.752-3.542c-1.201-.773-2.809-.442-3.592.743a2.541 2.541 0 00.757 3.546zm-65.232 64.129a2.539 2.539 0 00-1.277 3.391c.596 1.287 2.137 1.853 3.436 1.265a2.55 2.55 0 001.281-3.396c-.596-1.286-2.137-1.852-3.44-1.26zm-28.971-4.438c.596 1.286 2.137 1.852 3.44 1.264 1.304-.592 1.877-2.109 1.277-3.395-.596-1.287-2.137-1.852-3.436-1.264a2.548 2.548 0 00-1.28 3.395zm-8.214-2.069a2.557 2.557 0 00-1.657 3.231c.448 1.344 1.917 2.074 3.279 1.632 1.357-.442 2.1-1.888 1.652-3.232-.447-1.344-1.912-2.073-3.274-1.631zm4.609-9.753a2.556 2.556 0 00-1.652 3.236c.443 1.34 1.912 2.074 3.274 1.632a2.552 2.552 0 001.652-3.232c-.448-1.344-1.912-2.073-3.274-1.636zm42.671 94.869c-.542-1.309-2.06-1.937-3.386-1.402a2.553 2.553 0 00-1.42 3.342c.542 1.309 2.061 1.937 3.386 1.402a2.553 2.553 0 001.42-3.342zM74.248 96.796c-1.362.442-2.106 1.892-1.658 3.232.448 1.344 1.913 2.077 3.275 1.635 1.361-.442 2.105-1.887 1.657-3.231-.448-1.344-1.913-2.078-3.274-1.636zm5.674 42.082a2.551 2.551 0 00-1.28 3.396 2.612 2.612 0 003.44 1.264 2.549 2.549 0 001.28-3.395c-.596-1.287-2.136-1.853-3.44-1.265zm-2.055-32.17c-1.362.442-2.101 1.892-1.653 3.231.448 1.344 1.912 2.078 3.274 1.636a2.552 2.552 0 001.653-3.232c-.444-1.344-1.913-2.073-3.274-1.635zm11.283 34.947c-1.304.588-1.877 2.109-1.282 3.391.596 1.286 2.137 1.852 3.44 1.264a2.543 2.543 0 001.277-3.395c-.596-1.287-2.132-1.848-3.436-1.26zm-18.45-22.45c.444 1.34 1.913 2.074 3.274 1.632a2.552 2.552 0 001.653-3.232c-.448-1.344-1.912-2.073-3.274-1.636a2.556 2.556 0 00-1.653 3.236zm252.037-50.173c-5.156-1.436-9.366 1.703-11.453 2.927-2.083 1.22-7.068 7.277-5.111 11.579 1.357 2.984 4.824 4.637 7.722 1.379 1.765-1.99 1.012-4.244.161-5.703a2.01 2.01 0 01.636-2.723c1.649-1.061 4.103-2.498 5.796-2.847 2.764-.566 7.404.605 9.061.464 1.733-.142 2.714-.473 2.069.3-.618.748-2.306 5.924-3.336 9.651-.695 2.516-3.248 4.085-4.833 4.841-.609.292-1.586.442-2.079-.026-.989-.942-1.478-2.688-3.471-2.741-4.035-.102-6.14 3.59-4.156 6.786 2.087 3.368 9.818.928 13.087-.208 3.265-1.136 8.443-4.73 7.449-9.943-.99-5.212-.054-10.22-.054-10.22-1.939-.218-6.333-2.083-11.488-3.516zM170.375 83.723a2.62 2.62 0 00-3.592.743 2.542 2.542 0 00.757 3.546c1.2.773 2.804.437 3.588-.748a2.535 2.535 0 00-.753-3.54zm117.591 191.731a2.54 2.54 0 00-.349-3.608 2.628 2.628 0 00-3.655.345 2.544 2.544 0 00.354 3.608 2.622 2.622 0 003.65-.345zm-5.007-10.783a2.538 2.538 0 00-.354-3.603 2.613 2.613 0 00-3.65.345 2.538 2.538 0 00.349 3.607 2.622 2.622 0 003.655-.349zm6.589-12.812a2.614 2.614 0 00-3.651.345 2.533 2.533 0 00.35 3.603 2.612 2.612 0 003.65-.345 2.533 2.533 0 00-.349-3.603zm-30.941-25.597a2.54 2.54 0 00-.35-3.603 2.617 2.617 0 00-3.654.345 2.54 2.54 0 00.349 3.603 2.618 2.618 0 003.655-.345zM73.481 254.149c1.434 0 2.598-1.145 2.598-2.559 0-1.415-1.164-2.564-2.597-2.564-1.43 0-2.594 1.149-2.594 2.564 0 1.414 1.165 2.559 2.593 2.559zm174.77-25.19a2.538 2.538 0 00-.349-3.607 2.626 2.626 0 00-3.655.345 2.543 2.543 0 00.354 3.607 2.62 2.62 0 003.65-.345zm31.748.672a2.534 2.534 0 00-.35-3.603 2.618 2.618 0 00-3.655.345 2.538 2.538 0 00.354 3.603 2.614 2.614 0 003.651-.345zm-10.356-3.033a2.533 2.533 0 00-.35-3.603 2.612 2.612 0 00-3.65.345 2.533 2.533 0 00.349 3.603 2.613 2.613 0 003.651-.345zM292.777 65.96c-1.944 0-3.521 1.552-3.521 3.475 0 1.918 1.577 3.475 3.521 3.475s3.52-1.556 3.52-3.475c0-1.923-1.576-3.475-3.52-3.475z" fill="#04CF86"/><path d="M276.5 74.214c-.613 4.045-3.26 4.872-3.26 4.872s.806.026 1.496 1.848c.685 1.821.107 3.068.107 3.068s3.494-.39 6.226 2.652c2.732 3.038 2.132 5.425 2.132 5.425s2.943.239 5.254 3.143c2.311 2.91 1.509 5.747 1.509 5.747s2.876.619 5.12 3.736c2.244 3.112 1.585 6.397 1.585 6.397s3.615.853 5.259 3.665c1.648 2.807.3 6.795.3 6.795 2.073.769 3.529 2.546 3.529 2.546s3.055-1.733 5.084-1.724c2.029.009 4.326 1.707 7.587 2.564 3.265.858 8.067-1.069 12.447-3.298 4.376-2.232 6.651-10.336 5.836-13.572-.81-3.236-3.354-7.931-7.901-10.566-4.546-2.64-10.256-.597-12.559-.12-2.302.478-5.661 2.799-3.489 5.947 2.177 3.148 4.954 1.733 6.66 1.127 1.707-.61 2.092-3.24 2.616-3.417.52-.181 3.073-.349 5.657 2.069s4.564 6.879 2.508 10.013c-2.06 3.135-6.369 4.983-10.342 3.617-3.968-1.366-3.892-3.405-3.892-3.405.986-2.497-.067-5.176-1.868-6.6-1.8-1.428-6.543-.23-6.073 3.528.466 3.758 3.09 3.895 6.248 4.717 3.162.827 5.093 4.01 5.809 5.385.717 1.37-.434 1.693-2.167.062-1.738-1.636-3.454-2.065-5.975-1.999-2.518.067-3.637-.23-3.933-1.295-.291-1.065-.654-1.927-1.191-2.953-.538-1.03-3.489-2.131-2.63-5.871.86-3.74 4.175-4.474 4.175-4.474s-.999-1.401-.82-3.749c.179-2.352 2.025-3.205 2.025-3.205-4-3.608-2.191-6.875-2.191-6.875s-1.567.535-3.69-1.507c-2.128-2.043-2.137-2.91-2.137-2.91s-2.36 1.38-4.429 1.128c-2.065-.247-3.552-1.578-3.552-1.578-1.613 2.299-4.448 2.268-6.338 2.188-1.89-.08-3.274-1.72-4.259-4.951-.986-3.236-2.513-2.109-3.104-4.761-.596-2.653 1.536-5.474 1.061-6.884-.47-1.41-1.182-7.648 1.926-.022 3.104 7.622-.649 3.802 1.272 8.992 1.917 5.19 5.536 3.52 7.538 1.632 2.007-1.893 1.254-3.157-.806-5.584-2.06-2.423-4.815.888-5.742-3.068-.923-3.957.887-9.92 6.83-9.996 5.948-.075 8.985 5.067 9.173 8.62.184 3.555-1.63 1.26-4.707 3.79-3.082 2.524.3 6.967 2.123 7.254 1.823.288 5.308-3.138 6.132-4.597.819-1.464 3.552-9.023-.251-13.944-3.807-4.925-7.31-5.226-12.152-6.233-4.837-1.013-10.144 2.303-12.805 4.96-2.656 2.657-2.347 7.621-2.961 11.671zm22.064 15.314c2.553 0 4.622 2.042 4.622 4.562 0 2.52-2.069 4.563-4.622 4.563s-4.622-2.043-4.622-4.563c0-2.52 2.069-4.562 4.622-4.562zm-67.848 166.62a2.624 2.624 0 003.655-.35 2.539 2.539 0 00-.354-3.603 2.613 2.613 0 00-3.65.345 2.54 2.54 0 00.349 3.608z" fill="#04CF86"/><path d="M327.171 109.771c0-1.918-1.577-3.475-3.521-3.475s-3.52 1.557-3.52 3.475c0 1.919 1.576 3.475 3.52 3.475s3.521-1.556 3.521-3.475zm-59.812-78.665s7.135-.367 13.159 6.1c0 0-.184-5.517-4.188-10.915-3.946-5.314-11-7.988-11.22-8.068.135.226 4.103 6.853 2.249 12.883zm58.263 49.867c0-1.918-1.577-3.474-3.521-3.474s-3.52 1.556-3.52 3.474c0 1.919 1.576 3.475 3.52 3.475s3.521-1.556 3.521-3.475zm-88.667-57.825c-1.102 2.135-2.038 9.88 1.944 12.484 2.764 1.809 6.589 1.38 7.274-2.9.417-2.612-1.442-4.124-2.952-4.907-.967-.504-1.393-1.653-.936-2.64.824-1.763 2.119-4.27 3.364-5.459 2.024-1.936 6.584-3.39 7.914-4.385 1.384-1.035 2.034-1.83 1.908-.836-.116.955 1.254 6.22 2.401 9.916.77 2.493-.533 5.168-1.465 6.64-.362.57-1.106 1.212-1.769 1.075-1.348-.279-2.71-1.495-4.421-.487-3.471 2.043-3.251 6.27.157 7.927 3.588 1.746 8.801-4.39 10.951-7.074 2.15-2.683 4.582-8.448.919-12.334-3.66-3.881-5.577-8.612-5.577-8.612-1.756.84-6.481 1.578-11.614 3.086-5.137 1.503-6.996 6.375-8.098 8.506zm102.887 84.585s3.086-7.728 3.198-14.032c.112-6.3-4.188-11.441-4.188-11.441-1.057 8.4-6.163 12.9-6.163 12.9 6.535 4.982 7.153 12.573 7.153 12.573zm-30.256-40.818s6.114-3.647 14.517-.756c0 0-2.8-4.775-8.914-7.666-6.113-2.891-13.754-1.888-13.754-1.888s6.879 4.024 8.151 10.31zm-.739 106.464c-1.433-.07-2.651 1.013-2.727 2.427-.072 1.411 1.025 2.618 2.458 2.688 1.429.075 2.652-1.012 2.724-2.422.076-1.415-1.026-2.618-2.455-2.693zM183.562 315.313c1.433 0 2.597-1.15 2.597-2.564 0-1.411-1.164-2.56-2.597-2.56-1.434 0-2.594 1.149-2.594 2.56 0 1.414 1.16 2.564 2.594 2.564zm-3.078-39.926c1.434 0 2.594-1.149 2.594-2.564 0-1.414-1.16-2.559-2.594-2.559-1.433 0-2.593 1.145-2.593 2.559 0 1.415 1.16 2.564 2.593 2.564zm-4.125-10.039c0-1.415-1.164-2.565-2.598-2.565-1.433 0-2.593 1.15-2.593 2.565 0 1.414 1.16 2.559 2.593 2.559 1.434 0 2.598-1.145 2.598-2.559zm12.465 16.825c0-1.41-1.16-2.559-2.593-2.559s-2.598 1.149-2.598 2.559c0 1.415 1.165 2.565 2.598 2.565 1.433 0 2.593-1.15 2.593-2.565zm-51.75-6.75c1.434 0 2.594-1.145 2.594-2.56 0-1.414-1.16-2.564-2.594-2.564-1.433 0-2.593 1.15-2.593 2.564 0 1.415 1.16 2.56 2.593 2.56zm51.307 28.157c1.433 0 2.598-1.15 2.598-2.56 0-1.415-1.165-2.564-2.598-2.564-1.433 0-2.593 1.149-2.593 2.564 0 1.41 1.16 2.56 2.593 2.56zM78.22 262.947c1.434 0 2.594-1.145 2.594-2.56 0-1.414-1.16-2.559-2.594-2.559-1.433 0-2.597 1.145-2.597 2.559 0 1.415 1.164 2.56 2.597 2.56zm73.532-1.22c0 1.414 1.16 2.559 2.593 2.559 1.434 0 2.594-1.145 2.594-2.559 0-1.415-1.16-2.56-2.594-2.56-1.433 0-2.593 1.145-2.593 2.56zm-9.195 4.81c0 1.414 1.164 2.564 2.597 2.564 1.434 0 2.594-1.15 2.594-2.564 0-1.415-1.16-2.56-2.594-2.56-1.433 0-2.597 1.145-2.597 2.56zm89.176-3.325a2.533 2.533 0 00.349 3.603 2.613 2.613 0 003.651-.344 2.54 2.54 0 00-.35-3.608 2.617 2.617 0 00-3.65.349zm-.34-22.241a2.538 2.538 0 00.349 3.607c1.106.897 2.741.747 3.65-.345a2.538 2.538 0 00-.349-3.607 2.62 2.62 0 00-3.65.345zm-42.802 48.157c-1.433 0-2.593 1.145-2.593 2.559 0 1.415 1.16 2.56 2.593 2.56 1.434 0 2.598-1.145 2.598-2.56 0-1.414-1.164-2.559-2.598-2.559zm51.92-12.998a2.538 2.538 0 00-.349-3.607 2.62 2.62 0 00-3.65.345 2.538 2.538 0 00.349 3.607c1.106.897 2.741.747 3.65-.345z" fill="#04CF86"/></svg>