<svg width="370" height="370" fill="none" xmlns="http://www.w3.org/2000/svg"><path d="M181.156 190.047c-.01.009-.01.019-.01.033-.021.072-.036.149-.066.254a7.511 7.511 0 00-.111.579c.101-.421.177-.737.202-.914-.01.009-.015.028-.015.048zm0 0c-.01.009-.01.019-.01.033-.021.072-.036.149-.066.254a7.511 7.511 0 00-.111.579c.101-.421.177-.737.202-.914-.01.009-.015.028-.015.048zm0 0c-.01.009-.01.019-.01.033-.021.072-.036.149-.066.254a7.511 7.511 0 00-.111.579c.101-.421.177-.737.202-.914-.01.009-.015.028-.015.048z" fill="#C95959"/><path d="M181.201 189.869c-.02.115-.091.484-.232 1.049.101-.627.202-.953.232-1.049zm-31.126 6.894s-10.934 4.581-16.055 14.41c-4.586 8.799-2.268 8.569-2.268 8.569s-6.778.45-5.328-6.712c1.444-7.162 9.464-11.336 13.141-13.141 0 0-16.974-.043-19.429-5.017-1.874-3.791.283-5.826 2.849-7.569-.005-.004 2.121 11.854 27.09 9.46z" fill="#C95959"/><path d="M111.697 210.282s7.449 2.633 12.565-.957c5.111-3.591 12.121-8.617 14.394-9.216 2.273-.598-11.576 1.322-18.343 1.934-7.955.718-8.616 8.239-8.616 8.239zm59.464 10.413s-.702 11.312 6.176 20.125c6.162 7.89 7 5.831 7 5.831s-2.676 5.917-8.737 1.422c-6.06-4.495-6.308-13.16-6.318-17.091 0 0-7.803 14.29-13.596 14.084-4.414-.157-5.333-2.905-5.798-5.864.005.005 12.101 3.638 21.273-18.507z" fill="#C95959"/><path d="M166.292 259.232s5.879-5.075 4.849-11.03c-1.031-5.951-2.541-14.161-2.066-16.349.48-2.187-4.05 10.36-6.57 16.349-2.96 7.032 3.787 11.03 3.787 11.03zm40.818-48.289s9.495 6.884 21.05 6.415c10.344-.421 9.015-2.236 9.015-2.236s3.677 5.415-3.646 7.66-15.035-2.413-18.48-4.601c0 0 8.126 14.127 4.702 18.56-2.606 3.38-5.525 2.566-8.374 1.274.011-.005 9.955-7.468-4.267-27.072z" fill="#C95959"/><path d="M238.069 236.339s-1.146-7.458-6.929-9.981c-5.783-2.523-13.798-5.932-15.444-7.531-1.647-1.598 6.788 8.986 10.611 14.314 4.495 6.267 11.762 3.198 11.762 3.198zm-23.954-60.917s10.464-5.477 14.656-15.698c3.748-9.148 1.46-8.722 1.46-8.722s6.707-1.015 5.934 6.242c-.773 7.258-8.374 12.083-11.869 14.19 0 0 16.914-1.379 19.823 3.375 2.218 3.624.258 5.826-2.131 7.779-.005-.005-3.222-11.638-27.873-7.166z" fill="#C95959"/><path d="M251.089 158.748s-7.666-2.001-12.424 2.001c-4.757 4.002-11.272 9.598-13.479 10.383-2.208.785 11.409-2.283 18.09-3.461 7.854-1.379 7.813-8.923 7.813-8.923zm-60.938-7.162s.929-11.298-5.773-20.236c-6-7.999-6.884-5.955-6.884-5.955s2.793-5.869 8.763-1.264c5.969 4.605 6.04 13.275 5.974 17.201 0 0 8.091-14.147 13.874-13.835 4.409.234 5.278 3.001 5.682 5.965.005 0-12.015-3.849-21.636 18.124z" fill="#C95959"/><path d="M195.797 113.144s-5.98 4.969-5.071 10.939c.909 5.97 2.253 14.204 1.733 16.382-.521 2.178 4.262-10.288 6.899-16.224 3.106-6.98-3.561-11.097-3.561-11.097zm-37.757 51.205s-9.465-6.923-21.025-6.497c-10.348.383-9.025 2.202-9.025 2.202s-3.652-5.428 3.677-7.645c7.333-2.216 15.025 2.47 18.459 4.673 0 0-8.066-14.156-4.626-18.58 2.621-3.37 5.535-2.542 8.378-1.24.005 0-9.974 7.43 4.162 27.087z" fill="#C95959"/><path d="M127.19 138.833s1.117 7.463 6.884 10.005c5.768 2.547 13.773 5.984 15.414 7.588 1.642 1.608-6.752-9.01-10.55-14.352-4.465-6.277-11.748-3.241-11.748-3.241z" fill="#C95959"/><path d="M359.628 196.73c8.288-13.869 13.904-34.895 6.031-65.059-7.086-27.153-27.717-44.12-45.727-54.106.076-.114.146-.23.222-.344 4.071-6.535 6.364-18.78-6.929-33.449-10.848-11.963-29.121-9.967-35.474-8.823-9.419-14.481-26.308-29.6-56.373-33.846-28.172-3.968-48.49 3.37-62.182 12.404-5.545-5.328-16.05-9.88-33.04-4.844-16.095 4.772-21.307 21.863-22.615 27.636-18.45 2.863-41.727 11.633-61.762 35.043-14.864 17.363-16.869 38.576-15.197 55.374-7.99.536-19.323 5.501-25.283 23.008-6.267 18.392 12.177 34.865 12.177 34.865s-12.156 39.816-.899 68.554c8.08 20.628 19.358 32.922 30.237 40.217-3.308 6.923-4.162 19.221 10.48 32.472 12.62 11.418 31.777 6.789 37.045 5.204 8.878 12.222 23.252 25.578 46.07 33.099 27.116 8.938 49.929 6.032 69.489-5.381.222.431.54.914.939 1.46 4.596 6.224 15.409 13.261 35 7.861 15.328-4.237 21.141-19.681 22.944-26.196 19.106-2.528 42.181-10.312 60.338-30.897 19.479-22.074 22.05-45.67 19.944-63.402 7.237-.283 17.676-4.462 23.545-20.188 5.157-13.802-5.414-26.813-8.98-30.662zM16.011 180.008c-.899-.465-3.353-2.131-4.096-6.832-.909-5.811 2.965-7.535 2.965-7.535-3.93-2.561-6.828-8.698-4.162-14.036 2.303-4.615 9.606-5.496 9.606-5.496s-1.57-3.916.374-8.717c1.131-2.801 4.207-4.376 6.586-5.185 2.08 13.763 6.212 23.429 6.212 23.429s-9.646 8.919-17.485 24.372zm96.07-149.592c4.475-4.06 8.202-2.054 8.202-2.054-.056-4.52 3.55-10.312 9.697-11.322 5.292-.88 10.272 4.26 10.272 4.26s2.46-3.475 7.717-4.743c2.046-.493 4.116 0 5.889.785-12.096 9.474-17.49 19.302-17.49 19.302s-11.409-2.705-27.691-1.005c.323-1.355 1.187-3.208 3.404-5.223zm-7.243 86.347c25.212-25.583 55.369 5.625 58.752 8.948-.651-11.154 6.712-46.159 39.495-38.557 36.459 8.455 20.08 51.147 19.681 52.459.223-1.23 7.319-40.529-23.211-43.564-32.838-3.275-35.641 24.669-35.884 29.753-.03-.029-.055-.053-.086-.086-.01.019 0 .043 0 .062-3.222-2.537-34.07-25.746-52.398-1.408-22.015 29.222 7.717 46.188 9.101 46.954-10.035-4.256-40.676-28.958-15.45-54.561zm94.383 121.314s7.657-27.479-3.086-37.929c0 0 20.258 8.119 37.404-.335 0 0 29.545 23.251 8.778 42.941-20.768 19.676-39.197 2.188-43.096-4.677zm-34.348-100.489c-6.596 22.222 3.111 35.071 3.111 35.071-22.161-9.378-40.12.355-40.12.355-6.036-2.605-27.475-27.953-3.662-45.316 23.818-17.378 40.671 9.89 40.671 9.89zm-36.277 38.547s10.081 15.099 34.631 15.798c0 0-15.753 12.159-20.157 32.649 0 0-26.009 17.54-39.933-11.288-13.924-28.829 25.459-37.159 25.459-37.159zm16.732 50.529s17.995-.785 31.277-20.724c0 0 1.106 24.928 17.995 32.271 0 0 4.707 29.389-31.555 29.921-.005-.005-28.242-6.047-17.717-41.468zm36.449-16.903c-1.581-11.313-1.152-16.727-.808-18.824-.854 3.38-4.217 13.84-14.611 22.074-12.566 9.967-18.05 9.536-18.05 9.536s5.823-14.079 12.904-22.313c7.085-8.234 15.661-12.346 15.661-12.346s-13.257.967-25.601-1.408c-12.333-2.384-18.626-10.91-18.626-10.91s16.227-4.04 24.803-1.877c8.424 2.131 20.732 8.718 21.131 8.929-.323-.431-10.656-14.271-12.222-23.975-1.596-9.862 1.227-19.905 1.227-19.905s11.232 11.13 13.283 19.795c2.05 8.665 2.626 22.534 2.626 22.534s4.616-13.232 13.303-20.815c8.677-7.583 19.601-11.246 19.601-11.246s-4.839 19.484-15.197 26.421c-10.247 6.875-12.565 8.445-12.565 8.445s15.651-2.705 26.055 1.953c10.394 4.658 14.055 11.585 14.055 11.585s-12.454 3.251-23.995 1.513c-11.035-1.656-17.575-8.789-18.141-9.421.531.847 8.975 14.553 10.192 21.274 2.212 12.361-1.53 23.132-1.53 23.132s-11.323-8.665-13.495-24.151zm-13.969-74.954s2.015-35.421 30.403-31.778c35.985 4.624 16.859 42.022 16.859 42.022-17.591 5.558-29.677 22.046-29.677 22.046 3.106-14.233-17.585-32.29-17.585-32.29zm65.585 61.367c-9.586-14.802-30.849-17.32-30.849-17.32 15.97-10.599 17.874-32.702 17.874-32.702 7.061-5.266 38.939-8.1 43.146 16.851 4.207 24.952-30.171 33.171-30.171 33.171zM80.177 326.967c-5.803-1.709-5.863-5.654-5.863-5.802-4.152 2.235-11.238 2.044-15.162-2.552-3.373-3.969-1.04-10.594-1.04-10.594s-4.404-.354-8.116-4.103c-2.036-2.054-2.293-5.108-2.111-7.449 15.65 8.55 29.196 7.502 29.196 7.502s2.323 10.407 10.43 22.969c-1.314.575-3.713 1.096-7.334.029zm4.05-112.075c-11.444-31.519 35.874-41.084 38.51-41.586-2.348.723-40.666 12.863-28.58 40.528 14.055 32.18 43.954 18.058 45.747 17.168-8.995 5.716-43.95 16.214-55.676-16.11zm172.12 131.703c-4.561 3.978-8.237 1.9-8.237 1.9-.036 4.524-3.763 10.24-9.93 11.14-5.323.785-10.181-4.457-10.181-4.457s-2.536 3.432-7.823 4.605c-4.248.934-8.526-2.331-10.051-3.662 6.263-4.131 12.167-9.158 17.778-14.96 0 0 13.429 2.906 31.6 1.312-.49 1.187-1.429 2.614-3.156 4.122zm-3.465-94.458c-24.651 21.16-51.378-6.841-53.06-8.487-.818 7.281-10.02 44.076-40.6 36.272-34.065-8.688-20.157-46.407-19.626-48.293-.344 1.891-6.531 37.527 21.828 40.854 31.348 3.681 37.656-24.918 38.373-28.853.01 0 .02.01.025.02 1.626 1.33 29.964 24.247 47.429 2.896 20.075-24.549-5.101-44.876-6.838-46.235 5.51 3.71 36.368 31.313 12.469 51.826zm-7.712-53.425c1.132-.431 38.065-14.774 25.5-41.568-14.52-30.959-47.065-17.062-48.05-16.631 6.212-2.978 42.706-18.752 57.944 15.065 13.434 29.815-34.111 42.798-35.394 43.134zm69.984-123.674c-14.247-7.186-25.787-9.886-25.787-9.886s-1.283-12.14-9.046-25.947c1.429-.24 3.52-.177 6.263.924 5.702 2.288 5.227 6.324 5.227 6.324 4.359-1.838 11.389-.986 14.808 3.964 2.944 4.27-.066 10.637-.066 10.637s4.349.766 7.647 4.845c2.252 2.772 1.606 6.84.954 9.139zm44.974 150.439c-2.202 4.122-8.823 4.735-8.823 4.735s1.319 3.576-.565 7.87c-1.152 2.623-4.197 3.969-6.399 4.629-2.455-14.103-7.46-23.448-7.46-23.448s11.091-5.467 20.323-18.78c.929.9 2.051 2.547 2.424 5.457.667 5.276-2.878 6.736-2.878 6.736 3.484 2.427 5.944 8.038 3.378 12.801z" fill="#FFDEDE"/><path d="M199.862 243.271c-.01.115-.02.24-.035.369v.009c-.01-.009-.02-.019-.025-.019v-.009c.02-.168.04-.278.06-.35z" fill="#C95959"/><path d="M199.822 243.64v.01c-.01-.01-.02-.02-.025-.02v-.009c.01 0 .02.009.025.019zM163.67 125.797v.043c-.02.421-.02.68-.02.732a30.54 30.54 0 01-.065-.799c0-.019-.01-.043 0-.062.03.033.06.062.085.086z" fill="#C95959"/><path d="M163.792 125.931c-.03-.029-.076-.053-.121-.086a.653.653 0 00-.086-.072c0-.019-.01-.043 0-.062.03.033.056.062.086.086.045.053.096.091.121.134zm62.944-24.358s6.409 2.94 11.373 11.562c4.96 8.621 22.536 26.847 41.763 25.87 19.227-.981 33.908-19.01 40.939-27.828 7.03-8.818 14.474-11.758 19.434-8.622 4.959 3.135 5.787 11.365 0 13.131-5.788 1.767-7.238-3.332-7.238-3.332s1.859 1.374 3.308-1.177c1.45-2.547-3.308-7.057-7.651-3.921-4.343 3.136-4.96 10.584 1.035 13.916 5.995 3.332 17.783-.981 19.02-13.524 1.243-12.542-13.439-14.893-17.989-14.108-4.551.785-10.96 9.407-10.96 9.407s3.101-4.313 2.894-10.192c-.207-5.878-3.515-10.78-3.515-10.78s-6.409 4.897-7.444 11.56c-1.036 6.664.414 11.758.414 11.758s-4.137-12.935-15.091-6.664c0 0-3.929 3.332-.207 8.426 0 0 4.55-4.701 7.237 1.958 2.687 6.659 2.222 29.035-28.404 27.948 0 0 22.187-5.156 20.323-18.857-1.858-13.701-8.585-5.697-8.585-5.697s4.722-1.762 4.01 3.662c-.712 5.424-7.298 8.277-14.455 7.191-7.156-1.087-8.303.273-7.727 3.255.571 2.982 4.869 7.731 7.586 8.004 0 0-7.298 3.122-16.601-3.528-9.303-6.649-12.737-16.415-9.591-27 3.147-10.58 15.889-14.108 25.621-12.212 0 0 4.293-10.987-10.161-10.173-14.455.814-20.899 17.77-20.752 25.774-.006.015-6.389-13.796-18.586-5.807zm-19.454-23.74s7.288 11.203 34.328 11.475c0 0 1.717-6.601-11.536-8.449 0 0 21.091-11.762 13.556-24.75-7.535-12.983-24.061-14.994-31.581-4.543 0 0 13-8.77 22.525 4.74 9.106 12.915-2.55 28.756-27.292 21.527z" fill="#C95959"/><path d="M212.125 55.056s6.268 21.313-18.227 25.334c0 0-15.667.699-22.879-8.995 0 0 5.884 9.086-3.04 16.597 0 0-8.641-8.124-7.025-18.345 0 0-11.485 14.415-14.146 4.194 0 0 6.55 3.059 6.833-4.28.283-7.339-.758-14.936-9.874-20.092 0 0 3.041 6.64-4.459 7.947 0 0 2.848-7.425-4.46-11.882s-6.454-5.156-17.848-6.29c-11.394-1.135-17.374 2.795-17.374 2.795s18.702-2.01 22.308 7.775c0 0-14.525 1.048-18.984-1.661 0 0 7.691 7.338-5.223 10.483 0 0 .854-4.806-7.782-5.763-8.642-.962-18.323 13.189-20.03 24.635 0 0 2.944-6.64 8.924-8.474 0 0-2.182 3.409-2.182 7.512 0 4.107-1.803 9.87-3.323 12.49 0 0 6.171-4.28 8.828-.785 2.656 3.494-1.707 6.113-1.9 8.995-.191 2.882-.095 7.339 3.42 10.22 3.515 2.882 8.45 4.716 8.45 4.716s-6.627-6.937-3.243-12.605c3.379-5.663 9.056-2.111 8.09 0-.964 2.111-3.863 2.557-3.863 2.557s.753 16.429 18.576 3.561c0 0 6.651-6.43 7.369-16.023 0 0-8.733 14.429-16.753 9.1-8.02-5.327-.444-10.411 1.869-7.87 2.313 2.543 4.722 2.787 7.929-.243 3.207-3.036 5.525-7.545 4.01-12.218-1.515-4.672-3.03-5.165-3.03-5.165s14.969 10.824 20.58 17.87c5.611 7.052 16.394 8.939 18.535 8.364 2.137-.574 6.95-2.623 6.773-8.856-.177-6.233-8.02-9.1-9.803-5.578-1.783 3.524-.176 3.036-.176 3.036s-.091-2.954 2.318-1.312c2.404 1.642.267 5.903-3.117 5.003-3.383-.9-3.742-6.803-1.691-8.526 2.05-1.724 4.899-5.003 9.803-1.394 4.904 3.61 7.04 11.562.358 16.971-6.682 5.41-24.949 8.445-30.292-1.642-5.349-10.082-5.793-12.136-5.793-12.136s-1.213 13.84-3.122 17.134c-1.858 3.217-3.833 9.426-13.186 12.705-9.354 3.28-18.086 3.691-20.227 7.133-2.137 3.442-1.39 8.254 2.772 8.895 3.142.484 4.621-.282 7.652-3.81 3.03-3.529-3.207 8.526-10.157 8.281-6.949-.244-9-5.409-8.732-10.575.268-5.165 6.682-10.824 13.631-11.561 0 0-14.893-4.84-25.217-12.327-7.247-5.256-13.1-16.86-13.1-16.86s.267-4.017 6.06-2.624c5.793 1.393 4.813 2.212 4.813 2.212s-3.565-5.697-2.495-23.941c0 0 7.394 2.336 7.576 8.894.182 6.559 1.156 11.724 1.156 11.724s1.425-11.312 4.9-18.12c3.474-6.802 13.363-18.038 24.236-21.892 10.869-3.853 28.783-3.279 41.879 3.442 13.096 6.722 36.888 26.81 45.353 28.04 8.454 1.244 28.611 4.734 27.752-16.77z" fill="#C95959"/><path d="M60.773 111.962s1.838 1.393-.515 2.23c-2.354.838-2.793-1.881-1.763-3.341 1.03-1.465 7.278-3.275 12.127 1.671 4.848 4.945 3.085 17.344-3.162 23.893-6.247 6.549-14.257 9.89-14.257 9.89s17.782-3.624 28.514.278c10.728 3.902 25.869 21.595 28.955 21.945 0 0-3.526 3.83-8.818 1.254-5.293-2.576-4.632-3.83-4.632-3.83s2.424 9.962-4.409 15.535c0 0-6.247-3.83-3.894-13.165 0 0-4.777 4.734-9.409-.139 0 0 10.288-8.569.076-16.023-10.212-7.454-27.777-2.997-27.777-2.997s20.212.905 17.49 10.168c0 0-5.884-3.442-11.39-1.809-8.312 2.46-6.762 4.667-6.762 4.667s-5.586-4.251-1.692-9.263c3.894-5.017-1.247-2.997-1.247-2.997s-4.849 1.671-9.04 4.596l-.587-1.044s7.127-4.878 12.273-7.037c5.147-2.159.076-.488.076-.488s-5.879.699-6.394-4.179c-.515-4.879.369-6.061.369-6.061s13.964 4.457 20.944-7.454c6.98-11.911 4.187-15.534 1.177-16.65-3.015-1.115-6.253.35-6.253.35z" fill="#C95959"/><path d="M37.02 152.548s-5.56-16.985 2.915-24.64c6.555-5.922 10.778 0 10.778 0s-2.329 3.797.07 4.558c2.404.761 8.591-2.485 5.243-10.216-3.349-7.732-14.42-4.625-16.096-3.246 0 0 10.621-7.899 10.52-15.434 0 0-10.44-1.91-17.454 13.557 0 0-.152-17.133 8.924-22.552 0 0 1.752-12.72 11.818-22.266 0 0-11.59 9.785-17.858 23.338-6.263 13.548-7.95 36.474 1.14 56.901zm1.486 4.261s7.575 15.247 21.898 26.363c14.324 11.116 19.93 23.022 17.02 27.153-2.904 4.132-7.161.589-8.095-4.232-.935-4.82-.106-10.134-7.475-10.331 0 0 4.566 1.082 4.773 8.953.207 7.87 3.737 13.773 8.197 13.773 4.464 0 9.651-2.854 9.338-11.902-.313-9.052-14.116-20.657-14.116-20.657s5.399 6.396 18.161 2.164c0 0 1.349-8.655-21.585-10.331 0 0 14.843-6.984 4.772-13.576 0 0-.62 10.527-14.01 7.477-13.378-3.049-18.878-14.854-18.878-14.854z" fill="#C95959"/><path d="M36.395 155.32l.58 1.015s-8.545 6.778-6.494 14.256c2.055 7.478 8.303 5.065 8.464 2.26 0 0 8.546 2.413-.495 10.359 0 0 18.985-.857 19.066 11.217 0 0-2.465-3.193-12.823-1.403-10.359 1.791-10.111-2.805-10.111-2.805s0 1.479 3.863 5.376c3.864 3.897 2.712 11.298 2.712 11.298s-.656-2.805-5.424-5.529c-4.767-2.729-13.151-10.125-11.176-20.49 1.974-10.359 4.005-14.443 4.005-14.443s-5.253 7.229-7.334 12.409c-2.075 5.179-4.085 24.429 6.738 30.877 10.823 6.454 17.737 7.085 22.424 2.538 4.686-4.548 1.757-7.684 1.757-7.684s-2.984.536-2.419-2.446c.566-2.983 5.247-3.749 6.94-1.532 1.696 2.216 5.565 11.245-.162 15.295-5.727 4.055-6.374 3.289-6.374 3.289s12.667-2.293 18.641 1.91c5.97 4.208 9.197 9.254 8.717 16.98-.484 7.727-7.585 8.871-7.585 8.871s6.939-4.821 3.55-11.628c-3.389-6.807-25.99-9.943-36.797-16.368-10.652-6.333-22.273-11.738-17.435-36.933 0 0-11.161 28.077 1.202 36.622 12.364 8.545 16.4 3.825 16.4 3.825s.5 13.993-13.213 6.947c0 0 3.904 7.262 14.096 12.197 0 0-1.687-1.886.152-5.955 0 0 4.136 1.015 4.747 7.77 0 0 3.601-9.005 15.858-7.334 0 0-.308 6.319-7.737 10.747 0 0 14.707-1.45 19.838 6.827 0 0-3.444 5.156-15.626.651 0 0 18.692 13.648 11.722 26.21 0 0 3.369-9.005-9.267-15.611-12.642-6.607-10.647-13.069-10.647-13.069s2.374 8.497-5.44 13.212c0 0-5.898-12.853-1.15-16.99 0 0-4.748 1.887-9.652-1.886 0 0 .843-1.522 7.737-1.671 0 0-16.161-9.876-16.853-14.883 0 0 7.045 19.388-4.136 23.525 0 0 1.914-9.441-.46-18.005-2.373-8.57-4.52-18.369-4.52-25.124 0-6.755 1.914-16.19 3.601-22.146 1.697-5.936 12.687-26.483 20.52-32.548z" fill="#C95959"/><path d="M19.668 255.067s4.742.067 8.838 10.556c4.096 10.489 14.227 6.606 15.378 5.721 1.152-.886 4.096-1.978 4.455-8.038 0 0-.515 4.485-4.455 6.812-5.106 3.016-8.98-1.02-10.06-3.337-.995-2.14-3.591-12.873-7.833-13.418-4.238-.546-6.323 1.704-6.323 1.704zm31.929 18.483s2.63 3.256 5.186.144c2.556-3.112-4.01-6.448-6.924-2.877-2.914 3.571-5.161 14.285 2.733 18.431 7.898 4.146 17.797 3.796 35.413-1.848 17.616-5.644 19.318 17.272 10.086 15.085-9.232-2.188-12.151-11.978-12.151-11.978s-1.38 21.61 17.616 25.913c11.414 2.585 10.429 4.687 10.429 4.687s1.601-13.208-11.399-13.208c0 0 11.298-10.25 4.616-19.46-6.682-9.211-18.59-9.675-29.282-5.874-10.692 3.801-20.854 6.602-24.42 3.916-4.403-3.313-5.605-8.1-1.903-12.931z" fill="#C95959"/><path d="M86.015 292.479s.223 28.24 11.369 40.677c12.828 14.31 20.323 22.089 40.358 24.65 20.035 2.561 28.136-3.504 28.136-3.504l-4.772-5.458s-12.379 11.241-33.268 5.314c0 0 8.116-.239 27.399-8.679l-.248-.594s-24.595 10.901-33.373 7.205c-8.778-3.691-9.242-6.099-9.242-6.099s19.823 6.243 29.121-6.625c0 0-7.536-3.734-18.192 1.158 0 0 15.702-20.374-6.101-15.937 0 0 7.934 10.274-3.066 13.941-10.994 3.667-19.025-11.231-19.025-11.231s8.096 4.533 12.227 2.422c2.738-1.398 3.197-4.773 3.197-4.773s-11.747 2.954-16.14-3.71c0 0-5.37-6.003-7-17.339-1.627-11.322-1.38-11.418-1.38-11.418z" fill="#C95959"/><path d="M166.226 365.561s6.268-9.469-5.267-18.933c-11.535-9.465-6.99-2.925-27.424-20.829-20.434-17.905-20.338-29.868-20.884-38.734-.545-8.866 8.081-30.471 8.081-30.471s-3.45 8.694-15.252 14.63c-11.803 5.941-21.793 5.855-27.243-.948-5.449-6.798-3.449-12.394-1.454-15.405 1.995-3.012 6.267-1.982 5.813.258-.455 2.241-2.813 2.408-3.086.69 0 0-1.636 8.866 7.263 10.584 8.899 1.724 22.247-.862 30.055-9.814s14.439-17.646 14.439-17.646-9.353 0-15.98 6.195c-6.626 6.195-7.535 11.619-6.358 13.428 0 0-4.813 2.408-5.54-1.723-.728-4.131.363-5.252.363-5.252s-9.56 10.322-10.828 13.936l-1.338-.076s7.08-10.073 10.444-14.204c0 0-12.44 8.047-16.525-2.581 0 0 10.626.647 25.606-5.553 14.979-6.199 23.878-5.941 23.878-5.941s-7.899 7.229-7.989 16.44c-.091 9.21.727 19.795 10.807 18.507l2.632-.345s.636 9.642-9.172 8.005c-9.808-1.638-10.808-20.313-9.262-23.841 0 0-7.717 16.526-6.177 22.721 1.54 6.194 8.535 14.543 8.535 14.543l-2.449 4.476s-7.445-5.596-7.99-11.877c0 0-.364 14.975 5.268 22.381 5.631 7.401 15.706 15.319 24.423 14.457 8.718-.862 9.718-10.159 5.086-10.671-4.631-.517-1.091-7.573 4.904-6.539 5.995 1.034 7.899 5.165 7.808 11.532-.091 6.367-8.444 12.911-19.161 11.102 0 0 16.343 3.701 22.338 12.136 5.995 8.449 9.449 20.671 1.636 25.362z" fill="#C95959"/><path d="M143.348 311.293s-13.803-1.034-13.53-9.728c.273-8.693 11.439-15.319 19.974-12.738 8.536 2.58 15.98 11.704 16.435 19.278.454 7.573-1.182 20.054-3.45 24.961 0 0 7.445-11.188 9.808-21.088 2.364-9.9 6.086-25.306 10.081-25.909 0 0-5.995-3.442-9.081 1.637-3.086 5.08-2.904 19.882-4.177 20.916 0 0-.091-16.181-10.893-22.208-10.808-6.027-20.52-3.959-24.788-1.465-4.268 2.494-9.626 9.641-8.626 17.129.995 7.497 8.803 11.973 18.247 9.215z" fill="#C95959"/><path d="M132.409 301.661s.45-3.394 3.52-5.213c0 0 11 2.365 13.177 7.578-.005 0-11.646-2.24-16.697-2.365zm39.944 50.611s2.47.187 8.985-3.648c6.515-3.834 9.676-3.557 11.747-1.967 2.071 1.589 2.369 7.018-4.54 8.985-6.909 1.968-8.591.283-10.071 3.275-1.48 2.997.788 5.898 2.864 5.898 2.075 0 2.272-1.776 2.272-1.776s-2.666-.374-2.07-1.872c.591-1.499 5.924-2.528 10.464-1.872 4.541.656 10.763-5.706 11.157-11.231.394-5.524-4.541-12.351-16.884-9.076-12.343 3.274-10.495 5.605-10.616 5.337-.566-1.268 2.419-1.311.445-7.678-1.975-6.367-5.824-6.272-5.824-6.272s1.914 11.207-2.429 11.767c-.005-.004 4.894 6.104 4.5 10.13zm4.697-32.927s3.227.168 3.697-2.116c.469-2.278-3.167-3.839-5.576-1.555-2.404 2.278-2.642 9.124 1.293 12.461 3.929 3.337 7.979 5.395 16.899 4.95 8.919-.445 16.969-7.181 20.464-17.636 3.495-10.456-1.288-23.175-1.288-23.175s8.409 12.255 19.298 14.232c10.889 1.977 10.828-6.032 10.828-6.032s-4.283 4.548-9.954-1.058c-5.667-5.606-6.016-12.945-6.561-15.501-.545-2.556-3.853-7.526-8.853-5.338-5 2.183-4.839 6.377-4.839 6.377s.278-7.004-.439-11.456c0 0-2.611 1.848-3.626 5.304 0 0-2.95-4.17-9.854-6.338 0 0 .788 5.223 6.859 10.446 0 0-9.106-.699-9.187 4.375-.081 5.075 7.025 8.861 8.313 14.898 1.293 6.037 4.621 25.138-12.313 26.991-16.934 1.852-15.161-9.829-15.161-9.829z" fill="#C95959"/><path d="M200.236 260.29s-11.116 11.035-14.1 22.672c-2.985 11.638-2.667 22.486-.904 33.142 1.762 10.657 3.06 11.806 3.06 11.806s6.455.436 9.859-3.389c0 0-4.228-8.546-7.556-12.715 0 0 11.445 2.853 12.061-6.77 0 0-11.859 1.834-13.899-6.371-2.041-8.206-.632-16.363.272-18.781 0 0 1.288 2.518 4.329 4.021 0 0 .005-15.031 5.53-21.03 5.525-5.998 6.197-7.482 6.197-7.482l-4.849 4.897zm-5.217 74.987s12.995 13.759 30.252 3.409c0 0-15.262 1.45-20.873-7.1 0 0-4.606 3.098-9.379 3.691zm23.702-69.951s13.727 5.07 22.297-2.638c1.475-1.326 3.667-1.623 5.516-.823 0 0-5.505 12.102-22.076 6.683-16.57-5.419-18.358-7.751-18.358-7.751l12.621 4.529z" fill="#C95959"/><path d="M206.1 260.802s31.232 15.305 37.691 36.364c5.955 19.422-6.702 30.868-14.121 28.767-7.419-2.102-7.586-5.463-6.672-8.718 0 0 .778 2.738 3.031 2.025 2.252-.713 3.131-2.083 1.843-4.275-1.293-2.193-5.5-3.394-9.237-.771-3.737 2.624-7.046 19.02 8.803 19.776 15.848.757 19.282-14.342 19.282-14.342s6.783 8.842 17.036 1.479c10.252-7.368.747-15.372-.435-14.548-1.182.823-4.025 7.573-7.535 5.754-3.51-1.819-5.404-15.214-12.404-25.009-8.823-12.356-34.343-26.176-37.282-26.502zm37.273 15.774s20.696 3.035 34.898-6.52c14.207-9.551 2.687-16.995 2.687-16.995s-.157 2.351-3.434 1.604c-3.278-.747-3.798-8.612 1.939-10.393 5.732-1.781 11.909 3.064 12.237 7.827.329 4.763-2.808 16.162-8.096 18.809 0 0 10.288-3.681 20.94 4.701 0 0-2.662 7.234-13.111 6.583 0 0 23.908 15.73 15.302 29.451-8.606 13.72-21.53 5.381-21.711-1.633-.182-7.013 4.838-14.002 4.03-17.373-.808-3.37-2.389-4.768-2.389-4.768s6.798 2.236 6.586 9.819c-.207 7.588.954 9.761 3.737 9.12 2.783-.642 2.374-20.935-12.899-23.003-15.272-2.068-32.222-2.762-40.716-7.229z" fill="#C95959"/><path d="M267.71 261.314s.056-9.119 6.47-7.717c6.419 1.408 4.889 11.892 1.237 14.099-3.651 2.207-14.313 1.781-16.01-6.789-1.737-8.755 2.814-15.831 8.606-18.9 5.793-3.068 18.142-5.998 29.566.216 11.429 6.214 18.742 17.708 22.242 24.836 0 0-4.591-9.493 2.818-18.843 0 0 .333 6.052 3.823 10.279 3.49 4.222 2.096 17.516 2.096 17.516s.222-10.939 9.687-12.447c0 0-7.333 41.702-33.697 56.212-26.363 14.51-52.812 2.791-52.812 2.791s31.676 14.041 59.181-12.274c5.278-5.051 7.278-12.529 4.692-19.207-1.51-3.897-4.323-6.884-9.535-5.472 0 0-5.288-4.04 1.641-8.229 6.929-4.189 10.555 2.035 10.555 2.035s-10.54-11.126-14.813-18.991c-4.272-7.866-11.893-20.356-24.464-19.274-12.57 1.082-16.03 9.642-16.136 11.38-.106 1.742-1.232 6.62 4.853 8.779z" fill="#C95959"/><path d="M288.645 267.643l2.398.038 10.955-5.936-.798-1.632-12.555 7.53zm23.469-17.713l1.222 1.216s15.086-13.466 21.687-30.385c6.606-16.918 5.636-43.157 6.959-47.594 1.324-4.438 4.511-8.919 7.475-8.689 2.965.23 5.263 4.303 2.647 10.881-2.617 6.578-8.258 10.216-8.687 18.556-.429 8.339 7.358 6.726 7.358 6.726s-3.762-2.763-1.727-9.283c2.035-6.515 9.323-9.68 11.025-15.831 1.702-6.152.091-11.088-3.04-13.232 0 0 5.732-1.187 7.121-8.191 0 0-15.217-5.664-23.586 6.429-8.368 12.097-4.015 25.085-4.015 25.085s-.707-12.538-12.737-9.148c0 0-1.98 6.118 1.399 11.676s5.01 6.166 5.01 6.166-8.227-8.727-16.207-.508c-7.98 8.22 2.758 10.087 6.859 8.292s9.555 3.207 9.979 9.488c.425 6.276 2.046 15.276-8.161 26.196 0 0 6.192-22.577-4.596-31.016-9.672-7.569-18.47-7.962-21.202-2.614-2.732 5.347.945 7.693 3.929 7.793 2.985.096 3.364-4.729.44-6.309 0 0 4.641 2.604 8.49 8.894 3.848 6.296 7.919 6.798 7.919 6.798s-10.874-3.403-12.394 4.529c-1.515 7.933 2.035 8.732 4.212 8.268 2.49-.537 2.283-3.102 2.283-3.102s6.833 2.609 5.803 8.028c-1.031 5.419-5.465 10.881-5.465 10.881z" fill="#C95959"/><path d="M252.584 204.686s9.656 10.158 23.591 13.241c13.939 3.083 20.747 7.914 17.696 11.102-3.05 3.184-8.045.709-12.525-4.203-4.479-4.912-9.176-7.502-14.217-4.759-5.04 2.743-.293 9.47 2.874 9.733 3.167.263 3.909-4.629 3.909-4.629s3.151 3.561 7.318 8.722 11.955 5.673 15.682 4.605c3.727-1.067 8.575-7.492 6.146-16.272-2.429-8.779-21.439-11.412-25.015-11.982 0 0 11.005-.211 25.414-14.304 14.409-14.094 21.934-28.643 29.692-30.744 0 0-.217-4.438-8.233-3.672 0 0 4.258-14.702 9.142-22.538 4.884-7.837 18.515-8.019 19.505-1.01.989 7.013-3.268 5.342-3.268 5.342s.52-4.256-2.914-3.945c-3.434.312-3.985 4.927-2.662 6.947 1.323 2.02 10.106 3.825 12.419-2.073 2.308-5.903-2.03-18.924-16.08-15.554-14.051 3.37-20.899 25.621-20.899 25.621s2.076-4.725-2.621-12.523c0 0-4.288 5.496-4.556 17.9 0 0-4.389-7.057-8.949-1.341 0 0 7.924 9.737 3.187 21.409-4.733 11.671-17.323 26.516-27.934 28.144 0 0 15.439-8.871 19.08-22.309 3.637-13.437 1.303-20.92 3.303-27.56 2-6.64 8.217-20.7 24.121-20.934l5.844-5.965s-14.036-4.989-22.339 3.04c-8.302 8.033-10.858 16.539-10.858 16.539s-.056-3.47-3.116-7.19c0 0-7.293 5.247-6.066 17.895 1.228 12.648 4.02 12.399 4.01 15.266 0 0-7.545-9.708-11.388-3.576-3.844 6.133 1.242 7.033 1.242 7.033s1.606-2.375 3.616.421 6.081 13.289-.359 18.847c-6.439 5.558-8.419 5.156-12.277 6.028 0 0 10.924-7.636 4.894-16.741-6.03-9.106-9.465 1.302-9.465 1.302s6.136.344 5.359 4.954c-.773 4.62-5.94 13.984-22.303 9.733z" fill="#C95959"/><path d="M335.548 140.666l3.661-4.055s4.642 4.309 3 11.289c-1.641 6.979-9.03 8.521-9.373 5.242-.339-3.28 3.222-4.113 4.878-1.369 0 0 2.52-2.581 1.323-5.98-1.196-3.399-3.489-5.127-3.489-5.127zm-88.913 118.623s9.707 5.975 2.409 11.207c-7.298 5.233-13.045 4.002-13.045 4.002s7.818 2.94 15.959-1.254c8.136-4.189 3.298-12.892-5.323-13.955zm10.08 49.783s.333-12.452 10.455-10.163c10.116 2.288 8.57 14.587 4.494 18.249 0 0 8.601-.522 8.601-13.534 0 0 9.768-5.28 1.086-15.07 0 0-.384 11.791-9.075 5.127-8.692-6.659-17.44 6.056-15.561 15.391z" fill="#C95959"/><path d="M240.816 280.382s13.758 10.465 13.273 21.116c0 0 5.121-13.686 16.03-15.826-.005 0-21.116-.393-29.303-5.29zm98.298-50.103s-12.824 3.284-12.465 15.338c.359 12.059 10.783 11.93 14.348 8.349 2.031-2.04 2.485-9.326-6.181-7.722-.005 0-5.551-9.455 4.298-15.965zm-261.31-4.534s13.787 4.041 12.207 12.078c0 0-4.278-.756-4.606 2.226-.329 2.983 3.1 6.425 8.308 2.763 5.207-3.663.838-15.985-15.91-17.067zm-13.329 42.224s6.833 10.335.975 13.988c-5.859 3.653-4.758-2.786-2.823-3.447 1.934-.66 2.777.407 2.777.407s4.91-2.14-2.232-11.403l1.303.455zM192.59 52.753s-4.293.479-3.758-2.523c.536-3.001 4.465-3.738 5.48-2.101 1.015 1.637 4.748 8.224-3.52 14.079-8.268 5.86-20.727-5.994-23.02-9.029-2.288-3.03-4.555-11.58-3.51-17.488 0 0-1.48 9.9-13.54 8 0 0 4.687-9.22 7.469-14.912 2.783-5.692 12.359-12.768 13.485-13.625 0 0-22.207 9.814-31.616 23.984l-1.434-.646s19.207-20.336 35.454-26.775 23.384-7.468 33.464-8.057c10.081-.589 22.859 2.633 28.737 6.29 4.015 2.5 14.616 10.6 17.515 15.195 2.899 4.596 8.339 19.915 6.576 29.671-1.763 9.752-7.394 18.996-13.914 23.041 0 0 6.192-4.973 6.061-19.622-.132-14.65-2.96-15.645-3.415-18.924-.454-3.28.324-11.37.324-11.37s-4.515 11.384-12.399 11.982c-7.884.604-8.97-4.145-8.97-4.145s5.455 2.93 7.859-.991c2.404-3.921 1.601-9.005 2.075-11.246.475-2.235 3.293-4.145 6.5-3.466 0 0-8.479-9.387-13.853-11.235-5.369-1.848-15.439-4.26-20.333-2.437-4.894 1.824-15.757 9.048-13.005 17.78 2.753 8.732 10.626 11.13 15.298 10.336 4.677-.795 10.788-5.884 10.894-10.805.106-4.921-4.803-6.492-8.995-5.994-4.192.498-3.293 4.146-7.283 5.166-3.99 1.02-5.924.76-5.924.76s6.475-5.313 9.929-8.75c3.455-3.438 12.565-4.4 15.565.215s5.041 11.279.783 16.995c-4.257 5.716-12.101 10.584-19.55 8.167-7.449-2.418-13.975-6.707-14.318-11.997 0 0 4.298 11.82-9.783 16.913 0 0-.479-10.062 1.051-16.271 1.53-6.21 3.788-11.902 8.373-15.717 4.586-3.815 15.5-8.32 15.5-8.32s-17.823.536-24.606 4.825c-6.782 4.29-9.939 11.753-7.908 15.51 2.03 3.759 4.368 3.117 4.368 3.117s2.606 7.45-2.151 8.134c-4.758.685-7.005-2.049-7.005-2.049s3.101 4.63 2.914 9.44c-.187 4.812 3.464 16.708 8.565 16.861 5.121.134 9.909 1.781 9.571-7.966z" fill="#C95959"/><path d="M204.277 73.05l-3.03-.31s-5.122-9.374-1.809-17.56c3.314-8.186 9.223-10.082 14.985-10.92 0 0-13.177 1.882-13.858 14.257-.687 12.375 3.712 14.534 3.712 14.534zm56.333-43.008s6.626 6.779 6.838 14.53c.278 10.23.212 18.114 2.485 20.948 0 0-6.748-6.53-10.187-.694-3.434 5.836-.076.924 1.606 5.482a109.097 109.097 0 012.778 8.698s2.045-.833 7.727.532c5.682 1.36 6.06 4.093 6.06 4.093s8.01-11.667 10.824-12.993c0 0 .272-5.28-4.233-6.17-4.505-.891-6.863 3.437-6.863 3.437s2.151-14.142-1.763-21.524C271.968 39 260.61 30.042 260.61 30.042zm-8.884 85.256l.181 1.776s15.909-18.004 19.586-23.376l-7.449.484c0 .004-8.531 17.871-12.318 21.116zm-22.748 19.255s13.935-8.043 16.914-8.019l-2.03-2.906-16.702 11.183 1.818-.258zm24.051-14.52l2.02 2.633s15.338-8.89 19.783-10.781c4.439-1.891 12.166-4.983 16.363-5.266 0 0 1.576-1.714.278-4.696-1.293-2.983-8.535-2.35-8.535-2.35s11.979-5.501 16.893-9.781c4.914-4.285 9.601-10.326 14.343-11.547 0 0-10.055-2-22.969 6.358-12.914 8.358-38.176 35.43-38.176 35.43zm-138.514-59.63s-.586 6.544-11.505 8.933c-10.924 2.394-14.6 8.656-12.858 11.408 1.742 2.753 5.343 4.074 8.414 2.317 3.071-1.757 11.742-10.115 16.914-15.975 5.172-5.86 19.692-23.481 19.692-23.481l-4.819 9.857s5.753-1.978 7.778-.24c1.445 1.235 3.172 2.059-3.656 12.643-6.823 10.585.661 13.955 4.394 14.62 3.732.666 6.853-1.354 8.247-9.11 0 0-2.657 4.003-5.182.159-2.53-3.845 1.743-6.607 5.041-5.204 3.297 1.403 2.206 16.267-6.647 16.18-8.853-.086-13.586-5.816-14.015-11.59-.429-5.773.303-13.782.303-13.782S115.758 78.671 105.45 84.43c-10.303 5.76-14.834 7.665-16.147 10.685 0 0-.843-5.85 3.324-8.09 0 0-9.495 1.695-9.874-4.337-.374-6.037.848-12.193 8.323-14.525 7.475-2.331 22.434-1.967 23.439-7.76zM23.94 194.02s1.182 9.785 4.283 12.715c3.101 2.93 6.369 4.548 11.525 4.567 0 0 2.617-1.824-2.394-3.624-5.01-1.8-6.065-1.527-9.181-4.634-2.47-2.461-4.233-9.024-4.233-9.024z" fill="#C95959"/></svg>