<svg width="381" height="374" fill="none" xmlns="http://www.w3.org/2000/svg"><path d="M253.727 65.855s15.17-7.725 19.001-20.483c3.826-12.758 1.623-16.473-.733-26.558 0 0 13.585 20.005 34.19 30.39 0 0-22.827-2.587-31.662.974 0 0 5.172 20.204 12.829 30.588 0 0-12.68-13.685-33.625-14.91z" stroke="#D1AC0B" stroke-width="3" stroke-miterlimit="10"/><path d="M279.954 89.596s24.273 9.264 31.111-7.6c6.834-16.86-9.663-17.81-11.55-16.387 0 0 2.591 4.512-1.178 6.413-3.768 1.901-8.485-3.561-4.712-7.6 3.769-4.039 24.982-9.737 22.392 14.486 0 0 18.699-5.54 16.745 10.76 0 0-10.132-10.21-22.932-1.255-12.8 8.956-13.868 19.171-13.868 19.171s-5.344-12.333-16.008-17.988z" stroke="#D1AC0B" stroke-width="3" stroke-miterlimit="10"/><path d="M335.956 95.043s-.178-10.031 10.668-11.822c0-.004-18.134-8.96-10.668 11.822zm-18.134-45.502s7.642 12.72 3.376 19.885c0 0 10.487-3.764 15.29 1.254.004 0-5.689-14.514-18.666-21.139zm-109.084-4.005s11.89-45.835 26.802-31.19c0 0 13.082 12.632-24.57 30.172-.723.338-1.466.675-2.232 1.018z" stroke="#D1AC0B" stroke-width="3" stroke-miterlimit="10"/><path d="M212.512 33.743S219.465 20.45 227.423 21c6.177.43 5.095 10.843-1.321 15.026" stroke="#D1AC0B" stroke-width="3" stroke-miterlimit="10"/><path d="M210.975 44.518s50.926 8.59 47.311-19.605c-2.217-17.265-25.998 6.109-25.998 6.109" stroke="#D1AC0B" stroke-width="3" stroke-miterlimit="10"/><path d="M211.295 44.634s10.171 6.2 20.859 10.277c7.384 2.814 15.013 4.614 19.715 2.66 12.048-5.014 7.355-16.494-2.203-16.02" stroke="#D1AC0B" stroke-width="3" stroke-miterlimit="10"/><path d="M228.376 33.955s18.833-10.842 23.962-4.695c4.808 5.762-4.789 14.273-14.749 15.832" stroke="#D1AC0B" stroke-width="3" stroke-miterlimit="10"/><path d="M240.884 44.552s12.23 1.944 7.796 7.498c-4.435 5.55-16.526 2.862-16.526 2.862m86.506 179.944s45.486 11.981 30.953 27.007c0 0-12.537 13.183-29.943-24.758-.33-.729-.67-1.477-1.01-2.249z" stroke="#D1AC0B" stroke-width="3" stroke-miterlimit="10"/><path d="M330.363 238.663s13.193 7.006 12.647 15.026c-.427 6.225-10.76 5.134-14.912-1.332" stroke="#D1AC0B" stroke-width="3" stroke-miterlimit="10"/><path d="M319.675 237.109s-8.447 51.882 19.456 47.674c12.551-1.891-6.062-26.196-6.062-26.196" stroke="#D1AC0B" stroke-width="3" stroke-miterlimit="10"/><path d="M319.56 237.433s-6.153 10.249-10.2 21.019c-2.791 7.44-4.578 15.127-2.638 19.865 4.975 12.141 16.367 7.412 15.903-2.219" stroke="#D1AC0B" stroke-width="3" stroke-miterlimit="10"/><path d="M330.153 254.645s10.76 18.977 4.659 24.145c-5.718 4.845-14.165-4.825-15.711-14.862" stroke="#D1AC0B" stroke-width="3" stroke-miterlimit="10"/><path d="M319.637 267.248s-1.93 12.324-7.442 7.856c-5.507-4.469-2.839-16.652-2.839-16.652m-151.223 73.107s-14.634 40.644-26.96 26.071c0 0-10.832-12.589 24.843-25.332.69-.246 1.394-.493 2.117-.739z" stroke="#D1AC0B" stroke-width="3" stroke-miterlimit="10"/><path d="M153.717 341.953s-7.427 11.494-14.614 10.316c-5.579-.912-3.726-10.282 2.456-13.539" stroke="#D1AC0B" stroke-width="3" stroke-miterlimit="10"/><path d="M156.021 332.298s-45.559-12.126-44.625 13.8c.57 15.88 24.13-3.344 24.13-3.344" stroke="#D1AC0B" stroke-width="3" stroke-miterlimit="10"/><path d="M155.733 332.162s-8.72-6.499-18.096-11.107c-6.474-3.185-13.254-5.467-17.693-4.087-11.364 3.532-8.06 14.36.665 14.746" stroke="#D1AC0B" stroke-width="3" stroke-miterlimit="10"/><path d="M139.323 340.418s-18.019 8.256-22.166 2.235c-3.888-5.641 5.54-12.566 14.725-13.135" stroke="#D1AC0B" stroke-width="3" stroke-miterlimit="10"/><path d="M128.841 329.726s-10.951-2.804-6.46-7.475c4.492-4.666 15.257-1.196 15.257-1.196M56.151 156.783s-46.755-4.999-34.612-22.042c0 0 10.44-14.92 33.28 19.972.437.671.882 1.361 1.332 2.07z" stroke="#D1AC0B" stroke-width="3" stroke-miterlimit="10"/><path d="M44.017 154.785s-14.084-4.941-14.735-12.951c-.503-6.219 9.874-6.697 14.94-.931" stroke="#D1AC0B" stroke-width="3" stroke-miterlimit="10"/><path d="M54.815 154.708s.819-52.026-26.308-44.209c-16.612 4.787 9.878 24.985 9.878 24.985" stroke="#D1AC0B" stroke-width="3" stroke-miterlimit="10"/><path d="M54.882 154.37s4.569-11.059 6.968-22.317c1.657-7.778 2.284-15.648-.34-20.039-6.719-11.252-17.282-4.864-15.39 4.589" stroke="#D1AC0B" stroke-width="3" stroke-miterlimit="10"/><path d="M41.852 138.949s-13.456-17.145-8.188-23.176c4.932-5.651 14.72 2.634 17.736 12.328" stroke="#D1AC0B" stroke-width="3" stroke-miterlimit="10"/><path d="M50.38 124.902s.082-12.478 6.192-8.888 5.277 16.039 5.277 16.039m122.032-81.117s19.494 1.312 24.354-25.415c4.228-23.258-20.639-26.505-32.284-21.492-10.708 4.608-15.362 17.294-4.755 18.153 15.807 1.279 5.478-14.23 5.478-14.23s1.058-1.182 4.52-2.007c10.123-2.408 21.429 10.075 16.717 25.183s-14.03 19.808-14.03 19.808zM140.205 3.035s1.46 50.728-10.942 62.309c0 0 25.269-13.183 17.502-39.698-7.767-26.51-6.56-22.61-6.56-22.61z" stroke="#D1AC0B" stroke-width="3" stroke-miterlimit="10"/><path d="M189.301 20.744s-22.717 30.365-41.727 6.075l-7.37-23.784s5.746 19.813 18.264 24.484c12.522 4.67 26.428-3.735 30.833-6.775z" stroke="#D1AC0B" stroke-width="3" stroke-miterlimit="10"/><path d="M148.388 36.281s5.329 16.117 14.72 17.405c0 0-5.215-17.284-7.997-19.972m62.84 338.117s3.549-41.02 14.62-49.179c0 0-21.587 8.237-17.799 30.336 3.792 22.1 3.179 18.843 3.179 18.843z" stroke="#D1AC0B" stroke-width="3" stroke-miterlimit="10"/><path d="M180.036 352.921s21.136-22.327 34.19-.951l3.725 19.861s-2.786-16.507-12.44-21.453c-9.654-4.946-21.645.511-25.475 2.543z" stroke="#D1AC0B" stroke-width="3" stroke-miterlimit="10"/><path d="M214.456 344.269s-2.797-13.491-10.243-15.417c0 0 2.595 14.423 4.587 16.85M132.016 17.24s-13.619-7.821-27.238 8.261c-13.619 16.083.733 34.525-6.005 41.609-6.737 7.083-11.277 4.28-11.277 4.28s7.322-2.953 1.906-6.934c-5.416-3.986-8.638.589-6.148 5.901 2.49 5.313 12.886 7.528 16.985 3.542 4.099-3.986 8.93-7.378 9.222-19.624 0 0 15.961 2.803 19.183-10.626 3.223-13.428 1.906-24.343 1.906-24.343s-8.198 27.147-16.544 23.016c-8.347-4.13 3.366-25.525 18.01-25.081zM49.203 63.366s9.577-7.359 18.493-3.06c0 0-4.932-12.328-.852-17.009 0 0-10.832 7.745-17.641 20.069zM87.55 48.475s-6.403-2.476-4.483-10.544c1.92-8.067-6.618-8.39-5.765-.97.852 7.427 10.247 11.514 10.247 11.514z" stroke="#D1AC0B" stroke-width="3" stroke-miterlimit="10"/><path d="M71.69 65.445C66.57 43.67 87.558 45.17 87.558 45.17c-8.529.144-13.509 15.614-8.103 27.933C84.858 85.422 99.41 84.935 99.41 84.935l-13.839 15.141s2.845-22.017-12.292-24.657c-15.136-2.64-12.972 9.979-12.972 9.979s4.075-2.118 5.042 1.457c.968 3.576-3.998 9.019-7.954 2.384-2.758-4.628-5.018-18.8 3.946-23.282 8.85-4.425 16.18 3.03 18.115 7.146" stroke="#D1AC0B" stroke-width="3" stroke-miterlimit="10"/><path d="M29.138 97.635s15.19-9.907 28.77 2.518 13.58 22.867 13.58 22.867l3.932-33.854s-13.882 11.118-21.027 5.897C47.243 89.842 45.4 73.86 45.4 73.86S32.356 93.263 29.138 97.635zM337.244 292.32s-15.525 9.366-28.664-3.527c-13.145-12.893-12.786-23.33-12.786-23.33l-5.1 33.695s13.116-12.155 20.079-6.683c6.962 5.472 9.395 23.031 9.395 23.031s14.222-20.011 17.076-23.186zM98.362 342.682s-6.9-15.267 6.153-26.052c13.054-10.784 22.492-9.375 22.492-9.375l-30.058-8.17s9.678 13.338 3.998 19.191c-5.679 5.853-21.869 6.287-21.869 6.287s16.693 15.161 19.284 18.119zM11.66 193.474s.306-7.865 9.893-7.262c5.861.372 7.988 13.434-3.175 13.289-11.162-.145-23.45-20.059-8.356-35.046 14.237-14.143 44.386-4.946 43.514 20.913 0 0-21.616-23.509-37.5-13.989-15.883 9.521-4.376 22.095-4.376 22.095zm352.606 4.309s3.845 9.048-5.43 6.529c-9.276-2.519-8.74-17.279 2.164-14.867 10.904 2.413 16.09 22.785 3.026 38.038-13.063 15.253-51.252-5.945-38.423-29.343 0 0 16.98 28.783 33.922 21.338 14.021-6.157 4.741-21.695 4.741-21.695zM8.146 217.905s45.644 6.2 55.963 20.599c0-.005-5.358-33.599-55.963-20.599z" stroke="#D1AC0B" stroke-width="3" stroke-miterlimit="10"/><path d="M53.546 200.5s-9.812 15.793-15.261 14.968c0 0-5.588-.685-8.586-.685s5.583-10.712 23.847-14.283z" stroke="#D1AC0B" stroke-width="3" stroke-miterlimit="10"/><path d="M22.066 175.92s23.847 27.19-8.179 40.648c0 0 13.355-1.92 15.807-1.785 0 0 0-3.706 6.268-7.827.005 0 11.723-21.149-13.896-31.036zM373 169.507s-44.821-10.678-53.689-26.028c0 0 2.063 33.966 53.689 26.028z" stroke="#D1AC0B" stroke-width="3" stroke-miterlimit="10"/><path d="M326.125 182.342s11.301-14.746 16.645-13.39c0 0 5.492 1.235 8.476 1.53 2.988.299-6.599 10.109-25.121 11.86z" stroke="#D1AC0B" stroke-width="3" stroke-miterlimit="10"/><path d="M351.485 211.024s-17.507-30.525 15.673-40.754c0 0-13.48.593-15.908.212 0 0-.359 3.691-7 7.17 0 0-17.301 21 7.235 33.372zM19.973 225.577s-6.378 13.598 1.336 27.051c7.71 13.448 33.663 7.918 39.597 10.162 5.933 2.243 9.045 6.876 5.784 8.965 0 0-2.519-4.483-6.378-2.393-3.855 2.094-.594 8.068 3.706 7.768 4.3-.299 13.346-8.965 1.188-19.277-12.159-10.311-29.953-6.649-36.83-13.153-5.214-4.927-10.065-12.353-8.403-19.123z" stroke="#D1AC0B" stroke-width="3" stroke-miterlimit="10"/><path d="M15.3 227.864s20.834 1.443 26.739 8.541c7.81 9.385 4.793 13.834 4.793 13.834l-8.845-1.452S36.35 229.606 15.3 227.864zm20.14 59.033s7.504 8.328 10.937-.386c3.434-8.715 2.543-12.43 2.543-12.43s-7.12 12.816-13.48 12.816z" stroke="#D1AC0B" stroke-width="3" stroke-miterlimit="10"/><path d="M81.99 267.673s2.418 14.225-10.176 18.326c-12.594 4.102-24.676-5.124-21.62-12.174 0 0-5.598 16.531 1.652 19.991 7.25 3.46 13.355-.897 13.355-.897s-3.807 9.568 3.433 14.997c6.843 5.129 17.933 1.795 19.969-3.46 2.035-5.255-.254-7.306-4.195-7.306-3.941 0-3.18 6.664-3.18 6.664s-11.957-1.901-11.286-10.012c.373-4.493 6.455-10.621 13.829-10.751 7.374-.13 13.863 2.051 13.863 2.051L81.99 267.673zm-37.48 31.789s7.422 4.782 14.648.188c0 0-4.377 10.288.005 16.676 0 0-13.111-13.071-14.653-16.864zm233.533 48.286s9.362-6.128 1.379-10.939c-7.987-4.811-11.77-4.526-11.77-4.526s11.411 9.144 10.391 15.465z" stroke="#D1AC0B" stroke-width="3" stroke-miterlimit="10"/><path d="M266.68 298.366s14.322-.121 16.319 13.057c1.997 13.183-8.978 23.721-15.395 19.552 0 0 15.295 8.218 19.849 1.564 4.553-6.654 1.264-13.429 1.264-13.429s8.763 5.317 15.237-1.008c6.12-5.984 4.635-17.55-.187-20.416-4.822-2.866-7.441.005-7.829 3.001-.508 3.942 8.284 4.232 8.284 4.232s-6.048 11.59-13.882 9.621c-4.343-1.09-9.371-8.12-8.313-15.479 1.058-7.359 4.233-13.458 4.233-13.458l-19.58 12.763z" stroke="#D1AC0B" stroke-width="3" stroke-miterlimit="10"/><path d="M291.805 340.742s5.876-6.616 2.533-14.539c0 0 9.376 6.003 16.334 2.673 0 0-14.902 10.944-18.867 11.866zm21.109-241.785s.56 5.09 5.238 3.204c4.674-1.887.934-10.553-5.425-7.161-6.359 3.392-11.402 26.742 19.293 27.408 0 0-10.674 20.734 11.105 28.136 21.783 7.402 26.088 3.32 26.088 3.32s-30.647-3.827-27.353-23.48c0 0 3.506-8.058 11.694 1.09 8.189 9.149 8.72 29.415 8.72 29.415s11.517-40.58-10.678-47.712c-22.195-7.132-37.16 4.063-39.516-6.099-1.551-6.698.834-8.121.834-8.121zm-45.583 210.614s-3.979 1.302-1.695 4.791c2.284 3.489 8.605-.994 4.832-5.602-3.774-4.603-23.306-4.825-18.733 20.242 0 0-18.374-5.231-20.677 13.709-2.303 18.939 1.681 21.757 1.681 21.757s-2.031-25.55 14.251-26.139c0 0 7.034 1.511 1.072 9.685-5.962 8.178-22.099 11.981-22.099 11.981s34.401 2.615 36.422-16.614c2.02-19.228-9.434-29.535-1.686-33.135 5.095-2.384 6.632-.675 6.632-.675zm-80.434 13.481s-29.263 27.196-10.764 43.423c4.19 3.677 10.501 5.704 18.45-1.24 0 0-9.984-.415-7.662-7.445 2.323-7.031 14.117-10.877 14.117-1.839s-12.455 18.071-27.568 14.389c-15.112-3.681-18.431-19.576-13.619-29.955 4.818-10.37 16.397-17.096 27.046-17.333zm42.738-129.814s13.317 16.883 6.307 32.368c0 0 10.242 1.356 10.515-9.236.269-10.591-16.822-23.132-16.822-23.132zm23.455-30.332s5.167 30.665-21.463 30.882c0 0 21.08 9.583 25.174-4.492 4.903-16.85-3.711-26.39-3.711-26.39z" stroke="#D1AC0B" stroke-width="3" stroke-miterlimit="10"/><path d="M270.18 213.832s-6.919-16.034-36.671-18.823c0-.005 16.085 21.086 36.671 18.823zM137.556 189.32s-25.044-3.827-23.641-29.632c0 0-7.183 17.004.062 24.691 7.246 7.682 23.579 4.941 23.579 4.941zm2.955 34.848s-18.877-15.257-.206-34.385c0 0-20.735 10.273-15.654 24.016 3.208 8.671 15.86 10.369 15.86 10.369z" stroke="#D1AC0B" stroke-width="3" stroke-miterlimit="10"/><path d="M106.182 204.635s14.121 2.606 37.116-16.623c0 0-30.226 4.005-37.116 16.623zm9.677 28.175s12.934-1.587 9.659 10.032c-4.779 16.961 2.155 25.477 15.256 27.441 13.102 1.964 14.213 1.626 14.213 1.626s-24.317-1.544-21.42-15.74c1.341-6.562 16.626 9.101 16.444 14.727 0 0 5.134-13.433-1.8-18.968s-14.864-2.997-14.864-2.997 5.114-17.264-12.067-19.967c-11.99-1.881-14.682 5.265-12.522 8.261 2.164 2.992 8.241 3.518 7.101-4.415zm140.315-1.578s-13.016.873-9.74 12.498c4.779 16.96-2.155 25.477-15.257 27.441-13.101 1.964-14.212 1.626-14.212 1.626s23.454-1.428 20.557-15.629c-1.341-6.562-15.764 8.985-15.582 14.611 0 0-5.133-13.434 1.801-18.968 6.934-5.535 14.863-2.997 14.863-2.997s-5.114-17.265 12.068-19.967c11.99-1.882 14.681 5.265 12.522 8.261-2.165 2.997-8.165 1.062-7.02-6.876zm-91.649 44.137l21.611 7.127c3.649.497 7.341-.367 10.439-2.379 3.64-2.364 9.29-5.216 15.692-5.525 0 0-12.752-5.037-18.972 1.1 0 0 3.247-5.829-1.518-11.696 0 0-8.662 6.393-6.014 11.996 0-.005-4.597-7.513-21.238-.623zm-67.533-76.447s.053-10.833 16.267-8.338c0 0-21.396-22.24-6.757-42.665 0 0-15.089 14.524-9.007 29.502l5.856 8.169c0 .005-9.792-1.018-6.359 13.332zm24.154-79.265s-11.962 10.08-4.568 29.362c.005 0 10.223-16.435 4.568-29.362zm32.184.878s-16.746 13.366-29.575-.656c0 0 16.09-10.519 29.575.656zm66.106-.221s16.961 12.927 35.881 3.942c-.005.005-9.573-10.514-35.881-3.942zm38.706 36.155s11.306-14.461.651-31.113c0 0-8.701 12.927-.651 31.113zm4.128 36.373s17.832 1.313 17.396 13.583c0 0 5.033-15.296-8.916-16.212 0 0 16.525-21.912-1.738-31.114 0 0 5.435 30.457-6.742 33.743zm-119.538-90.7s24.269 7.759 46.244-12.614c.004.005-22.861 37.483-46.244 12.614z" stroke="#D1AC0B" stroke-width="3" stroke-miterlimit="10"/><path d="M184.618 111.425s-4.865-13.694 6.374-24.68c0 0 1.844 18.934-6.374 24.68z" stroke="#D1AC0B" stroke-width="3" stroke-miterlimit="10"/><path d="M236.459 104.491s-23.076 1.916-46.267-17.858c-.005 0 8.691 35.842 46.267 17.858z" stroke="#D1AC0B" stroke-width="3" stroke-miterlimit="10"/><path d="M113.963 270.66s.665 12.714 4.817 17.568c4.152 4.855 16.271-1.838 18.929 2.843 2.658 4.685 0 8.367-1.824 8.367-1.825 0 8.911 3.189 8.911-3.084s-1.886-4.926-1.886-4.926 7.221 1.23 5.219 5.819-2.887 4.251-2.887 4.251 6.555 1.341 6.996-2.017c0 0 6.11 8.729 15.773 8.396 9.663-.333 10.664-7.05 14.553-5.486 3.888 1.568 5.775 6.938 2.332 7.276 0 0 6 1.679 6-3.247 0-4.927-5.33-5.371-5.33-5.371s13.662.338 9.888 8.058c0 0 3.554-1.008 3.443-5.148 0 0 3.889 4.926 13.772 3.696 9.889-1.23 7.887-9.067 10.554-9.289 2.668-.222 7.997.449 6.996 5.371 0 0 6.666-5.371 2.112-6.828-4.554-1.457-6.886-1.457-6.886-1.457s4.664-4.251 9.333-1.901c4.664 2.35 2.442 6.379 2.442 6.379s4.219-2.128 3.999-6.046c0 0 9.998 1.79 13.441-4.14 3.443-5.931 1.667-10.298 5.885-10.968 4.219-.671 5.33 3.02 5.33 3.02s3.778-6.046.776-6.157c-3.003-.111-7.221.782-8.332 2.128-1.111 1.342 8.997-10.186 12.33-2.35 0 0 4.219-1.568.891-5.259 0 0 6.776 0 14.998-8.058 0 0 2.997-3.808 3.778-12.874 0 0 .335-3.696 4.333-2.461 3.999 1.23 2.558-2.017 2.558-2.017s-2.778-2.799-6.441.338c0 0 2.667-5.931 7.111-4.251 0 0 1.331-6.939-6.11-.56 0 0 6.886-5.038 7.441-12.198.556-7.166-2.442-15.224-.11-18.805 2.332-3.58 7.667-5.819 9.774-3.696 0 0-1.777-3.136-6.331-2.461 0 0 5.33-4.588 5.33-14.215 0-9.626-7.887-13.096-5.885-16.454 2.001-3.358 4.999-1.79 4.999-1.79s-1.221-3.581-4.774-2.799c-3.554.782-2.668 4.029-2.668 4.029s-1.666-7.609 3.668-9.404c5.335-1.795 4.334-.898 4.334-.898s-1.221-3.358-4.889-2.128c-3.668 1.231-4.334 3.47-4.334 3.47s4.334-13.994 1.557-18.694c-2.778-4.699-11-9.177-9.443-13.766 1.556-4.589 3.553-4.589 3.553-4.589s-3.333-2.461-6 1.009c-2.668 3.469-.666 5.486-.666 5.486s-4.554-8.285 2.002-12.985c0 0-5.886 1.231-5.886 5.486 0 4.252-.11-19.141-6.996-21.38-6.886-2.239-16.774-4.367-14.552-9.067 2.222-4.7 4.219-6.49 4.219-6.49s-5.885-.222-7.667 1.008c-1.776 1.23-1.666 6.717.776 8.845 0 0-7.111-4.478-5.555-10.968s-2.997-3.02-3.888-1.457c0 0-3.553-6.268-12.996-6.606-9.443-.337-12.551-4.198-11.44-10.075 0 0-3.443 4.647-1.331 7.445 2.111 2.8 4.333 3.248 4.333 3.248l-4.664-.67s-9.663-8.059-5.554-11.417c0 0-4.444.56-2.558 6.268 1.887 5.708 6.111 5.93 6.111 5.93s-8.107-3.136-12.551-8.729c-4.444-5.593-11.818-10.447-23.804-1.549 0 0-7.389 1.998-6.489-6.538 0 0-1.441.27-2.073 2.451 0 0-2.165 0-2.165 2.36s4.415 2.634 4.415 2.634-8.83 3.18-9.189-2.905c-.359-6.084 1.082-5.356 1.082-5.356s-4.597 1.815-3.423 6.085c1.173 4.266 3.605 6.355 13.336 4.357 0 0-6.575 3.996-15.946-1.182-9.371-5.177-12.613-2.905-16.219.729-3.606 3.633-8.016 11.986-13.695 9.076-5.675-2.905-4.056-6.263-4.056-6.263s-3.424 7.624 2.073 8.26c5.498.638 7.48-.636 7.48-.636s-4.774 6.9-10.903 3.633c-6.125-3.267-4.957-7.624-4.957-7.624s-3.242 3.812-1.173 6.625c2.074 2.813 4.506 3.359 4.506 3.359s-10.18-3.634-15.769 3.266c-5.588 6.9-4.683 12.71-7.206 14.525-2.524 1.814-7.48 3.903-7.566-.271-.091-4.174-2.883 1.723-1.892 3.904.992 2.181 2.792 5.086 8.739-.454 0 0-1.905 8.199-11.602 6.404 0 0-4.42-.797-3.563-4.387 0 0-2.51 2.924.33 5.849 2.835 2.924 6.992 1.529 6.992 1.529s-9.434 1.197-15.372 9.771c-5.937 8.575-2.375 14.225-2.375 17.019 0 2.794-6.134 4.256-5.803 1.66 0 0-.992 3.658 1.714 3.658 2.705 0 4.817-1.265 4.947-3.523 0 0 .727 6.847-2.97 7.18-3.696.333-5.41-.333-5.54-2.128 0 0-2.112 2.326.197 4.121 2.308 1.795 4.683.265 4.683.265s-7.585 4.522-8.05 9.974c-.46 5.453-1.188 7.113 2.241 13.497 3.429 6.383 3.103 10.634.594 10.634-2.51 0-4.75 0-4.817-1.727 0 0-1.916 5.385 3.299 5.385s5.411-2.857 5.411-2.857-.66 9.043-7.982 6.051c0 0-1.054 4.256 3.165 3.923 4.223-.333 5.08-2.258 5.08-2.258s-5.344 6.712-4.285 13.429c1.058 6.717 8.643 11.764 9.304 13.626.66 1.863 1.384 8.377-2.179 8.71-3.563.333-3.232-1.597-3.232-1.597s.397 5.385 5.21 4.053c4.817-1.332 3.366-8.907 3.366-8.907s6.067 9.906-1.915 14.292c0 0 2.112 2.326 4.88-.135 0 0-.197 15.624 7.192 18.679 7.388 3.054 9.763.931 10.951 4.318 1.188 3.392 3.036 7.977-.263 7.977-3.3 0-4.157-1.463-4.157-1.463s6.335 6.78 8.246 1.728c1.916-5.052-1.451-8.71-1.451-8.71s4.818 3.127 4.75 7.846c-.067 4.719-3.299 4.189-3.299 4.189s7.063 4.569 6.034-6.659z" stroke="#D1AC0B" stroke-width="2" stroke-miterlimit="10"/><path d="M91.773 257.318s1.886 2.157 6.794 2.533c4.909.381 12.456 3.74 14.845 6.847 2.39 3.108 1.825 9.192 5.536 10.649 3.711 1.458 6.1.256 6.1-2.47 0 0 2.141 6.085-1.824 6.654s-5.789-2.977-5.789-2.977-.882 5.39 2.202 5.578c3.084.188 5.79 1.964 10.066-3.484 0 0 1.068 7.667-3.836 7.416 0 0 1.825.763 8.241.063 6.417-.695 12.139.188 17.234 4.878 5.095 4.691 6.225 6.717 8.744 5.135 2.514-1.583.316-5.072.316-5.072s5.723 1.776 4.909 4.753c-.814 2.977-5.661 3.045-6.542 2.915-.881-.126 3.333 3.551 6.858 2.914 3.524-.632 2.767-6.34 2.767-6.34s4.406 3.233 3.525 6.084c0 0-.565 2.283 5.598-2.789 6.162-5.071 13.963-3.865 16.606-2.977 2.644.888 4.842 4.309 7.236 4.309s5.722-3.551 3.084-6.591c0 0 5.722-.695 5.032 2.726-.689 3.421-3.586 6.529-7.422 4.878 0 0 2.83 3.928 7.676 1.014 4.846-2.915 5.22-8.811 3.587-10.269 0 0 4.592 1.776 3.711 5.39-.881 3.614-5.722 5.897-5.722 5.897s4.338.188 7.987-6.148c3.649-6.34 5.411-8.048 12.771-8.936 7.36-.888 5.349 1.52 8.868-.632 3.525-2.157 2.768-5.834.757-5.834 0 0 4.971-.762 5.282.763.316 1.52-.881 6.591-5.79 6.716 0 0 5.723 2.157 7.863-1.901 2.141-4.058 1.197-7.923-.689-10.649 0 0 5.976.188 5.598 4.502-.379 4.309-3.965 8.048-3.965 8.048s5.032-1.206 6.163-11.981c1.13-10.775 13.901-12.994 15.725-13.376 1.825-.381 3.711-5.389-2.011-6.784 0 0 7.987-3.551 7.609.381-.378 3.928-2.265 5.641-2.265 5.641s5.282.319 5.22-4.627c-.063-4.946-4.779-7.417-4.779-7.417s6.665-2.663 7.484.381c.819 3.045-.254 7.291-.254 7.291s4.276-.694 4.717-11.725c.441-11.031 4.717-11.344 4.717-12.869 0-1.525 2.327-5.071-4.53-4.246 0 0 2.451-5.516 4.97-3.296 2.519 2.22 1.638 6.085 1.638 6.085s5.157-8.367-2.581-9.825c-7.738-1.457-1.7-4.945.503-3.802 2.202 1.139 3.146 3.359 4.027 5.134 0 0 .756-2.977-1.322-9.573-2.073-6.591 5.66-15.34 5.66-17.053 0-1.713.254-7.797-4.592-6.716 0 0 .953-4.083 3.477-2.992 2.523 1.09 3.893 5.303 2.811 7.701 0 0 4.328-3.416.651-10.321-3.678-6.905-8.079-3.778-8.079-3.778s1.083-3.779 3.247-3.344c2.165.434 3.247 2.615 3.247 2.615s-4.109-6.321-4.904-12.136c-.795-5.814 0-12.063 0-12.063s-1.805-6.977-4.903-6.832c-3.103.144-3.103 1.307-3.103 1.307s1.226-6.538 3.677-5.887c2.452.657 5.483 5.887 5.483 8.285 0 2.399.652-3.488 0-7.556-.651-4.068-6.924-5.887-9.95-2.688 0 0 1.154-5.669 4.329-4.796 3.174.873-7.935-4.652-9.377-9.52-1.441-4.869-2.308-11.702-3.533-13.154-1.226-1.452-4.186-3.561-6.345.729 0 0-2.811-6.761-.431-6.761s6.345 2.181 7.14 3.344c.794 1.163-4.904-7.484-9.161-6.688-4.257.801-3.965 5.67-3.965 5.67s-2.021-7.778.503-8.14c2.523-.362 9.376 2.76 9.376 2.76s.867-1.964-1.949-3.127c-2.811-1.163-13.269-2.977-16.013-4.217-2.739-1.235-8.078-7.778-9.592-10.1-1.513-2.325-5.482-1.09-6.201 1.82 0 0-3.318-5.303-1.226-5.815 2.093-.511 6.566.657 6.566.657s-1.514-4.652-7.212-4.068c-5.698.579-5.842 6.905-5.842 6.905s-2.524-7.701.287-8.14c2.811-.435 5.77-1.163 5.77-1.163s-12.33 1.163-18.68 0c-6.345-1.163-11.104-7.05-13.776-7.123-2.668-.072-6.273 1.67-4.832 4.87 0 0-6.852-3.707-2.811-5.888 4.037-2.18 5.047-1.307 5.047-1.307s-2.308-5.014-8.509-1.308c-6.201 3.706-2.38 7.85-2.38 7.85s-6.058-4.65-3.893-6.615c2.164-1.963 4.401-3.995 6.924-3.995 0 0-2.164-1.452-9.663 3.995-7.499 5.448-15.146 5.525-18.393 3.85-3.247-1.669-8.007-2.47-9.089-.144-1.082 2.326.072 5.158 1.011 5.158.938 0-8.15.362-7.068-2.904 1.082-3.272 6.565-5.743 7.499-5.743 0 0-9.017-2.108-10.602 4.435-1.585 6.538 1.585 8.357 1.585 8.357s-7.212-2.18-6.345-4.796c.867-2.615 4.975-8.792 7.14-8.936 0 0-2.452-2.326-13.054 13.588 0 0-2.883 6.687-12.479 6.031-9.596-.656-6.273 6.249-3.031 6.394 0 0-8.294 2.253-7.643-.435.652-2.687 2.668-5.814 3.822-5.814s-3.032-1.453-6.273 1.964c-3.247 3.416.502 8.719 2.811 9.665 0 0-8.007 2.253-7.068-4.941 0 0-.144 12.574-5.699 17.733-5.555 5.158-12.694 9.158-14.064 11.262-1.37 2.104-1.728 6.031 2.667 6.104 0 0-6.2 5.158-6.2-.362 0-5.52 1.513-5.815 1.513-5.815s-6.781 7.557-3.175 10.177c3.605 2.615 4.903 1.452 4.903 1.452s-5.986 5.303-6.345 3.127c-.359-2.181-3.318-4.362-1.297-8.43 0 0-3.463-3.271-1.806 10.973s-5.483 16.353-5.842 17.371c-.359 1.018-2.595 6.833 2.308 7.339 4.904.507 5.047-1.235 5.047-1.235s-4.975 6.321-7.211 4.14c-2.236-2.181-2.38-8.719-2.38-8.719s-4.329 7.194-.867 9.665c3.462 2.47 6.996.656 6.996.656s-3.605 7.923-6.057 4.796c-2.452-3.126-3.678-6.615-3.678-6.615s.36 6.977 5.191 13.738c4.832 6.76 3.247 11.773 2.596 15.117-.652 3.344-.796 7.996.866 8.575 1.657.579 4.257.144 4.257.144s-.072 6.833-3.031 4.218c-2.955-2.616-4.616-3.996-4.544-7.412 0 0-2.308 3.489-.723 5.887 1.585 2.398 3.75 7.194 7.355 6.905 3.606-.29 3.677-.873 3.677-.873s-.938 6.031-4.472 4.289c-3.534-1.742-7.643-6.466-7.791-9.303 0 0 .215 6.466 8.581 12.425 8.366 5.959 7.935 7.05 7.935 13.661 0 6.615.938 8.212 3.03 8.936 2.093.729 3.822-3.127 3.822-3.127s2.96 6.466-.43 7.339c-3.391.874-7.428-.945-7.5-4.868 0 0-.43 7.701 6.202 7.778 6.636.072 5.913-4.941 5.913-4.941s1.657 7.996-2.595 8.068c-4.248.072-6.493-.106-6.493-.106z" stroke="#D1AC0B" stroke-width="2" stroke-miterlimit="10"/><path d="M319.708 295.235s-1.063 6.538 3.405 6.538 3.831-6.432 3.831-6.432m-28.085-18.65s-3.615 4.931-1.168 8.681c2.447 3.749 6.914-.213 6.914-.213M96.475 334.03s-4.899-1.317-4.247-4.69c.65-3.373 5.061-1.564 5.061-1.564m11.435-14.644s-3.922-3.783-.981-6.336c2.94-2.553 7.187 2.963 7.187 2.963M37.183 94.19s1.398-5.328 5.086-5.135c3.692.198 3.007 5.014 3.007 5.014m16.511 9.843s1.618-4.043 5.372-1.761c3.755 2.282-.258 8.676-.258 8.676m207.881-77.943s6.728 3.296 5.512 7.436c-1.217 4.14-6.728 2.258-6.728 2.258m-10.832 16.947s4.329 5.206 7.69 3.136c3.362-2.07-1.992-8.782-1.992-8.782" stroke="#D1AC0B" stroke-width="3" stroke-miterlimit="10"/></svg>