<svg width="370" height="370" fill="none" xmlns="http://www.w3.org/2000/svg"><path d="M185 0C82.826 0 0 82.826 0 185c0 102.17 82.826 185 185 185 102.17 0 185-82.83 185-185C370 82.826 287.17 0 185 0zm164.369 139.563c3.237 5.238 4.823 13.186 4.823 13.186s-4.516-5.906-12.443-6.591c0 0 1.764-6.354-1.817-13.803 0 0 6.2 1.975 9.437 7.208zm-2.428 16.394c3.835 3.391 6.832 6.844 8.409 7.835 0 0-2.914 3.976-4.254 8.936-1.337 4.955-7.305 5.939-10.596 5.574-3.287-.37-10.965-1.453-11.346-5.255-.361-3.61 3-5.955 6.432-4.187 1.694.871 1.382 2.594 1.835 3.83.224.611 1.129.884 1.776.884 1.685 0 4.54-.311 6.196-2.216 2.453-2.818 6.085-6.632 6.931-7.022.88-.411-.104-.527-1.652-1.12-1.49-.569-4.988-3.52-7.607-4.171-1.602-.399-4.316-.166-6.18.074-1.041.133-1.772 1.067-1.693 2.113.12 1.622-.182 3.901-2.54 4.901-3.859 1.639-6.146-1.241-6.063-4.407.128-4.561 6.96-7.774 9.271-7.973 2.308-.199 7.251-1.187 11.081 2.204zm-8.628 10.529a3.263 3.263 0 013.262-3.262 3.263 3.263 0 110 6.528 3.264 3.264 0 01-3.262-3.266zm-9.579-10.849c-1.436.872-6.15 2.158-7.578 1.013-1.432-1.146-2.137-6.694 1.776-7.387 3.914-.698 4.337 2.195 5.943-1.001 1.611-3.2 1.54-9.184-3.627-12.035-5.167-2.856-9.695 1.469-10.865 5.382-1.166 3.918 2.859 2.37 3.428 5.504.573 3.129.589 4.606-2.079 5.275-2.669.668-6.62.352-5.694-5.126.921-5.478 2.266-.299 3.374-8.487 1.112-8.193-1.378-2.391-1.673-.926-.29 1.465-3.536 2.889-4.341 5.495-.805 2.611 1.071 2.378.311 5.686-.755 3.312-.373 5.424 1.216 6.42 1.594 1.001 4.022 2.42 6.558 1.2 0 0 .622 1.892 2.282 3.125 1.656 1.233 4.379 1.187 4.379 1.187s-.419.759.398 3.59c.818 2.83 2.436 3.129 2.436 3.129s-3.187 1.971-1.531 7.089c0 0-2.013-.162-3.337 1.805-1.324 1.967-1.158 3.685-1.158 3.685s-3.224-.987-5.827 1.86c-2.602 2.847-.601 5.258-.651 6.424-.046 1.162-.162 2.088-.44 3.167-.274 1.075.548 1.888 2.752 3.063 2.203 1.178 3.477 2.394 4.162 4.677.685 2.283 1.839 2.561 1.901 1.009.062-1.553-.021-5.284-2.337-7.554-2.315-2.27-4.511-3.681-3.046-7.196 1.465-3.511 6.151-2.233 6.997-.104.847 2.133.42 4.993-1.672 6.694 0 0-1.079 1.743 1.668 4.885 2.748 3.142 7.388 3.644 10.72 1.913 3.337-1.73 3.843-6.603 2.818-9.985-1.029-3.387-3.316-4.487-3.855-4.586-.54-.1-2.179 2.009-3.955 1.701-1.773-.303-4.877-.431-5.188-4.249-.311-3.823 3.743-4.2 5.968-3.487 2.224.71 8.167 1.731 10.782 6.263 2.611 4.536 2.469 9.894 1.561 13.119-.905 3.229-6.898 9.201-11.787 9.002-4.889-.199-9.99-.876-12.38-3.225-2.391-2.349-3.528-4.959-5.275-5.964-1.743-1.004-5.242-.992-5.242-.992s-.373-2.266-1.78-3.955c0 0 3.146-2.826 3.121-6.092-.021-3.262-2.719-5.782-2.719-5.782s2.204-2.552 1.814-6.374c-.386-3.823-2.561-5.777-2.561-5.777s2.104-2.092 1.557-5.765c-.552-3.673-2.972-5.325-2.972-5.325s1.706-1.797.859-5.794c-.846-3.996-4.055-5.37-4.055-5.37s1.121-.809 1.432-2.739c.291-1.805-.286-2.291-.361-2.345.17.029 2.768.465 5.229-2.664 2.54-3.238 4.74-7.732 8.359-8.753 3.615-1.017 9.844-1.307 13.517 1.95 3.673 3.258 6.549 5.238 7.383 11.414.839 6.171-5.283 11.438-6.715 12.313zm-9.437-13.675a3.263 3.263 0 116.525.001 3.263 3.263 0 01-6.525-.001zm7.474 51.438a3.263 3.263 0 116.525.001 3.263 3.263 0 01-6.525-.001zm-17.078 10.612a2.403 2.403 0 01-2.527 2.274 2.404 2.404 0 112.527-2.274zm-11.475-5.047a2.404 2.404 0 11.244-4.8 2.404 2.404 0 01-.244 4.8zm.046 8.342a2.405 2.405 0 11-4.803-.253 2.405 2.405 0 014.803.253zm-.382-16.758c-1.611.141-2.47-2.108-4.64-1.208-2.171.901-3.15 3.49-3.15 3.49s-37.149.362-40.461.046c-3.312-.315-4.171-2.565-4.445-4.142-.274-1.577 1.171-4.216 3.362-4.781 2.187-.564 4.943 1.996 4.511 4.404-.493 2.747.291 3.768 1.129 3.278.834-.49 2.594-3.581 1.926-6.159-.672-2.573-4.071-4.64-6.113-4.918-1.723-.232-6.292.66-8.172 4.781-1.88 4.126.751 7.637.751 7.637s-3.71 3.702-2.793 6.968c.917 3.266 3.486 5.906 6.906 6.462 3.391.556 5.487-.378 6.669-2.05 2.059-2.91 1.644-5.134.872-5.935-.909-.942-1.556-.697-2.627 2.05-1.071 2.752-4.769 3.233-6.304 1.569-1.532-1.669-1.826-2.976-.465-5.661 1.361-2.685 5.619-1.378 5.619-1.378l37.477 13.563c-1.407 3.312 3.154 5.777 3.154 5.777s1.93-.494 3.029-.502c1.096-.008 3.877.647 3.188 4.602-.689 3.956-4.466 3.69-5.815 3.009-1.344-.684-2.639-2.755-4.2-4-1.56-1.246-4.905-1.69-4.905-1.69s-1.349-2.54-4.885-4.511c-3.536-1.975-6.292-1.195-6.292-1.195s-1.49-2.295-6.159-3.084c-4.673-.788-8.317 1.316-8.317 1.316s-2.452-1.772-6.466-1.083c-4.013.693-6.287 2.515-6.287 2.515s-2.017-1.407-6.338.738c-4.32 2.142-5.436 8.679-5.436 8.679l1.909.469s1.9-3.785 4.561-5.707c2.66-1.922 6.727-.291 6.727-.291s2.109-2.465 5.2-3.262c3.092-.796 6.342 1.665 6.342 1.665s2.374-1.436 6.217-1.465c3.839-.025 6.404 3.228 6.404 3.228s3.112-.456 6.354.905c3.241 1.366 4.553 3.773 4.553 3.773 2.29-.179 5.009 2.075 5.009 2.075l-1.083 1.652c-2.632-1.656-5.342-1.507-5.342-1.507s-1.689-3.067-4.897-4.304c-3.208-1.232-5.204-.444-5.204-.444s-1.635-2.602-5.288-2.897c-3.648-.298-6.412 1.237-6.412 1.237s-2.473-2.108-6.113-1.307c-3.64.797-4.711 3.548-4.711 3.548s-3.552-1.764-6.652-.211c-3.101 1.552-3.403 3.552-4.267 4.461-.863.909-5.142.573-7.005.021-1.86-.552-3.623-2.569-3.109-4.557.515-1.988-.49-3.993-.49-3.993s3.014-.298 5.031-3.905c2.017-3.611.572-5.985.572-5.985s3.511-2.622 3.947-5.963c.44-3.341-1.345-5.694-1.345-5.694s2.499-2.018 2.906-5.487c.402-3.47-2.54-5.528-2.54-5.528s2.025-2.515 1.394-6.267c-.631-3.752-3.324-5.117-3.324-5.117s.141-3.951 1.722-5.524c1.586-1.577 4.171-1.146 5.337-.892 1.162.249 6.317 2.627 6.317 2.627.469 1.805 1.739 4.843 3.544 6.229 1.806 1.39 4.86 1.772 4.86 1.772s1.731 3.744 4.13 5.047c2.403 1.307 5.557.22 5.557.22s2.349 2.689 5.179 3.266c2.827.577 5.57-1.295 5.57-1.295s3.478 2.262 5.976 2.1c2.499-.162 4.719-3 4.719-3s2.204 1.079 3.382 1.12c1.179.042 2.528-.581 2.528-.581.431 1.125 1.859 1.855 1.859 1.855s-.946.864-2.864 1.15c-1.917.286-3.892-.44-3.892-.44s-2.059 2.386-5.354 2.407c-3.291.025-6.408-1.921-6.408-1.921s-2.241 1.95-6.014.933c-3.768-1.021-6.47-3.486-6.47-3.486s-2.353.469-5.142-.739c-2.785-1.203-4.3-4.382-4.3-4.382-6.951-2.677-7.678-6.267-7.939-6.748-.266-.482-1.419-3.341-2.133-2.129-.718 1.216-.677 5.598 1.705 8.42 2.387 2.818 6.736 3.964 6.736 3.964s1.208 1.477 3.972 3.648c2.764 2.175 6.412 1.921 6.412 1.921s2.897 2.686 6.47 3.482c3.578.797 6.562-.933 6.562-.933s2.838 1.672 6.487 1.423c3.643-.253 6.449-2.419 6.449-2.419s1.668.875 3.992.825c2.325-.045 3.661-2.311 3.661-2.311s1.602-1.237 2.76-1.536c1.158-.299 3.312.311 4.163 3.32.85 3.009-1.586 4.736-3.2 4.877zm-6.91 9.994a3.384 3.384 0 01-3.844 2.855c-1.846-.274-22.556-6.757-22.556-6.757s21.697-.211 23.548.063a3.38 3.38 0 012.852 3.839zm-3.453 26.839a2.404 2.404 0 113.71 3.06 2.404 2.404 0 01-3.71-3.06zm-.718 12.866a2.405 2.405 0 11-3.71-3.06 2.405 2.405 0 013.71 3.06zm-30.069 31.313a2.406 2.406 0 013.711 3.059 2.405 2.405 0 01-3.711-3.059zm-.585-26.636a2.413 2.413 0 01-.324-3.387 2.412 2.412 0 013.387-.323 2.404 2.404 0 11-3.063 3.71zm4.561 8.329a2.403 2.403 0 113.708 3.063 2.403 2.403 0 01-3.708-3.063zm3.827 10.608a2.399 2.399 0 013.382-.323 2.404 2.404 0 11-3.382.323zm1.369-21.929s.266-5.313-5.051-6.79c-5.316-1.482-7.54 1.12-7.54 1.12s-1.822-2.49-3.839-2.772c-2.022-.286-5.238.98-7.072.697-1.835-.286-4.524-2.083-5.167-2.27-.64-.187-1.644.768-1.121 1.449.527.684 2.482 2.581 2.623 3.942.145 1.362.041 6.724.938 8.467.896 1.739 3.611 3.415 3.611 3.415s-1.76 4.146.261 7.782c2.017 3.636 7.259 4.096 7.259 4.096s-.008 1.499.56 2.441c.768 1.274 2.183 1.597 2.183 1.597s-1.411 1.503-1.946 2.408c-.532.904-.42 2.34-.428 3.394 0 0-2.399.582-2.955.64 0 0-1.17-1.432-2.033-2.055-.868-.626-3.159-.826-3.159-.826s-.419-2.789-1.402-4.345c-.984-1.552-3.213-2.307-3.213-2.307s.324-2.603-.348-4.279c-.673-1.677-2.524-3.175-2.524-3.175s1.129-2.474 1.079-4.769c-.049-2.291-1.469-3.972-1.469-3.972s2.494-2.901 2.387-5.507c-.029-.689-.216-1.432-.474-2.15-.738-2.062-2.465-3.598-4.577-4.175-1.175-.319-2.374-.93-2.889-2.046-1.676-3.619-.809-5.296-1.274-6.806 0 0 3.968-.627 6.802.357 2.125.738 1.951 2.739 3.192 4.677.967 1.506 3.718 2.237 6.499 1.573 2.781-.664 3.69-4.022 3.69-4.022s1.286 1.673 4.312 1.507c3.021-.17 4.079-1.955 4.079-1.955s1.229 1.548 3.632 2.117c2.403.568 4.943-.901 4.943-.901s.298 1.855 2.328 2.976c2.029 1.12 4.627.207 4.627.207s-.195 1.789 1.034 3.217c1.224 1.423 3.569 1.373 3.569 1.373s-.315 1.42.05 2.839c0 0-1.855.61-3.59 2.204-1.739 1.598-1.93 2.83-1.93 2.83s-.93-1.585-2.345-2.145c-1.415-.565-3.312-.058-3.312-.058zm-17.078 8.068a2.405 2.405 0 113.71 3.06 2.405 2.405 0 01-3.71-3.06zm-3.415-6.865a2.403 2.403 0 01-.324-3.386 2.398 2.398 0 013.382-.324 2.4 2.4 0 01.324 3.382 2.402 2.402 0 01-3.382.328zm7.121 38.02a2.398 2.398 0 01-3.382.324 2.4 2.4 0 01-.324-3.382 2.4 2.4 0 013.383-.324 2.398 2.398 0 01.323 3.382zm-12.6 3.001a2.413 2.413 0 013.387-.324 2.406 2.406 0 01.324 3.387 2.408 2.408 0 01-3.383.324 2.41 2.41 0 01-.328-3.387zm-.597-10.488a2.403 2.403 0 113.709 3.058 2.403 2.403 0 01-3.709-3.058zm-17.128 23.843a2.403 2.403 0 01-.324-3.386 2.413 2.413 0 013.387-.324 2.413 2.413 0 01.323 3.387 2.41 2.41 0 01-3.386.323zm1.336 10.26a2.398 2.398 0 01-3.382.323 2.399 2.399 0 01-.324-3.382 2.403 2.403 0 113.706 3.059zm-.062-21.013s-20.598-35.754-20.726-37.306c-.129-1.556-.391-5.574 4.013-5.831 4.407-.258 4.407 4.146 3.889 5.569-.519 1.428-2.075 3.109-4.404 3.628-2.332.518.515 2.332 2.976 1.556 2.465-.776 6.607-4.922 2.851-11.011-3.756-6.088-10.106-3.498-12.177.777 0 0-8.03-1.424-10.363 3.237-2.332 4.665.092 9.715 3.333 10.491 3.237.777 5.736.909 7.678-2.589 0 0 .647-1.034-2.851.39-3.495 1.423-5.827-2.723-5.18-4.922.648-2.204 3.756-4.146 5.96-2.333 2.2 1.814 2.718 3.628 3.494 8.16.781 4.536 6.093 35.496 6.093 35.496s-1.947.781-2.075 4.018c-.129 3.237 2.851 4.275 1.166 7.126-1.685 2.847-5.57 2.98-6.997.647-1.424-2.332 0-4.536.651-6.478.648-1.943 0-5.57-.518-6.865 0 0 2.07-1.946 1.294-7.254-.776-5.313-3.241-6.479-3.241-6.479s.909-3.237-.647-7.773c-1.553-4.532-3.885-4.665-3.885-4.665s-.776-3.494-4.146-7.122c-3.37-3.627-4.532-3.37-4.532-3.37s.129-3.498-3.241-5.831c-3.366-2.332-6.993-1.552-8.292-.776-1.295.776-.648 1.556.908 1.556 1.557 0 6.736.905 8.293 6.608 0 0 6.993 1.68 6.864 10.101 0 0 3.37 2.075 4.665 5.312 1.295 3.238.519 6.736.519 6.736s3.108 2.851 3.237 5.703c.128 2.847-1.424 6.993-1.424 6.993s.776 1.946 0 5.312l-2.075-.257s.519-1.947.129-3.37c-.386-1.424-2.2-2.719-2.2-2.719s2.071-2.075 2.2-4.793c.133-2.723-1.034-5.184-2.59-5.831 0 0 1.295-2.204.262-5.57-1.038-3.37-3.242-4.407-4.537-4.665 0 0 1.295-2.851-1.166-6.864-2.461-4.018-5.96-3.37-5.96-3.37s.129-2.59-2.071-4.532c-2.203-1.947-4.664-1.685-5.959-2.075-1.295-.39-3.756-4.146-3.885-5.698-.133-1.557-1.166-4.275 1.295-6.608 2.461-2.332 3.366-2.075 3.366-2.075s.909 2.594 4.922 2.852c4.017.257 5.96-2.59 5.96-2.59s2.98 1.942 6.736 1.033c3.76-.905 4.407-4.013 4.407-4.013s3.885 1.685 7.383-.262c3.499-1.942 3.237-5.05 3.237-5.05s3.499 1.423 6.35-1.295c2.851-2.723 3.109-6.607 3.109-6.607s4.399-1.992 7.254 1.294c3.009 3.466 2.756 8.069 2.756 8.069s-3.586 2.436-4.482 6.407c-.901 3.972 1.149 6.28 1.149 6.28s-2.56 3.075-2.56 6.408c0 3.332 2.689 5.383 2.689 5.383s-1.535 2.946-.253 6.279c1.278 3.332 4.1 4.615 4.1 4.615s-.643 4.229 1.536 7.047c2.179 2.822 4.872 3.461 4.872 3.461.382 2.818 3.333 4.997 3.333 4.997l-1.797 1.797s-.639-.515-2.308-2.05c-1.664-1.54-1.664-3.59-1.664-3.59s-2.436-.639-4.868-3.59c-2.436-2.947-1.54-6.918-1.54-6.918s-2.436-1.026-3.972-4.23c-1.539-3.203-.257-6.793-.257-6.793s-1.921-1.411-2.179-5.894c-.257-4.486 1.922-6.536 1.922-6.536s-1.283-1.154-.511-6.666a13.59 13.59 0 012.901-6.715c.361-.44-.128-1.07-.651-.838-1.781.801-4.192 2.432-5.342 5.644-1.942 5.441.129 7.902.129 7.902s-1.423 1.557-1.423 6.736c0 5.184 1.813 6.607 1.813 6.607s-1.037 3.628.258 7.126c1.299 3.499 4.017 5.831 4.017 5.831s-1.295 3.237 1.556 7.122c2.847 3.889 5.699 4.017 5.699 4.017s-.258 2.719 3.498 4.665c3.756 1.943 7.774 5.18 4.794 8.55-2.98 3.366-6.089-.262-6.736-2.461-.648-2.204-2.333-4.408-5.831-4.408zm-11.314 2.407c-.622-1.764-4.582-23.096-4.582-23.096s10.339 19.075 10.965 20.839a3.385 3.385 0 01-6.383 2.257zm3.229 11.056a2.403 2.403 0 01-3.386.324 2.401 2.401 0 01-.324-3.382 2.404 2.404 0 113.71 3.058zm-20.431 3.898a2.4 2.4 0 01-3.383.323 2.398 2.398 0 01-.323-3.382 2.398 2.398 0 013.382-.324 2.4 2.4 0 01.324 3.383zm-20.108-11.239c-2.092-.639-3.167-.212-3.167-.212s.83-1.486.61-2.88c-.215-1.395-1.51-2.673-1.51-2.673s4.37-2.283 3.05-7.225c-1.316-4.943-4.441-5.499-4.441-5.499s1.133-2.623.411-4.371c-.718-1.747-3.245-3.722-3.88-5.32-.635-1.602-.465-4.59-.614-5.192-.154-.602-1.391-.955-1.69-.216-.294.743-.896 3.196-1.913 3.951-1.021.751-5.349 3.192-6.321 4.727-.971 1.536-1.033 4.486-1.033 4.486s-4.138.544-6.093 3.869c-1.954 3.324.142 7.723.142 7.723s-1.2.701-1.685 1.598c-.66 1.212-.254 2.494-.254 2.494s-1.863-.419-2.834-.423c-.976 0-2.067.763-2.914 1.257 0 0-1.589-1.643-1.9-2.062 0 0 .593-1.611.684-2.594.096-.984-.826-2.905-.826-2.905s2.034-1.648 2.814-3.167c.776-1.515.332-3.648.332-3.648s2.233-.967 3.254-2.291c1.025-1.328 1.349-3.511 1.349-3.511s2.507-.261 4.316-1.378c1.81-1.12 2.486-3.042 2.486-3.042s3.49.631 5.516-.681c.539-.348 1.046-.846 1.498-1.39 1.299-1.556 1.714-3.66 1.183-5.619-.299-1.084-.37-2.333.274-3.267 2.104-3.042 3.851-3.137 4.839-4.216 0 0 2.365 2.872 2.913 5.598.411 2.047-1.27 2.848-2.237 4.748-.747 1.478-.037 4.022 1.802 5.931 1.797 1.868 4.801 1.096 4.938 1.062-.037.108-.68 1.88.83 4.146 1.561 2.337 3.482 2.341 3.482 2.341s-.66 1.71.013 3.897c.676 2.187 3.042 3.524 3.042 3.524s-1.336 1.108-1.278 3.258c.058 2.15 2.008 3.797 2.008 3.797s-1.523.685-2.083 2.333c-.564 1.651.581 3.502.581 3.502s-1.282.415-2.245 1.37c0 0-1.357-1.195-3.449-1.83zm.041 10.545a2.402 2.402 0 01-2.403 2.403 2.402 2.402 0 01-2.403-2.403 2.402 2.402 0 012.403-2.403 2.402 2.402 0 012.403 2.403zm-15.559-13.832a2.402 2.402 0 012.403 2.403 2.402 2.402 0 01-2.403 2.403 2.402 2.402 0 01-2.403-2.403 2.402 2.402 0 012.403-2.403zm-2.448-7.4a2.403 2.403 0 11-3.183-3.601 2.403 2.403 0 013.183 3.601zm3.137-11.463a2.405 2.405 0 113.705 3.062 2.405 2.405 0 01-3.705-3.062zm2.378 29.147a2.402 2.402 0 012.403 2.403 2.402 2.402 0 01-2.403 2.403 2.402 2.402 0 01-2.403-2.403 2.402 2.402 0 012.403-2.403zm2.204-16.211a2.404 2.404 0 113.06-3.71 2.404 2.404 0 01-3.06 3.71zm-19.448 14.082a2.402 2.402 0 01-2.403 2.403 2.405 2.405 0 010-4.81 2.405 2.405 0 012.403 2.407zm-12.06-6.674a2.402 2.402 0 012.403 2.403 2.402 2.402 0 01-2.403 2.403 2.401 2.401 0 01-2.403-2.403 2.401 2.401 0 012.403-2.403zm-4.076-7.499a2.405 2.405 0 012.403-2.407 2.405 2.405 0 010 4.81 2.404 2.404 0 01-2.403-2.403zm5.628-7.147a2.405 2.405 0 11.005-4.81 2.405 2.405 0 01-.005 4.81zm-1.374-17.215c-2.237 2.615-2.034 5.595-2.034 5.595s-3.88 1.39-5.27 4.532c-1.395 3.137-.706 5.715-.706 5.715-2.216 1.614-2.71 5.113-2.71 5.113l-2.345-.698s.141-.78.681-2.896c.543-2.117 2.282-3.059 2.282-3.059s-.572-2.358.81-5.773c1.386-3.416 5.167-4.474 5.167-4.474s-.249-2.532 1.764-5.304c2.012-2.772 5.644-3.329 5.644-3.329s.315-2.278 4.001-4.548c3.685-2.275 6.424-1.366 6.424-1.366s.39-1.614 5.416-3.486a13.048 13.048 0 017.018-.614c.544.104.855-.598.415-.934-1.494-1.145-3.98-2.444-7.229-1.946-5.504.846-6.645 3.731-6.645 3.731s-1.967-.498-6.362 1.876c-4.395 2.374-4.773 4.565-4.773 4.565s-3.553.78-5.922 3.482c-2.374 2.702-3.105 6.076-3.105 6.076s-3.341.386-5.329 4.582c-1.992 4.196-.796 6.673-.796 6.673s-2.424 1.025-2.354 5.101c.075 4.075-.834 8.964-5.055 7.981-4.22-.984-2.569-5.279-.996-6.84 1.569-1.556 2.665-3.992 1.063-6.96 0 0 20.888-33.845 22.145-34.666 1.258-.822 4.545-2.881 6.782.734 2.237 3.619-1.498 5.636-2.943 5.848-1.444.216-3.585-.332-5.092-2.071-1.506-1.743-1.739 1.506.046 3.237 1.784 1.731 7.2 3.349 10.641-2.627 3.445-5.976-1.66-10.172-6.234-9.969 0 0-2.473-7.466-7.495-7.308-5.022.161-8.193 4.532-7.371 7.632.826 3.104 1.859 5.283 5.715 5.329 0 0 1.175.074-1.635-2.241-2.81-2.312-.365-6.188 1.801-6.649 2.162-.461 5.233 1.286 4.706 3.984-.531 2.698-1.83 3.968-5.32 6.707l-27.309 21.419s-1.552-1.291-4.357.083c-2.806 1.374-2.32 4.374-5.508 4.254-3.187-.124-5.075-3.362-3.752-5.636 1.324-2.278 3.844-2.079 5.79-2.419 1.942-.341 4.723-2.553 5.582-3.582 0 0 2.598.867 6.748-2.225 4.146-3.092 4.009-5.714 4.009-5.714s3.163-.714 6.292-4.109c3.134-3.395 2.175-5.433 2.175-5.433s2.61-2.262 4.146-6.777c1.531-4.52.776-5.391.776-5.391s3.026-1.49 3.461-5.416c.436-3.922-1.884-6.645-3.137-7.388-1.254-.738-1.615.166-.905 1.482.714 1.32 2.32 6.13-1.805 10.06 0 0 1.776 6.703-5.421 10.45 0 0-.215 3.806-2.369 6.388-2.154 2.581-5.474 3.523-5.474 3.523s-.992 3.943-3.35 5.358c-2.357 1.415-6.586 1.996-6.586 1.996s-1.29 1.548-4.503 2.432l-.73-1.876s1.884-.452 2.913-1.431c1.033-.984 1.299-3.117 1.299-3.117s2.71.809 5.076-.328c2.365-1.133 3.918-3.25 3.756-4.864 0 0 2.461.087 4.843-2.333 2.378-2.423 2.249-4.764 1.876-5.98 0 0 3.009-.208 5.287-4.134 2.279-3.93.129-6.599.129-6.599s2.258-1.074 2.897-3.834c.639-2.756-.71-4.723-.976-6.002-.261-1.278 1.798-5.084 3.055-5.905 1.258-.822 3.092-2.947 6.196-1.93 3.105 1.021 3.3 1.909 3.3 1.909s-1.781 1.955-.162 5.478c1.623 3.524 4.926 3.868 4.926 3.868s-.282 3.416 2.208 6.188c2.49 2.768 5.424 1.893 5.424 1.893s.353 4.067 3.603 6.142c3.249 2.079 5.764.436 5.764.436s.395 3.619 4.01 4.789c3.61 1.17 7.026-.39 7.026-.39s3.706 2.818 2.224 6.744c-1.56 4.142-5.577 6.035-5.577 6.035s-3.711-1.93-7.492-.872c-3.776 1.062-4.793 3.856-4.793 3.856s-3.785-.764-6.611.763c-2.823 1.523-3.329 4.748-3.329 4.748s-3.204.046-5.445 2.656zm-6.802 30.039a2.404 2.404 0 11-4.809-.003 2.404 2.404 0 014.809.003zm-20.701-20.734a3.382 3.382 0 01-.399-4.769c1.204-1.427 17.63-15.609 17.63-15.609s-11.255 18.552-12.463 19.98a3.382 3.382 0 01-4.768.398zm3.278 6.794a2.405 2.405 0 11-4.81.003 2.405 2.405 0 014.81-.003zm-9.965-3.378a2.408 2.408 0 01-2.407-2.403 2.41 2.41 0 012.407-2.408 2.406 2.406 0 010 4.811zm.416 9.188a2.405 2.405 0 11-4.81-.003 2.405 2.405 0 014.81.003zM66.35 168.449a2.403 2.403 0 01-1.316 3.133 2.403 2.403 0 11-1.822-4.449 2.404 2.404 0 013.138 1.316zm-1.627-12.085a2.402 2.402 0 111.817 4.449 2.402 2.402 0 11-1.818-4.449zm-1.005 19.792c1.528-.208 2.445 1.892 4.466.938 2.021-.951 2.835-3.453 2.835-3.453s35.268-1.996 38.426-1.847c3.163.154 4.08 2.254 4.408 3.739.328 1.486-.926 4.055-2.98 4.69-2.054.631-4.785-1.677-4.482-3.98.348-2.631-.444-3.569-1.216-3.067-.772.502-2.308 3.519-1.557 5.935.752 2.415 4.072 4.229 6.027 4.403 1.643.146 5.943-.905 7.549-4.905 1.602-4.001-1.054-7.222-1.054-7.222s3.361-3.681 2.34-6.74c-1.016-3.063-3.573-5.457-6.843-5.835-3.246-.373-5.196.606-6.246 2.25-1.822 2.855-1.333 4.947-.565 5.673.905.855 1.511.593 2.407-2.067.893-2.656 4.383-3.279 5.914-1.768 1.532 1.515 1.872 2.748.698 5.358-1.175 2.611-5.28 1.561-5.28 1.561L72.367 158.6c1.187-3.208-3.25-5.349-3.25-5.349s-1.813.56-2.855.614c-1.041.058-3.714-.444-3.237-4.229.482-3.785 4.08-3.706 5.391-3.117 1.308.59 2.632 2.499 4.167 3.615 1.54 1.112 4.736 1.386 4.736 1.386s1.394 2.349 4.839 4.067c3.448 1.719 6.03.855 6.03.855s1.515 2.113 5.989 2.656c4.474.54 7.839-1.622 7.839-1.622s2.412 1.573 6.188.738c3.781-.83 5.861-2.664 5.861-2.664s1.975 1.245 5.988-.984c4.009-2.228 4.777-8.487 4.777-8.487l-1.834-.361s-1.635 3.681-4.08 5.624c-2.44 1.946-6.375.577-6.375.577s-1.892 2.436-4.793 3.328c-2.901.892-6.101-1.299-6.101-1.299s-2.191 1.469-5.84 1.668c-3.643.196-6.225-2.78-6.225-2.78s-2.934.573-6.071-.577c-3.142-1.15-4.495-3.378-4.495-3.378-2.166.269-4.848-1.752-4.848-1.752l.955-1.614c2.569 1.457 5.138 1.195 5.138 1.195s1.743 2.839 4.843 3.868c3.1 1.029 4.96.191 4.96.191s1.672 2.395 5.154 2.515c3.478.12 6.035-1.461 6.035-1.461s2.444 1.893 5.864.971c3.424-.921 4.316-3.577 4.316-3.577s3.453 1.515 6.329-.1c2.876-1.61 3.076-3.527 3.856-4.428.776-.901 4.86-.768 6.653-.328 1.788.44 3.552 2.279 3.154 4.188-.399 1.909.643 3.772.643 3.772s-2.851.415-4.607 3.935c-1.751 3.515-.278 5.71-.278 5.71s-3.216 2.644-3.482 5.836c-.265 3.191 1.532 5.349 1.532 5.349s-2.287 2.03-2.515 5.341c-.229 3.312 2.656 5.138 2.656 5.138s-1.814 2.478-1.046 6.014c.768 3.532 3.387 4.711 3.387 4.711s.041 3.76-1.391 5.324c-1.432 1.569-3.909 1.274-5.026 1.088-1.116-.187-6.121-2.217-6.121-2.217-.523-1.693-1.868-4.519-3.644-5.76-1.776-1.241-4.694-1.465-4.694-1.465s-1.809-3.478-4.146-4.611c-2.341-1.133-5.287.037-5.287.037s-2.35-2.448-5.064-2.872c-2.714-.419-5.233 1.482-5.233 1.482s-3.403-1.996-5.769-1.731c-2.37.266-4.35 3.059-4.35 3.059s-2.14-.93-3.261-.913c-1.121.013-2.379.664-2.379.664-.456-1.05-1.846-1.681-1.846-1.681s.859-.859 2.668-1.216c1.81-.361 3.719.245 3.719.245s1.85-2.357 4.976-2.527c3.125-.171 6.175 1.539 6.175 1.539s2.042-1.954 5.665-1.149c3.628.801 6.305 3.021 6.305 3.021s2.212-.552 4.914.469c2.701 1.021 4.283 3.976 4.283 3.976 6.719 2.229 7.57 5.607 7.839 6.055.27.444 1.499 3.109 2.121 1.926.627-1.187.394-5.35-1.996-7.919-2.391-2.573-6.574-3.469-6.574-3.469s-1.212-1.345-3.935-3.287c-2.722-1.943-6.175-1.54-6.175-1.54s-2.872-2.424-6.3-3.021c-3.432-.598-6.192 1.178-6.192 1.178s-2.772-1.461-6.221-1.058c-3.453.398-6.018 2.581-6.018 2.581s-1.627-.755-3.83-.606c-2.209.15-3.375 2.362-3.375 2.362s-1.465 1.245-2.552 1.581c-1.088.332-3.159-.153-4.105-2.971-.942-2.823 1.3-4.57 2.822-4.773zm5.644-11.409a3.39 3.39 0 013.902-2.777c1.842.312 22.415 7.214 22.415 7.214s-21.701-.229-23.544-.54a3.378 3.378 0 01-2.773-3.897zm30.289-64.98a2.402 2.402 0 11-1.498-4.565 2.401 2.401 0 111.498 4.565zm3.212 24.121a2.407 2.407 0 01-1.531 3.034 2.412 2.412 0 01-3.038-1.536 2.407 2.407 0 011.535-3.033 2.403 2.403 0 013.034 1.535zm-4.88-10.45a2.404 2.404 0 11-4.57 1.499 2.404 2.404 0 014.57-1.499zm-4.815-6.653a2.404 2.404 0 11-1.498-4.568 2.404 2.404 0 011.498 4.568zm-.253 19.253s-.22 4.847 4.644 6.175c4.86 1.324 6.877-1.058 6.877-1.058s1.677 2.262 3.519 2.511c1.847.253 4.781-.921 6.458-.668 1.677.249 4.138 1.88 4.723 2.046.589.166 1.498-.71 1.017-1.328-.482-.623-2.274-2.345-2.411-3.586-.141-1.245-.071-6.138-.897-7.728-.83-1.585-3.312-3.1-3.312-3.1s1.586-3.793-.278-7.105c-1.859-3.308-6.648-3.702-6.648-3.702s0-1.37-.523-2.229c-.706-1.158-2.001-1.448-2.001-1.448s1.283-1.378 1.764-2.208c.486-.826.374-2.137.374-3.1 0 0 2.191-.54 2.697-.598 0 0 1.075 1.303 1.868 1.868.793.564 2.888.734 2.888.734s.395 2.549 1.299 3.964c.905 1.415 2.943 2.091 2.943 2.091s-.282 2.379.34 3.906c.623 1.527 2.32 2.888 2.32 2.888s-1.017 2.262-.963 4.358c.058 2.092 1.362 3.619 1.362 3.619s-2.266 2.66-2.15 5.038c.029.631.199 1.308.44 1.963.68 1.881 2.266 3.275 4.2 3.79 1.071.286 2.17.838 2.643 1.855 1.553 3.295.764 4.831 1.2 6.208 0 0-3.623.59-6.213-.294-1.946-.664-1.797-2.494-2.938-4.254-.889-1.374-3.408-2.025-5.943-1.407-2.536.622-3.346 3.689-3.346 3.689s-1.182-1.523-3.942-1.353c-2.764.171-3.719 1.802-3.719 1.802s-1.129-1.407-3.324-1.914c-2.2-.506-4.511.847-4.511.847s-.283-1.693-2.142-2.706c-1.86-1.017-4.225-.17-4.225-.17s.17-1.635-.959-2.93c-1.124-1.295-3.266-1.241-3.266-1.241s.282-1.295-.058-2.59c0 0 1.693-.564 3.27-2.029 1.578-1.465 1.748-2.59 1.748-2.59s.855 1.44 2.15 1.947c1.294.506 3.025.037 3.025.037zm14.746-7.433a2.402 2.402 0 01-3.034-1.532 2.401 2.401 0 011.531-3.033 2.401 2.401 0 013.034 1.531 2.4 2.4 0 01-1.531 3.034zm1.93 4.814a2.403 2.403 0 013.033 1.536 2.403 2.403 0 11-4.565 1.498 2.404 2.404 0 011.532-3.034zm-3.433-35.16a2.404 2.404 0 013.034 1.535 2.402 2.402 0 11-4.565 1.498 2.402 2.402 0 011.531-3.034zm9.206-2.142a2.404 2.404 0 01-3.034-1.536 2.401 2.401 0 114.565-1.498 2.404 2.404 0 01-1.531 3.034zm2.905 7.11a2.402 2.402 0 11-4.566 1.498 2.402 2.402 0 114.566-1.499zm8.744-12.505c1.851 1.386 4.532.925 4.532.925s18.859 31.251 20.249 34.21c1.386 2.955-.095 4.806-1.295 5.823-1.203 1.017-4.162 1.108-5.735-.461-1.569-1.572-.772-5.179 1.481-6.009 2.578-.955 3.051-2.129 2.221-2.59-.835-.465-4.337-.411-6.188 1.436-1.847 1.851-1.905 5.757-1.117 7.624.66 1.573 3.698 4.993 8.135 4.532 4.436-.465 6.101-4.441 6.101-4.441s4.992 1.295 7.304-1.108c2.312-2.403 3.27-5.893 2.033-9.06-1.224-3.145-3.058-4.457-5.071-4.623-3.495-.29-5.171 1.166-5.466 2.22-.344 1.237.183 1.665 3.051 1.2 2.867-.461 5.121 2.428 4.473 4.553-.647 2.125-1.606 3.029-4.565 3.216-2.959.183-3.976-4.071-3.976-4.071l-7.213-38.46c3.515-.465 3.329-5.55 3.329-5.55s-1.386-1.385-1.943-2.31c-.552-.926-1.386-3.607 2.312-4.994 3.698-1.386 5.362 1.943 5.458 3.42.091 1.482-1.021 3.607-1.295 5.55-.278 1.941 1.017 4.992 1.017 4.992s-1.482 2.403-1.387 6.379c.092 3.976 2.125 5.918 2.125 5.918s-1.203 2.403.461 6.748c1.664 4.345 5.271 6.379 5.271 6.379s-.278 2.959 2.311 6.01c2.59 3.054 5.271 4.071 5.271 4.071s-.187 2.403 3.789 4.993c3.976 2.589 10.081.278 10.081.278l-.556-1.851s-4.158.278-7.118-1.017c-2.959-1.295-3.606-5.549-3.606-5.549s-3.146-.552-5.362-2.772c-2.221-2.221-1.76-6.197-1.76-6.197s-2.403-1.294-4.345-4.527c-1.942-3.238-.461-7.027-.461-7.027s-1.942-2.407-2.403-5.827c-.465-3.42.922-5.731.922-5.731-1.291-1.851-.739-5.27-.739-5.27l1.942.09c-.091 3.05 1.386 5.271 1.386 5.271s-1.755 2.96-1.199 6.288c.552 3.328 2.216 4.623 2.216 4.623s-1.386 2.681.187 5.918c1.573 3.233 4.254 4.806 4.254 4.806s-.556 3.146 1.938 5.827c2.498 2.681 5.366 2.216 5.366 2.216s.274 3.885 3.142 5.736c2.868 1.847 4.715 1.108 5.918 1.386 1.204.278 3.051 4.067 3.511 5.918.465 1.847-.369 4.346-2.307 4.898-1.943.556-3.146 2.407-3.146 2.407s-1.756-2.407-5.823-2.312c-4.071.091-5.366 2.494-5.366 2.494s-3.976-1.664-7.026-.369c-3.051 1.295-4.159 3.976-4.159 3.976s-2.959-1.108-6.105.278c-3.142 1.386-3.42 4.897-3.42 4.897s-3.141-.461-6.009 1.942c-2.868 2.408-2.681 5.363-2.681 5.363s-3.42 1.851-5.549 1.294c-2.125-.552-3.051-2.959-3.42-4.067-.369-1.108-.925-6.657-.925-6.657 1.294-1.295 3.237-3.884 3.515-6.101.278-2.22-.926-4.992-.926-4.992s2.312-3.329 2.221-6.01c-.096-2.681-2.59-4.81-2.59-4.81s1.108-3.328.183-6.009c-.922-2.681-3.881-4.068-3.881-4.068s.183-4.067-1.203-6.105c-1.387-2.033-4.902-2.494-4.902-2.494s-.182-2.403-.739-3.42c-.556-1.016-1.755-1.85-1.755-1.85.739-.926.647-2.495.647-2.495s1.2.37 2.403 1.847c1.204 1.482 1.573 3.515 1.573 3.515s3.051.552 4.715 3.329c1.664 2.772 1.573 6.379 1.573 6.379s2.772.925 3.789 4.623c1.017 3.698.278 7.213.278 7.213s1.573 1.755 1.942 4.715c.37 2.959-1.573 5.822-1.573 5.822 1.204 7.213-1.477 9.616-1.755 10.081-.278.461-2.129 2.864-.739 2.864 1.386 0 5.084-2.216 6.284-5.64 1.203-3.42 0-7.674 0-7.674s.647-1.756 1.112-5.175c.46-3.424-1.573-6.383-1.573-6.383s.834-3.79-.278-7.209c-1.108-3.424-4.067-5.089-4.067-5.089s0-3.232-2.034-6.192c-2.034-2.959-5.271-4.254-5.271-4.254s-.091-1.85-1.295-3.789c-1.203-1.942-3.789-1.942-3.789-1.942s-1.851-.743-2.681-1.573c-.834-.834-1.39-2.959.739-5.18 2.125-2.216 4.806-1.016 5.731.279.926 1.294-.556 3.145 1.295 4.532zm5.848-8.857a2.4 2.4 0 01.324 3.383 2.4 2.4 0 01-3.383.323 2.4 2.4 0 01-.324-3.382 2.4 2.4 0 013.383-.324zm-1.681-10.03a2.412 2.412 0 013.387-.325 2.411 2.411 0 01.323 3.387 2.411 2.411 0 01-3.386.324 2.411 2.411 0 01-.324-3.387zm11.372 17.351c.676 1.739 5.287 22.943 5.287 22.943s-10.919-18.751-11.596-20.49a3.382 3.382 0 011.926-4.383 3.389 3.389 0 014.383 1.93zm-3.379-11.189a2.405 2.405 0 113.713 3.055 2.405 2.405 0 01-3.713-3.055zm19.726-5.391a2.405 2.405 0 113.713 3.063 2.405 2.405 0 01-3.713-3.063zm16.033 5.91l1.817-.992s.332.66 2.81 1.569c2.478.909 3.553 1.24 3.553 1.24s-.166.66-.328 3.391c-.166 2.727.909 3.719.909 3.719s-3.225 1.984-3.059 5.62c.166 3.635 3.885 6.528 3.885 6.528s-1.158 2.81.166 5.37c1.319 2.565 3.884 3.723 4.295 5.707.415 1.979-.083 4.212.498 4.627.577.411.743.166 1.154-.581.415-.743.415-3.552 2.233-4.627 1.817-1.075 4.793-2.233 5.951-4.296 1.158-2.067.992-4.216.992-4.216s4.627-.91 6.034-3.885c1.403-2.976.577-6.034-.249-7.852 0 0 2.561-.66 3.308-6.612 0 0 1.98.826 3.719.826 1.734 0 3.137-1.158 3.137-1.158s.909 1.656 2.067 2.233c0 0-1.158 1.407-1.486 3.39-.332 1.98.328 3.803.328 3.803s-1.652.576-2.81 2.726c-1.153 2.15-.659 4.296-.659 4.296s-1.569 0-3.47 1.739c-1.901 1.734-1.984 3.963-1.984 3.963s-1.735-.41-4.05 1.241c-2.316 1.652-2.727 3.553-2.727 3.553s-3.059-1.237-5.786.581c-2.726 1.817-3.473 5.287-2.975 6.279.494.992 1.901 3.142.577 5.125-1.32 1.984-3.719 2.976-4.379 3.802 0 0-.838-1.822-1.585-2.843s-1.905-3.129-.137-5.781c1.768-2.656 1.427-2.997.477-5.786-.95-2.788-3.739-3.262-5.578-3.535 0 0 .341-1.022-1.361-3.674-1.702-2.651-3.602-2.514-3.602-2.514s.543-1.976-.548-4.288c-1.088-2.311-2.515-2.652-2.515-2.652s1.087-1.838.543-4.424c-.543-2.581-1.481-3.843-1.481-3.843s1.652-.743 2.233-3.718c.576-2.976.083-4.051.083-4.051zm4.922-7.956a2.408 2.408 0 013.386-.328 2.405 2.405 0 11-3.386.328zm17.385 13.077a2.404 2.404 0 11-3.71-3.059 2.404 2.404 0 013.71 3.059zm2.959 8.583a2.405 2.405 0 11-3.061 3.71 2.405 2.405 0 013.061-3.71zm-5.972 11.596a2.412 2.412 0 01-3.387.323 2.404 2.404 0 013.059-3.71 2.41 2.41 0 01.328 3.387zm-.54-30.048a2.404 2.404 0 11-3.71-3.058 2.404 2.404 0 013.71 3.058zm-3.556 17.564a2.409 2.409 0 01.328 3.386 2.405 2.405 0 11-.328-3.386zm20.601-16.746a2.403 2.403 0 114.163 2.402 2.403 2.403 0 01-4.163-2.402zm14.016 6.134a2.412 2.412 0 01-3.387.323 2.405 2.405 0 113.387-.324zm1.502 6.594a2.408 2.408 0 01.324 3.383 2.41 2.41 0 01-3.387.328 2.405 2.405 0 113.063-3.71zm-3.897 9.372a2.405 2.405 0 11-3.061 3.71 2.405 2.405 0 013.061-3.71zm-.398 14.687c1.971-2.204 1.726-5.599 1.726-5.599s3.793-1.9 4.939-4.195c1.145-2.295-.22-5.728-.22-5.728s2.092-1.39 2.735-2.41c.643-1.022.788-2.54.788-2.54 1.221.203 2.603-.677 2.603-.677s.273 1.278-.461 3.125c-.735 1.847-2.395 3.216-2.395 3.216s1.046 3.055-.631 5.98c-1.676 2.922-5.005 4.674-5.005 4.674s.569 2.992-2.278 5.798c-2.847 2.805-6.421 3.917-6.421 3.917s-.797 2.325-3.299 4.163c-2.503 1.843-6.097 1.532-6.097 1.532-5.951 4.76-9.5 3.544-10.06 3.527-.564-.016-3.689-.477-2.984.785.706 1.261 4.603 3.498 8.325 2.851 3.723-.648 6.981-3.901 6.981-3.901s1.926-.303 5.275-1.623c3.345-1.32 5.001-4.673 5.001-4.673s3.872-1.171 6.42-3.918c2.549-2.752 2.557-6.288 2.557-6.288s2.947-1.643 4.603-4.996c1.655-3.358 1.187-6.96 1.187-6.96s1.635-1.021 2.793-3.105c1.153-2.079-.162-4.432-.162-4.432s-.27-2.059.066-3.237c.332-1.183 1.984-2.769 5.084-1.963 3.1.809 3.37 3.86 2.665 5.358-.71 1.498-3.142 1.091-3.466 3.477-.319 2.39 1.465 4.595 1.465 4.595s-18.838 33.044-20.826 35.808c-1.983 2.764-4.42 2.361-5.955 1.784-1.536-.577-3.125-3.22-2.494-5.449.63-2.229 4.316-3.337 6.221-1.71 2.174 1.859 3.482 1.693 3.482.702-.004-.992-1.83-4.155-4.453-4.894-2.623-.742-6.205 1.192-7.504 2.856-1.091 1.403-2.66 5.901.017 9.703 2.676 3.802 7.138 3.295 7.138 3.295s1.361 5.201 4.723 6.08c3.362.88 7.022-.025 9.276-2.755 2.237-2.715 2.494-5.051 1.622-6.964-1.51-3.329-3.689-4.113-4.793-3.848-1.303.316-1.419 1.017.456 3.387 1.876 2.374.399 5.893-1.863 6.387-2.266.49-3.578.075-5.246-2.523-1.672-2.594 1.677-5.682 1.677-5.682l31.321-26.113c2.204 2.959 6.736.207 6.736.207s.556-1.967 1.117-2.942c.56-.975 2.573-3.096 5.715-.436 3.141 2.66.962 5.864-.337 6.703-1.299.834-3.797.905-5.706 1.639-1.905.735-4.022 3.466-4.022 3.466s-2.938-.125-6.507 1.979c-3.57 2.108-4.304 4.943-4.304 4.943s-2.797.129-5.902 3.851c-3.108 3.723-3.125 8.039-3.125 8.039s-2.834 1.254-4.291 5.159c-1.461 3.906-1.021 6.861-1.021 6.861s-2.283 1.054-2.615 5.984c-.336 4.935 4.873 9.309 4.873 9.309l1.398-1.444s-2.37-3.644-2.693-6.993c-.328-3.35 3.212-6.101 3.212-6.101s-1.096-3.142-.203-6.288c.888-3.146 4.739-4.748 4.739-4.748s-.041-2.842 1.913-6.254c1.955-3.411 6.155-3.992 6.155-3.992s1.2-2.989 4.08-5.147c2.876-2.162 5.682-2.075 5.682-2.075 1.025-2.116 4.42-3.353 4.42-3.353l.9 1.813c-2.822 1.47-4.088 3.943-4.088 3.943s-3.586-.095-6.329 2.104c-2.747 2.196-3.075 4.366-3.075 4.366s-3.146.104-5.292 3.179c-2.141 3.072-2.208 6.313-2.208 6.313s-3.141 1.091-4.312 4.727c-1.17 3.631.706 6.005.706 6.005s-3.391 2.225-3.615 5.773c-.224 3.549 1.386 4.852 1.747 6.089.357 1.232-2.15 4.843-3.598 6.204-1.444 1.357-4.138 1.872-5.632.386-1.49-1.481-3.785-1.635-3.785-1.635s1.295-2.822-.859-6.474c-2.15-3.653-4.997-3.611-4.997-3.611s-.506-4.461-3.233-6.578c-2.731-2.117-5.731-1.764-5.731-1.764s-.498-3.254-3.358-5.408c-2.859-2.154-6.196-.622-6.196-.622s-1.175-3.092-4.818-4.478c-3.644-1.386-6.242.286-6.242.286s-3.42-2.171-3.997-4.387c-.577-2.216 1.137-4.279 1.959-5.179.822-.901 5.586-4.225 5.586-4.225 1.834.519 5.175.967 7.338.091 2.158-.876 4.071-3.378 4.071-3.378s4.2.411 6.595-1.038c2.39-1.444 3.054-4.797 3.054-4.797s3.594-.685 5.562-2.889zm9.362-29.906a2.405 2.405 0 013.711 3.058 2.4 2.4 0 01-3.383.324 2.404 2.404 0 01-.328-3.382zm20.067 19.265a3.384 3.384 0 01.307 4.773c-1.237 1.407-17.929 15.264-17.929 15.264s11.612-18.327 12.845-19.73a3.38 3.38 0 014.777-.307zm-1.636-9.147a2.402 2.402 0 111.972 4.383 2.404 2.404 0 01-3.179-1.208 2.4 2.4 0 011.207-3.175zm11.09 8.786a2.404 2.404 0 11-4.386 1.972 2.404 2.404 0 014.386-1.972zm-.818-12.459a2.406 2.406 0 011.972 4.387 2.404 2.404 0 11-1.972-4.387zm38.842 75.737a2.402 2.402 0 01-2.527 2.275 2.402 2.402 0 01-2.275-2.524 2.408 2.408 0 012.528-2.278 2.405 2.405 0 012.274 2.527zm-.83-19.219a2.404 2.404 0 114.801.252 2.404 2.404 0 01-4.801-.252zm2.088 30.201a2.404 2.404 0 11-4.802-.254 2.404 2.404 0 014.802.254zm-7.052-18.743a2.404 2.404 0 11.254-4.802 2.404 2.404 0 01-.254 4.802zm-1.05-12.633a2.408 2.408 0 01-2.527 2.279 2.407 2.407 0 01-2.274-2.528 2.4 2.4 0 012.527-2.274 2.4 2.4 0 012.274 2.523zm-6.901-7.632a2.405 2.405 0 112.527-2.274 2.407 2.407 0 01-2.527 2.274zm-.345 15.978a2.4 2.4 0 01-2.523 2.275 2.406 2.406 0 01-2.279-2.524 2.408 2.408 0 012.528-2.278 2.405 2.405 0 012.274 2.527zm-2.785-26.785a2.4 2.4 0 01-2.523 2.274 2.407 2.407 0 01-2.278-2.527 2.407 2.407 0 012.527-2.275 2.402 2.402 0 012.274 2.528zm-4.789 7.321s-.436.631-.029 3.328c.411 2.698.643 3.839.643 3.839s-.68.179-3.237 1.382c-2.552 1.204-2.918 2.673-2.918 2.673s-3.399-1.938-6.615.021c-3.212 1.954-3.988 6.765-3.988 6.765s-3.121.344-4.786 2.817c-1.664 2.474-1.44 5.371-3.033 6.728-1.594 1.361-3.864 2.021-3.951 2.752-.087.73.22.755 1.099.759.88.004 3.429-1.39 5.304-.278 1.88 1.116 4.404 3.237 6.852 3.262 2.449.021 4.317-1.195 4.317-1.195s3.121 3.743 6.516 3.536c3.394-.204 5.756-2.474 6.993-4.126 0 0 1.876 1.997 7.636-.286 0 0 .237 2.208 1.1 3.781.863 1.573 2.61 2.27 2.61 2.27s-1.05 1.648-.996 2.984c0 0-1.851-.353-3.814.336-1.959.685-3.278 2.187-3.278 2.187s-1.349-1.211-3.868-1.191c-2.524.017-4.225 1.536-4.225 1.536s-.781-1.424-3.3-2.287c-2.515-.859-4.582.174-4.582.174s-.485-1.776-3.133-3.054c-2.648-1.278-4.578-.706-4.578-.706s-.394-3.39-3.399-4.959c-3.004-1.569-6.52-.515-7.171.427-.652.942-1.901 3.283-4.358 3.067-2.453-.211-4.545-1.892-5.624-2.079 0 0 1.241-1.664 1.793-2.851.552-1.183 1.889-3.279 5.171-2.997 3.283.287 3.424-.19 5.479-2.44 2.054-2.249 1.1-5.013.436-6.81 0 0 1.095-.2 2.652-3.059 1.56-2.86.493-4.52.493-4.52s2.059-.485 3.611-2.623c1.556-2.137 1.154-3.598 1.154-3.598s2.208.075 4.279-1.706c2.075-1.776 2.751-3.253 2.751-3.253s1.494 1.128 4.478.178c2.984-.954 3.715-1.938 3.715-1.938l1.801 1.154zm-3.445 26.233a2.403 2.403 0 012.275 2.528 2.4 2.4 0 01-2.524 2.274 2.407 2.407 0 01-2.278-2.527 2.407 2.407 0 012.527-2.275zm-3.934-5.067a2.404 2.404 0 11.254-4.802 2.404 2.404 0 01-.254 4.802zm-4.432 5.731a2.406 2.406 0 01-2.528 2.275 2.4 2.4 0 01-2.274-2.524 2.404 2.404 0 114.802.249zm26.071 22.179a2.403 2.403 0 01-2.527 2.274 2.4 2.4 0 01-2.275-2.523 2.406 2.406 0 012.524-2.279 2.41 2.41 0 012.278 2.528zm-9.686 2.366a2.405 2.405 0 11-4.803-.247 2.405 2.405 0 014.803.247zm-10.094-.797a2.406 2.406 0 01-2.527 2.278 2.407 2.407 0 01-2.275-2.527 2.406 2.406 0 012.528-2.275 2.4 2.4 0 012.274 2.524zm-9.562-3.15a2.403 2.403 0 01-2.523 2.278 2.408 2.408 0 01-2.279-2.527 2.408 2.408 0 012.528-2.275 2.398 2.398 0 012.274 2.524zm-8.217-6.441a2.404 2.404 0 11-4.802-.254 2.404 2.404 0 014.802.254zm-6.885-17.589a2.412 2.412 0 01-2.528 2.279 2.404 2.404 0 112.528-2.279zm-1.702-10.081a2.404 2.404 0 114.802.254 2.404 2.404 0 01-4.802-.254zm5.084-8.246a2.404 2.404 0 112.274 2.523 2.4 2.4 0 01-2.274-2.523zm7.338-7.276a2.403 2.403 0 012.527-2.274 2.4 2.4 0 012.274 2.523 2.404 2.404 0 11-4.801-.249zm8.885-4.449a2.404 2.404 0 114.802.254 2.404 2.404 0 01-4.802-.254zm9.533-9.645a2.404 2.404 0 11-4.802-.252 2.404 2.404 0 014.802.252zm-74.044 111.919c4.723-6.943 1.623-13.098 1.511-13.322 4.939 2.432 13.023-4.441 13.023-4.441-2.643 13.775-14.534 17.763-14.534 17.763zm6.628 6.076a2.405 2.405 0 01-1.818-4.453 2.404 2.404 0 111.818 4.453zm5.387-12.364a2.408 2.408 0 013.138 1.316 2.409 2.409 0 01-1.316 3.138 2.408 2.408 0 01-3.138-1.316 2.41 2.41 0 011.316-3.138zm1.067-19.099c-2.059 2.959-6.201 6.346-9.795 6.549-3.598.199-6.74-1.448-8.612-2.365-1.967-.959-2.888-1.465-4.162-2.652s-2.158-3.428-1.046-5.454c.93-1.689 3.237-2.764 5.532-1.22 2.291 1.54 2.793 3.889 1.793 5.474 0 0 3.395 2.972 7.022.98 3.628-1.992 5.719-4.611 7.778-4.744 1.652-.108 2.033-.1 2.12-.523.158-.73-1.128-.934-2.116-1.747-.984-.809-3.059-4.756-4.221-6.068-1.166-1.315-5.37-3.532-8.902-1.452 0 0 .784 2.527-1.328 3.722-2.117 1.191-5.068 1.27-6.084-1.128-1.017-2.399-.345-4.645 3.424-6.13 3.768-1.486 6.416-3.412 11.819-.735 5.408 2.681 5.765 5.59 7.043 7.624 1.187 1.884 1.113 3.64 3.042 5.383a.529.529 0 01-.012.809c-.672.544-1.913 1.693-3.295 3.677zm-27.823 27.852c-3.599-.24-8.637-2.046-10.662-5.026-2.026-2.975-2.229-6.52-2.407-8.595-.191-2.179-.229-3.233.132-4.934.361-1.706 1.826-3.615 4.134-3.706 1.93-.071 4.034 1.353 3.897 4.112-.141 2.76-1.897 4.4-3.772 4.358 0 0-.797 4.441 2.78 6.524 3.574 2.084 6.894 2.528 8.072 4.225.942 1.357 1.129 1.689 1.536 1.548.71-.245.224-1.448.411-2.714.187-1.262 2.502-5.072 3.025-6.744.527-1.677.266-6.425-3.341-8.379 0 0-1.759 1.975-3.872.776-2.112-1.196-3.698-3.686-2.166-5.794 1.531-2.104 3.801-2.685 7.018-.22 3.216 2.465 6.225 3.739 6.715 9.753.49 6.014-1.822 7.819-2.905 9.965-1.009 1.983-2.549 2.826-3.047 5.378a.533.533 0 01-.701.407c-.813-.299-2.44-.772-4.847-.934zm2.71 12.65a2.403 2.403 0 11-1.822-4.449 2.404 2.404 0 111.822 4.449zm-31.065-11.16c8.512.83 12.414-5.071 12.414-5.071.228 5.507 10.143 9.304 10.143 9.304-13.356 4.288-22.557-4.233-22.557-4.233zm11.086 12.48a2.404 2.404 0 11-1.824-4.45 2.404 2.404 0 011.824 4.45zm-18.764-18.979a.532.532 0 01-.697-.415c-.133-.851-.506-2.503-1.531-4.69-1.532-3.266-2.391-8.545-.768-11.762 1.627-3.212 4.627-5.108 6.358-6.27 1.814-1.221 2.714-1.764 4.383-2.275 1.664-.51 4.042-.153 5.241 1.826.997 1.648.772 4.184-1.709 5.396-2.486 1.216-4.769.473-5.641-1.187 0 0-4.27 1.456-4.361 5.59-.092 4.138 1.128 7.259.215 9.11-.734 1.481-.933 1.809-.614 2.096.56.502 1.378-.511 2.573-.959 1.196-.448 5.649-.266 7.371-.619 1.718-.348 5.744-2.88 5.707-6.98 0 0-2.578-.585-2.553-3.009.025-2.428 1.436-5.022 4.022-4.702 2.581.319 4.191 2.025 3.59 6.03-.598 4.009-.258 7.263-5.279 10.6-5.026 3.341-7.724 2.195-10.127 2.282-2.224.083-3.706-.859-6.18-.062zm.424 10.425a2.41 2.41 0 01-3.138-1.315 2.406 2.406 0 113.138 1.315zm-8.218-18.256c-10.782-8.973-8.52-21.312-8.52-21.312 3.864 7.632 10.936 7.765 10.936 7.765-4.528 3.142-2.416 13.547-2.416 13.547zm.021 12.052a2.405 2.405 0 01-1.822-4.453 2.403 2.403 0 013.134 1.315 2.403 2.403 0 01-1.312 3.138zm-10.695-52.061a2.403 2.403 0 11-4.45 1.818 2.403 2.403 0 014.45-1.818zm.934-10.155a2.403 2.403 0 111.818 4.449 2.403 2.403 0 01-1.818-4.449zm-2.843 20.722a2.403 2.403 0 01-1.316 3.133 2.404 2.404 0 111.316-3.133zm-2.129 8.545a2.403 2.403 0 013.133 1.316 2.403 2.403 0 11-4.449 1.822 2.408 2.408 0 011.316-3.138zm2.548 10.932a2.409 2.409 0 013.138 1.315 2.407 2.407 0 11-3.138-1.315zm4.615 9.595a2.408 2.408 0 013.138 1.316 2.407 2.407 0 01-4.454 1.822 2.409 2.409 0 011.316-3.138zm3.154-25.275c-1.237-1.851-1.212-3.602-3.187-5.291a.529.529 0 01-.013-.809c.656-.565 1.868-1.748 3.192-3.769 1.971-3.017 6.018-6.52 9.608-6.823 3.59-.303 6.777 1.258 8.674 2.121 1.992.905 2.926 1.386 4.233 2.536 1.311 1.149 2.253 3.366 1.199 5.42-.884 1.714-3.158 2.851-5.495 1.378-2.336-1.478-2.901-3.81-1.946-5.425 0 0-3.478-2.872-7.047-.78-3.569 2.092-5.586 4.769-7.641 4.964-1.647.153-2.029.153-2.108.577-.133.738 1.158.904 2.166 1.689 1.009.78 3.192 4.669 4.396 5.947 1.199 1.283 5.465 3.378 8.935 1.2 0 0-.855-2.503 1.224-3.756 2.08-1.25 5.03-1.416 6.114.954 1.083 2.37.473 4.632-3.25 6.225-3.727 1.59-6.317 3.59-11.795 1.067-5.478-2.523-5.918-5.424-7.259-7.425zm13.102-34.488c-4.602 7.209-1.112 13.364-1.112 13.364-5.009-2.295-12.89 4.822-12.89 4.822 2.232-13.849 14.002-18.186 14.002-18.186zm-5.478-5.802a2.408 2.408 0 013.138 1.316 2.408 2.408 0 01-1.316 3.137 2.406 2.406 0 01-1.822-4.453zm-5.901 11.932a2.406 2.406 0 01-1.822-4.453 2.409 2.409 0 013.137 1.315 2.41 2.41 0 01-1.315 3.138zm22.548-10.923c.784.356 2.369.954 4.76 1.303 3.565.523 8.446 2.714 10.234 5.843 1.785 3.125 1.71 6.678 1.731 8.757.017 2.187-.025 3.242-.519 4.91-.489 1.672-2.1 3.461-4.411 3.37-1.926-.075-3.914-1.66-3.561-4.403.353-2.74 2.233-4.238 4.1-4.051 0 0 1.137-4.362-2.262-6.719-3.403-2.354-6.677-3.055-7.719-4.84-.834-1.431-.996-1.772-1.411-1.668-.726.191-.336 1.432-.619 2.677-.286 1.245-2.892 4.86-3.548 6.491-.652 1.627-.759 6.379 2.681 8.608 0 0 1.909-1.831 3.918-.469 2.013 1.357 3.403 3.963 1.71 5.943-1.689 1.983-4.001 2.382-7.014-.324-3.013-2.71-5.918-4.217-5.935-10.247-.017-6.034 2.424-7.653 3.677-9.711 1.158-1.901 2.756-2.615 3.457-5.122a.531.531 0 01.731-.348zm1.017-10.583a2.402 2.402 0 111.817 4.449 2.403 2.403 0 01-1.817-4.449zm31.666 10.715c-9.272-.975-12.995 5.528-12.995 5.528-.63-5.474-11.907-9.732-11.907-9.732 16.124-5.229 24.902 4.204 24.902 4.204zm-22.038-12.67a2.403 2.403 0 013.133 1.315 2.404 2.404 0 11-4.449 1.822 2.4 2.4 0 011.316-3.137zm10.251.34a2.403 2.403 0 111.822 4.449 2.403 2.403 0 11-1.822-4.449zm18.863 18.61a.53.53 0 01.676.444c.104.855.415 2.519 1.362 4.743 1.411 3.316 2.075 8.629.332 11.779-1.744 3.154-4.815 4.934-6.583 6.034-1.855 1.154-2.78 1.664-4.461 2.113-1.685.448-4.051.004-5.171-2.017-.938-1.685-.619-4.209 1.905-5.333 2.527-1.121 4.781-.295 5.594 1.394 0 0 4.32-1.295 4.561-5.424.245-4.13-.859-7.292.125-9.11.784-1.457.996-1.776.689-2.075-.54-.519-1.395.461-2.607.863-1.212.403-5.656.058-7.387.349-1.735.286-5.848 2.664-5.964 6.765 0 0 2.557.68 2.44 3.104-.116 2.424-1.618 4.964-4.187 4.549-2.573-.415-4.117-2.179-3.37-6.159.747-3.985.523-7.247 5.669-10.401 5.142-3.15 7.798-1.905 10.201-1.905 2.225 0 3.673.992 6.176.287zm.398-10.861a2.403 2.403 0 111.819 4.449 2.403 2.403 0 01-1.819-4.449zm-16.995 52.027s-1.743-.278-3.345.975c-1.602 1.253-2.092 2.507-2.092 2.507s-1.394-.835-3.137-.627c-1.739.212-3.204 1.116-3.204 1.116s-1.324-1.602-3.138-2.162c-1.809-.556-3.133-.348-3.133-.348s.556-1.673-.839-3.204c-1.394-1.536-2.718-1.744-2.718-1.744s.838-1.602.56-3.693c-.282-2.092-1.743-3.345-1.743-3.345s1.752-.98 2.656-2.86c.905-1.884.897-4.179.897-4.179s1.187.627 3.208-.556c2.021-1.187 2.021-2.652 2.021-2.652s.834 1.116 2.785 1.046c1.955-.067 3.557-1.324 3.557-1.324s-.071 1.257 2.021 2.091c2.091.839 4.113.42 4.113.42s-.349 1.394.834 2.789c1.187 1.39 2.926 1.672 2.926 1.672s-.905 1.461-.697 3.972c.211 2.507 1.045 3.831 1.045 3.831s-1.045-.067-2.158 2.51c-1.116 2.578-.419 3.765-.419 3.765zm-19.556-31.189a3.263 3.263 0 11.001-6.525 3.263 3.263 0 01-.001 6.525zm24.76.207a3.263 3.263 0 016.525 0 3.263 3.263 0 11-6.525 0zm4.549-21.577a2.403 2.403 0 11-1.822-4.449 2.403 2.403 0 111.822 4.449zm-40.182 3.022a2.406 2.406 0 11-1.822-4.455 2.406 2.406 0 011.822 4.455zm-3.225 37.157a3.263 3.263 0 11-6.525-.001 3.263 3.263 0 016.525.001zm9.674 26.656a3.264 3.264 0 11-3.262-3.262 3.263 3.263 0 013.262 3.262zm-3.781 21.698a2.403 2.403 0 013.134 1.315 2.403 2.403 0 11-4.449 1.822 2.407 2.407 0 011.315-3.137zm19.689 4.038a2.403 2.403 0 111.818 4.449 2.403 2.403 0 01-1.818-4.449zm5.217-21.768a3.263 3.263 0 016.524 0 3.264 3.264 0 01-3.262 3.266 3.264 3.264 0 01-3.262-3.266zm14.828 16.09a2.403 2.403 0 111.822 4.449 2.404 2.404 0 11-1.822-4.449zm2.901-38.161a3.263 3.263 0 013.263-3.262 3.264 3.264 0 110 6.528 3.264 3.264 0 01-3.263-3.266zm10.372-30.807c11.965 12.002 8.01 22.951 8.01 22.951-3.333-8.707-10.816-9.077-10.816-9.077 4.595-3.046 2.806-13.874 2.806-13.874zm-.548-10.82a2.41 2.41 0 013.138 1.316 2.409 2.409 0 01-1.316 3.138 2.409 2.409 0 01-3.138-1.316 2.41 2.41 0 011.316-3.138zm6.296 7.79a2.408 2.408 0 013.137 1.316 2.402 2.402 0 01-1.315 3.133 2.404 2.404 0 11-1.822-4.449zm2.224 49.911a2.403 2.403 0 111.818 4.45 2.403 2.403 0 01-1.818-4.45zm2.636-40.07a2.402 2.402 0 111.818 4.449 2.404 2.404 0 01-1.818-4.449zm-.938 33.803a2.403 2.403 0 114.449-1.818 2.403 2.403 0 01-4.449 1.818zm2.461-10.786a2.403 2.403 0 113.133 1.311 2.398 2.398 0 01-3.133-1.311zm3.241-9.168a2.407 2.407 0 111.316-3.138 2.408 2.408 0 01-1.316 3.138zm-29.753-70.288a2.404 2.404 0 113.706 3.059 2.399 2.399 0 01-3.382.323 2.4 2.4 0 01-.324-3.382zm9.218-3.499a2.404 2.404 0 113.706 3.063 2.404 2.404 0 01-3.706-3.063zm10.903-3.872a2.404 2.404 0 11-.324-3.382 2.4 2.4 0 01.324 3.382zm-34.663 9.736a2.404 2.404 0 11-4.03-2.624 2.404 2.404 0 014.03 2.624zm-10.973-10.242a2.405 2.405 0 014.03 2.623 2.405 2.405 0 01-4.03-2.623zm-.556-5.914a2.401 2.401 0 01-3.325.701 2.406 2.406 0 01-.701-3.328 2.407 2.407 0 013.328-.698 2.4 2.4 0 01.698 3.325zm1.523-27.94a2.4 2.4 0 01-3.383.324 2.399 2.399 0 01-.323-3.382 2.398 2.398 0 013.382-.324 2.4 2.4 0 01.324 3.382zm-4.213 4.698a2.409 2.409 0 01.702 3.329 2.405 2.405 0 01-4.03-2.627 2.405 2.405 0 013.328-.702zm-.614 9.92a2.398 2.398 0 01.697 3.324 2.4 2.4 0 01-3.324.701 2.404 2.404 0 112.627-4.026zm-43.146 28.296a2.404 2.404 0 013.034 1.535 2.401 2.401 0 11-4.565 1.498 2.401 2.401 0 011.531-3.033zm-2.693-3.897a2.404 2.404 0 01-3.034-1.536 2.402 2.402 0 114.565-1.498 2.402 2.402 0 01-1.531 3.034zm3.532 22.124a2.406 2.406 0 011.502 4.57 2.404 2.404 0 01-1.502-4.57zm2.341-4.66a2.402 2.402 0 01-3.034-1.532 2.402 2.402 0 011.531-3.034 2.406 2.406 0 013.038 1.532 2.408 2.408 0 01-1.535 3.034zm-12.327 24.478a2.403 2.403 0 01-3.183-1.187 2.4 2.4 0 011.183-3.188 2.406 2.406 0 012 4.375zm-8.777 2.257a2.403 2.403 0 01-3.184-1.187 2.396 2.396 0 011.183-3.183 2.4 2.4 0 013.188 1.183 2.406 2.406 0 01-1.187 3.187zm-9.587.154a2.405 2.405 0 01-3.188-1.187 2.402 2.402 0 011.187-3.183 2.399 2.399 0 013.183 1.183 2.4 2.4 0 01-1.182 3.187zm-8.55-2.602a2.407 2.407 0 01-3.187-1.187 2.406 2.406 0 113.187 1.187zm-2.403-30.006a2.404 2.404 0 01-3.033-1.536 2.404 2.404 0 011.53-3.034 2.405 2.405 0 011.503 4.57zm-3.357-9.305a2.404 2.404 0 11-1.499-4.569 2.404 2.404 0 011.499 4.569zm-.22 14.966a2.404 2.404 0 01-4.565 1.502 2.406 2.406 0 011.531-3.038 2.407 2.407 0 013.034 1.536zM79.34 135.6a2.402 2.402 0 013.183 1.187 2.401 2.401 0 01-1.183 3.187 2.405 2.405 0 01-2-4.374zm-3.026-3.341a2.404 2.404 0 11-1.502-4.567 2.404 2.404 0 011.502 4.567zm-2.739 6.117a2.405 2.405 0 01-4.57 1.503 2.407 2.407 0 011.536-3.034 2.402 2.402 0 013.034 1.531zm36.323 80.195a2.407 2.407 0 011.315-3.137 2.407 2.407 0 013.138 1.315 2.408 2.408 0 01-1.316 3.138 2.407 2.407 0 01-3.137-1.316zm2.307 8.379a2.406 2.406 0 01-2.403 2.408 2.406 2.406 0 010-4.811 2.402 2.402 0 012.403 2.403zm1.411-14.92c-1.568 1.333-3.063.266-5.163.345-1.631.058-3.482 1.888-4.249 4.382-.768 2.495 1.452 4.765 1.452 4.765s-1.913.236-3.183 2.693c-1.27 2.457-.357 4.117-.357 4.117s-1.785.245-3.35 1.872c-1.56 1.627-1.58 4.304-1.58 4.304s-1.598-.623-3.42.452c-1.826 1.079-2.312 3.545-2.312 3.545s-1.316-.984-3.005-.681c-1.693.303-2.739 2.171-2.739 2.171s-.97-.905-2.257-1.279c0 0 .381-1.739-.067-3.847-.448-2.104-1.332-2.826-1.332-2.826.033 0 1.689-.004 2.776-.847 1.1-.855 1.582-2.581 1.582-2.581s4.05 2.672 7.682-.822c3.631-3.499 2.614-6.45 2.614-6.45s2.806-.282 3.964-1.734c1.162-1.457 1.656-4.578 2.731-5.89 1.075-1.307 3.735-2.589 4.179-3.008.448-.415.162-1.648-.619-1.553-.78.096-3.179.752-4.316.233-1.137-.515-5.308-3.084-7.092-3.188-1.79-.099-4.362 1.254-4.362 1.254s-2.445-3.304-6.242-3.403c-3.798-.096-6.587 3.814-6.587 3.814s-1.174-.702-2.183-.693c-1.357.012-2.266.975-2.266.975s-.527-1.81-.992-2.648c-.464-.838-1.643-1.415-2.473-1.909 0 0 .656-2.154.871-2.623 0 0 1.669-.253 2.561-.643.892-.395 2.108-2.104 2.108-2.104s2.391.967 4.072.913c1.677-.054 3.303-1.453 3.303-1.453s1.897 1.461 3.528 1.706c1.631.249 3.669-.511 3.669-.511s1.42 2.034 3.25 3.059c1.826 1.025 3.805.689 3.805.689s1.125 3.308 3.221 4.428c.556.295 1.228.494 1.913.627 1.963.378 3.972-.27 5.404-1.664.796-.776 1.834-1.436 2.95-1.324 3.628.361 4.541 1.822 5.944 2.154 0 0-1.349 3.411-3.433 5.183zm-6.316 23.183a2.404 2.404 0 01-2.403 2.403 2.404 2.404 0 010-4.81 2.405 2.405 0 012.403 2.407zm-7.097 5.678a2.402 2.402 0 01-2.403 2.403 2.405 2.405 0 010-4.81 2.405 2.405 0 012.403 2.407zm-7.873 4.258a2.402 2.402 0 01-2.403 2.403 2.402 2.402 0 01-2.403-2.403 2.402 2.402 0 012.403-2.403 2.402 2.402 0 012.403 2.403zm-6.632-30.442a2.405 2.405 0 11.005-4.81 2.405 2.405 0 01-.005 4.81zm3.59 4.79a2.405 2.405 0 010 4.81 2.405 2.405 0 010-4.81zm3.785-5.578a2.402 2.402 0 012.403-2.403 2.402 2.402 0 012.403 2.403 2.402 2.402 0 01-2.403 2.403 2.402 2.402 0 01-2.403-2.403zM68.84 195.023a2.41 2.41 0 011.315-3.138 2.406 2.406 0 11-1.316 3.138zm10.271-5.549a2.403 2.403 0 111.822 4.449 2.403 2.403 0 11-1.822-4.449zm8.857.299a2.41 2.41 0 013.138 1.315 2.406 2.406 0 11-3.138-1.315zm9.26 2.619a2.403 2.403 0 111.818 4.449 2.403 2.403 0 01-1.819-4.449zm7.544 5.432a2.403 2.403 0 111.822 4.449 2.4 2.4 0 01-3.133-1.315 2.398 2.398 0 011.311-3.134zm-42.664-10.869a2.403 2.403 0 013.133 1.315 2.403 2.403 0 11-4.45 1.822 2.404 2.404 0 011.317-3.137zm.701 10.566a2.408 2.408 0 013.138 1.316 2.407 2.407 0 01-1.316 3.137 2.407 2.407 0 01-3.137-1.315 2.408 2.408 0 011.315-3.138zm.465 11.451a2.404 2.404 0 114.81.003 2.404 2.404 0 01-4.81-.003zm.88 18.489a2.405 2.405 0 01-2.403 2.407 2.405 2.405 0 010-4.81 2.402 2.402 0 012.403 2.403zm3.964-10.745a2.405 2.405 0 11.003 4.81 2.405 2.405 0 01-.003-4.81zm3.768 10.048a2.402 2.402 0 012.403 2.403 2.402 2.402 0 01-2.403 2.403 2.402 2.402 0 01-2.403-2.403 2.402 2.402 0 012.403-2.403zm3.947 9.416a2.406 2.406 0 010 4.811 2.406 2.406 0 010-4.811zm2.332-12.504a2.402 2.402 0 01-2.403-2.403 2.402 2.402 0 012.403-2.403 2.402 2.402 0 012.403 2.403 2.402 2.402 0 01-2.403 2.403zm2.727 20.228a2.405 2.405 0 11.004 4.81 2.405 2.405 0 01-.004-4.81zm4.39 8.263a2.402 2.402 0 012.404 2.403 2.405 2.405 0 01-4.81 0 2.405 2.405 0 012.407-2.403zm72.941 3.661a2.402 2.402 0 01-2.403 2.403 2.402 2.402 0 01-2.403-2.403 2.402 2.402 0 012.403-2.403 2.402 2.402 0 012.403 2.403zm-8.516 4.515a2.405 2.405 0 11-4.81.003 2.405 2.405 0 014.81-.003zm-9.89 3.532a2.405 2.405 0 010 4.81 2.405 2.405 0 010-4.81zm31.591-4.648a2.406 2.406 0 012.403-2.408 2.405 2.405 0 11-2.403 2.408zm6.229 7.018a2.402 2.402 0 012.403-2.403 2.405 2.405 0 010 4.81 2.405 2.405 0 01-2.403-2.407zm5.255 35.077a2.408 2.408 0 012.407 2.403 2.405 2.405 0 11-2.407-2.403zm.066-26.3a2.404 2.404 0 114.811.003 2.404 2.404 0 01-4.811-.003zm1.996 17.693a2.405 2.405 0 114.81-.003 2.405 2.405 0 01-4.81.003zm2.598-6.358a2.402 2.402 0 01-2.403-2.403 2.405 2.405 0 014.81 0 2.405 2.405 0 01-2.407 2.403zm43.681-26.076a2.398 2.398 0 01-3.382.323 2.405 2.405 0 013.059-3.71 2.405 2.405 0 01.323 3.387zm.723 6.005a2.407 2.407 0 013.382-.324 2.406 2.406 0 01-3.059 3.711 2.405 2.405 0 01-.323-3.387zm-1.038-26.881a2.403 2.403 0 11-3.706-3.063 2.403 2.403 0 113.706 3.063zm-1.274 7.475a2.404 2.404 0 11-3.383.323 2.4 2.4 0 013.383-.323zm9.479-24.877a2.412 2.412 0 013.387-.323 2.403 2.403 0 01-3.059 3.71 2.409 2.409 0 01-.328-3.387zm9.595-2.527a2.405 2.405 0 113.71 3.06 2.405 2.405 0 01-3.71-3.06zm10.231.315a2.398 2.398 0 013.382-.323 2.4 2.4 0 01.324 3.382 2.4 2.4 0 01-3.383.324 2.4 2.4 0 01-.323-3.383zm9.591 2.847a2.403 2.403 0 013.386-.323 2.398 2.398 0 01.324 3.382 2.4 2.4 0 01-3.382.324 2.403 2.403 0 01-.328-3.383zm8.225 5.798a2.405 2.405 0 013.711 3.059 2.406 2.406 0 01-3.711-3.059zm-5.482 27.097a2.4 2.4 0 013.382-.324 2.403 2.403 0 11-3.058 3.71 2.403 2.403 0 01-.324-3.386zm4.64 10.118a2.405 2.405 0 113.713 3.062 2.405 2.405 0 01-3.713-3.062zm2.117-15.381a2.397 2.397 0 01-.324-3.382 2.4 2.4 0 013.382-.324 2.4 2.4 0 01.324 3.383 2.398 2.398 0 01-3.382.323zm20.692-72.579a2.403 2.403 0 11.25-4.801 2.404 2.404 0 01-.25 4.801zm30.314-93.408s4.602 4.602 5.075 10.736c.473 6.138-1.772 13.928-1.772 13.928s-1.295-7.317-8.022-11.566c0 0 4.482-4.84 4.719-13.098zm-6.5 3.544c.922 4.893-3.876 8.267-6.901 9.334-3.03 1.066-10.193 3.357-12.127.195-1.839-3 .112-6.466 3.851-6.37 1.847.049 2.299 1.688 3.217 2.572.456.44 1.361.3 1.925.025 1.469-.71 3.835-2.183 4.478-4.544.955-3.499 2.519-8.359 3.092-9.06.598-.727-.311-.415-1.917-.282-1.536.132-5.835-.967-8.396-.436-1.569.328-3.843 1.677-5.37 2.672a1.903 1.903 0 00-.59 2.557c.789 1.37 1.486 3.486-.149 5.354-2.685 3.059-5.898 1.506-7.155-1.295-1.814-4.038 2.805-9.724 4.735-10.87 1.934-1.149 5.835-4.096 10.612-2.747 4.777 1.345 8.849 3.096 10.646 3.3 0 0-.868 4.702.049 9.595zM308 86.142a3.263 3.263 0 116.525.001 3.263 3.263 0 01-6.525-.001zm-.195-25.105c5.665 2.715 8.259 7.197 8.259 7.197-7.786-2.715-13.451.71-13.451.71-1.179-5.902-7.553-9.679-7.553-9.679s7.08-.942 12.745 1.772zm-24.188 3.146c4.487.946 7.732 1.228 11.26 5.852 3.523 4.62.992 11.716.232 13.09-.763 1.37-3.992 4.586-5.681 4.316-1.689-.27-4.823-4.44-1.967-6.81 2.851-2.374 4.532-.22 4.361-3.557-.174-3.337-2.988-8.164-8.499-8.093-5.508.07-7.184 5.669-6.329 9.383.859 3.715 3.411.606 5.32 2.88 1.909 2.28 2.607 3.466.747 5.242-1.855 1.772-5.208 3.341-6.985-1.531-1.78-4.872 1.698-1.287-1.178-8.442-2.88-7.159-2.221-1.303-1.785.021.44 1.324-1.535 3.972-.983 6.462.547 2.49 1.963 1.432 2.876 4.47.913 3.034 2.195 4.573 3.947 4.648 1.751.075 4.378.104 5.872-2.054 0 0 1.378 1.249 3.291 1.481 1.918.237 4.105-1.058 4.105-1.058s.008.813 1.979 2.73c1.968 1.918 3.42 1.416 3.42 1.416s-1.676 3.067 2.03 6.454c0 0-1.71.801-1.876 3.009-.166 2.203.759 3.519.759 3.519s-3.071.689-3.868 4.2c-.797 3.511 1.938 4.544 2.436 5.511.498.963.835 1.773 1.104 2.773.274 1 1.312 1.278 3.644 1.216 2.337-.062 3.926.34 5.537 1.876 1.606 1.531 2.672 1.228 2.008-.058-.664-1.291-2.452-4.279-5.382-5.055-2.926-.772-5.358-.901-5.79-4.429-.436-3.527 3.959-4.652 5.628-3.312 1.668 1.337 2.643 3.852 1.73 6.197 0 0-.07 1.913 3.607 3.195 3.681 1.283 7.674-.452 9.583-3.394 1.905-2.943.07-7.131-2.324-9.401-2.395-2.27-4.761-2.112-5.242-1.942-.486.166-.843 2.635-2.424 3.208-1.581.569-4.154 1.897-6.171-1.058-2.013-2.955 1.1-5.134 3.233-5.582 2.133-.448 7.425-2.366 11.637.112 4.212 2.473 6.57 6.881 7.321 9.919.755 3.038-1.353 10.645-5.408 12.741-4.059 2.092-8.508 3.901-11.533 3.096-3.022-.805-5.151-2.399-7.031-2.407-1.88-.008-4.71 1.619-4.71 1.619s-1.349-1.669-3.27-2.391c0 0 1.249-3.743-.279-6.379-1.523-2.639-4.872-3.44-4.872-3.44s.61-3.084-1.469-6.006c-2.079-2.926-4.744-3.507-4.744-3.507s.743-2.664-1.398-5.395c-2.142-2.727-4.869-2.95-4.869-2.95s.557-2.242-1.975-5.093c-2.532-2.855-5.769-2.49-5.769-2.49s.535-1.17-.1-2.88c-.639-1.71-1.386-1.735-1.386-1.735s2.453-.776 3.022-4.574c.568-3.801.282-8.462 2.743-10.956 2.465-2.495 7.383-5.607 11.865-4.657zm.474 14.389a3.263 3.263 0 110-6.526 3.263 3.263 0 010 6.526zm25.345 34.604a3.263 3.263 0 116.525.001 3.263 3.263 0 01-6.525-.001zM270.748 31.65c3.71 5.067 3.88 10.246 3.88 10.246-5.582-6.071-12.193-5.727-12.193-5.727 1.718-5.66-1.959-11.882-2.084-12.094.204.075 6.74 2.586 10.397 7.575zm-14.949-2.59c3.394 3.648 1.141 9.06-.851 11.579-1.992 2.52-6.823 8.28-10.148 6.64-3.158-1.556-3.361-5.524-.145-7.441 1.586-.946 2.847.195 4.096.456.615.13 1.304-.473 1.64-1.008.863-1.382 2.071-3.893 1.357-6.234-1.063-3.47-2.333-8.412-2.225-9.309.117-.933-.485-.186-1.768.785-1.232.934-5.457 2.299-7.333 4.117-1.154 1.116-2.353 3.47-3.117 5.125-.423.926-.029 2.005.868 2.478 1.398.735 3.121 2.154 2.735 4.607-.635 4.017-4.18 4.42-6.74 2.722-3.69-2.444-2.823-9.715-1.802-11.72 1.021-2 2.744-6.574 7.504-7.985 4.756-1.415 9.135-2.108 10.761-2.897 0 0 1.777 4.44 5.168 8.085zm-14.435 3.897a3.263 3.263 0 013.262-3.266 3.263 3.263 0 010 6.528 3.263 3.263 0 01-3.262-3.262zm-10.952-18.249c6.266-.427 10.736 2.196 10.736 2.196-8.118 1.473-11.359 7.242-11.359 7.242-3.934-4.553-11.338-4.702-11.338-4.702s5.694-4.308 11.961-4.736zm-27.051 24.088c.85-3.399 3.502-8.578 7.843-10.047 4.346-1.465 7.28-2.872 12.667-.69 5.391 2.184 6.819 9.583 6.864 11.152.042 1.565-1.104 5.98-2.693 6.607-1.594.627-6.412-1.373-5.163-4.864 1.253-3.494 3.793-2.498 1.946-5.283-1.846-2.78-6.723-5.503-11.429-2.64-4.707 2.864-3.304 8.538-.677 11.297 2.632 2.764 3.246-1.211 6.047-.224 2.802.988 4.005 1.656 3.312 4.13-.697 2.473-2.785 5.524-6.798 2.237-4.009-3.287.813-1.972-5.308-6.67-6.122-4.694-2.573.013-1.523.93 1.05.913.697 4.2 2.44 6.063 1.739 1.86 2.42.233 4.748 2.383 2.332 2.145 4.221 2.818 5.765 1.992 1.548-.826 3.822-2.137 4.013-4.756 0 0 1.818.373 3.586-.399 1.768-.772 2.992-2.996 2.992-2.996s.423.689 3.096 1.34c2.669.652 3.665-.523 3.665-.523s.116 3.495 5.03 4.524c0 0-1.063 1.56-.083 3.544.979 1.98 2.444 2.644 2.444 2.644s-2.295 2.154-1.195 5.582c1.1 3.428 3.98 2.926 4.901 3.507.922.577 1.619 1.1 2.362 1.822.747.722 1.784.436 3.76-.805 1.975-1.241 3.552-1.706 5.715-1.204 2.166.502 2.93-.303 1.701-1.07-1.228-.772-4.291-2.437-7.2-1.615-2.914.826-5.076 1.95-7.242-.863-2.171-2.818 1.037-6.022 3.158-5.72 2.121.304 4.237 1.976 4.648 4.458 0 0 .909 1.685 4.727.913 3.818-.767 6.375-4.295 6.52-7.798.145-3.503-3.565-6.175-6.781-6.91-3.221-.735-5.171.606-5.504.996-.332.39.619 2.698-.452 3.992-1.071 1.3-2.61 3.752-5.852 2.233-3.237-1.519-1.664-4.98-.054-6.453 1.607-1.47 5.188-5.81 10.073-5.823 4.885-.017 9.16 2.581 11.351 4.814 2.191 2.229 4.25 9.853 1.826 13.72-2.428 3.865-5.337 7.687-8.35 8.534-3.013.846-5.657.556-7.28 1.506-1.618.95-3.233 3.79-3.233 3.79s-2.009-.752-4.03-.39c0 0-.83-3.86-3.486-5.355-2.652-1.494-5.943-.481-5.943-.481s-1.046-2.967-4.325-4.424c-3.274-1.457-5.864-.602-5.864-.602s-.718-2.673-3.951-3.93c-3.229-1.262-5.69-.067-5.69-.067s-.664-2.212-4.295-3.378c-3.632-1.17-6.23.793-6.23.793s-.137-1.283-1.556-2.428c-1.353-1.096-2.005-.822-2.067-.793.104-.12 1.664-2.025.266-5.474-1.444-3.557-4.063-7.425-3.212-10.828zm16.576-1.104a3.264 3.264 0 11-6.523.005 3.264 3.264 0 016.523-.005zm37.642 18.618a3.263 3.263 0 016.528 0 3.264 3.264 0 01-6.528 0zm-53.521 5.62a2.411 2.411 0 01.323 3.386 2.411 2.411 0 01-3.386.324 2.412 2.412 0 01-.324-3.387 2.412 2.412 0 013.387-.324zm-3.403-6.87a2.407 2.407 0 01-3.287.88 2.403 2.403 0 01-.88-3.282 2.408 2.408 0 013.287-.88 2.403 2.403 0 01.88 3.283zm-16.888-44.95c5.724 2.59 8.417 7.014 8.417 7.014-7.844-2.54-13.43 1.008-13.43 1.008-1.312-5.872-7.769-9.508-7.769-9.508s7.059-1.1 12.782 1.486zm-30.263 7.483c3.598-3.42 7.184-6.03 8.276-7.466 0 0 3.598 3.145 8.275 4.855 4.677 1.71 5.126 7.558 4.495 10.704-.627 3.15-2.32 10.475-6.026 10.525-3.52.045-5.504-3.4-3.507-6.566.983-1.565 2.627-1.116 3.855-1.453.61-.166.951-1.012 1.005-1.643.141-1.623.078-4.408-1.623-6.171-2.519-2.607-5.898-6.433-6.205-7.284-.319-.884-.518.058-1.22 1.502-.676 1.39-3.818 4.524-4.665 6.998-.523 1.514-.523 4.158-.448 5.98.042 1.017.88 1.801 1.897 1.814 1.581.02 3.756.502 4.528 2.863 1.257 3.868-1.719 5.836-4.769 5.487-4.395-.502-6.927-7.375-6.927-9.624 0-2.246-.539-7.106 3.059-10.521zm9.122 8.931a3.263 3.263 0 01-3.266-3.262 3.264 3.264 0 016.528 0 3.263 3.263 0 01-3.262 3.262zm-22.033-10.31c5.017-3.78 10.193-4.025 10.193-4.025-5.993 5.67-5.558 12.272-5.558 12.272-5.681-1.635-11.848 2.125-12.06 2.254.071-.203 2.49-6.773 7.425-10.5zm-10.525 20.694c2.901-3.553 4.64-6.304 10.363-7.321 5.723-1.013 10.869 4.495 11.737 5.798.871 1.307 2.249 5.652 1.232 7.03-1.012 1.378-6.159 2.245-6.956-1.378-.796-3.623 1.885-4.13-1.157-5.507-3.047-1.378-8.625-1.087-11.09 3.843-2.461 4.926 1.739 8.985 5.437 9.927 3.694.943 2.1-2.755 5.001-3.407 2.897-.651 4.275-.726 4.997 1.739.726 2.465.581 6.159-4.565 5.507-5.143-.651-.361-2.1-8.044-2.826-7.677-.726-2.17 1.378-.796 1.594 1.378.216 2.826 3.187 5.291 3.839 2.461.655 2.175-1.084 5.288-.507 3.116.581 5.075.146 5.943-1.377.871-1.52 2.1-3.84.871-6.16 0 0 1.739-.651 2.827-2.245 1.083-1.593.937-4.13.937-4.13s.727.362 3.337-.505c2.607-.872 2.827-2.391 2.827-2.391s1.954 2.897 6.665 1.158c0 0-.075 1.884 1.809 3.042 1.884 1.162 3.478.942 3.478.942s-.797 3.046 1.959 5.362c2.752 2.32 4.926.365 6.014.365 1.087 0 1.954.071 2.971.287 1.013.22 1.739-.577 2.752-2.681 1.017-2.1 2.104-3.333 4.204-4.055 2.1-.726 2.32-1.814.867-1.814-1.448 0-4.926.22-6.955 2.466-2.03 2.245-3.258 4.345-6.591 3.116-3.337-1.232-2.32-5.652-.365-6.524 1.959-.867 4.64-.58 6.304 1.303 0 0 1.668.942 4.495-1.739 2.826-2.68 3.112-7.026 1.373-10.072-1.738-3.042-6.304-3.333-9.416-2.245-3.117 1.087-4.059 3.262-4.134 3.768-.071.506 1.959 1.959 1.743 3.623-.22 1.669-.22 4.565-3.768 5.001-3.553.436-4.059-3.333-3.478-5.437.577-2.1 1.303-7.677 5.432-10.288 4.13-2.606 9.131-2.681 12.173-1.955 3.046.722 8.84 6.085 8.84 10.65s-.432 9.35-2.536 11.666c-2.1 2.32-4.49 3.478-5.362 5.146-.867 1.665-.722 4.927-.722 4.927s-2.104.435-3.623 1.813c0 0-2.756-2.826-5.798-2.68-3.042.144-5.291 2.75-5.291 2.75s-2.462-1.954-6.014-1.448c-3.549.507-5.288 2.607-5.288 2.607s-2.029-1.88-5.436-1.229c-3.403.652-4.856 2.972-4.856 2.972s-1.739-1.523-5.433-.581c-3.698.942-4.855 3.984-4.855 3.984s-.797-1.013-2.611-1.233c-1.809-.216-2.171.436-2.171.436s.432-2.536-2.681-4.781c-3.116-2.25-7.391-4.13-8.478-7.466-1.088-3.333-1.594-9.13 1.303-12.68zm13.197 4.62a3.263 3.263 0 11-6.524 0 3.263 3.263 0 016.524 0zm39.921-8.401a3.264 3.264 0 013.262-3.266 3.26 3.26 0 013.262 3.266 3.263 3.263 0 01-6.524 0zm-56.455 16.514c1.577 4.731.104 8.724-.843 12.72-.946 3.993.631 6.097.631 6.097-1.577.63-1.788 2.627-1.788 2.627s-2.731-.838-5.466.735c-2.731 1.577-2.835 4.415-2.835 4.415s-3.05-1.261-6.097 1.262c-3.05 2.523-2.838 5.574-2.838 5.574s-2.632-.947-5.574 1.469c-2.943 2.42-2.523 5.677-2.523 5.677s-2.627-.315-5.15 1.785c-2.524 2.104-1.997 3.785-2.416 5.574-.423 1.784-3.573.527-4.204 0-.631-.527.419-1.681-6.52-1.789-6.935-.104-9.774-3.362-9.774-3.362s-1.934-1.58-3.39-4.237c-1.457-2.66-2.072-7.114 0-11.658 1.85-4.063 5.86-7.562 11.715-7.537 5.893.03 10.388 4.184 10.264 6.906-.129 2.723-2.407 4.117-5.894 3.544-3.482-.568-2.407-4.432-2.407-4.432-2.216-2.088-7.408-.062-9.18 2.913-1.776 2.976-2.03 6.462 1.457 9.82 3.482 3.357 8.927-.191 8.927-.191s-1.581-3.802 1.648-5.32c3.233-1.52 5.702.697 5.764 2.85.062 2.154-1.203 3.674-3.548 4.304-2.341.635-3.794-.116-6.072.204-2.283.315-4.25 2.776-3.997 3.283.253.506 2.345-.507 3.802-.698 1.457-.19 1.772 1.075 4.37 1.075 2.594 0 2.723-.253 3.1-1.834.382-1.586 2.154-1.772 3.296-1.772 1.14 0 2.025-1.395 2.469-4.117.444-2.727-2.345-5.196-2.345-5.196s.888-.95 1.585-2.598c.698-1.644-.253-3.989-.253-3.989s1.395 0 2.66-1.647c1.266-1.648 1.71-3.864 1.71-3.864s1.773.253 3.167-.378c1.395-.635 2.723-1.776 2.723-1.776s1.079.826 2.975 1.141c1.901.316 3.233-.19 3.233-.19 1.075 4.37 7.408 4.751 7.915 3.419.51-1.328.826-2.594 1.901-3.544 1.079-.95 2.913-.76 3.548-1.901.635-1.141.378-5.636.759-6.906.382-1.266 2.652-2.884.76-2.992-1.893-.104-4.204 4.204-4.308 5.258-.108 1.05-.212 3.677-1.577 5.254-1.365 1.577-2.943 1.365-4.731.42-1.789-.947-2.627-3.574-.947-5.782 1.681-2.208 3.881-1.423 4.445-1.075.81.502 2.528-.087 3.648-2.498 1.631-3.495 0-9.143-3.992-10.405-3.997-1.262-7.462 1.365-8.832 3.677-1.365 2.312-1.577 4.943-.419 5.15 1.158.212 3.889 1.685 3.154 4.836-.734 3.154-3.154 3.365-4.731 3.154-1.577-.208-3.573-1.577-3.258-7.674.315-6.097 2.523-12.4 9.985-13.559 7.463-1.158 12.721 3.047 14.298 7.778zM81.099 81.933a3.263 3.263 0 01-3.262 3.267 3.264 3.264 0 010-6.529 3.263 3.263 0 013.262 3.262zm30.272-29.508a3.26 3.26 0 013.262-3.261 3.263 3.263 0 11-3.262 3.262zm-11.4-18.256c6.175-1.146 10.914.95 10.914.95-7.893 2.395-10.454 8.496-10.454 8.496-4.428-4.072-11.803-3.366-11.803-3.366s5.167-4.935 11.342-6.08zM78.18 53.936c.951-2.092 2.246-2.996 2.47-5.764.145-1.752-.61-2.544-.315-2.47.299.07 2.141.502 3.357.569 1.17.066 9.023-.382 11.994 1.29 3.013 1.69 4.79 3.777 4.856 7.072.062 3.292 1.39 6.715-1.013 8.932-2.407 2.216-6.341-.527-6.022-2.49.316-1.964 2.059-2.424 2.694-3.88.863-1.964-.535-4.778-2.312-5.541-1.772-.76-5.951-1.457-8.234-2.15-2.278-.697-2.764-1.092-3.162-1.34 0 0 .556 3.602.137 6.95-.42 3.346-2.246 4.678-.154 7.355 2.092 2.677 3.939 2.486 4.574 1.855.635-.635 1.71-1.772 3.61-.888 1.901.888 3.358 2.98 2.279 5.383-1.075 2.407-6.396 2.092-11.463-1.835-5.067-3.926-4.246-10.956-3.295-13.048zm14.211 3.225a3.263 3.263 0 11-6.525-.001 3.263 3.263 0 016.525 0zm-26.28 3.088c2.67-5.686 7.135-8.322 7.135-8.322-2.652 7.811.814 13.447.814 13.447-5.89 1.229-9.612 7.633-9.612 7.633s-1.005-7.073 1.664-12.758zM53.298 95.397c5.81-4.545 12.293-3.47 15.895-.195 3.599 3.279 4.25 7.387 5.35 11.239 1.1 3.855 3.449 4.893 3.449 4.893-1.046 1.29-.27 3.092-.27 3.092s-2.73.589-4.308 3.237c-1.577 2.648-.311 5.117-.311 5.117s-3.2.378-4.59 3.98c-1.395 3.607.236 6.101.236 6.101s-2.689.448-4.042 3.913c-1.357 3.466.556 6.039.556 6.039s-2.386.988-3.536 3.98c-1.145 2.997.104 4.179.602 5.902.494 1.722-2.797 2.154-3.586 2.008-.784-.149-.444-1.635-6.404 1.586-5.96 3.22-9.935 1.797-9.935 1.797s-2.4-.423-4.91-1.992c-2.51-1.573-5.154-5.072-5.561-9.932-.361-4.345 1.386-9.238 6.387-12.01 5.034-2.789 10.844-1.395 12.04.987 1.19 2.378-.087 4.653-3.329 5.831-3.241 1.175-4.167-2.631-4.167-2.631-2.884-.722-6.341 3.482-6.432 6.865-.092 3.382 1.353 6.474 5.926 7.669 4.57 1.2 7.516-4.42 7.516-4.42s-3.162-2.486-1.137-5.32c2.03-2.835 5.192-2.125 6.27-.32 1.084 1.801.731 3.702-.966 5.358-1.693 1.66-3.287 1.714-5.08 3.071-1.789 1.357-2.295 4.395-1.839 4.702.461.312 1.756-1.548 2.91-2.407 1.15-.855 2.021.075 4.233-1.166 2.216-1.237 2.2-1.515 1.768-3.046-.432-1.532.992-2.536 1.963-3.08.971-.548 1.063-2.158.141-4.689-.925-2.532-4.478-3.304-4.478-3.304s.303-1.233.112-2.972c-.19-1.734-2.12-3.278-2.12-3.278s1.186-.664 1.481-2.673c.295-2.005-.386-4.105-.386-4.105s1.631-.63 2.515-1.834c.888-1.208 1.478-2.814 1.478-2.814s1.307.191 3.079-.448c1.768-.635 2.66-1.702 2.66-1.702 3 3.209 8.579.511 8.38-.863-.204-1.378-.54-2.606-.075-3.93.465-1.324 2.12-2.038 2.117-3.312-.005-1.274-2.366-4.984-2.648-6.242-.282-1.262.88-3.727-.78-2.913-1.665.813-1.578 5.586-1.167 6.532.415.946 1.577 3.237 1.166 5.234-.41 1.992-1.855 2.569-3.83 2.614-1.976.046-3.943-1.793-3.565-4.474.382-2.685 2.627-3.067 3.274-3.038.93.038 2.113-1.278 1.918-3.872-.282-3.756-4.362-7.79-8.367-6.96-4.01.83-5.71 4.727-5.769 7.35-.062 2.619 1.013 4.96 2.1 4.586 1.083-.369 4.113-.423 4.993 2.615.876 3.038-1.083 4.374-2.528 4.947-1.444.573-3.797.361-6.437-4.985-2.64-5.345-3.768-11.774 2.038-16.318zm4.49 69.342a2.403 2.403 0 11-1.822-4.449 2.404 2.404 0 111.822 4.449zm-12.326-18.548a3.262 3.262 0 11-6.523 0 3.262 3.262 0 016.523 0zm15.145-40.053a3.263 3.263 0 110-6.525 3.262 3.262 0 010 6.525zM39.444 95.156c5.025-3.764 10.205-3.988 10.205-3.988-6.014 5.644-5.607 12.251-5.607 12.251-5.673-1.66-11.857 2.075-12.069 2.204.075-.203 2.52-6.765 7.47-10.467zm-11.895 18.406c.295-.083 2.113-.61 3.204-1.141 1.054-.515 7.686-4.744 11.098-4.74 3.453.005 6.026.959 7.69 3.802 1.664 2.843 4.495 5.175 3.478 8.288-1.017 3.109-5.785 2.635-6.47.768-.68-1.868.614-3.121.46-4.702-.211-2.134-2.805-3.906-4.727-3.702-1.917.203-5.905 1.639-8.234 2.145-2.332.507-2.946.399-3.415.374 0 0 2.245 2.872 3.515 5.997s.324 5.179 3.457 6.495c3.134 1.316 4.657.245 4.897-.618.245-.859.627-2.383 2.719-2.536 2.092-.154 4.382.959 4.619 3.581.236 2.628-4.561 4.952-10.899 4.001-6.341-.95-9.055-7.487-9.25-9.773-.191-2.291.494-3.711-.66-6.238-.73-1.602-1.776-1.918-1.482-2.001zm15.563 5.86a3.265 3.265 0 11-6.529.005 3.265 3.265 0 016.53-.005zm-18.671 3.088c.834 8.205 6.329 11.891 6.329 11.891-4.848 3.565-5.574 10.935-5.574 10.935s-3.847-6.017-3.785-12.297c.066-6.279 3.03-10.529 3.03-10.529zm-9.172 54.069c2.743-5.652 7.242-8.225 7.242-8.225-2.756 7.773.635 13.455.635 13.455-5.906 1.149-9.716 7.503-9.716 7.503s-.905-7.084 1.839-12.733zm2.407 43.154c-3.337-5.316-3.138-10.496-3.138-10.496 5.134 6.454 11.75 6.583 11.75 6.583-2.113 5.523 1.103 11.985 1.215 12.209-.199-.091-6.54-3.058-9.827-8.296zm.867-15.098c-1.228-1.943-1.278-3.52-3.47-5.225-1.386-1.084-2.46-.88-2.24-1.088.224-.211 1.593-1.519 2.315-2.498.697-.942 4.628-7.757 7.653-9.326 3.063-1.593 5.786-1.938 8.575-.187 2.789 1.752 6.378 2.511 6.914 5.74.535 3.229-3.91 5.014-5.379 3.673-1.469-1.34-.9-3.05-1.768-4.378-1.174-1.797-4.295-2.171-5.901-1.104-1.607 1.07-4.483 4.183-6.313 5.71-1.834 1.528-2.428 1.719-2.855 1.91 0 0 3.32 1.51 5.889 3.697 2.573 2.183 2.681 4.441 6.067 4.159 3.387-.282 4.242-1.934 4.06-2.81-.183-.88-.544-2.403 1.236-3.507 1.785-1.104 4.329-1.178 5.752 1.042 1.424 2.22-1.755 6.495-7.814 8.583-6.064 2.087-11.492-2.453-12.72-4.391zm12.036-6.632a3.264 3.264 0 01-6.528 0 3.26 3.26 0 013.266-3.262 3.26 3.26 0 013.262 3.262zm.502 14.077c3.3-4.984 9.247-6.541 11.438-4.951 2.191 1.589 2.083 4.283-.328 6.927-2.411 2.648-5.022-.366-5.022-.366-2.967.743-4.17 6.255-2.685 9.38 1.486 3.125 4.242 5.233 8.965 4.104 4.727-1.133 4.806-7.686 4.806-7.686s-4.035-.722-3.503-4.291c.535-3.569 3.747-4.462 5.573-3.341 1.822 1.116 2.383 3.017 1.607 5.354-.78 2.332-2.208 3.154-3.213 5.262-1.004 2.109-.058 5.118.507 5.18.56.062.88-2.266 1.531-3.607.652-1.336 1.88-.917 3.325-3.121 1.444-2.203 1.303-2.452.199-3.635-1.104-1.183-.274-2.793.36-3.76.632-.967-.032-2.478-2.045-4.337-2.017-1.86-5.62-.835-5.62-.835s-.294-1.27-1.274-2.759c-.983-1.486-3.457-1.955-3.457-1.955s.776-1.183.112-3.154c-.664-1.972-2.258-3.553-2.258-3.553s1.196-1.365 1.445-2.893c.249-1.527.041-3.278.041-3.278s1.283-.465 2.602-1.905c1.32-1.445 1.64-2.847 1.64-2.847 4.225 1.465 8.064-3.706 7.242-4.86-.826-1.154-1.702-2.113-1.893-3.545-.19-1.427.992-2.884.395-4.042-.594-1.158-4.47-3.391-5.313-4.403-.838-1.009-.921-3.823-2.062-2.27-1.137 1.548 1.153 5.856 1.971 6.515.813.66 2.938 2.179 3.486 4.2.552 2.017-.498 3.242-2.278 4.242-1.78 1.004-4.429.286-5.33-2.341-.896-2.627.976-4.067 1.578-4.357.867-.42 1.332-2.192-.046-4.458-2-3.283-7.595-4.976-10.865-2.27-3.266 2.706-3.013 7.08-1.851 9.496 1.158 2.419 3.225 4.025 4.042 3.158.818-.867 3.561-2.386 5.77-.046 2.211 2.341 1.04 4.508-.01 5.732-1.05 1.224-3.299 2.175-8.183-1.407-4.89-3.586-8.903-8.89-5.715-15.854 3.191-6.964 9.603-9.139 14.41-7.906 4.805 1.237 7.308 4.656 10.097 7.632 2.793 2.976 5.416 2.781 5.416 2.781-.353 1.685 1.187 2.946 1.187 2.946s-2.217 1.864-2.428 5.043c-.208 3.179 2.092 4.81 2.092 4.81s-2.744 1.901-2.341 5.864c.398 3.96 3.046 5.437 3.046 5.437s-2.245 1.718-1.872 5.532c.37 3.814 3.312 5.23 3.312 5.23s-1.726 2.058-1.382 5.345c.345 3.283 2.034 3.752 3.283 5.08 1.253 1.332-1.548 3.32-2.337 3.569-.788.249-1.162-1.27-5.108 4.561-3.943 5.831-8.226 6.47-8.226 6.47s-2.386.781-5.408.573c-3.017-.211-7.055-2.112-9.678-6.341-2.345-3.785-3.026-9.089.253-14.049zm13.106 9.326a3.263 3.263 0 01-6.524 0 3.264 3.264 0 013.262-3.267 3.264 3.264 0 013.262 3.267zm-4.366-47.778a3.26 3.26 0 01-3.262 3.262 3.263 3.263 0 113.262-3.262zm-7.362 87.69c-.631-6.25 1.847-10.799 1.847-10.799 1.735 8.064 7.607 11.119 7.607 11.119-4.424 4.08-4.329 11.484-4.329 11.484s-4.494-5.553-5.125-11.804zm9.03 19.407c.05-.291.333-2.084.312-3.254-.017-1.125-.992-8.608.398-11.571 1.407-3 3.283-4.847 6.43-5.138 3.15-.29 6.328-1.805 8.62.345 2.29 2.149-.059 6.105-1.964 5.939-1.9-.166-2.461-1.806-3.901-2.312-1.943-.685-4.536.851-5.138 2.598-.606 1.751-.98 5.802-1.49 8.035-.506 2.228-.847 2.722-1.058 3.117 0 0 3.407-.781 6.64-.615 3.233.166 4.636 1.826 7.051-.365 2.42-2.187 2.108-3.943 1.457-4.507-.647-.56-1.818-1.511-1.1-3.395.718-1.88 2.615-3.42 4.993-2.556 2.382.863 2.448 5.976-.959 11.101-3.403 5.126-10.189 4.827-12.255 4.063-2.067-.763-3.026-1.938-5.69-1.963-1.69-.016-2.391.764-2.345.478zm12.966-8.487a3.264 3.264 0 11-6.528 0 3.264 3.264 0 016.528 0zm.652 25.702c-5.59-2.864-8.073-7.412-8.073-7.412 7.716 2.917 13.468-.357 13.468-.357 1.025 5.93 7.296 9.869 7.296 9.869s-7.101.759-12.691-2.1zm24.44-1.781c-2.789 1.171-7.25 1.295-11.496-1.303-3.797-2.32-6.794-6.752-6.097-12.658.698-5.939 5.309-10.006 7.981-9.574 2.673.431 3.785 2.888 2.827 6.337-.96 3.449-4.649 1.93-4.649 1.93-2.316 2.004-.909 7.466 1.826 9.587 2.735 2.121 6.143 2.764 9.853-.374 3.71-3.137.83-9.027.83-9.027s-3.93 1.175-5.059-2.253c-1.133-3.424 1.336-5.669 3.47-5.491 2.133.174 3.486 1.623 3.843 4.055.357 2.436-.548 3.814-.494 6.146.05 2.337 2.253 4.599 2.78 4.4.532-.2-.232-2.42-.253-3.91-.02-1.49 1.266-1.668 1.56-4.287.3-2.619.063-2.777-1.456-3.337s-1.502-2.365-1.374-3.515c.129-1.15-1.141-2.2-3.78-2.951-2.636-.751-5.392 1.781-5.392 1.781s-.834-1.001-2.378-1.885c-1.548-.888-3.967-.191-3.967-.191s.157-1.406-1.32-2.867c-1.482-1.461-3.62-2.154-3.62-2.154s.453-1.76-.012-3.237c-.464-1.478-1.436-2.943-1.436-2.943s.934-.996 1.461-2.876c.532-1.88.183-3.279.183-3.279 4.436-.597 5.532-6.939 4.279-7.599-1.254-.66-2.47-1.12-3.283-2.311-.813-1.196-.415-3.026-1.47-3.79-1.053-.767-5.519-1.012-6.723-1.539-1.207-.523-2.548-2.997-2.867-1.1-.32 1.897 3.669 4.71 4.694 4.935 1.025.219 3.606.622 5.005 2.174 1.398 1.557 1.012 3.121-.125 4.819-1.137 1.693-3.826 2.249-5.814.307-1.984-1.943-.959-4.072-.552-4.603.585-.759.203-2.556-2.046-3.959-3.267-2.03-9.023-1.021-10.724 2.868-1.702 3.884.493 7.678 2.618 9.313 2.13 1.635 4.698 2.141 5.035 1 .34-1.146 2.104-3.735 5.133-2.64 3.026 1.092 2.955 3.553 2.57 5.122-.387 1.564-1.964 3.428-7.944 2.428-5.977-1.001-11.949-3.931-12.235-11.584-.29-7.657 4.457-12.483 9.305-13.546 4.847-1.062 8.62.867 12.45 2.27 3.835 1.399 6.089.042 6.089.042.444 1.66 2.39 2.096 2.39 2.096s-1.145 2.664.1 5.594c1.245 2.934 4.034 3.353 4.034 3.353s-1.594 2.935.548 6.292c2.141 3.354 5.17 3.482 5.17 3.482s-1.232 2.544.819 5.781c2.046 3.242 5.312 3.18 5.312 3.18s-.614 2.614 1.174 5.395c1.785 2.776 3.503 2.436 5.217 3.059 1.718.622.112 3.66-.477 4.237-.59.581-1.61-.61-2.507 6.375-.896 6.984-4.436 9.479-4.436 9.479s-1.777 1.772-4.57 2.946zm-5.4-13.301a3.263 3.263 0 110 6.525 3.263 3.263 0 010-6.525zm-20.941-37.447a3.263 3.263 0 11-6.526-.001 3.263 3.263 0 016.526.001zm34.932 82.73c-3.681-5.088-3.818-10.268-3.818-10.268 5.545 6.105 12.156 5.802 12.156 5.802-1.751 5.649 1.888 11.887 2.013 12.102-.204-.074-6.728-2.623-10.35-7.636zm20.996 11.612c-.116-.27-.859-1.925-1.515-2.897-.631-.929-5.536-6.665-5.993-9.902-.46-3.287.1-5.856 2.578-7.819 2.477-1.967 4.316-4.968 7.408-4.42 3.092.548 3.287 5.142 1.602 6.043-1.685.9-3.051-.162-4.532.195-2.001.489-3.333 3.191-2.885 4.988.453 1.797 2.353 5.396 3.146 7.541.793 2.146.776 2.744.818 3.192 0 0 2.428-2.519 5.225-4.146 2.801-1.627 4.881-1.005 5.706-4.159.826-3.154-.394-4.457-1.245-4.573-.85-.112-2.349-.274-2.776-2.237-.428-1.968.319-4.296 2.785-4.873 2.465-.577 5.316 3.669 5.266 9.82-.054 6.15-5.901 9.612-8.047 10.101-2.15.49-3.594.034-5.839 1.465-1.42.913-1.582 1.951-1.702 1.681zm7.043-12.426a3.264 3.264 0 01-6.528 0 3.264 3.264 0 016.528 0zm9.384 21.063c-6.28.104-10.604-2.752-10.604-2.752 8.18-1.05 11.72-6.64 11.72-6.64 3.69 4.752 11.077 5.283 11.077 5.283s-5.91 4.009-12.193 4.109zm26.1-21.473s-.523 2.457-2.22 4.963c-1.693 2.507-5.362 5.047-10.338 5.192-4.449.133-9.38-1.942-12.023-7.267-2.661-5.354-1.021-11.28 1.452-12.38 2.474-1.1 4.748.349 5.827 3.76 1.083 3.416-2.835 4.159-2.835 4.159-.846 2.942 3.316 6.748 6.765 7.03 3.449.282 6.657-1.042 8.048-5.694 1.394-4.656-4.234-8.014-4.234-8.014s-2.652 3.129-5.474.876c-2.818-2.25-1.975-5.479-.095-6.495 1.884-1.017 3.81-.548 5.437 1.294 1.631 1.843 1.626 3.495 2.946 5.421 1.32 1.925 4.399 2.618 4.731 2.162.337-.457-1.514-1.901-2.349-3.138-.83-1.236.15-2.087-1.033-4.44-1.183-2.358-1.465-2.358-3.042-1.997-1.581.361-2.557-1.162-3.075-2.195-.519-1.033-2.158-1.22-4.777-.407-2.619.814-3.54 4.441-3.54 4.441s-1.25-.382-3.026-.278c-1.78.099-3.428 2.004-3.428 2.004s-.635-1.261-2.673-1.676c-2.037-.415-4.204.17-4.204.17s-.585-1.722-1.78-2.702c-1.196-.983-2.814-1.681-2.814-1.681s.241-1.34-.345-3.208c-.585-1.863-1.639-2.843-1.639-2.843 3.387-2.922.838-8.836-.573-8.703-1.411.133-2.677.411-4.009-.141-1.336-.556-2.004-2.303-3.303-2.37-1.299-.066-5.176 2.167-6.47 2.387-1.3.22-3.773-1.121-3.001.643.768 1.764 5.644 1.938 6.624 1.569.979-.374 3.361-1.453 5.382-.913 2.022.535 2.553 2.058 2.528 4.1-.025 2.042-1.976 3.976-4.698 3.437-2.727-.544-3.03-2.885-2.98-3.553.075-.959-1.229-2.254-3.88-2.196-3.844.079-8.114 4.076-7.413 8.259.698 4.184 4.611 6.159 7.284 6.367 2.677.211 5.105-.772 4.764-1.913-.34-1.142-.282-4.275 2.852-5.014 3.133-.739 4.424 1.361 4.955 2.885.531 1.523.228 3.942-5.325 6.374-5.553 2.428-12.156 3.237-16.58-3.013-4.424-6.254-3.088-12.895.39-16.43 3.478-3.541 7.695-3.985 11.666-4.906 3.976-.921 5.126-3.287 5.126-3.287 1.278 1.145 3.146.448 3.146.448s.498 2.851 3.141 4.628c2.644 1.776 5.209.606 5.209.606s.27 3.328 3.897 4.967c3.627 1.64 6.234.092 6.234.092s.357 2.805 3.843 4.395c3.486 1.593 6.188-.241 6.188-.241s.917 2.523 3.93 3.872c3.013 1.353 4.266.129 6.043-.286 1.776-.415 2.096 3.005 1.917 3.81-.178.805-1.685.369 1.382 6.707 3.067 6.337 1.469 10.363 1.469 10.363zm-15.21-.204a3.264 3.264 0 013.262-3.266 3.264 3.264 0 010 6.528 3.263 3.263 0 01-3.262-3.262zm-35.85-21.539a3.263 3.263 0 01-3.262 3.266 3.263 3.263 0 010-6.528 3.262 3.262 0 013.262 3.262zm49.35-4.557a2.406 2.406 0 014.811 0 2.405 2.405 0 01-4.811 0zm3.565 10.62a2.405 2.405 0 114.811-.003 2.405 2.405 0 01-4.811.003zm16.394 46.665c-5.615-2.818-8.13-7.346-8.13-7.346 7.74 2.851 13.463-.465 13.463-.465 1.075 5.919 7.379 9.807 7.379 9.807s-7.097.818-12.712-1.996zm28.549-5.76c-1.897 1.124-3.411 1.129-5.109 3.179-1.075 1.303-.913 2.34-1.108 2.12-.191-.22-1.407-1.568-2.328-2.29-.884-.694-7.309-4.653-8.732-7.599-1.444-2.984-1.698-5.607.058-8.235 1.76-2.627 2.59-6.051 5.702-6.474 3.113-.423 4.703 3.893 3.374 5.267-1.328 1.373-2.955.776-4.254 1.573-1.755 1.075-2.199 4.059-1.22 5.632.98 1.568 3.889 4.415 5.3 6.212 1.411 1.802 1.581 2.378 1.756 2.789 0 0 1.539-3.137 3.706-5.544 2.166-2.403 4.337-2.449 4.162-5.703-.178-3.258-1.738-4.125-2.585-3.971-.847.149-2.32.456-3.329-1.287-1.008-1.739-1.008-4.183 1.162-5.487 2.167-1.303 6.184 1.864 8.015 7.741 1.834 5.872-2.673 10.952-4.57 12.077zm-6.258-11.052a3.263 3.263 0 013.262 3.266 3.263 3.263 0 01-3.262 3.262 3.264 3.264 0 110-6.528zm21.481 14.43c-5.383 3.237-10.554 2.938-10.554 2.938 6.549-5.013 6.806-11.625 6.806-11.625 5.483 2.225 12.003-.871 12.231-.979-.095.195-3.183 6.479-8.483 9.666zm14.837-26.91c-.241 3.146-2.249 7.337-6.678 10.035-3.959 2.416-9.487 3.084-14.629-.373-5.171-3.474-6.744-9.683-5.072-11.953 1.673-2.27 4.478-2.133 7.218.394 2.735 2.532-.424 5.23-.424 5.23.751 3.096 6.483 4.395 9.749 2.867 3.266-1.523 5.487-4.374 4.345-9.304-1.141-4.931-7.968-5.068-7.968-5.068s-.784 4.2-4.499 3.619c-3.71-.585-4.615-3.938-3.436-5.831 1.178-1.892 3.162-2.457 5.586-1.631 2.428.826 3.275 2.324 5.462 3.387 2.187 1.062 5.333.095 5.399-.486.067-.585-2.353-.938-3.743-1.627-1.391-.689-.947-1.967-3.229-3.486-2.287-1.523-2.544-1.378-3.785-.237-1.241 1.142-2.91.266-3.914-.402s-2.581.012-4.532 2.1c-1.951 2.083-.913 5.843-.913 5.843s-1.328.299-2.884 1.308c-1.557 1.008-2.063 3.585-2.063 3.585s-1.224-.817-3.283-.141c-2.058.677-3.718 2.324-3.718 2.324s-1.416-1.257-3.005-1.527c-1.59-.27-3.416-.066-3.416-.066s-.473-1.341-1.963-2.727c-1.494-1.386-2.955-1.726-2.955-1.726 1.561-4.395-3.797-8.434-5.005-7.583-1.208.847-2.212 1.752-3.706 1.942-1.49.187-2.997-1.054-4.208-.444-1.212.61-3.566 4.632-4.624 5.499-1.062.868-3.988.934-2.386 2.134 1.606 1.199 6.109-1.158 6.806-2.001.693-.842 2.291-3.046 4.399-3.602 2.105-.556 3.37.548 4.404 2.407 1.029 1.863.261 4.615-2.482 5.532-2.743.917-4.229-1.046-4.528-1.676-.427-.905-2.27-1.407-4.644.012-3.432 2.058-5.238 7.877-2.445 11.301 2.789 3.424 7.351 3.196 9.878 2.005 2.527-1.192 4.217-3.333 3.32-4.188-.896-.859-2.457-3.727-.004-6.014 2.453-2.282 4.702-1.05 5.968.058 1.27 1.104 2.245 3.449-1.527 8.513-3.773 5.067-9.33 9.205-16.56 5.826-7.229-3.374-9.445-10.072-8.122-15.069 1.324-4.997 4.906-7.574 8.027-10.459 3.125-2.884 2.938-5.619 2.938-5.619 1.752.382 3.08-1.216 3.08-1.216s1.925 2.324 5.233 2.569c3.308.245 5.026-2.137 5.026-2.137s1.959 2.867 6.088 2.481c4.13-.385 5.69-3.133 5.69-3.133s1.773 2.353 5.748 1.996c3.972-.357 5.47-3.411 5.47-3.411s2.134 1.809 5.558 1.477c3.423-.332 3.926-2.087 5.32-3.378 1.395-1.295 3.445 1.639 3.698 2.461.257.822-1.332 1.204 4.715 5.354 6.042 4.154 6.673 8.624 6.673 8.624s.797 2.49.552 5.632zm-15.144-.162a3.263 3.263 0 116.525.001 3.263 3.263 0 01-6.525-.001zm-42.942 2.718a3.263 3.263 0 11-6.526 0 3.263 3.263 0 016.526 0zm59.144-9.18c-1.448-5.096.291-9.276 1.474-13.476 1.183-4.204-.386-6.507-.386-6.507 1.693-.598 2.004-2.71 2.004-2.71s2.852 1.017 5.807-.536c2.959-1.548 3.199-4.561 3.199-4.561s3.163 1.478 6.5-1.062c3.332-2.544 3.249-5.79 3.249-5.79s2.735 1.125 5.952-1.311c3.22-2.436 2.926-5.918 2.926-5.918s2.759.456 5.519-1.665c2.764-2.116 2.283-3.93 2.81-5.81.527-1.88 3.797-.394 4.441.195.643.585-.519 1.768 6.802 2.196 7.321.427 10.168 4.017 10.168 4.017s1.971 1.764 3.386 4.661c1.416 2.892 1.864 7.649-.535 12.38-2.141 4.237-6.532 7.773-12.72 7.478-6.221-.298-10.778-4.917-10.517-7.806.257-2.889 2.731-4.262 6.383-3.499 3.652.764 2.337 4.819 2.337 4.819 2.245 2.324 7.823.406 9.832-2.677 2.008-3.08 2.436-6.773-1.088-10.496-3.523-3.727-9.442-.208-9.442-.208s1.499 4.113-1.979 5.582c-3.482 1.465-5.989-1-5.96-3.291.033-2.295 1.44-3.851 3.947-4.415 2.503-.569 4.001.294 6.424.062 2.42-.233 4.616-2.756 4.371-3.308-.245-.548-2.499.432-4.047.569-1.548.137-1.822-1.225-4.565-1.345-2.743-.116-2.889.145-3.362 1.814-.473 1.664-2.357 1.784-3.561 1.73-1.203-.05-2.203 1.391-2.797 4.263-.593 2.876 2.237 5.627 2.237 5.627s-.979.967-1.793 2.685c-.809 1.719.087 4.254.087 4.254s-1.473-.062-2.884 1.627c-1.415 1.694-1.984 4.03-1.984 4.03s-1.863-.353-3.361.257c-1.503.611-2.96 1.76-2.96 1.76s-1.099-.921-3.092-1.345c-1.992-.423-3.419.054-3.419.054-.934-4.694-7.608-5.382-8.201-3.992-.598 1.39-.992 2.718-2.171 3.681-1.182.959-3.112.672-3.834 1.855-.718 1.183-.66 5.977-1.117 7.305-.461 1.328-2.934 2.946-.942 3.146 1.996.195 4.636-4.279 4.794-5.392.157-1.112.39-3.897 1.904-5.511 1.515-1.615 3.171-1.32 5.018-.232 1.843 1.087 2.611 3.917.731 6.187-1.876 2.271-4.159 1.337-4.744.938-.83-.564-2.669-.02-3.968 2.491-1.88 3.639-.419 9.719 3.744 11.238 4.158 1.523 7.943-1.112 9.491-3.507 1.552-2.394 1.893-5.175.681-5.453-1.212-.274-4.03-1.963-3.109-5.283.922-3.316 3.487-3.428 5.142-3.134 1.656.295 3.702 1.839 3.088 8.301-.61 6.466-3.233 13.069-11.168 13.957-7.935.888-13.293-3.818-14.742-8.919zm50.621-32.164a3.264 3.264 0 013.262-3.266 3.264 3.264 0 010 6.528 3.263 3.263 0 01-3.262-3.262zm-34.476 29.45a3.263 3.263 0 11-6.525-.001 3.263 3.263 0 016.525.001zm12.081 21.677c-6.267.415-10.728-2.221-10.728-2.221 8.118-1.457 11.376-7.217 11.376-7.217 3.921 4.565 11.325 4.727 11.325 4.727s-5.706 4.3-11.973 4.711zm22.561-20.926c-1.042 1.942-2.337 2.731-2.727 5.366-.245 1.669.432 2.474.149 2.383-.278-.088-2.017-.611-3.179-.752-1.112-.137-8.661-.199-11.404-1.983-2.781-1.806-4.354-3.914-4.209-7.072.145-3.159-.917-6.516 1.527-8.492 2.441-1.971 6.035.897 5.612 2.76-.428 1.859-2.125 2.191-2.827 3.544-.946 1.831.22 4.611 1.872 5.45 1.652.838 5.611 1.768 7.753 2.577 2.137.809 2.581 1.212 2.942 1.477 0 0-.307-3.486.303-6.665s2.445-4.337.606-7.034c-1.834-2.694-3.619-2.628-4.266-2.059-.644.565-1.748 1.59-3.511.623-1.764-.967-3.03-3.059-1.851-5.296 1.182-2.241 6.258-1.606 10.865 2.469 4.611 4.08 3.382 10.762 2.345 12.704zM267.1 316.5a3.261 3.261 0 116.523-.001 3.261 3.261 0 01-6.523.001zm28.897-.764c-2.913 5.561-7.486 7.993-7.486 7.993 2.992-7.682-.225-13.467-.225-13.467 5.939-.967 9.94-7.201 9.94-7.201s.689 7.11-2.229 12.675zm14.742-36.821c-6.715 5.026-14.069 3.615-18.091-.232-4.025-3.843-4.673-8.55-5.839-12.986-1.166-4.433-3.814-5.686-3.814-5.686 1.216-1.44.378-3.519.378-3.519s3.116-.594 4.971-3.574c1.856-2.98.469-5.831.469-5.831s3.653-.344 5.317-4.42c1.668-4.075-.133-6.972-.133-6.972s3.071-.436 4.69-4.354c1.618-3.917-.502-6.914-.502-6.914s2.743-1.054 4.113-4.445c1.373-3.386-.021-4.773-.548-6.752-.523-1.984 3.229-2.378 4.125-2.187.892.186.469 1.875 7.325-1.631 6.856-3.512 11.347-1.773 11.347-1.773s2.718.552 5.54 2.416c2.823 1.867 5.757 5.935 6.105 11.496.316 4.976-1.78 10.512-7.536 13.538-5.794 3.038-12.376 1.282-13.675-1.469-1.304-2.752.199-5.317 3.913-6.566 3.715-1.253 4.682 3.121 4.682 3.121 3.27.905 7.3-3.797 7.478-7.657.179-3.86-1.398-7.429-6.569-8.927-5.176-1.494-8.658 4.839-8.658 4.839s3.544 2.926 1.175 6.105c-2.37 3.183-5.956 2.283-7.143.191-1.191-2.092-.747-4.254 1.22-6.097 1.963-1.847 3.781-1.859 5.848-3.361 2.071-1.499 2.714-4.952 2.2-5.317-.515-.369-2.034 1.718-3.362 2.665-1.328.946-2.303-.137-4.847 1.211-2.549 1.353-2.536 1.669-2.08 3.428.457 1.76-1.183 2.872-2.303 3.466-1.117.593-1.253 2.428-.262 5.345.992 2.918 5.018 3.906 5.018 3.906s-.373 1.398-.195 3.386c.183 1.984 2.341 3.802 2.341 3.802s-1.366.726-1.748 3.009c-.377 2.287.349 4.702.349 4.702s-1.872.677-2.905 2.025c-1.033 1.349-1.743 3.167-1.743 3.167s-1.486-.253-3.515.423c-2.026.681-3.067 1.872-3.067 1.872-3.346-3.752-9.753-.83-9.554.747.203 1.577.556 2.992-.004 4.486-.556 1.499-2.457 2.271-2.482 3.723-.025 1.453 2.581 5.761 2.872 7.205.29 1.448-1.088 4.229.822 3.349 1.913-.88 1.921-6.337 1.473-7.429-.448-1.091-1.723-3.739-1.208-6.005.515-2.266 2.171-2.88 4.416-2.876 2.249 0 4.449 2.158 3.959 5.208-.494 3.055-3.058 3.424-3.797 3.374-1.054-.07-2.428 1.403-2.266 4.366.232 4.296 4.789 9.023 9.367 8.189 4.578-.838 6.599-5.234 6.727-8.23.129-2.992-1.041-5.694-2.282-5.3-1.245.399-4.698.37-5.628-3.125-.93-3.494 1.332-4.959 2.988-5.574 1.656-.614 4.329-.307 7.213 5.873 2.885 6.18 4.026 13.55-2.685 18.576zm10.347-58.011a3.263 3.263 0 116.524 0 3.263 3.263 0 01-6.524 0zm-18.079 44.834a3.263 3.263 0 11-.001 6.525 3.263 3.263 0 01.001-6.525zm25.175 12.883c-4.992 3.805-10.168 4.075-10.168 4.075 5.964-5.698 5.495-12.297 5.495-12.297 5.69 1.606 11.837-2.187 12.048-2.316-.07.208-2.457 6.79-7.375 10.538zm11.189-20.349c-.298.071-2.154.523-3.278 1.009-1.083.473-7.948 4.432-11.38 4.278-3.478-.157-6.026-1.232-7.574-4.166-1.552-2.939-4.3-5.412-3.138-8.5s5.947-2.399 6.549-.49c.606 1.913-.755 3.117-.668 4.715.116 2.162 2.652 4.059 4.59 3.938 1.942-.12 6.022-1.386 8.388-1.792 2.37-.407 2.984-.274 3.453-.229 0 0-2.129-2.992-3.271-6.192-1.141-3.204-.095-5.229-3.191-6.694-3.1-1.461-4.678-.452-4.96.407-.282.855-.738 2.369-2.847 2.432-2.112.062-4.374-1.158-4.494-3.814-.121-2.652 4.81-4.781 11.151-3.541 6.342 1.237 8.786 7.94 8.878 10.251.095 2.312-.66 3.715.39 6.309.664 1.643 1.705 2.013 1.402 2.079zm-15.629-5.491a3.263 3.263 0 116.525.001 3.263 3.263 0 01-6.525-.001zm21.319-5.843c-1.768-8.056-7.648-11.085-7.648-11.085 4.407-4.097 4.283-11.505 4.283-11.505s4.515 5.537 5.171 11.783c.655 6.246-1.806 10.807-1.806 10.807zm.868-49.446c.062-.137 3.088-6.815.041-14.073 0 0 6.446-1.399 11.372-8.035 0 0 1.133 6.412-1.992 11.712-3.08 5.217-9.23 10.243-9.421 10.396z" fill="#FF8659"/><path d="M177.023 186.573a5.229 5.229 0 100-10.458 5.229 5.229 0 000 10.458zM60.556 132.932a4.284 4.284 0 10-.001-8.567 4.284 4.284 0 00.001 8.567zm41.556-53.442a4.283 4.283 0 100-8.568 4.283 4.283 0 000 8.567zm62.465-27.193a4.283 4.283 0 100-8.567 4.283 4.283 0 000 8.567zm69.62 8.246a4.283 4.283 0 100-8.566 4.283 4.283 0 000 8.566zm55.26 42.196a4.284 4.284 0 10-.001-8.567 4.284 4.284 0 00.001 8.567zm24.569 70.226a4.283 4.283 0 100-8.566 4.283 4.283 0 000 8.566zm-11.076 71.354a4.283 4.283 0 100-8.566 4.283 4.283 0 000 8.566zm-46.006 55.588a4.284 4.284 0 10-.001-8.567 4.284 4.284 0 00.001 8.567zm-64.648 24.254a4.283 4.283 0 100-8.566 4.283 4.283 0 000 8.566zm-69.591-13.36a4.282 4.282 0 100-8.566 4.284 4.284 0 000 8.566zm-51.632-45.507a4.283 4.283 0 100-8.565 4.283 4.283 0 000 8.565zM49.37 200.725a4.283 4.283 0 100-8.566 4.283 4.283 0 000 8.566z" fill="#FF8659"/></svg>