<?xml version="1.0" encoding="utf-8"?><svg viewBox="0 0 49 46" xmlns="http://www.w3.org/2000/svg" xmlns:xlink="http://www.w3.org/1999/xlink"><style>:root>svg{display:none}:root>svg:target{display:block}</style><svg fill="none" viewBox="0 0 28 28" id="icon-close" xmlns="http://www.w3.org/2000/svg"><path d="M2 2l24 24m0-24L2 26" stroke="#000" stroke-width="3"/></svg><svg fill="none" viewBox="0 0 14 25" id="icon-facebook" xmlns="http://www.w3.org/2000/svg"><path d="M10.819 4.087h2.22V.22C12.654.168 11.338.05 9.804.05c-3.2 0-5.392 2.013-5.392 5.712v3.405H.88v4.322h3.532v10.874h4.33V13.49h3.387l.538-4.322H8.741V6.191c.001-1.25.337-2.104 2.078-2.104z" fill="#4A50E4"/></svg><svg fill="none" viewBox="0 0 27 25" id="icon-instagram" xmlns="http://www.w3.org/2000/svg"><path d="M13.496 5.969c-3.584 0-6.477 2.786-6.477 6.237 0 3.452 2.893 6.238 6.477 6.238 3.585 0 6.478-2.786 6.478-6.238 0-3.451-2.893-6.237-6.478-6.237zm0 10.291c-2.318 0-4.21-1.821-4.21-4.054 0-2.232 1.892-4.054 4.21-4.054 2.319 0 4.21 1.822 4.21 4.054 0 2.233-1.891 4.054-4.21 4.054zm6.743-12c-.837 0-1.513.65-1.513 1.456 0 .806.676 1.457 1.513 1.457.837 0 1.513-.648 1.513-1.457 0-.191-.039-.38-.115-.557a1.452 1.452 0 00-.328-.473 1.516 1.516 0 00-.49-.316 1.562 1.562 0 00-.58-.11zm5.884 7.946c0-1.678.015-3.342-.082-5.018-.098-1.946-.56-3.674-2.037-5.097C22.522.665 20.732.224 18.71.13 16.968.035 15.24.05 13.5.05c-1.744 0-3.471-.015-5.211.08C6.267.224 4.474.668 2.996 2.09 1.514 3.517 1.056 5.241.959 7.188.86 8.867.876 10.531.876 12.206c0 1.676-.015 3.343.083 5.018.097 1.947.559 3.674 2.037 5.098 1.48 1.426 3.271 1.867 5.293 1.961 1.743.094 3.47.08 5.21.08 1.744 0 3.471.014 5.211-.08 2.022-.094 3.816-.538 5.294-1.962 1.48-1.426 1.939-3.15 2.037-5.097.1-1.675.082-3.339.082-5.018zm-2.78 7.172c-.23.553-.508.967-.953 1.392a4.057 4.057 0 01-1.447.919c-1.66.636-5.605.493-7.447.493-1.84 0-5.788.143-7.45-.49a4.03 4.03 0 01-1.446-.919 3.882 3.882 0 01-.954-1.392c-.657-1.603-.508-5.402-.508-7.175 0-1.773-.149-5.574.508-7.174.23-.553.509-.967.954-1.393a4.099 4.099 0 011.446-.918c1.662-.633 5.61-.49 7.45-.49 1.842 0 5.79-.143 7.45.49.575.222 1.005.49 1.447.918.445.429.723.84.954 1.393.657 1.6.508 5.401.508 7.174 0 1.773.149 5.572-.511 7.172z" fill="#DD0C96"/></svg><svg fill="none" viewBox="0 0 33 29" id="icon-like" xmlns="http://www.w3.org/2000/svg"><path d="M29.029 4.083a7.885 7.885 0 00-11.155 0l-1.52 1.52-1.52-1.52A7.887 7.887 0 103.68 15.238l1.52 1.52 11.154 11.154L27.51 16.758l1.52-1.52a7.885 7.885 0 000-11.155v0z" stroke="#FC5600" stroke-width="2" stroke-linecap="round" stroke-linejoin="round"/></svg><svg fill="none" viewBox="0 0 49 27" id="icon-menu" xmlns="http://www.w3.org/2000/svg"><path d="M18.056 18.303L25 25.735M20.325 11.353c0 4.997-4.175 9.118-9.412 9.118-5.238 0-9.413-4.12-9.413-9.118 0-4.997 4.175-9.117 9.413-9.117 5.237 0 9.412 4.12 9.412 9.117z" stroke="currentColor" stroke-width="3"/><path opacity=".5" fill-rule="evenodd" clip-rule="evenodd" d="M49 5.736H27l-2-3h24v3zm0 9H28l1-3h20v3zm0 9H34l-3-3h18v3z" fill="currentColor"/></svg><svg fill="none" viewBox="0 0 45 46" id="icon-search" xmlns="http://www.w3.org/2000/svg"><path fill-rule="evenodd" clip-rule="evenodd" d="M41.22 45.067L29.245 32.215l3.78-3.542L45 41.526l-3.78 3.542z" fill="#000"/><path fill-rule="evenodd" clip-rule="evenodd" d="M18.818 31.6c7.67 0 13.644-6.031 13.644-13.173S26.488 5.255 18.819 5.255 5.173 11.285 5.173 18.427s5.975 13.172 13.645 13.172zm0 5.187c10.393 0 18.818-8.22 18.818-18.36 0-10.14-8.425-18.36-18.818-18.36S0 8.287 0 18.427c0 10.14 8.425 18.36 18.818 18.36z" fill="#000"/></svg><svg fill="none" viewBox="0 0 29 17" id="icon-vk" xmlns="http://www.w3.org/2000/svg"><path d="M23.76 9.906c-.453-.556-.323-.804 0-1.301.007-.006 3.75-5.032 4.137-6.736l.002-.001c.192-.621 0-1.078-.927-1.078h-3.067c-.781 0-1.141.392-1.334.83 0 0-1.562 3.631-3.771 5.985-.713.68-1.043.899-1.432.899-.192 0-.49-.218-.49-.84V1.868c0-.745-.219-1.078-.865-1.078H11.19c-.49 0-.781.348-.781.671 0 .706 1.105.869 1.22 2.856v4.312c0 .944-.177 1.118-.569 1.118-1.043 0-3.573-3.646-5.073-7.82C5.684 1.119 5.388.792 4.602.792H1.533c-.876 0-1.052.392-1.052.83 0 .775 1.043 4.625 4.849 9.712 2.536 3.473 6.109 5.354 9.358 5.354 1.954 0 2.192-.418 2.192-1.136 0-3.318-.176-3.632.802-3.632.454 0 1.235.218 3.058 1.893 2.084 1.986 2.427 2.875 3.594 2.875H27.4c.874 0 1.317-.418 1.063-1.242-.584-1.734-4.525-5.3-4.703-5.539z" fill="#2779C6"/></svg></svg>